<?xml version="1.0" encoding="UTF-8" ?>
<!DOCTYPE svg PUBLIC "-//W3C//DTD SVG 1.1//EN" "http://www.w3.org/Graphics/SVG/1.1/DTD/svg11.dtd">
<svg width="1024pt" height="1024pt" viewBox="0 0 1024 1024" version="1.1" xmlns="http://www.w3.org/2000/svg">
<g id="#eff1f7ff">
<path fill="#eff1f7" opacity="1.00" d=" M 363.90 133.72 C 382.10 124.90 402.98 122.83 422.87 125.49 C 456.31 129.71 487.31 144.35 515.94 161.50 C 508.27 167.01 503.60 175.82 502.03 185.01 C 491.35 181.60 479.58 181.42 468.95 185.08 C 462.39 187.36 456.18 191.47 452.68 197.61 C 446.71 207.90 446.10 220.76 450.11 231.86 C 450.19 232.51 450.35 233.82 450.43 234.47 C 446.19 234.47 441.91 234.63 437.82 235.82 C 417.14 240.29 403.99 263.73 409.21 283.85 C 410.34 287.89 412.79 291.35 415.35 294.61 C 414.03 294.67 412.71 294.75 411.40 294.84 C 411.60 310.88 411.37 326.92 411.53 342.95 C 411.51 345.21 411.52 347.56 410.56 349.66 C 397.64 377.05 385.48 404.85 375.44 433.43 C 372.46 442.41 369.24 451.37 367.58 460.70 C 367.10 460.61 366.14 460.42 365.66 460.33 C 366.17 462.31 367.24 464.09 369.31 464.72 C 379.34 468.86 390.22 470.83 401.05 471.05 C 403.61 471.11 406.15 471.49 408.66 471.99 C 413.38 496.50 418.80 520.88 425.10 545.04 C 426.76 550.67 427.89 556.46 430.00 561.95 C 418.98 562.31 407.96 561.86 396.94 562.20 C 398.50 571.95 401.38 581.42 403.20 591.12 C 395.12 592.80 386.90 593.57 378.71 594.42 C 348.31 595.92 318.45 587.73 290.50 576.46 C 287.93 570.91 288.86 564.45 289.55 558.57 C 294.16 558.61 298.57 560.27 303.15 560.70 C 321.49 562.64 340.48 557.28 355.17 546.13 C 361.73 541.45 367.29 535.50 372.42 529.32 C 374.90 526.01 378.51 522.73 377.84 518.19 C 384.34 513.48 392.18 510.58 397.78 504.68 C 400.25 500.76 397.85 495.86 395.62 492.39 C 393.49 489.50 390.58 485.20 386.41 486.50 C 381.16 488.85 378.64 494.37 375.58 498.88 C 373.80 495.90 373.90 492.35 372.85 489.15 C 371.90 486.86 369.21 486.81 367.12 486.60 C 368.72 493.10 368.57 499.79 368.28 506.42 C 363.59 506.79 360.16 510.49 355.83 511.94 C 342.41 517.25 328.63 525.38 313.65 522.54 C 305.00 521.43 297.95 516.06 290.94 511.34 C 290.40 511.50 289.32 511.82 288.77 511.98 C 288.08 510.82 287.29 509.70 286.27 508.81 C 280.28 503.59 273.30 499.58 265.87 496.79 C 264.86 496.41 263.83 496.05 262.81 495.72 C 262.01 495.56 261.21 495.43 260.41 495.35 C 259.94 495.55 259.02 495.94 258.55 496.14 C 258.12 496.21 257.24 496.34 256.80 496.40 C 256.00 496.37 254.39 496.30 253.58 496.27 C 253.51 494.71 253.44 493.15 253.37 491.60 C 258.60 491.45 264.68 492.67 269.12 489.18 C 269.68 486.60 269.90 483.96 270.22 481.35 L 270.30 480.62 C 270.26 480.41 270.17 480.01 270.13 479.80 C 269.65 477.82 269.42 475.80 269.26 473.78 C 271.33 472.59 274.99 472.12 274.97 469.08 C 271.37 461.72 264.53 456.08 262.31 447.97 C 266.51 446.85 270.99 445.35 273.90 441.94 C 274.81 440.60 276.07 438.59 274.89 437.07 C 273.72 435.15 271.17 435.73 269.29 435.48 C 271.67 432.58 274.27 428.97 273.13 425.01 C 272.37 422.78 270.83 419.72 267.98 420.26 C 265.34 420.82 263.17 422.54 260.87 423.84 C 253.19 428.65 243.94 430.42 234.97 430.25 C 230.04 430.18 224.73 431.54 221.34 435.34 C 219.59 437.21 218.97 439.76 218.13 442.11 C 213.02 444.87 208.58 449.84 208.79 455.99 C 209.39 463.70 213.37 470.83 218.41 476.56 C 220.03 478.54 222.02 480.47 222.49 483.10 C 223.16 484.89 222.88 487.55 225.04 488.35 C 226.58 488.87 228.19 489.09 229.79 489.39 C 229.71 492.33 230.13 497.31 225.94 497.41 C 221.97 495.78 217.93 496.94 214.41 499.03 C 213.52 499.51 212.64 500.02 211.78 500.56 C 203.76 504.88 196.64 510.60 190.12 516.94 C 179.13 505.25 170.62 490.42 169.62 474.13 C 168.48 459.62 173.31 445.21 181.16 433.15 C 190.59 418.58 203.57 406.66 217.42 396.37 C 225.84 389.98 234.87 384.44 243.19 377.94 C 279.46 378.26 315.75 378.00 352.02 378.11 C 357.23 378.22 362.94 376.25 365.55 371.44 C 369.11 366.34 367.99 359.87 368.06 354.04 C 368.08 314.01 368.04 273.97 368.08 233.93 C 367.48 229.51 365.15 225.40 365.64 220.79 C 365.07 214.42 367.21 207.24 363.48 201.55 C 360.99 197.77 356.49 195.72 352.02 195.85 C 338.45 195.81 324.88 195.86 311.31 195.84 C 318.63 168.73 338.60 145.68 363.90 133.72 Z" />
<path fill="#eff1f7" opacity="1.00" d=" M 730.99 227.35 C 762.83 220.73 796.87 220.72 827.50 232.62 C 852.19 242.06 873.48 259.59 888.27 281.42 C 886.19 282.25 884.18 283.20 882.16 284.13 C 880.39 282.41 878.60 280.70 876.81 279.00 C 877.67 276.34 878.53 273.69 879.39 271.03 C 876.10 269.76 872.80 268.49 869.52 267.23 C 868.35 269.81 867.39 272.50 865.92 274.94 C 863.55 275.31 861.15 275.28 858.77 275.37 C 857.54 272.85 856.29 270.33 855.04 267.82 C 851.90 269.14 848.63 270.24 845.75 272.09 C 845.54 274.83 847.53 277.34 848.44 279.90 C 846.67 281.75 844.90 283.59 843.12 285.42 C 840.60 284.70 837.93 282.65 835.35 283.25 C 833.50 286.18 832.80 289.65 831.82 292.94 C 834.32 293.91 836.82 294.90 839.32 295.89 C 839.40 298.36 839.50 300.83 839.61 303.30 C 837.15 304.53 834.68 305.75 832.20 306.95 C 833.37 310.41 834.87 313.76 836.69 316.93 C 839.16 315.82 841.63 314.71 844.11 313.62 C 845.98 315.33 847.86 317.06 849.73 318.79 C 848.76 321.40 847.84 324.03 846.99 326.68 C 850.33 328.03 853.72 329.31 857.14 330.49 C 858.17 327.92 859.16 325.32 860.11 322.72 C 862.70 322.66 865.29 322.62 867.90 322.59 C 868.98 325.06 870.10 327.51 871.25 329.95 C 874.58 328.64 877.86 327.21 881.10 325.69 C 880.15 323.14 878.97 320.68 878.24 318.07 C 879.48 315.85 881.44 314.17 883.17 312.34 C 885.75 313.30 888.36 314.22 890.98 315.10 C 892.41 311.76 893.66 308.36 894.74 304.89 C 892.21 303.90 889.68 302.91 887.14 301.95 C 886.95 299.61 886.69 297.27 886.83 294.93 C 888.90 292.93 891.77 292.04 894.24 290.62 L 894.30 290.59 C 911.78 321.14 921.33 356.28 921.12 391.50 C 849.82 391.56 778.52 391.42 707.21 391.57 L 707.40 391.09 L 707.61 390.60 C 708.40 390.59 709.98 390.57 710.78 390.56 C 716.98 362.86 719.26 334.36 719.16 306.01 C 719.24 301.55 719.22 297.08 718.76 292.63 C 717.78 293.10 717.18 293.84 716.98 294.87 C 716.23 303.03 717.86 311.38 715.96 319.44 C 715.69 311.16 716.33 302.90 716.13 294.63 C 714.75 294.62 713.37 294.61 712.00 294.62 C 715.43 290.32 718.53 285.48 719.27 279.92 C 720.40 273.13 717.12 266.35 712.42 261.61 C 707.41 256.69 700.28 254.72 693.41 254.60 C 697.38 248.83 697.08 241.44 695.85 234.86 C 707.88 234.02 719.20 229.51 730.99 227.35 M 781.96 284.99 C 781.71 288.96 781.71 292.95 781.81 296.94 C 778.47 298.10 775.29 299.68 771.97 300.87 C 768.33 299.30 766.55 294.91 762.98 293.27 C 759.75 295.02 757.60 298.41 754.78 300.78 C 753.96 301.91 751.84 302.87 752.53 304.53 C 754.93 307.44 757.99 309.75 760.26 312.79 C 758.60 315.90 757.32 319.18 756.30 322.55 C 752.23 322.65 748.16 322.54 744.11 322.89 C 743.74 328.11 743.61 333.38 744.18 338.60 C 748.16 338.60 752.14 338.61 756.13 338.62 C 757.17 342.13 759.27 345.33 759.91 348.94 C 757.58 351.99 754.54 354.39 752.00 357.25 C 755.38 361.06 758.78 365.16 763.00 367.99 C 766.64 366.33 768.39 362.06 771.92 360.28 C 775.21 361.52 778.35 363.13 781.73 364.18 C 781.75 368.20 781.74 372.23 781.90 376.25 C 787.17 376.45 792.46 376.65 797.73 376.11 C 797.64 372.11 797.58 368.10 797.87 364.11 C 801.33 363.19 804.50 361.49 807.85 360.28 C 810.90 362.47 812.99 365.74 816.06 367.92 C 817.39 368.20 818.20 366.83 819.14 366.15 C 821.97 363.18 825.17 360.54 827.50 357.13 C 824.74 354.33 821.93 351.60 819.21 348.77 C 820.86 345.41 822.14 341.89 823.72 338.50 C 827.59 338.50 831.53 339.03 835.37 338.29 C 835.58 333.20 836.24 327.71 835.06 322.81 C 831.15 322.43 827.22 322.71 823.32 322.62 C 822.42 319.05 820.46 315.85 819.44 312.36 C 821.99 309.43 824.99 306.92 827.52 303.96 C 824.36 299.98 820.64 296.47 816.81 293.16 C 813.12 294.73 811.32 298.88 807.89 300.90 C 804.44 299.88 801.28 298.06 797.82 297.05 C 797.62 293.08 797.64 289.11 797.72 285.14 C 792.48 284.54 787.20 284.68 781.96 284.99 Z" />
<path fill="#eff1f7" opacity="1.00" d=" M 859.43 286.61 C 867.30 283.99 876.46 290.64 875.87 299.02 C 876.21 306.26 869.10 312.47 862.00 311.60 C 855.26 311.21 849.87 304.66 850.45 298.00 C 850.75 292.85 854.50 288.12 859.43 286.61 Z" />
<path fill="#eff1f7" opacity="1.00" d=" M 786.37 312.47 C 791.24 311.63 796.48 312.59 800.47 315.60 C 807.39 320.31 810.29 330.09 806.81 337.75 C 803.87 345.11 795.79 349.86 787.94 348.99 C 778.58 348.28 770.81 339.40 771.40 330.03 C 771.36 321.58 778.15 313.95 786.37 312.47 Z" />
<path fill="#eff1f7" opacity="1.00" d=" M 663.43 494.43 C 668.87 488.34 672.68 481.06 677.88 474.81 C 678.85 493.35 677.72 511.94 678.43 530.49 C 664.27 527.49 650.03 524.83 635.63 523.26 C 637.59 521.68 639.48 520.00 641.26 518.22 C 648.88 510.51 656.97 503.20 663.43 494.43 Z" />
<path fill="#eff1f7" opacity="1.00" d=" M 300.72 774.73 C 310.82 774.05 320.92 773.03 331.07 773.25 C 357.73 772.93 384.04 777.95 410.11 782.96 C 410.16 783.39 410.24 784.26 410.29 784.69 C 407.72 791.49 406.00 798.56 403.86 805.49 C 402.91 808.91 401.55 812.25 401.11 815.79 C 405.27 820.02 411.05 822.17 416.40 824.49 C 435.47 831.72 455.79 834.82 475.97 837.08 C 501.23 839.67 526.64 840.35 552.02 840.22 C 586.67 839.33 621.91 838.25 655.36 828.30 C 663.77 825.59 672.28 822.26 678.83 816.13 C 677.03 809.51 674.99 802.97 673.07 796.39 C 713.23 799.49 752.92 806.76 793.01 810.48 C 793.92 817.61 794.93 824.73 796.12 831.82 C 796.52 834.06 796.85 836.48 798.62 838.13 C 794.54 841.90 790.46 845.74 785.73 848.67 C 780.20 852.05 773.51 852.25 767.64 854.72 C 765.43 855.31 765.81 858.48 767.81 859.08 C 771.63 860.67 775.89 860.48 779.95 860.47 C 789.98 860.07 800.04 860.60 810.06 859.80 C 814.50 859.44 819.19 859.36 823.26 857.31 C 824.28 856.94 824.77 856.21 824.73 855.12 C 825.36 848.86 823.35 842.79 821.73 836.84 C 821.06 828.88 820.90 820.88 820.30 812.92 C 822.79 812.82 825.32 812.91 827.79 812.41 C 849.95 813.08 872.02 810.82 894.04 808.53 C 899.87 817.86 905.62 827.25 911.65 836.45 C 906.89 843.80 901.95 851.88 893.70 855.71 C 890.23 857.66 886.17 858.91 883.48 861.99 C 882.65 864.64 886.08 865.42 888.01 865.29 C 895.82 864.93 903.17 861.86 910.82 860.45 C 918.83 858.52 926.94 856.72 934.60 853.59 C 936.79 852.56 939.36 851.53 940.40 849.16 C 939.89 842.96 936.45 837.61 933.80 832.16 C 930.64 825.20 927.65 818.17 924.77 811.10 C 936.76 814.50 947.23 823.57 951.62 835.32 C 954.22 842.17 953.94 850.14 950.37 856.60 C 945.98 864.92 937.77 870.32 929.51 874.29 C 909.38 883.70 887.07 887.16 865.07 888.42 C 841.04 889.55 817.01 888.48 792.97 888.63 C 729.64 888.21 666.33 889.51 603.05 891.58 C 529.37 894.06 455.72 897.50 381.99 898.74 C 335.99 899.76 289.96 899.70 243.95 899.28 C 225.80 898.02 207.81 895.11 189.86 892.17 C 161.44 887.20 133.03 881.65 105.39 873.25 C 95.97 870.23 86.48 867.11 77.84 862.21 C 74.26 860.02 70.24 857.53 68.93 853.29 C 67.23 845.88 68.78 838.01 72.48 831.45 C 76.89 823.42 84.09 817.17 92.19 813.03 C 103.69 807.11 116.48 804.56 128.96 801.57 C 142.66 798.55 156.33 795.27 170.18 793.03 C 165.95 803.94 161.47 814.76 156.61 825.40 C 154.22 830.81 150.50 835.95 150.15 842.03 C 150.08 844.75 153.26 845.68 155.20 846.82 C 165.39 851.04 176.33 852.96 186.97 855.70 C 192.28 856.94 197.54 858.93 203.08 858.67 C 204.50 858.52 206.54 858.56 206.77 856.71 C 207.50 855.52 205.93 854.57 205.21 853.88 C 199.97 850.35 193.58 848.53 189.09 843.91 C 185.09 839.69 181.88 834.80 178.56 830.05 C 189.54 815.58 200.04 800.74 210.29 785.74 C 230.22 782.54 250.25 780.00 270.30 777.64 C 270.40 795.20 269.94 812.78 268.55 830.28 C 267.12 836.42 264.78 842.65 265.62 849.05 C 266.68 851.60 270.04 851.83 272.41 852.46 C 285.53 854.35 298.83 853.41 312.03 853.85 C 315.91 853.69 320.43 854.26 323.67 851.68 C 325.39 850.37 323.67 848.33 322.16 847.91 C 316.29 845.56 309.58 845.44 304.18 841.89 C 299.59 838.88 295.55 835.12 291.47 831.48 C 291.92 831.17 292.81 830.55 293.26 830.24 C 296.78 811.89 298.67 793.28 300.72 774.73 Z" />
</g>
<g id="#fa3e6aff">
<path fill="#fa3e6a" opacity="1.00" d=" M 515.94 161.50 C 523.54 156.15 532.97 154.24 542.09 153.66 C 553.26 153.27 565.02 155.14 574.41 161.55 C 582.03 166.79 586.16 175.55 589.00 184.07 C 592.20 176.43 598.65 169.88 606.92 168.07 C 618.98 165.54 632.47 168.84 641.35 177.58 C 647.20 183.34 650.14 191.30 651.34 199.29 C 642.96 199.53 634.44 202.46 628.11 208.04 C 624.02 211.60 621.63 216.61 620.31 221.78 C 612.02 220.02 602.18 220.34 595.99 226.92 C 589.91 232.55 588.76 241.87 591.74 249.35 C 592.10 251.04 593.94 251.20 595.33 251.56 C 594.42 246.92 592.62 242.23 593.58 237.44 C 595.07 230.89 600.68 225.54 607.30 224.34 C 612.53 223.08 617.78 224.86 622.96 225.58 C 623.56 219.80 625.88 214.07 630.41 210.26 C 636.42 204.76 644.64 203.09 652.41 201.77 C 652.48 201.43 652.61 200.74 652.68 200.40 C 663.18 200.43 674.38 202.53 682.54 209.59 C 689.70 216.17 693.84 225.48 695.85 234.86 C 697.08 241.44 697.38 248.83 693.41 254.60 C 700.28 254.72 707.41 256.69 712.42 261.61 C 717.12 266.35 720.40 273.13 719.27 279.92 C 718.53 285.48 715.43 290.32 712.00 294.62 C 672.38 294.74 632.75 294.48 593.13 294.74 C 593.80 290.97 594.45 287.01 596.99 283.98 C 601.93 277.54 611.26 275.83 618.71 278.23 C 623.24 279.53 626.38 283.29 630.64 285.14 C 630.80 279.46 630.53 273.11 634.46 268.51 C 638.12 263.88 644.17 262.66 649.63 261.55 C 649.67 260.93 649.74 259.69 649.78 259.07 C 642.80 258.86 635.47 261.60 631.33 267.41 C 628.75 270.72 628.12 274.98 627.47 279.01 C 623.04 276.49 618.30 273.97 613.06 274.13 C 605.53 273.69 597.51 276.89 593.54 283.55 C 591.36 286.87 590.67 290.85 589.90 294.68 C 531.72 294.56 473.53 294.70 415.35 294.61 C 412.79 291.35 410.34 287.89 409.21 283.85 C 403.99 263.73 417.14 240.29 437.82 235.82 C 441.20 235.48 444.62 234.99 448.03 235.35 C 457.69 238.69 468.42 241.46 475.25 249.69 C 476.90 251.29 477.85 253.99 480.02 254.83 C 485.07 252.12 489.92 248.31 496.00 248.48 C 506.31 248.60 517.90 255.12 519.62 266.05 C 523.21 265.64 521.84 261.44 520.80 259.23 C 516.51 251.35 507.74 246.63 499.06 245.46 C 492.34 244.54 485.92 247.31 480.37 250.81 C 473.52 241.27 462.46 235.91 451.20 233.59 C 450.93 233.15 450.38 232.29 450.11 231.86 C 446.10 220.76 446.71 207.90 452.68 197.61 C 456.18 191.47 462.39 187.36 468.95 185.08 C 479.58 181.42 491.35 181.60 502.03 185.01 C 503.60 175.82 508.27 167.01 515.94 161.50 Z" />
<path fill="#fa3e6a" opacity="1.00" d=" M 274.74 243.52 C 291.62 243.40 308.09 252.84 316.53 267.45 C 321.03 274.75 322.87 283.29 323.38 291.77 C 307.17 291.86 290.97 291.75 274.76 291.82 C 274.71 275.72 274.75 259.62 274.74 243.52 Z" />
</g>
<g id="#0055feff">
<path fill="#0055fe" opacity="1.00" d=" M 184.63 207.00 C 185.25 200.90 190.87 195.89 196.99 195.86 C 235.09 195.81 273.20 195.86 311.31 195.84 C 324.88 195.86 338.45 195.81 352.02 195.85 C 356.49 195.72 360.99 197.77 363.48 201.55 C 367.21 207.24 365.07 214.42 365.64 220.79 C 305.28 220.77 244.91 220.81 184.55 220.77 C 184.55 216.18 184.34 211.58 184.63 207.00 M 199.29 204.44 C 196.09 205.69 195.93 210.71 199.07 212.14 C 202.21 214.01 206.51 210.45 205.13 207.04 C 204.43 204.54 201.58 203.60 199.29 204.44 M 218.41 204.54 C 215.59 205.90 215.35 210.52 218.16 212.00 C 220.87 213.86 225.22 211.44 224.63 208.04 C 224.69 204.96 220.98 203.28 218.41 204.54 M 237.51 204.64 C 234.96 206.10 234.76 210.18 237.25 211.81 C 239.94 214.06 244.65 211.47 243.87 207.90 C 243.90 204.75 240.04 203.25 237.51 204.64 Z" />
<path fill="#0055fe" opacity="1.00" d=" M 245.00 253.83 C 253.40 247.19 264.05 243.62 274.74 243.52 C 274.75 259.62 274.71 275.72 274.76 291.82 C 265.43 301.44 255.80 310.77 246.41 320.33 C 244.44 322.36 242.33 324.23 240.17 326.05 C 232.33 317.57 227.02 306.59 226.48 294.96 C 225.36 279.30 232.54 263.37 245.00 253.83 Z" />
<path fill="#0055fe" opacity="1.00" d=" M 436.06 394.12 C 430.33 381.15 427.49 366.73 428.55 352.56 C 442.35 357.67 456.29 362.41 469.98 367.79 C 458.15 375.87 446.85 384.70 436.06 394.12 Z" />
<path fill="#0055fe" opacity="1.00" d=" M 682.10 399.12 C 684.08 395.49 687.75 393.27 691.45 391.73 C 696.70 391.66 701.96 391.53 707.21 391.57 C 778.52 391.42 849.82 391.56 921.12 391.50 C 927.75 391.54 934.37 391.49 941.00 391.51 C 947.54 391.42 953.55 396.34 955.29 402.56 C 956.20 408.58 955.49 414.74 955.69 420.82 C 937.81 421.55 919.91 420.96 902.02 421.16 C 828.07 421.15 754.12 421.18 680.18 421.14 C 680.19 419.36 680.20 417.58 680.20 415.80 C 680.18 414.62 680.16 413.44 680.16 412.26 C 680.21 407.85 679.65 403.05 682.10 399.12 M 697.43 401.64 C 693.80 403.27 693.61 408.99 697.21 410.74 C 700.40 412.70 705.16 409.80 704.64 406.01 C 704.67 402.45 700.55 400.21 697.43 401.64 M 720.43 401.67 C 716.74 403.22 716.52 409.09 720.23 410.74 C 723.45 412.73 728.11 409.76 727.61 405.98 C 727.57 402.51 723.51 400.15 720.43 401.67 M 743.40 401.66 C 739.72 403.22 739.48 409.11 743.20 410.74 C 746.43 412.72 751.12 409.75 750.60 405.96 C 750.54 402.50 746.48 400.17 743.40 401.66 Z" />
<path fill="#0055fe" opacity="1.00" d=" M 256.80 496.40 C 257.24 496.34 258.12 496.21 258.55 496.14 C 260.45 501.64 261.14 507.44 262.21 513.14 C 264.99 530.86 266.72 549.09 263.37 566.86 C 259.44 587.63 254.56 608.27 252.53 629.35 C 250.04 629.38 247.55 629.40 245.06 629.42 C 249.52 612.61 248.78 594.80 244.85 577.97 C 241.81 563.99 236.60 550.65 231.76 537.23 C 227.52 524.69 224.58 511.69 223.39 498.49 C 224.16 498.24 225.70 497.74 226.47 497.49 C 226.86 497.47 227.64 497.43 228.04 497.41 C 228.06 503.53 228.59 510.29 232.86 515.08 C 236.29 519.13 242.15 520.02 247.10 518.84 C 251.83 517.95 257.07 515.73 258.87 510.88 C 260.71 506.01 258.72 500.91 256.80 496.40 Z" />
<path fill="#0055fe" opacity="1.00" d=" M 410.29 784.69 C 412.67 774.40 416.18 764.41 418.91 754.21 C 421.23 756.04 423.70 757.77 426.56 758.68 C 435.49 761.69 444.86 763.09 454.16 764.40 C 475.65 767.16 497.31 768.39 518.97 768.77 C 543.99 769.64 569.04 768.83 594.03 767.41 C 609.76 766.32 625.51 764.89 641.00 761.86 C 647.88 760.36 655.17 758.97 660.73 754.31 C 664.75 768.36 668.97 782.36 673.07 796.39 C 674.99 802.97 677.03 809.51 678.83 816.13 C 672.28 822.26 663.77 825.59 655.36 828.30 C 621.91 838.25 586.67 839.33 552.02 840.22 C 526.64 840.35 501.23 839.67 475.97 837.08 C 455.79 834.82 435.47 831.72 416.40 824.49 C 411.05 822.17 405.27 820.02 401.11 815.79 C 401.55 812.25 402.91 808.91 403.86 805.49 C 406.00 798.56 407.72 791.49 410.29 784.69 M 643.12 792.29 C 644.01 799.86 645.74 807.29 646.83 814.83 C 650.16 814.02 653.44 813.06 656.74 812.13 C 655.37 804.70 653.74 797.31 652.23 789.91 C 649.17 790.61 646.14 791.44 643.12 792.29 M 625.87 795.28 C 625.79 803.31 625.85 811.34 625.83 819.38 C 629.87 818.80 633.93 818.33 637.97 817.67 C 637.50 809.80 636.74 801.94 635.68 794.13 C 632.40 794.44 629.12 794.78 625.87 795.28 M 428.36 797.46 C 422.51 800.02 422.23 809.22 427.92 812.13 C 433.08 815.51 440.70 811.10 440.39 804.96 C 440.70 798.97 433.61 794.62 428.36 797.46 M 461.55 802.71 C 455.53 804.74 454.38 813.80 459.71 817.26 C 464.62 821.09 472.91 817.34 472.79 810.97 C 473.52 805.10 466.92 800.48 461.55 802.71 Z" />
</g>
<g id="#f9a3c0ff">
<path fill="#f9a3c0" opacity="1.00" d=" M 628.11 208.04 C 634.44 202.46 642.96 199.53 651.34 199.29 C 651.72 199.29 652.48 199.29 652.86 199.29 L 652.68 200.40 C 652.61 200.74 652.48 201.43 652.41 201.77 C 644.64 203.09 636.42 204.76 630.41 210.26 C 625.88 214.07 623.56 219.80 622.96 225.58 C 617.78 224.86 612.53 223.08 607.30 224.34 C 600.68 225.54 595.07 230.89 593.58 237.44 C 592.62 242.23 594.42 246.92 595.33 251.56 C 593.94 251.20 592.10 251.04 591.74 249.35 C 588.76 241.87 589.91 232.55 595.99 226.92 C 602.18 220.34 612.02 220.02 620.31 221.78 C 621.63 216.61 624.02 211.60 628.11 208.04 Z" />
<path fill="#f9a3c0" opacity="1.00" d=" M 450.11 231.86 C 450.38 232.29 450.93 233.15 451.20 233.59 C 462.46 235.91 473.52 241.27 480.37 250.81 C 485.92 247.31 492.34 244.54 499.06 245.46 C 507.74 246.63 516.51 251.35 520.80 259.23 C 521.84 261.44 523.21 265.64 519.62 266.05 C 517.90 255.12 506.31 248.60 496.00 248.48 C 489.92 248.31 485.07 252.12 480.02 254.83 C 477.85 253.99 476.90 251.29 475.25 249.69 C 468.42 241.46 457.69 238.69 448.03 235.35 C 444.62 234.99 441.20 235.48 437.82 235.82 C 441.91 234.63 446.19 234.47 450.43 234.47 C 450.35 233.82 450.19 232.51 450.11 231.86 Z" />
<path fill="#f9a3c0" opacity="1.00" d=" M 631.33 267.41 C 635.47 261.60 642.80 258.86 649.78 259.07 C 649.74 259.69 649.67 260.93 649.63 261.55 C 644.17 262.66 638.12 263.88 634.46 268.51 C 630.53 273.11 630.80 279.46 630.64 285.14 C 626.38 283.29 623.24 279.53 618.71 278.23 C 611.26 275.83 601.93 277.54 596.99 283.98 C 594.45 287.01 593.80 290.97 593.13 294.74 C 592.83 295.15 592.24 295.97 591.94 296.38 C 591.43 295.96 590.41 295.10 589.90 294.68 C 590.67 290.85 591.36 286.87 593.54 283.55 C 597.51 276.89 605.53 273.69 613.06 274.13 C 618.30 273.97 623.04 276.49 627.47 279.01 C 628.12 274.98 628.75 270.72 631.33 267.41 Z" />
<path fill="#f9a3c0" opacity="1.00" d=" M 781.96 284.99 C 787.20 284.68 792.48 284.54 797.72 285.14 C 797.64 289.11 797.62 293.08 797.82 297.05 C 801.28 298.06 804.44 299.88 807.89 300.90 C 811.32 298.88 813.12 294.73 816.81 293.16 C 820.64 296.47 824.36 299.98 827.52 303.96 C 824.99 306.92 821.99 309.43 819.44 312.36 C 820.46 315.85 822.42 319.05 823.32 322.62 C 827.22 322.71 831.15 322.43 835.06 322.81 C 836.24 327.71 835.58 333.20 835.37 338.29 C 831.53 339.03 827.59 338.50 823.72 338.50 C 822.14 341.89 820.86 345.41 819.21 348.77 C 821.93 351.60 824.74 354.33 827.50 357.13 C 825.17 360.54 821.97 363.18 819.14 366.15 C 818.20 366.83 817.39 368.20 816.06 367.92 C 812.99 365.74 810.90 362.47 807.85 360.28 C 804.50 361.49 801.33 363.19 797.87 364.11 C 797.58 368.10 797.64 372.11 797.73 376.11 C 792.46 376.65 787.17 376.45 781.90 376.25 C 781.74 372.23 781.75 368.20 781.73 364.18 C 778.35 363.13 775.21 361.52 771.92 360.28 C 768.39 362.06 766.64 366.33 763.00 367.99 C 758.78 365.16 755.38 361.06 752.00 357.25 C 754.54 354.39 757.58 351.99 759.91 348.94 C 759.27 345.33 757.17 342.13 756.13 338.62 C 752.14 338.61 748.16 338.60 744.18 338.60 C 743.61 333.38 743.74 328.11 744.11 322.89 C 748.16 322.54 752.23 322.65 756.30 322.55 C 757.32 319.18 758.60 315.90 760.26 312.79 C 757.99 309.75 754.93 307.44 752.53 304.53 C 751.84 302.87 753.96 301.91 754.78 300.78 C 757.60 298.41 759.75 295.02 762.98 293.27 C 766.55 294.91 768.33 299.30 771.97 300.87 C 775.29 299.68 778.47 298.10 781.81 296.94 C 781.71 292.95 781.71 288.96 781.96 284.99 M 786.37 312.47 C 778.15 313.95 771.36 321.58 771.40 330.03 C 770.81 339.40 778.58 348.28 787.94 348.99 C 795.79 349.86 803.87 345.11 806.81 337.75 C 810.29 330.09 807.39 320.31 800.47 315.60 C 796.48 312.59 791.24 311.63 786.37 312.47 Z" />
</g>
<g id="#87a0f9ff">
<path fill="#87a0f9" opacity="1.00" d=" M 199.29 204.44 C 201.58 203.60 204.43 204.54 205.13 207.04 C 206.51 210.45 202.21 214.01 199.07 212.14 C 195.93 210.71 196.09 205.69 199.29 204.44 Z" />
<path fill="#87a0f9" opacity="1.00" d=" M 845.75 272.09 C 848.63 270.24 851.90 269.14 855.04 267.82 C 856.29 270.33 857.54 272.85 858.77 275.37 C 861.15 275.28 863.55 275.31 865.92 274.94 C 867.39 272.50 868.35 269.81 869.52 267.23 C 872.80 268.49 876.10 269.76 879.39 271.03 C 878.53 273.69 877.67 276.34 876.81 279.00 C 878.60 280.70 880.39 282.41 882.16 284.13 C 884.18 283.20 886.19 282.25 888.27 281.42 C 888.70 281.36 889.57 281.25 890.01 281.20 C 891.65 284.22 892.91 287.45 894.24 290.62 C 891.77 292.04 888.90 292.93 886.83 294.93 C 886.69 297.27 886.95 299.61 887.14 301.95 C 889.68 302.91 892.21 303.90 894.74 304.89 C 893.66 308.36 892.41 311.76 890.98 315.10 C 888.36 314.22 885.75 313.30 883.17 312.34 C 881.44 314.17 879.48 315.85 878.24 318.07 C 878.97 320.68 880.15 323.14 881.10 325.69 C 877.86 327.21 874.58 328.64 871.25 329.95 C 870.10 327.51 868.98 325.06 867.90 322.59 C 865.29 322.62 862.70 322.66 860.11 322.72 C 859.16 325.32 858.17 327.92 857.14 330.49 C 853.72 329.31 850.33 328.03 846.99 326.68 C 847.84 324.03 848.76 321.40 849.73 318.79 C 847.86 317.06 845.98 315.33 844.11 313.62 C 841.63 314.71 839.16 315.82 836.69 316.93 C 834.87 313.76 833.37 310.41 832.20 306.95 C 834.68 305.75 837.15 304.53 839.61 303.30 C 839.50 300.83 839.40 298.36 839.32 295.89 C 836.82 294.90 834.32 293.91 831.82 292.94 C 832.80 289.65 833.50 286.18 835.35 283.25 C 837.93 282.65 840.60 284.70 843.12 285.42 C 844.90 283.59 846.67 281.75 848.44 279.90 C 847.53 277.34 845.54 274.83 845.75 272.09 M 859.43 286.61 C 854.50 288.12 850.75 292.85 850.45 298.00 C 849.87 304.66 855.26 311.21 862.00 311.60 C 869.10 312.47 876.21 306.26 875.87 299.02 C 876.46 290.64 867.30 283.99 859.43 286.61 Z" />
<path fill="#87a0f9" opacity="1.00" d=" M 246.41 320.33 C 255.80 310.77 265.43 301.44 274.76 291.82 C 290.97 291.75 307.17 291.86 323.38 291.77 C 323.32 304.51 318.27 317.21 309.15 326.17 C 300.04 335.47 287.03 340.79 274.00 340.43 C 261.36 340.46 249.07 334.93 240.17 326.05 C 242.33 324.23 244.44 322.36 246.41 320.33 Z" />
<path fill="#87a0f9" opacity="1.00" d=" M 411.40 294.84 C 412.71 294.75 414.03 294.67 415.35 294.61 C 473.53 294.70 531.72 294.56 589.90 294.68 C 590.41 295.10 591.43 295.96 591.94 296.38 C 592.24 295.97 592.83 295.15 593.13 294.74 C 632.75 294.48 672.38 294.74 712.00 294.62 C 713.37 294.61 714.75 294.62 716.13 294.63 C 716.33 302.90 715.69 311.16 715.96 319.44 C 715.48 328.63 715.14 337.83 714.29 347.01 C 714.19 346.47 713.97 345.39 713.87 344.86 C 697.61 344.28 681.32 344.77 665.05 344.62 C 627.70 344.63 590.34 344.58 552.99 344.65 C 550.83 344.98 549.40 343.25 548.03 341.91 C 543.28 337.07 538.30 332.44 533.89 327.28 C 534.73 324.91 535.76 322.55 535.89 320.01 C 536.41 313.45 530.61 307.19 524.05 307.12 C 517.84 306.71 511.56 311.61 511.13 317.96 C 510.03 324.62 515.22 331.38 521.96 331.92 C 525.32 332.61 528.41 330.31 531.66 330.34 C 537.47 335.17 542.42 340.98 547.86 346.23 C 548.69 347.06 549.73 347.70 550.96 347.61 C 605.38 347.78 659.82 347.45 714.24 347.76 C 713.41 356.44 711.96 365.04 711.15 373.72 C 694.79 373.00 678.39 373.63 662.02 373.41 C 620.00 373.43 577.99 373.37 535.97 373.44 C 531.99 373.95 529.65 370.25 527.11 367.87 C 523.62 364.02 519.48 360.77 516.27 356.68 C 516.76 352.68 519.03 348.64 517.35 344.57 C 515.03 336.65 504.08 333.33 497.83 338.79 C 491.50 343.32 491.63 353.57 497.70 358.28 C 502.05 362.18 508.43 361.26 513.29 358.89 C 519.12 364.00 524.28 369.81 529.87 375.17 C 531.14 376.70 533.19 376.66 535.01 376.70 C 586.34 376.59 637.66 376.68 688.99 376.66 C 696.17 376.76 703.36 376.39 710.53 377.00 C 709.13 381.44 708.83 386.12 707.61 390.60 L 707.40 391.09 C 707.27 390.40 707.01 389.00 706.88 388.30 C 655.23 388.40 603.56 388.34 551.90 388.33 C 550.36 388.25 548.84 388.61 547.81 389.82 C 542.13 395.40 536.71 401.24 530.86 406.65 C 526.61 404.82 521.54 403.69 517.35 406.31 C 510.21 409.94 508.86 420.88 514.79 426.22 C 520.07 431.55 530.14 430.57 533.96 423.99 C 537.18 419.46 535.92 413.51 533.36 409.01 C 538.68 403.43 544.24 398.09 549.59 392.54 C 550.63 391.19 552.44 391.44 553.96 391.35 C 582.96 391.45 611.96 391.35 640.96 391.38 C 657.79 391.59 674.64 390.95 691.45 391.73 C 687.75 393.27 684.08 395.49 682.10 399.12 C 679.65 403.05 680.21 407.85 680.16 412.26 C 642.89 412.65 605.61 412.22 568.34 412.48 C 567.62 416.63 567.65 420.84 567.76 425.04 C 567.75 444.26 567.84 463.47 567.72 482.68 C 563.33 484.57 558.41 487.18 557.37 492.31 C 554.80 500.45 562.54 509.51 571.00 508.02 C 578.87 507.32 584.17 498.17 581.03 490.96 C 579.48 486.55 575.11 484.37 571.09 482.71 C 570.61 469.14 571.17 455.56 570.92 441.99 C 570.94 433.27 570.78 424.54 571.07 415.83 C 598.70 415.44 626.34 415.75 653.97 415.65 C 662.71 415.72 671.46 415.46 680.20 415.80 C 680.20 417.58 680.19 419.36 680.18 421.14 C 680.14 423.79 680.01 426.46 680.40 429.09 C 679.92 429.69 678.98 430.88 678.51 431.47 C 678.48 441.97 678.47 452.47 678.53 462.97 C 678.51 464.82 678.46 466.78 677.43 468.41 C 661.58 495.25 639.47 518.04 614.18 536.11 C 594.41 550.25 573.07 562.28 550.63 571.64 C 538.63 576.34 526.54 580.84 514.17 584.49 C 513.21 574.01 514.27 563.50 514.18 553.00 C 514.14 548.43 514.11 543.87 514.25 539.30 C 519.72 537.62 525.11 533.31 524.94 527.08 C 525.76 518.93 517.11 512.03 509.33 514.40 C 501.65 516.07 497.65 525.65 501.57 532.38 C 503.31 536.12 507.24 537.79 510.81 539.28 C 510.88 554.63 511.46 569.98 511.18 585.33 C 493.83 589.61 476.02 593.54 458.04 592.25 C 452.88 591.60 446.86 591.01 443.27 586.78 C 439.59 581.47 437.92 575.10 435.54 569.16 C 424.98 536.19 418.28 502.14 411.04 468.33 C 396.22 468.56 381.33 466.34 367.58 460.70 C 369.24 451.37 372.46 442.41 375.44 433.43 C 385.48 404.85 397.64 377.05 410.56 349.66 C 411.52 347.56 411.51 345.21 411.53 342.95 C 411.37 326.92 411.60 310.88 411.40 294.84 M 602.96 296.01 C 602.20 299.51 602.69 303.14 602.62 306.70 C 599.32 308.05 595.58 309.31 593.69 312.59 C 590.62 317.04 590.93 323.46 594.43 327.59 C 598.69 333.03 607.69 333.46 612.63 328.71 C 617.30 324.59 617.87 316.79 614.00 311.95 C 612.13 309.15 608.87 307.98 605.87 306.86 C 605.44 303.33 605.75 299.77 605.53 296.23 C 605.15 296.06 604.39 295.72 604.01 295.55 L 602.96 296.01 M 436.06 394.12 C 446.85 384.70 458.15 375.87 469.98 367.79 C 456.29 362.41 442.35 357.67 428.55 352.56 C 427.49 366.73 430.33 381.15 436.06 394.12 M 522.03 457.99 C 520.81 464.82 526.14 471.15 532.72 472.38 C 533.05 505.92 532.37 539.47 533.15 573.00 C 533.08 574.62 533.36 577.89 535.62 575.94 C 536.44 541.44 535.50 506.90 536.16 472.40 C 539.20 471.35 542.34 470.03 544.31 467.36 C 549.34 461.25 546.53 450.69 538.98 448.10 C 531.82 445.12 522.87 450.23 522.03 457.99 Z" />
<path fill="#87a0f9" opacity="1.00" d=" M 522.34 310.38 C 528.12 309.42 533.75 315.13 532.69 320.91 C 532.13 326.70 525.22 330.62 519.95 328.16 C 515.29 326.39 512.77 320.59 514.88 316.02 C 515.95 312.81 519.08 310.80 522.34 310.38 Z" />
<path fill="#87a0f9" opacity="1.00" d=" M 602.27 310.46 C 609.31 308.64 615.97 316.95 612.50 323.39 C 610.11 329.76 600.59 330.75 596.71 325.31 C 592.41 320.25 595.62 311.36 602.27 310.46 Z" />
<path fill="#87a0f9" opacity="1.00" d=" M 503.28 339.46 C 507.84 338.30 512.99 341.07 514.37 345.61 C 516.05 350.11 513.42 355.46 508.99 357.16 C 504.47 359.18 498.57 356.68 496.88 352.02 C 494.69 347.00 497.89 340.60 503.28 339.46 Z" />
<path fill="#87a0f9" opacity="1.00" d=" M 697.43 401.64 C 700.55 400.21 704.67 402.45 704.64 406.01 C 705.16 409.80 700.40 412.70 697.21 410.74 C 693.61 408.99 693.80 403.27 697.43 401.64 Z" />
<path fill="#87a0f9" opacity="1.00" d=" M 520.24 408.43 C 526.27 405.83 533.64 411.42 532.74 417.92 C 532.55 425.12 522.80 429.39 517.53 424.34 C 511.98 420.26 513.69 410.46 520.24 408.43 Z" />
<path fill="#87a0f9" opacity="1.00" d=" M 534.24 450.41 C 538.50 450.31 542.54 453.45 543.45 457.63 C 544.88 462.89 540.64 468.98 535.09 469.08 C 529.61 469.64 524.32 464.49 525.14 458.94 C 525.43 454.38 529.66 450.42 534.24 450.41 Z" />
<path fill="#87a0f9" opacity="1.00" d=" M 567.34 486.50 C 573.89 484.84 580.70 491.84 578.34 498.32 C 576.63 505.22 566.53 507.16 562.19 501.65 C 557.87 496.64 560.69 487.69 567.34 486.50 Z" />
<path fill="#87a0f9" opacity="1.00" d=" M 510.39 517.44 C 516.17 515.75 522.45 521.10 521.86 527.05 C 521.68 532.36 516.23 536.70 511.01 535.66 C 506.46 535.03 502.84 530.58 503.26 525.99 C 503.35 521.93 506.41 518.27 510.39 517.44 Z" />
<path fill="#87a0f9" opacity="1.00" d=" M 440.11 744.18 C 454.07 740.84 468.53 740.61 482.75 738.95 C 483.07 740.92 483.40 742.89 483.74 744.87 C 471.35 747.05 458.52 746.76 446.40 750.47 C 444.89 750.92 443.49 751.72 442.51 752.98 C 443.10 755.31 445.70 755.72 447.65 756.40 C 454.00 758.16 460.58 758.87 467.11 759.65 C 495.62 762.62 524.32 763.16 552.96 762.81 C 569.62 762.82 586.27 761.82 602.88 760.60 C 612.44 759.64 622.10 758.90 631.42 756.45 C 633.81 755.92 635.81 754.49 637.65 752.95 C 630.69 748.14 621.81 748.46 613.82 746.82 C 614.31 744.78 614.71 742.71 615.17 740.67 C 623.01 741.15 630.79 742.33 638.57 743.41 C 638.78 743.62 639.20 744.05 639.41 744.27 C 645.76 745.58 652.36 746.73 658.03 750.07 C 659.62 750.92 660.23 752.67 660.73 754.31 C 655.17 758.97 647.88 760.36 641.00 761.86 C 625.51 764.89 609.76 766.32 594.03 767.41 C 569.04 768.83 543.99 769.64 518.97 768.77 C 497.31 768.39 475.65 767.16 454.16 764.40 C 444.86 763.09 435.49 761.69 426.56 758.68 C 423.70 757.77 421.23 756.04 418.91 754.21 C 419.42 752.48 420.20 750.71 421.91 749.88 C 427.48 746.67 433.94 745.67 440.11 744.18 Z" />
<path fill="#87a0f9" opacity="1.00" d=" M 428.36 797.46 C 433.61 794.62 440.70 798.97 440.39 804.96 C 440.70 811.10 433.08 815.51 427.92 812.13 C 422.23 809.22 422.51 800.02 428.36 797.46 Z" />
<path fill="#87a0f9" opacity="1.00" d=" M 150.15 842.03 C 150.50 835.95 154.22 830.81 156.61 825.40 C 162.65 830.55 170.96 831.88 178.56 830.05 C 181.88 834.80 185.09 839.69 189.09 843.91 C 193.58 848.53 199.97 850.35 205.21 853.88 C 205.93 854.57 207.50 855.52 206.77 856.71 C 206.54 858.56 204.50 858.52 203.08 858.67 C 197.54 858.93 192.28 856.94 186.97 855.70 C 176.33 852.96 165.39 851.04 155.20 846.82 C 153.26 845.68 150.08 844.75 150.15 842.03 Z" />
<path fill="#87a0f9" opacity="1.00" d=" M 268.55 830.28 C 275.68 833.19 284.29 835.55 291.47 831.48 C 295.55 835.12 299.59 838.88 304.18 841.89 C 309.58 845.44 316.29 845.56 322.16 847.91 C 323.67 848.33 325.39 850.37 323.67 851.68 C 320.43 854.26 315.91 853.69 312.03 853.85 C 298.83 853.41 285.53 854.35 272.41 852.46 C 270.04 851.83 266.68 851.60 265.62 849.05 C 264.78 842.65 267.12 836.42 268.55 830.28 Z" />
<path fill="#87a0f9" opacity="1.00" d=" M 911.65 836.45 C 919.28 838.76 927.47 836.83 933.80 832.16 C 936.45 837.61 939.89 842.96 940.40 849.16 C 939.36 851.53 936.79 852.56 934.60 853.59 C 926.94 856.72 918.83 858.52 910.82 860.45 C 903.17 861.86 895.82 864.93 888.01 865.29 C 886.08 865.42 882.65 864.64 883.48 861.99 C 886.17 858.91 890.23 857.66 893.70 855.71 C 901.95 851.88 906.89 843.80 911.65 836.45 Z" />
<path fill="#87a0f9" opacity="1.00" d=" M 798.62 838.13 C 806.01 841.84 814.49 839.90 821.73 836.84 C 823.35 842.79 825.36 848.86 824.73 855.12 C 824.77 856.21 824.28 856.94 823.26 857.31 C 819.19 859.36 814.50 859.44 810.06 859.80 C 800.04 860.60 789.98 860.07 779.95 860.47 C 775.89 860.48 771.63 860.67 767.81 859.08 C 765.81 858.48 765.43 855.31 767.64 854.72 C 773.51 852.25 780.20 852.05 785.73 848.67 C 790.46 845.74 794.54 841.90 798.62 838.13 Z" />
</g>
<g id="#f3f6ffff">
<path fill="#f3f6ff" opacity="1.00" d=" M 218.41 204.54 C 220.98 203.28 224.69 204.96 224.63 208.04 C 225.22 211.44 220.87 213.86 218.16 212.00 C 215.35 210.52 215.59 205.90 218.41 204.54 Z" />
<path fill="#f3f6ff" opacity="1.00" d=" M 184.55 220.77 C 244.91 220.81 305.28 220.77 365.64 220.79 C 365.15 225.40 367.48 229.51 368.08 233.93 C 368.04 273.97 368.08 314.01 368.06 354.04 C 367.99 359.87 369.11 366.34 365.55 371.44 C 362.94 376.25 357.23 378.22 352.02 378.11 C 315.75 378.00 279.46 378.26 243.19 377.94 C 227.40 378.39 211.59 378.09 195.79 378.11 C 195.46 377.97 194.80 377.70 194.47 377.56 C 193.55 375.12 190.77 374.71 189.02 373.10 C 186.08 370.63 184.38 366.79 184.57 362.95 C 184.57 315.56 184.61 268.16 184.55 220.77 M 245.00 253.83 C 232.54 263.37 225.36 279.30 226.48 294.96 C 227.02 306.59 232.33 317.57 240.17 326.05 C 249.07 334.93 261.36 340.46 274.00 340.43 C 287.03 340.79 300.04 335.47 309.15 326.17 C 318.27 317.21 323.32 304.51 323.38 291.77 C 322.87 283.29 321.03 274.75 316.53 267.45 C 308.09 252.84 291.62 243.40 274.74 243.52 C 264.05 243.62 253.40 247.19 245.00 253.83 Z" />
<path fill="#f3f6ff" opacity="1.00" d=" M 720.43 401.67 C 723.51 400.15 727.57 402.51 727.61 405.98 C 728.11 409.76 723.45 412.73 720.23 410.74 C 716.52 409.09 716.74 403.22 720.43 401.67 Z" />
<path fill="#f3f6ff" opacity="1.00" d=" M 680.18 421.14 C 754.12 421.18 828.07 421.15 902.02 421.16 C 919.91 420.96 937.81 421.55 955.69 420.82 C 955.74 477.22 955.69 533.62 955.72 590.02 C 956.07 596.62 951.33 603.06 944.97 604.79 C 943.20 605.17 941.79 606.29 940.24 607.13 C 925.58 607.25 910.91 607.13 896.24 607.18 C 895.49 603.86 897.95 601.19 899.72 598.70 C 904.94 592.09 908.53 583.30 906.37 574.83 C 904.75 565.19 900.78 556.20 898.50 546.74 C 902.06 545.10 905.40 543.04 908.62 540.82 C 909.73 539.96 910.69 538.92 911.53 537.79 C 913.67 534.15 914.95 529.24 912.54 525.43 C 909.29 521.17 903.37 520.09 900.18 515.73 C 897.10 511.89 899.73 506.56 897.76 502.33 C 894.97 496.30 889.14 492.40 883.29 489.72 C 879.51 487.89 875.29 486.73 872.12 483.89 C 869.64 481.36 870.67 477.51 870.53 474.34 C 881.02 474.44 891.51 474.34 902.01 474.42 C 904.20 474.33 907.02 474.53 908.35 472.37 C 909.45 470.28 909.14 467.22 907.02 465.89 C 905.47 465.09 903.65 465.28 901.99 465.18 C 891.50 465.22 881.01 465.26 870.52 465.17 C 870.09 457.62 868.41 449.60 863.21 443.81 C 858.04 438.27 850.69 434.38 842.99 434.55 C 835.71 434.70 828.95 437.87 822.70 441.33 C 813.52 440.51 804.24 440.66 795.05 441.10 C 790.52 441.23 789.92 448.67 794.22 449.69 C 800.28 450.77 806.50 449.66 812.61 450.44 C 810.96 455.25 811.84 460.44 813.73 465.05 C 800.50 465.54 787.26 464.91 774.04 465.34 C 770.33 465.30 768.88 470.31 771.06 472.86 C 772.83 474.75 775.70 474.27 778.04 474.44 C 790.02 474.29 802.01 474.48 813.99 474.33 C 812.83 477.98 811.18 481.45 809.74 484.99 C 811.74 485.39 813.74 485.79 815.75 486.18 C 816.34 487.23 816.93 488.29 817.52 489.37 C 817.45 489.87 817.32 490.89 817.25 491.39 C 818.41 493.59 819.45 495.93 821.21 497.74 C 823.80 498.05 826.27 496.88 828.72 496.20 C 829.63 498.66 830.68 501.08 832.17 503.26 C 831.97 504.10 831.80 504.95 831.65 505.82 C 818.27 510.61 804.54 517.26 796.23 529.27 C 790.02 538.39 786.55 549.10 780.08 558.06 C 776.06 563.86 768.12 565.44 761.61 563.60 C 754.45 561.52 747.75 557.84 742.03 553.07 C 742.90 549.92 742.60 546.63 741.74 543.52 C 740.01 536.94 738.22 530.36 736.25 523.85 C 735.29 521.43 734.56 518.39 732.05 517.14 C 730.39 517.16 729.35 518.42 729.58 520.06 C 729.32 524.54 730.54 528.93 731.39 533.29 C 727.49 535.36 723.24 536.92 719.86 539.84 C 718.11 541.28 716.74 543.64 717.67 545.95 C 719.84 552.81 724.78 558.31 729.78 563.31 C 730.05 565.54 729.71 568.06 731.03 570.03 C 738.80 580.89 750.09 589.81 763.34 592.65 C 778.90 594.85 794.47 589.89 808.25 582.99 C 808.96 585.59 809.40 588.28 809.03 590.98 C 808.43 596.40 808.11 601.86 807.12 607.23 C 770.10 607.08 733.07 607.25 696.05 607.15 C 687.47 607.49 679.27 600.71 678.61 592.05 C 678.31 582.08 678.55 572.09 678.48 562.12 C 679.32 562.00 681.00 561.76 681.84 561.64 C 682.03 520.78 681.81 479.91 681.94 439.04 C 681.85 435.69 682.54 431.98 680.40 429.09 C 680.01 426.46 680.14 423.79 680.18 421.14 M 697.33 441.47 C 694.26 442.95 694.35 448.06 697.37 449.56 C 699.81 450.49 703.22 449.82 704.00 446.98 C 705.54 443.16 700.82 439.33 697.33 441.47 M 722.30 441.38 C 719.86 442.60 718.91 446.15 720.77 448.28 C 722.10 450.31 724.84 450.03 726.96 450.18 C 740.97 450.14 754.98 450.12 769.00 450.18 C 770.88 450.11 772.85 450.19 774.65 449.51 C 777.33 447.99 777.62 443.74 775.22 441.83 C 773.70 440.77 771.73 440.91 769.99 440.81 C 755.67 440.84 741.34 440.85 727.01 440.81 C 725.43 440.87 723.79 440.79 722.30 441.38 M 698.31 465.38 C 694.54 466.14 693.90 472.11 697.31 473.77 C 699.77 475.42 703.43 473.77 704.08 470.93 C 705.19 467.64 701.52 464.30 698.31 465.38 M 722.37 465.59 C 718.74 467.26 719.11 473.09 723.01 474.17 C 729.31 474.70 735.65 474.22 741.98 474.38 C 745.62 474.23 749.36 474.83 752.95 473.98 C 756.62 472.61 756.42 466.58 752.68 465.47 C 747.15 464.85 741.56 465.38 736.01 465.22 C 731.47 465.38 726.86 464.78 722.37 465.59 M 697.45 491.51 C 694.31 492.91 694.29 498.06 697.32 499.59 C 700.71 502.00 705.64 497.79 703.99 494.04 C 703.12 491.36 699.87 490.47 697.45 491.51 M 722.30 491.50 C 718.28 493.32 719.52 500.07 724.00 500.16 C 746.67 500.45 769.36 500.14 792.03 500.31 C 794.30 500.20 797.08 500.59 798.80 498.74 C 801.13 496.34 799.63 491.15 796.02 491.21 C 783.01 490.71 769.99 491.47 756.98 490.92 C 745.43 491.44 733.80 490.58 722.30 491.50 Z" />
<path fill="#f3f6ff" opacity="1.00" d=" M 461.55 802.71 C 466.92 800.48 473.52 805.10 472.79 810.97 C 472.91 817.34 464.62 821.09 459.71 817.26 C 454.38 813.80 455.53 804.74 461.55 802.71 Z" />
</g>
<g id="#fa3765ff">
<path fill="#fa3765" opacity="1.00" d=" M 237.51 204.64 C 240.04 203.25 243.90 204.75 243.87 207.90 C 244.65 211.47 239.94 214.06 237.25 211.81 C 234.76 210.18 234.96 206.10 237.51 204.64 Z" />
<path fill="#fa3765" opacity="1.00" d=" M 743.40 401.66 C 746.48 400.17 750.54 402.50 750.60 405.96 C 751.12 409.75 746.43 412.72 743.20 410.74 C 739.48 409.11 739.72 403.22 743.40 401.66 Z" />
<path fill="#fa3765" opacity="1.00" d=" M 643.12 792.29 C 646.14 791.44 649.17 790.61 652.23 789.91 C 653.74 797.31 655.37 804.70 656.74 812.13 C 653.44 813.06 650.16 814.02 646.83 814.83 C 645.74 807.29 644.01 799.86 643.12 792.29 Z" />
<path fill="#fa3765" opacity="1.00" d=" M 625.87 795.28 C 629.12 794.78 632.40 794.44 635.68 794.13 C 636.74 801.94 637.50 809.80 637.97 817.67 C 633.93 818.33 629.87 818.80 625.83 819.38 C 625.85 811.34 625.79 803.31 625.87 795.28 Z" />
</g>
<g id="#ffffffff">
<path fill="#ffffff" opacity="1.00" d=" M 716.98 294.87 C 717.18 293.84 717.78 293.10 718.76 292.63 C 719.22 297.08 719.24 301.55 719.16 306.01 C 719.26 334.36 716.98 362.86 710.78 390.56 C 709.98 390.57 708.40 390.59 707.61 390.60 C 708.83 386.12 709.13 381.44 710.53 377.00 C 710.64 376.52 710.87 375.56 710.99 375.07 L 711.15 373.72 C 711.96 365.04 713.41 356.44 714.24 347.76 L 714.29 347.01 C 715.14 337.83 715.48 328.63 715.96 319.44 C 717.86 311.38 716.23 303.03 716.98 294.87 Z" />
<path fill="#ffffff" opacity="1.00" d=" M 678.51 431.47 C 678.98 430.88 679.92 429.69 680.40 429.09 C 682.54 431.98 681.85 435.69 681.94 439.04 C 681.81 479.91 682.03 520.78 681.84 561.64 C 681.00 561.76 679.32 562.00 678.48 562.12 C 678.47 551.57 678.57 541.03 678.43 530.49 C 677.72 511.94 678.85 493.35 677.88 474.81 C 672.68 481.06 668.87 488.34 663.43 494.43 C 656.97 503.20 648.88 510.51 641.26 518.22 C 639.48 520.00 637.59 521.68 635.63 523.26 C 618.54 537.84 599.94 550.67 580.08 561.19 C 570.73 566.12 561.19 570.69 551.44 574.76 C 550.91 574.54 549.87 574.10 549.35 573.88 C 549.77 573.12 550.19 572.38 550.63 571.64 C 573.07 562.28 594.41 550.25 614.18 536.11 C 639.47 518.04 661.58 495.25 677.43 468.41 C 678.46 466.78 678.51 464.82 678.53 462.97 C 678.47 452.47 678.48 441.97 678.51 431.47 Z" />
<path fill="#ffffff" opacity="1.00" d=" M 365.66 460.33 C 366.14 460.42 367.10 460.61 367.58 460.70 C 381.33 466.34 396.22 468.56 411.04 468.33 C 418.28 502.14 424.98 536.19 435.54 569.16 C 435.00 569.80 434.38 570.35 433.68 570.79 C 432.27 567.92 431.20 564.91 430.00 561.95 C 427.89 556.46 426.76 550.67 425.10 545.04 C 418.80 520.88 413.38 496.50 408.66 471.99 C 406.15 471.49 403.61 471.11 401.05 471.05 C 390.22 470.83 379.34 468.86 369.31 464.72 C 367.24 464.09 366.17 462.31 365.66 460.33 Z" />
<path fill="#ffffff" opacity="1.00" d=" M 355.83 511.94 C 360.16 510.49 363.59 506.79 368.28 506.42 C 368.28 507.19 368.27 508.73 368.27 509.50 C 361.92 512.34 355.87 515.84 349.36 518.30 C 340.81 521.53 332.37 525.87 323.04 526.13 C 314.78 526.72 306.40 524.86 299.26 520.64 C 295.44 518.24 290.69 516.41 288.77 511.98 C 289.32 511.82 290.40 511.50 290.94 511.34 C 297.95 516.06 305.00 521.43 313.65 522.54 C 328.63 525.38 342.41 517.25 355.83 511.94 Z" />
<path fill="#ffffff" opacity="1.00" d=" M 655.63 550.34 C 656.57 550.47 657.52 550.61 658.47 550.76 C 657.80 554.52 656.91 558.24 656.06 561.96 C 655.38 564.90 654.67 567.83 654.04 570.78 C 653.37 573.70 652.70 576.64 652.03 579.57 C 651.38 582.37 650.74 585.17 650.10 587.97 C 648.77 593.69 647.48 599.42 646.17 605.15 C 645.51 608.01 644.81 610.85 644.23 613.73 C 642.37 621.31 640.78 628.94 638.99 636.54 C 637.65 642.23 636.37 647.93 635.10 653.64 C 634.53 656.01 633.93 658.38 633.44 660.78 C 632.34 665.44 631.28 670.11 630.22 674.79 C 629.18 679.25 628.17 683.72 627.16 688.19 C 626.54 690.89 625.89 693.58 625.25 696.27 C 624.26 700.79 623.26 705.30 622.21 709.81 C 620.84 715.61 619.61 721.45 618.22 727.25 C 617.16 731.71 616.15 736.19 615.17 740.67 C 614.71 742.71 614.31 744.78 613.82 746.82 C 613.25 748.67 613.02 751.60 610.34 750.67 C 610.24 749.21 610.35 747.76 610.55 746.34 C 611.03 744.19 611.58 742.07 612.09 739.94 C 613.46 733.72 614.99 727.54 616.37 721.33 C 617.61 715.46 619.10 709.65 620.38 703.80 C 621.18 700.21 622.03 696.63 622.84 693.05 C 623.63 689.50 624.47 685.96 625.27 682.42 C 626.44 677.07 627.74 671.76 628.92 666.42 C 629.75 662.73 630.62 659.05 631.46 655.37 C 632.45 650.96 633.49 646.56 634.48 642.15 C 635.44 637.85 636.46 633.57 637.44 629.28 C 638.25 625.65 639.09 622.03 639.91 618.41 C 640.77 614.58 641.67 610.76 642.53 606.94 C 643.58 602.29 644.68 597.66 645.73 593.01 C 646.64 588.95 647.59 584.91 648.50 580.86 C 649.95 574.37 651.50 567.91 653.00 561.44 C 653.80 557.72 654.59 554.00 655.63 550.34 Z" />
<path fill="#ffffff" opacity="1.00" d=" M 467.54 649.54 C 468.50 649.41 469.46 649.28 470.43 649.17 C 470.83 651.20 471.23 653.25 471.57 655.31 C 472.18 658.89 472.81 662.48 473.42 666.07 C 474.35 671.75 475.42 677.40 476.36 683.08 C 477.06 687.46 477.87 691.82 478.57 696.21 C 479.28 700.20 480.01 704.19 480.63 708.21 C 481.44 712.83 482.28 717.44 483.04 722.07 C 483.93 727.51 484.96 732.94 485.85 738.39 C 486.32 741.28 486.82 744.17 487.36 747.06 C 487.76 749.39 488.18 751.73 488.32 754.11 C 487.39 754.32 486.49 754.61 485.60 754.96 C 484.95 751.60 484.33 748.24 483.74 744.87 C 483.40 742.89 483.07 740.92 482.75 738.95 C 482.46 737.25 482.17 735.57 481.88 733.89 C 480.80 727.84 479.88 721.76 478.78 715.72 C 477.70 709.81 476.81 703.86 475.73 697.95 C 474.62 691.91 473.72 685.83 472.58 679.79 C 472.03 676.18 471.36 672.60 470.76 669.01 C 469.81 663.51 468.90 658.01 467.87 652.54 C 467.75 651.53 467.64 650.53 467.54 649.54 Z" />
<path fill="#ffffff" opacity="1.00" d=" M 543.61 682.74 C 544.67 682.64 545.71 682.47 546.77 682.31 C 546.67 685.78 546.48 689.25 546.17 692.71 C 545.78 696.52 545.54 700.33 545.25 704.15 C 544.82 708.98 544.43 713.80 544.18 718.64 C 543.49 724.77 543.21 730.94 542.65 737.09 C 542.44 739.57 542.23 742.06 542.01 744.55 C 541.72 747.91 541.51 751.28 541.27 754.65 C 540.37 754.59 539.49 754.49 538.62 754.34 C 538.29 752.15 538.37 749.91 538.25 747.72 C 538.49 747.57 538.97 747.27 539.20 747.12 C 539.15 743.71 539.22 740.30 539.48 736.90 C 539.85 731.94 540.38 726.99 540.68 722.02 C 540.96 717.99 541.37 713.97 541.62 709.94 C 541.89 705.96 542.32 702.00 542.56 698.03 C 542.89 692.93 543.59 687.85 543.61 682.74 Z" />
</g>
<g id="#5579f9ff">
<path fill="#5579f9" opacity="1.00" d=" M 602.96 296.01 L 604.01 295.55 C 604.39 295.72 605.15 296.06 605.53 296.23 C 605.75 299.77 605.44 303.33 605.87 306.86 C 608.87 307.98 612.13 309.15 614.00 311.95 C 617.87 316.79 617.30 324.59 612.63 328.71 C 607.69 333.46 598.69 333.03 594.43 327.59 C 590.93 323.46 590.62 317.04 593.69 312.59 C 595.58 309.31 599.32 308.05 602.62 306.70 C 602.69 303.14 602.20 299.51 602.96 296.01 M 602.27 310.46 C 595.62 311.36 592.41 320.25 596.71 325.31 C 600.59 330.75 610.11 329.76 612.50 323.39 C 615.97 316.95 609.31 308.64 602.27 310.46 Z" />
<path fill="#5579f9" opacity="1.00" d=" M 511.13 317.96 C 511.56 311.61 517.84 306.71 524.05 307.12 C 530.61 307.19 536.41 313.45 535.89 320.01 C 535.76 322.55 534.73 324.91 533.89 327.28 C 538.30 332.44 543.28 337.07 548.03 341.91 C 549.40 343.25 550.83 344.98 552.99 344.65 C 590.34 344.58 627.70 344.63 665.05 344.62 C 681.32 344.77 697.61 344.28 713.87 344.86 C 713.97 345.39 714.19 346.47 714.29 347.01 L 714.24 347.76 C 659.82 347.45 605.38 347.78 550.96 347.61 C 549.73 347.70 548.69 347.06 547.86 346.23 C 542.42 340.98 537.47 335.17 531.66 330.34 C 528.41 330.31 525.32 332.61 521.96 331.92 C 515.22 331.38 510.03 324.62 511.13 317.96 M 522.34 310.38 C 519.08 310.80 515.95 312.81 514.88 316.02 C 512.77 320.59 515.29 326.39 519.95 328.16 C 525.22 330.62 532.13 326.70 532.69 320.91 C 533.75 315.13 528.12 309.42 522.34 310.38 Z" />
<path fill="#5579f9" opacity="1.00" d=" M 497.83 338.79 C 504.08 333.33 515.03 336.65 517.35 344.57 C 519.03 348.64 516.76 352.68 516.27 356.68 C 519.48 360.77 523.62 364.02 527.11 367.87 C 529.65 370.25 531.99 373.95 535.97 373.44 C 577.99 373.37 620.00 373.43 662.02 373.41 C 678.39 373.63 694.79 373.00 711.15 373.72 L 710.99 375.07 C 710.87 375.56 710.64 376.52 710.53 377.00 C 703.36 376.39 696.17 376.76 688.99 376.66 C 637.66 376.68 586.34 376.59 535.01 376.70 C 533.19 376.66 531.14 376.70 529.87 375.17 C 524.28 369.81 519.12 364.00 513.29 358.89 C 508.43 361.26 502.05 362.18 497.70 358.28 C 491.63 353.57 491.50 343.32 497.83 338.79 M 503.28 339.46 C 497.89 340.60 494.69 347.00 496.88 352.02 C 498.57 356.68 504.47 359.18 508.99 357.16 C 513.42 355.46 516.05 350.11 514.37 345.61 C 512.99 341.07 507.84 338.30 503.28 339.46 Z" />
<path fill="#5579f9" opacity="1.00" d=" M 547.81 389.82 C 548.84 388.61 550.36 388.25 551.90 388.33 C 603.56 388.34 655.23 388.40 706.88 388.30 C 707.01 389.00 707.27 390.40 707.40 391.09 L 707.21 391.57 C 701.96 391.53 696.70 391.66 691.45 391.73 C 674.64 390.95 657.79 391.59 640.96 391.38 C 611.96 391.35 582.96 391.45 553.96 391.35 C 552.44 391.44 550.63 391.19 549.59 392.54 C 544.24 398.09 538.68 403.43 533.36 409.01 C 535.92 413.51 537.18 419.46 533.96 423.99 C 530.14 430.57 520.07 431.55 514.79 426.22 C 508.86 420.88 510.21 409.94 517.35 406.31 C 521.54 403.69 526.61 404.82 530.86 406.65 C 536.71 401.24 542.13 395.40 547.81 389.82 M 520.24 408.43 C 513.69 410.46 511.98 420.26 517.53 424.34 C 522.80 429.39 532.55 425.12 532.74 417.92 C 533.64 411.42 526.27 405.83 520.24 408.43 Z" />
<path fill="#5579f9" opacity="1.00" d=" M 568.34 412.48 C 605.61 412.22 642.89 412.65 680.16 412.26 C 680.16 413.44 680.18 414.62 680.20 415.80 C 671.46 415.46 662.71 415.72 653.97 415.65 C 626.34 415.75 598.70 415.44 571.07 415.83 C 570.78 424.54 570.94 433.27 570.92 441.99 C 571.17 455.56 570.61 469.14 571.09 482.71 C 575.11 484.37 579.48 486.55 581.03 490.96 C 584.17 498.17 578.87 507.32 571.00 508.02 C 562.54 509.51 554.80 500.45 557.37 492.31 C 558.41 487.18 563.33 484.57 567.72 482.68 C 567.84 463.47 567.75 444.26 567.76 425.04 C 567.65 420.84 567.62 416.63 568.34 412.48 M 567.34 486.50 C 560.69 487.69 557.87 496.64 562.19 501.65 C 566.53 507.16 576.63 505.22 578.34 498.32 C 580.70 491.84 573.89 484.84 567.34 486.50 Z" />
<path fill="#5579f9" opacity="1.00" d=" M 522.03 457.99 C 522.87 450.23 531.82 445.12 538.98 448.10 C 546.53 450.69 549.34 461.25 544.31 467.36 C 542.34 470.03 539.20 471.35 536.16 472.40 C 535.50 506.90 536.44 541.44 535.62 575.94 C 533.36 577.89 533.08 574.62 533.15 573.00 C 532.37 539.47 533.05 505.92 532.72 472.38 C 526.14 471.15 520.81 464.82 522.03 457.99 M 534.24 450.41 C 529.66 450.42 525.43 454.38 525.14 458.94 C 524.32 464.49 529.61 469.64 535.09 469.08 C 540.64 468.98 544.88 462.89 543.45 457.63 C 542.54 453.45 538.50 450.31 534.24 450.41 Z" />
<path fill="#5579f9" opacity="1.00" d=" M 509.33 514.40 C 517.11 512.03 525.76 518.93 524.94 527.08 C 525.11 533.31 519.72 537.62 514.25 539.30 C 514.11 543.87 514.14 548.43 514.18 553.00 C 514.27 563.50 513.21 574.01 514.17 584.49 C 513.17 584.78 512.17 585.06 511.18 585.33 C 511.46 569.98 510.88 554.63 510.81 539.28 C 507.24 537.79 503.31 536.12 501.57 532.38 C 497.65 525.65 501.65 516.07 509.33 514.40 M 510.39 517.44 C 506.41 518.27 503.35 521.93 503.26 525.99 C 502.84 530.58 506.46 535.03 511.01 535.66 C 516.23 536.70 521.68 532.36 521.86 527.05 C 522.45 521.10 516.17 515.75 510.39 517.44 Z" />
</g>
<g id="#3d3d3dff">
<path fill="#3d3d3d" opacity="1.00" d=" M 260.87 423.84 C 263.17 422.54 265.34 420.82 267.98 420.26 C 270.83 419.72 272.37 422.78 273.13 425.01 C 274.27 428.97 271.67 432.58 269.29 435.48 C 271.17 435.73 273.72 435.15 274.89 437.07 C 276.07 438.59 274.81 440.60 273.90 441.94 C 270.99 445.35 266.51 446.85 262.31 447.97 C 254.50 449.90 246.40 449.89 238.42 449.72 C 239.45 456.45 240.42 463.32 239.51 470.11 C 239.36 472.18 237.68 474.35 235.39 473.54 C 231.03 472.09 229.52 467.16 227.97 463.31 C 224.72 463.46 220.77 464.39 219.73 467.95 C 218.64 474.06 223.59 479.31 229.15 480.90 C 229.43 483.72 229.70 486.54 229.79 489.39 C 228.19 489.09 226.58 488.87 225.04 488.35 C 222.88 487.55 223.16 484.89 222.49 483.10 C 222.02 480.47 220.03 478.54 218.41 476.56 C 213.37 470.83 209.39 463.70 208.79 455.99 C 208.58 449.84 213.02 444.87 218.13 442.11 C 218.97 439.76 219.59 437.21 221.34 435.34 C 224.73 431.54 230.04 430.18 234.97 430.25 C 243.94 430.42 253.19 428.65 260.87 423.84 Z" />
<path fill="#3d3d3d" opacity="1.00" d=" M 822.70 441.33 C 828.95 437.87 835.71 434.70 842.99 434.55 C 850.69 434.38 858.04 438.27 863.21 443.81 C 868.41 449.60 870.09 457.62 870.52 465.17 C 870.65 468.22 870.62 471.28 870.53 474.34 C 870.67 477.51 869.64 481.36 872.12 483.89 C 875.29 486.73 879.51 487.89 883.29 489.72 C 889.14 492.40 894.97 496.30 897.76 502.33 C 899.73 506.56 897.10 511.89 900.18 515.73 C 903.37 520.09 909.29 521.17 912.54 525.43 C 914.95 529.24 913.67 534.15 911.53 537.79 C 904.13 536.35 896.83 532.72 892.90 526.02 C 888.28 519.36 890.18 510.22 885.15 503.80 C 881.80 499.45 875.89 499.45 871.11 497.88 C 867.62 496.91 865.42 493.83 862.99 491.40 C 862.50 491.85 861.54 492.77 861.05 493.23 C 862.65 495.46 864.20 497.88 866.63 499.31 C 870.94 502.03 876.38 501.72 880.82 504.12 C 885.42 507.27 885.43 513.42 886.62 518.33 C 888.07 526.89 894.02 534.57 902.00 538.01 C 904.19 538.99 906.41 539.87 908.62 540.82 C 905.40 543.04 902.06 545.10 898.50 546.74 C 898.09 546.92 897.28 547.29 896.87 547.47 C 896.29 546.54 895.73 545.62 895.18 544.70 C 888.27 543.10 881.57 539.41 877.95 533.11 C 873.38 526.41 875.35 517.19 870.13 510.84 C 865.08 504.92 855.40 507.58 850.61 501.30 C 845.60 495.03 846.63 486.51 846.94 479.04 C 846.40 478.74 845.34 478.15 844.81 477.85 C 842.38 486.67 842.73 497.63 849.36 504.61 C 853.63 509.24 860.47 508.65 865.76 511.28 C 870.51 514.18 870.60 520.38 871.69 525.24 C 872.87 533.14 877.99 540.14 884.82 544.16 C 887.98 545.90 891.47 546.93 894.83 548.26 C 888.78 550.42 882.46 552.39 875.95 551.78 C 870.74 551.55 865.45 548.74 863.11 543.94 C 861.52 540.42 862.11 536.31 860.42 532.83 C 857.93 527.58 852.93 523.29 847.05 522.55 C 843.78 522.04 840.09 521.88 837.68 519.29 C 833.11 514.73 832.44 507.78 832.85 501.66 C 835.78 490.61 827.70 480.65 819.96 473.80 C 819.34 474.66 818.72 475.52 818.11 476.39 C 817.81 473.38 817.10 470.40 815.33 467.89 C 814.77 466.94 814.22 466.01 813.73 465.05 C 811.84 460.44 810.96 455.25 812.61 450.44 C 814.54 446.09 818.83 443.70 822.70 441.33 Z" />
<path fill="#3d3d3d" opacity="1.00" d=" M 255.71 456.76 C 256.31 455.49 257.44 457.32 257.36 458.05 C 257.66 459.74 257.71 461.47 257.78 463.19 C 255.49 462.08 255.75 458.93 255.71 456.76 Z" />
<path fill="#3d3d3d" opacity="1.00" d=" M 257.21 480.33 C 261.53 480.76 265.89 480.80 270.13 479.80 C 270.17 480.01 270.26 480.41 270.30 480.62 L 270.22 481.35 C 265.98 482.10 260.69 483.81 257.21 480.33 Z" />
<path fill="#3d3d3d" opacity="1.00" d=" M 817.52 489.37 C 819.39 488.64 821.28 487.88 823.17 487.17 C 822.44 489.90 819.55 490.55 817.25 491.39 C 817.32 490.89 817.45 489.87 817.52 489.37 Z" />
<path fill="#3d3d3d" opacity="1.00" d=" M 245.06 629.42 C 247.55 629.40 250.04 629.38 252.53 629.35 C 251.48 640.19 251.06 651.15 252.23 662.00 C 253.01 670.08 254.88 677.99 256.48 685.94 C 258.24 694.01 259.99 702.15 263.19 709.79 C 264.81 713.48 266.99 717.29 270.68 719.24 C 274.54 720.74 278.74 719.39 282.52 718.25 C 287.61 716.72 292.77 714.88 296.79 711.27 C 301.86 731.97 302.79 753.56 300.72 774.73 C 298.67 793.28 296.78 811.89 293.26 830.24 C 292.81 830.55 291.92 831.17 291.47 831.48 C 284.29 835.55 275.68 833.19 268.55 830.28 C 269.94 812.78 270.40 795.20 270.30 777.64 C 270.24 771.58 269.89 765.51 269.14 759.49 C 268.00 752.68 265.76 746.11 263.75 739.53 C 257.81 720.86 250.99 702.49 244.45 684.03 C 239.78 708.01 235.83 732.30 227.56 755.39 C 223.77 766.51 216.62 775.98 210.29 785.74 C 200.04 800.74 189.54 815.58 178.56 830.05 C 170.96 831.88 162.65 830.55 156.61 825.40 C 161.47 814.76 165.95 803.94 170.18 793.03 C 177.06 774.90 184.08 756.46 185.92 737.00 C 186.57 730.77 187.40 724.54 187.59 718.27 C 192.17 719.69 197.71 720.83 201.96 717.96 C 206.17 714.82 209.26 710.46 212.12 706.12 C 218.67 695.88 223.98 684.91 228.90 673.82 C 235.19 659.37 240.96 644.65 245.06 629.42 Z" />
<path fill="#3d3d3d" opacity="1.00" d=" M 856.84 696.92 C 859.23 705.62 861.33 714.52 865.38 722.64 C 866.58 724.77 868.14 727.57 870.99 727.40 C 877.11 727.55 883.12 726.05 889.05 724.74 C 893.34 723.55 897.88 722.90 901.76 720.57 C 902.80 720.27 903.86 719.99 904.94 719.73 C 904.04 720.56 903.16 721.40 902.32 722.28 C 903.80 736.52 904.42 750.98 908.35 764.83 C 912.68 780.63 918.58 795.95 924.77 811.10 C 927.65 818.17 930.64 825.20 933.80 832.16 C 927.47 836.83 919.28 838.76 911.65 836.45 C 905.62 827.25 899.87 817.86 894.04 808.53 C 887.93 798.73 881.87 788.90 875.93 778.99 C 873.54 774.99 871.06 771.02 869.18 766.75 C 861.39 748.51 858.14 728.82 853.42 709.69 C 854.71 705.47 855.71 701.17 856.84 696.92 Z" />
<path fill="#3d3d3d" opacity="1.00" d=" M 792.14 723.89 C 804.86 730.04 819.45 732.05 833.39 729.88 C 829.00 740.77 824.62 751.74 821.75 763.14 C 818.92 778.93 820.79 795.05 820.12 810.98 C 822.43 812.35 825.22 812.02 827.79 812.41 C 825.32 812.91 822.79 812.82 820.30 812.92 C 820.90 820.88 821.06 828.88 821.73 836.84 C 814.49 839.90 806.01 841.84 798.62 838.13 C 796.85 836.48 796.52 834.06 796.12 831.82 C 794.93 824.73 793.92 817.61 793.01 810.48 C 791.49 798.01 789.88 785.54 788.93 773.01 C 787.89 756.59 788.99 740.04 792.14 723.89 Z" />
</g>
<g id="#9cb0e6ff">
<path fill="#9cb0e6" opacity="1.00" d=" M 697.33 441.47 C 700.82 439.33 705.54 443.16 704.00 446.98 C 703.22 449.82 699.81 450.49 697.37 449.56 C 694.35 448.06 694.26 442.95 697.33 441.47 Z" />
<path fill="#9cb0e6" opacity="1.00" d=" M 722.30 441.38 C 723.79 440.79 725.43 440.87 727.01 440.81 C 741.34 440.85 755.67 440.84 769.99 440.81 C 771.73 440.91 773.70 440.77 775.22 441.83 C 777.62 443.74 777.33 447.99 774.65 449.51 C 772.85 450.19 770.88 450.11 769.00 450.18 C 754.98 450.12 740.97 450.14 726.96 450.18 C 724.84 450.03 722.10 450.31 720.77 448.28 C 718.91 446.15 719.86 442.60 722.30 441.38 Z" />
<path fill="#9cb0e6" opacity="1.00" d=" M 794.22 449.69 C 789.92 448.67 790.52 441.23 795.05 441.10 C 804.24 440.66 813.52 440.51 822.70 441.33 C 818.83 443.70 814.54 446.09 812.61 450.44 C 806.50 449.66 800.28 450.77 794.22 449.69 Z" />
<path fill="#9cb0e6" opacity="1.00" d=" M 698.31 465.38 C 701.52 464.30 705.19 467.64 704.08 470.93 C 703.43 473.77 699.77 475.42 697.31 473.77 C 693.90 472.11 694.54 466.14 698.31 465.38 Z" />
<path fill="#9cb0e6" opacity="1.00" d=" M 722.37 465.59 C 726.86 464.78 731.47 465.38 736.01 465.22 C 741.56 465.38 747.15 464.85 752.68 465.47 C 756.42 466.58 756.62 472.61 752.95 473.98 C 749.36 474.83 745.62 474.23 741.98 474.38 C 735.65 474.22 729.31 474.70 723.01 474.17 C 719.11 473.09 718.74 467.26 722.37 465.59 Z" />
<path fill="#9cb0e6" opacity="1.00" d=" M 771.06 472.86 C 768.88 470.31 770.33 465.30 774.04 465.34 C 787.26 464.91 800.50 465.54 813.73 465.05 C 814.22 466.01 814.77 466.94 815.33 467.89 C 814.91 470.04 814.52 472.20 813.99 474.33 C 802.01 474.48 790.02 474.29 778.04 474.44 C 775.70 474.27 772.83 474.75 771.06 472.86 Z" />
<path fill="#9cb0e6" opacity="1.00" d=" M 870.52 465.17 C 881.01 465.26 891.50 465.22 901.99 465.18 C 903.65 465.28 905.47 465.09 907.02 465.89 C 909.14 467.22 909.45 470.28 908.35 472.37 C 907.02 474.53 904.20 474.33 902.01 474.42 C 891.51 474.34 881.02 474.44 870.53 474.34 C 870.62 471.28 870.65 468.22 870.52 465.17 Z" />
<path fill="#9cb0e6" opacity="1.00" d=" M 697.45 491.51 C 699.87 490.47 703.12 491.36 703.99 494.04 C 705.64 497.79 700.71 502.00 697.32 499.59 C 694.29 498.06 694.31 492.91 697.45 491.51 Z" />
<path fill="#9cb0e6" opacity="1.00" d=" M 722.30 491.50 C 733.80 490.58 745.43 491.44 756.98 490.92 C 769.99 491.47 783.01 490.71 796.02 491.21 C 799.63 491.15 801.13 496.34 798.80 498.74 C 797.08 500.59 794.30 500.20 792.03 500.31 C 769.36 500.14 746.67 500.45 724.00 500.16 C 719.52 500.07 718.28 493.32 722.30 491.50 Z" />
</g>
<g id="#faaeb1ff">
<path fill="#faaeb1" opacity="1.00" d=" M 238.42 449.72 C 246.40 449.89 254.50 449.90 262.31 447.97 C 264.53 456.08 271.37 461.72 274.97 469.08 C 274.99 472.12 271.33 472.59 269.26 473.78 C 269.42 475.80 269.65 477.82 270.13 479.80 C 265.89 480.80 261.53 480.76 257.21 480.33 C 260.69 483.81 265.98 482.10 270.22 481.35 C 269.90 483.96 269.68 486.60 269.12 489.18 C 264.68 492.67 258.60 491.45 253.37 491.60 C 253.44 493.15 253.51 494.71 253.58 496.27 C 254.39 496.30 256.00 496.37 256.80 496.40 C 258.72 500.91 260.71 506.01 258.87 510.88 C 257.07 515.73 251.83 517.95 247.10 518.84 C 242.15 520.02 236.29 519.13 232.86 515.08 C 228.59 510.29 228.06 503.53 228.04 497.41 C 227.64 497.43 226.86 497.47 226.47 497.49 L 225.94 497.41 C 230.13 497.31 229.71 492.33 229.79 489.39 C 229.70 486.54 229.43 483.72 229.15 480.90 C 223.59 479.31 218.64 474.06 219.73 467.95 C 220.77 464.39 224.72 463.46 227.97 463.31 C 229.52 467.16 231.03 472.09 235.39 473.54 C 237.68 474.35 239.36 472.18 239.51 470.11 C 240.42 463.32 239.45 456.45 238.42 449.72 M 255.71 456.76 C 255.75 458.93 255.49 462.08 257.78 463.19 C 257.71 461.47 257.66 459.74 257.36 458.05 C 257.44 457.32 256.31 455.49 255.71 456.76 Z" />
<path fill="#faaeb1" opacity="1.00" d=" M 815.33 467.89 C 817.10 470.40 817.81 473.38 818.11 476.39 C 818.72 475.52 819.34 474.66 819.96 473.80 C 827.70 480.65 835.78 490.61 832.85 501.66 L 832.17 503.26 C 830.68 501.08 829.63 498.66 828.72 496.20 C 826.27 496.88 823.80 498.05 821.21 497.74 C 819.45 495.93 818.41 493.59 817.25 491.39 C 819.55 490.55 822.44 489.90 823.17 487.17 C 821.28 487.88 819.39 488.64 817.52 489.37 C 816.93 488.29 816.34 487.23 815.75 486.18 C 813.74 485.79 811.74 485.39 809.74 484.99 C 811.18 481.45 812.83 477.98 813.99 474.33 C 814.52 472.20 814.91 470.04 815.33 467.89 Z" />
<path fill="#faaeb1" opacity="1.00" d=" M 386.41 486.50 C 390.58 485.20 393.49 489.50 395.62 492.39 C 397.85 495.86 400.25 500.76 397.78 504.68 C 392.18 510.58 384.34 513.48 377.84 518.19 C 374.09 515.96 371.37 512.48 368.27 509.50 C 368.27 508.73 368.28 507.19 368.28 506.42 C 368.57 499.79 368.72 493.10 367.12 486.60 C 369.21 486.81 371.90 486.86 372.85 489.15 C 373.90 492.35 373.80 495.90 375.58 498.88 C 378.64 494.37 381.16 488.85 386.41 486.50 Z" />
<path fill="#faaeb1" opacity="1.00" d=" M 729.58 520.06 C 729.35 518.42 730.39 517.16 732.05 517.14 C 734.56 518.39 735.29 521.43 736.25 523.85 C 738.22 530.36 740.01 536.94 741.74 543.52 C 742.60 546.63 742.90 549.92 742.03 553.07 C 739.18 556.90 736.21 560.71 732.73 563.99 C 731.72 563.84 730.74 563.61 729.78 563.31 C 724.78 558.31 719.84 552.81 717.67 545.95 C 716.74 543.64 718.11 541.28 719.86 539.84 C 723.24 536.92 727.49 535.36 731.39 533.29 C 730.54 528.93 729.32 524.54 729.58 520.06 Z" />
<path fill="#faaeb1" opacity="1.00" d=" M 186.36 630.20 C 189.63 628.45 193.24 630.68 196.34 631.80 C 200.62 633.98 205.95 637.18 205.83 642.66 C 201.73 643.54 198.38 641.20 195.34 638.81 C 195.27 639.58 195.12 641.14 195.04 641.91 C 195.30 642.88 195.59 643.84 195.93 644.80 C 197.56 648.67 199.32 652.95 197.34 657.07 C 196.91 657.31 196.06 657.81 195.64 658.05 C 191.90 660.04 187.59 660.41 183.43 660.37 C 182.88 660.37 181.79 660.37 181.24 660.37 C 179.92 659.49 178.13 658.85 177.76 657.12 C 176.67 653.21 176.33 649.13 175.68 645.13 C 175.24 642.37 177.29 637.92 174.14 636.51 C 178.31 634.58 182.22 632.18 186.36 630.20 Z" />
</g>
<g id="#656e87ff">
<path fill="#656e87" opacity="1.00" d=" M 844.81 477.85 C 845.34 478.15 846.40 478.74 846.94 479.04 C 846.63 486.51 845.60 495.03 850.61 501.30 C 855.40 507.58 865.08 504.92 870.13 510.84 C 875.35 517.19 873.38 526.41 877.95 533.11 C 881.57 539.41 888.27 543.10 895.18 544.70 C 895.73 545.62 896.29 546.54 896.87 547.47 C 896.18 547.74 895.50 548.00 894.83 548.26 C 891.47 546.93 887.98 545.90 884.82 544.16 C 877.99 540.14 872.87 533.14 871.69 525.24 C 870.60 520.38 870.51 514.18 865.76 511.28 C 860.47 508.65 853.63 509.24 849.36 504.61 C 842.73 497.63 842.38 486.67 844.81 477.85 Z" />
<path fill="#656e87" opacity="1.00" d=" M 861.05 493.23 C 861.54 492.77 862.50 491.85 862.99 491.40 C 865.42 493.83 867.62 496.91 871.11 497.88 C 875.89 499.45 881.80 499.45 885.15 503.80 C 890.18 510.22 888.28 519.36 892.90 526.02 C 896.83 532.72 904.13 536.35 911.53 537.79 C 910.69 538.92 909.73 539.96 908.62 540.82 C 906.41 539.87 904.19 538.99 902.00 538.01 C 894.02 534.57 888.07 526.89 886.62 518.33 C 885.43 513.42 885.42 507.27 880.82 504.12 C 876.38 501.72 870.94 502.03 866.63 499.31 C 864.20 497.88 862.65 495.46 861.05 493.23 Z" />
</g>
<g id="#e9ecf5ff">
<path fill="#e9ecf5" opacity="1.00" d=" M 258.55 496.14 C 259.02 495.94 259.94 495.55 260.41 495.35 C 261.21 495.43 262.01 495.56 262.81 495.72 C 266.38 503.44 270.87 510.69 274.61 518.33 C 276.60 522.47 279.22 526.41 280.18 530.96 C 278.19 534.72 273.57 535.45 270.25 537.58 C 270.28 537.85 270.35 538.40 270.38 538.67 C 273.94 540.92 278.37 541.61 281.54 544.51 C 281.56 547.32 280.40 549.97 279.48 552.58 C 273.90 566.89 267.30 580.79 262.20 595.29 C 261.49 596.93 261.61 598.70 261.98 600.41 C 264.24 596.81 265.27 592.65 266.77 588.72 C 270.86 578.29 275.47 568.07 279.65 557.68 C 281.24 553.04 284.36 548.17 282.93 543.14 C 280.57 540.81 277.37 539.67 274.53 538.10 C 277.30 536.08 281.49 534.76 282.28 531.03 C 281.17 525.48 277.83 520.70 275.47 515.63 C 272.44 509.26 268.56 503.32 265.87 496.79 C 273.30 499.58 280.28 503.59 286.27 508.81 C 287.29 509.70 288.08 510.82 288.77 511.98 C 290.69 516.41 295.44 518.24 299.26 520.64 C 306.40 524.86 314.78 526.72 323.04 526.13 C 332.37 525.87 340.81 521.53 349.36 518.30 C 355.87 515.84 361.92 512.34 368.27 509.50 C 371.37 512.48 374.09 515.96 377.84 518.19 C 378.51 522.73 374.90 526.01 372.42 529.32 C 367.29 535.50 361.73 541.45 355.17 546.13 C 340.48 557.28 321.49 562.64 303.15 560.70 C 298.57 560.27 294.16 558.61 289.55 558.57 C 288.86 564.45 287.93 570.91 290.50 576.46 C 290.07 576.32 289.20 576.03 288.77 575.88 C 288.59 597.52 289.62 619.20 291.92 640.71 C 284.65 642.61 276.89 642.83 270.00 646.02 C 267.12 647.10 268.03 650.65 268.03 653.04 C 268.89 661.44 269.59 669.92 271.75 678.11 C 272.49 680.24 272.94 682.91 275.08 684.13 C 278.41 684.59 281.72 683.54 284.97 682.92 C 288.57 682.03 292.33 681.60 295.74 680.06 C 295.84 679.81 296.04 679.29 296.14 679.04 C 296.01 678.89 295.74 678.59 295.61 678.44 C 289.29 679.68 283.16 682.00 276.70 682.46 C 274.88 682.75 274.57 680.33 273.94 679.13 C 271.69 671.26 270.89 663.07 270.09 654.95 C 272.34 656.95 274.60 660.28 278.06 659.34 C 283.13 658.32 288.33 657.42 293.13 655.42 C 293.01 655.14 292.77 654.59 292.64 654.32 C 286.91 654.49 281.50 658.03 275.65 657.46 C 272.28 655.49 271.19 651.40 269.79 648.02 C 275.71 645.59 282.05 644.44 288.33 643.45 C 289.85 642.98 291.03 644.06 292.31 644.68 C 292.30 647.87 292.64 651.07 293.59 654.13 C 293.29 660.44 294.79 666.64 295.50 672.88 C 295.58 675.05 296.63 676.98 297.25 679.01 C 296.73 686.54 300.96 693.43 300.60 700.95 C 300.63 704.73 299.18 708.38 296.79 711.27 C 292.77 714.88 287.61 716.72 282.52 718.25 C 278.74 719.39 274.54 720.74 270.68 719.24 C 266.99 717.29 264.81 713.48 263.19 709.79 C 259.99 702.15 258.24 694.01 256.48 685.94 C 254.88 677.99 253.01 670.08 252.23 662.00 C 251.06 651.15 251.48 640.19 252.53 629.35 C 254.56 608.27 259.44 587.63 263.37 566.86 C 266.72 549.09 264.99 530.86 262.21 513.14 C 261.14 507.44 260.45 501.64 258.55 496.14 Z" />
<path fill="#e9ecf5" opacity="1.00" d=" M 214.41 499.03 C 217.93 496.94 221.97 495.78 225.94 497.41 L 226.47 497.49 C 225.70 497.74 224.16 498.24 223.39 498.49 C 224.58 511.69 227.52 524.69 231.76 537.23 C 236.60 550.65 241.81 563.99 244.85 577.97 C 248.78 594.80 249.52 612.61 245.06 629.42 C 240.96 644.65 235.19 659.37 228.90 673.82 C 223.98 684.91 218.67 695.88 212.12 706.12 C 209.26 710.46 206.17 714.82 201.96 717.96 C 197.71 720.83 192.17 719.69 187.59 718.27 C 174.30 713.52 162.82 704.88 152.03 695.99 C 149.11 693.94 151.40 690.25 152.25 687.63 C 158.98 672.91 167.53 659.09 175.68 645.13 C 176.33 649.13 176.67 653.21 177.76 657.12 C 178.13 658.85 179.92 659.49 181.24 660.37 C 179.96 664.14 178.34 667.89 178.04 671.90 C 179.06 674.96 182.10 676.69 184.63 678.41 C 189.56 681.30 194.64 684.11 200.10 685.88 C 202.25 686.71 203.96 684.68 205.19 683.22 C 209.16 677.78 211.92 671.55 214.36 665.31 C 215.31 662.65 216.45 659.91 216.31 657.04 C 215.18 654.79 212.98 653.39 211.03 651.94 C 205.83 648.39 200.54 644.98 195.04 641.91 C 195.12 641.14 195.27 639.58 195.34 638.81 C 198.38 641.20 201.73 643.54 205.83 642.66 C 205.95 637.18 200.62 633.98 196.34 631.80 C 193.24 630.68 189.63 628.45 186.36 630.20 C 182.22 632.18 178.31 634.58 174.14 636.51 C 166.29 621.12 160.39 604.38 159.34 587.03 C 158.27 571.25 163.55 555.78 171.09 542.13 C 176.24 532.92 182.56 524.32 190.12 516.94 C 196.64 510.60 203.76 504.88 211.78 500.56 C 208.39 512.01 203.99 523.19 201.58 534.92 C 201.32 536.81 200.88 539.13 202.43 540.62 C 204.67 542.89 208.03 543.31 210.95 544.25 C 208.93 546.08 206.32 547.63 205.33 550.30 C 204.75 552.34 206.75 553.75 208.06 554.93 C 219.33 563.79 232.75 571.52 238.93 585.11 C 241.59 589.40 242.11 595.03 246.13 598.41 C 245.20 592.11 241.84 586.56 238.99 580.97 C 231.86 567.61 217.58 560.84 206.79 550.96 C 209.53 547.59 213.80 545.99 216.40 542.51 C 212.38 541.81 207.82 542.22 204.41 539.60 C 202.73 538.52 203.41 536.33 203.63 534.72 C 206.31 522.56 210.96 510.96 214.41 499.03 M 185.78 590.06 C 185.10 601.01 186.02 612.16 188.59 622.82 C 192.08 615.01 196.73 607.60 198.67 599.16 C 199.96 594.19 199.07 589.03 198.77 583.99 C 198.46 578.59 198.18 573.18 197.51 567.81 C 192.55 574.54 186.15 581.22 185.78 590.06 Z" />
<path fill="#e9ecf5" opacity="1.00" d=" M 832.17 503.26 L 832.85 501.66 C 832.44 507.78 833.11 514.73 837.68 519.29 C 840.09 521.88 843.78 522.04 847.05 522.55 C 852.93 523.29 857.93 527.58 860.42 532.83 C 862.11 536.31 861.52 540.42 863.11 543.94 C 865.45 548.74 870.74 551.55 875.95 551.78 C 882.46 552.39 888.78 550.42 894.83 548.26 C 895.50 548.00 896.18 547.74 896.87 547.47 C 897.28 547.29 898.09 546.92 898.50 546.74 C 900.78 556.20 904.75 565.19 906.37 574.83 C 908.53 583.30 904.94 592.09 899.72 598.70 C 897.95 601.19 895.49 603.86 896.24 607.18 C 900.29 620.53 904.53 633.83 908.91 647.08 C 911.57 655.58 915.13 663.86 916.27 672.76 C 917.88 684.41 917.99 696.34 915.93 707.94 C 915.19 711.09 914.66 714.99 911.58 716.75 C 909.52 718.04 907.30 719.16 904.94 719.73 C 903.86 719.99 902.80 720.27 901.76 720.57 C 897.88 722.90 893.34 723.55 889.05 724.74 C 883.12 726.05 877.11 727.55 870.99 727.40 C 868.14 727.57 866.58 724.77 865.38 722.64 C 861.33 714.52 859.23 705.62 856.84 696.92 C 855.71 701.17 854.71 705.47 853.42 709.69 C 851.32 715.67 849.41 722.25 844.57 726.66 C 841.33 728.92 837.15 729.08 833.39 729.88 C 819.45 732.05 804.86 730.04 792.14 723.89 C 786.99 721.30 781.89 718.25 778.02 713.91 C 775.33 711.25 776.61 707.20 777.04 703.93 C 780.14 688.49 784.85 673.42 789.65 658.43 C 793.67 646.37 797.73 634.30 802.94 622.69 C 805.13 617.79 806.10 612.47 807.12 607.23 C 808.11 601.86 808.43 596.40 809.03 590.98 C 809.40 588.28 808.96 585.59 808.25 582.99 C 794.47 589.89 778.90 594.85 763.34 592.65 C 750.09 589.81 738.80 580.89 731.03 570.03 C 729.71 568.06 730.05 565.54 729.78 563.31 C 730.74 563.61 731.72 563.84 732.73 563.99 C 736.21 560.71 739.18 556.90 742.03 553.07 C 747.75 557.84 754.45 561.52 761.61 563.60 C 768.12 565.44 776.06 563.86 780.08 558.06 C 786.55 549.10 790.02 538.39 796.23 529.27 C 804.54 517.26 818.27 510.61 831.65 505.82 C 831.80 504.95 831.97 504.10 832.17 503.26 M 828.21 565.20 C 823.82 571.46 817.78 576.38 811.27 580.29 C 810.14 580.93 809.06 581.80 808.68 583.11 C 813.94 582.13 817.89 578.10 821.91 574.88 C 825.78 570.90 830.60 567.20 832.24 561.68 C 830.34 562.10 829.26 563.73 828.21 565.20 M 885.20 564.42 C 885.74 574.41 888.73 584.11 891.29 593.75 C 892.40 597.17 892.69 601.05 895.17 603.87 C 895.73 602.26 895.40 600.61 894.92 599.04 C 891.64 587.42 888.28 575.75 886.87 563.72 C 886.45 563.90 885.62 564.24 885.20 564.42 Z" />
<path fill="#e9ecf5" opacity="1.00" d=" M 195.93 644.80 C 202.37 648.38 208.55 652.46 214.27 657.11 C 212.76 659.42 211.32 662.98 208.04 662.86 C 204.04 661.87 200.93 658.94 197.34 657.07 C 199.32 652.95 197.56 648.67 195.93 644.80 Z" />
<path fill="#e9ecf5" opacity="1.00" d=" M 183.43 660.37 C 187.59 660.41 191.90 660.04 195.64 658.05 C 199.10 660.41 202.43 663.09 206.38 664.62 C 208.64 665.69 210.88 664.25 212.95 663.43 C 210.41 669.77 207.82 676.21 203.74 681.75 C 202.79 683.13 201.20 684.53 199.45 683.55 C 194.14 681.50 189.15 678.67 184.26 675.78 C 182.42 674.44 179.41 672.87 180.28 670.11 C 181.01 666.77 182.37 663.61 183.43 660.37 Z" />
</g>
<g id="#c4d1f4ff">
<path fill="#c4d1f4" opacity="1.00" d=" M 262.81 495.72 C 263.83 496.05 264.86 496.41 265.87 496.79 C 268.56 503.32 272.44 509.26 275.47 515.63 C 277.83 520.70 281.17 525.48 282.28 531.03 C 281.49 534.76 277.30 536.08 274.53 538.10 C 277.37 539.67 280.57 540.81 282.93 543.14 C 284.36 548.17 281.24 553.04 279.65 557.68 C 275.47 568.07 270.86 578.29 266.77 588.72 C 265.27 592.65 264.24 596.81 261.98 600.41 C 261.61 598.70 261.49 596.93 262.20 595.29 C 267.30 580.79 273.90 566.89 279.48 552.58 C 280.40 549.97 281.56 547.32 281.54 544.51 C 278.37 541.61 273.94 540.92 270.38 538.67 C 270.35 538.40 270.28 537.85 270.25 537.58 C 273.57 535.45 278.19 534.72 280.18 530.96 C 279.22 526.41 276.60 522.47 274.61 518.33 C 270.87 510.69 266.38 503.44 262.81 495.72 Z" />
<path fill="#c4d1f4" opacity="1.00" d=" M 211.78 500.56 C 212.64 500.02 213.52 499.51 214.41 499.03 C 210.96 510.96 206.31 522.56 203.63 534.72 C 203.41 536.33 202.73 538.52 204.41 539.60 C 207.82 542.22 212.38 541.81 216.40 542.51 C 213.80 545.99 209.53 547.59 206.79 550.96 C 217.58 560.84 231.86 567.61 238.99 580.97 C 241.84 586.56 245.20 592.11 246.13 598.41 C 242.11 595.03 241.59 589.40 238.93 585.11 C 232.75 571.52 219.33 563.79 208.06 554.93 C 206.75 553.75 204.75 552.34 205.33 550.30 C 206.32 547.63 208.93 546.08 210.95 544.25 C 208.03 543.31 204.67 542.89 202.43 540.62 C 200.88 539.13 201.32 536.81 201.58 534.92 C 203.99 523.19 208.39 512.01 211.78 500.56 Z" />
<path fill="#c4d1f4" opacity="1.00" d=" M 195.04 641.91 C 200.54 644.98 205.83 648.39 211.03 651.94 C 212.98 653.39 215.18 654.79 216.31 657.04 C 216.45 659.91 215.31 662.65 214.36 665.31 C 211.92 671.55 209.16 677.78 205.19 683.22 C 203.96 684.68 202.25 686.71 200.10 685.88 C 194.64 684.11 189.56 681.30 184.63 678.41 C 182.10 676.69 179.06 674.96 178.04 671.90 C 178.34 667.89 179.96 664.14 181.24 660.37 C 181.79 660.37 182.88 660.37 183.43 660.37 C 182.37 663.61 181.01 666.77 180.28 670.11 C 179.41 672.87 182.42 674.44 184.26 675.78 C 189.15 678.67 194.14 681.50 199.45 683.55 C 201.20 684.53 202.79 683.13 203.74 681.75 C 207.82 676.21 210.41 669.77 212.95 663.43 C 210.88 664.25 208.64 665.69 206.38 664.62 C 202.43 663.09 199.10 660.41 195.64 658.05 C 196.06 657.81 196.91 657.31 197.34 657.07 C 200.93 658.94 204.04 661.87 208.04 662.86 C 211.32 662.98 212.76 659.42 214.27 657.11 C 208.55 652.46 202.37 648.38 195.93 644.80 C 195.59 643.84 195.30 642.88 195.04 641.91 Z" />
</g>
<g id="#171b292b">
<path fill="#171b29" opacity="0.17" d=" M 551.44 574.76 C 561.19 570.69 570.73 566.12 580.08 561.19 C 584.57 562.78 589.38 562.18 594.06 562.22 C 608.71 562.21 623.36 562.22 638.02 562.22 C 643.01 562.17 648.09 562.69 653.00 561.44 C 651.50 567.91 649.95 574.37 648.50 580.86 C 613.99 580.80 579.47 580.83 544.96 580.90 C 542.94 580.91 541.00 580.31 539.10 579.72 C 543.25 578.17 547.37 576.54 551.44 574.76 Z" />
</g>
<g id="#dee4f7ff">
<path fill="#dee4f7" opacity="1.00" d=" M 396.94 562.20 C 407.96 561.86 418.98 562.31 430.00 561.95 C 431.20 564.91 432.27 567.92 433.68 570.79 C 434.38 570.35 435.00 569.80 435.54 569.16 C 437.92 575.10 439.59 581.47 443.27 586.78 C 446.86 591.01 452.88 591.60 458.04 592.25 C 476.02 593.54 493.83 589.61 511.18 585.33 C 512.17 585.06 513.17 584.78 514.17 584.49 C 526.54 580.84 538.63 576.34 550.63 571.64 C 550.19 572.38 549.77 573.12 549.35 573.88 C 549.87 574.10 550.91 574.54 551.44 574.76 C 547.37 576.54 543.25 578.17 539.10 579.72 C 525.80 584.51 512.26 588.69 498.42 591.65 C 481.88 594.74 464.56 597.86 447.93 593.63 C 442.19 592.04 438.93 586.83 436.85 581.64 C 425.83 585.44 414.69 589.05 403.20 591.12 C 401.38 581.42 398.50 571.95 396.94 562.20 Z" />
</g>
<g id="#14172425">
<path fill="#141724" opacity="0.15" d=" M 656.06 561.96 C 663.41 562.11 670.77 562.03 678.13 562.08 C 678.17 564.62 678.22 567.16 678.21 569.71 C 677.65 570.72 677.08 571.74 676.50 572.75 C 670.33 572.99 664.14 573.03 657.97 572.92 C 656.26 573.09 654.89 572.17 654.04 570.78 C 654.67 567.83 655.38 564.90 656.06 561.96 Z" />
</g>
<g id="#c2d0f4ff">
<path fill="#c2d0f4" opacity="1.00" d=" M 828.21 565.20 C 829.26 563.73 830.34 562.10 832.24 561.68 C 830.60 567.20 825.78 570.90 821.91 574.88 C 817.89 578.10 813.94 582.13 808.68 583.11 C 809.06 581.80 810.14 580.93 811.27 580.29 C 817.78 576.38 823.82 571.46 828.21 565.20 Z" />
</g>
<g id="#c5d2f4ff">
<path fill="#c5d2f4" opacity="1.00" d=" M 885.20 564.42 C 885.62 564.24 886.45 563.90 886.87 563.72 C 888.28 575.75 891.64 587.42 894.92 599.04 C 895.40 600.61 895.73 602.26 895.17 603.87 C 892.69 601.05 892.40 597.17 891.29 593.75 C 888.73 584.11 885.74 574.41 885.20 564.42 Z" />
</g>
<g id="#1a1e2e30">
<path fill="#1a1e2e" opacity="0.19" d=" M 676.50 572.75 C 677.08 571.74 677.65 570.72 678.21 569.71 C 678.41 573.78 678.57 577.91 677.61 581.91 C 676.31 579.39 673.31 580.08 671.01 579.97 C 664.68 580.10 658.34 580.27 652.03 579.57 C 652.70 576.64 653.37 573.70 654.04 570.78 C 654.89 572.17 656.26 573.09 657.97 572.92 C 664.14 573.03 670.33 572.99 676.50 572.75 Z" />
</g>
<g id="#21263b3d">
<path fill="#21263b" opacity="0.24" d=" M 498.42 591.65 C 512.26 588.69 525.80 584.51 539.10 579.72 C 541.00 580.31 542.94 580.91 544.96 580.90 C 579.47 580.83 613.99 580.80 648.50 580.86 C 647.59 584.91 646.64 588.95 645.73 593.01 C 600.50 593.34 555.26 593.03 510.03 593.15 C 506.14 593.06 501.86 593.97 498.42 591.65 Z" />
</g>
<g id="#1f243739">
<path fill="#1f2437" opacity="0.22" d=" M 650.10 587.97 C 650.74 585.17 651.38 582.37 652.03 579.57 C 658.34 580.27 664.68 580.10 671.01 579.97 C 673.31 580.08 676.31 579.39 677.61 581.91 C 676.97 584.67 676.11 587.37 675.42 590.11 C 675.19 589.68 674.74 588.81 674.51 588.37 C 666.38 587.88 658.22 588.60 650.10 587.97 Z" />
</g>
<g id="#232a4042">
<path fill="#232a40" opacity="0.26" d=" M 403.20 591.12 C 414.69 589.05 425.83 585.44 436.85 581.64 C 438.93 586.83 442.19 592.04 447.93 593.63 C 445.47 594.93 442.71 595.30 439.97 595.15 C 428.14 594.82 416.30 595.52 404.48 594.73 C 404.22 593.76 403.97 592.79 403.72 591.84 C 395.40 592.75 387.14 594.99 378.71 594.42 C 386.90 593.57 395.12 592.80 403.20 591.12 Z" />
</g>
<g id="#272e4749">
<path fill="#272e47" opacity="0.29" d=" M 650.10 587.97 C 658.22 588.60 666.38 587.88 674.51 588.37 C 674.74 588.81 675.19 589.68 675.42 590.11 C 673.78 596.81 672.37 603.56 670.61 610.23 C 670.43 609.42 670.08 607.81 669.91 607.00 C 663.27 606.42 656.62 606.93 649.98 606.77 C 648.47 606.88 647.12 606.30 646.17 605.15 C 647.48 599.42 648.77 593.69 650.10 587.97 Z" />
</g>
<g id="#29314b4d">
<path fill="#29314b" opacity="0.30" d=" M 447.93 593.63 C 464.56 597.86 481.88 594.74 498.42 591.65 C 501.86 593.97 506.14 593.06 510.03 593.15 C 555.26 593.03 600.50 593.34 645.73 593.01 C 644.68 597.66 643.58 602.29 642.53 606.94 C 565.68 607.07 488.83 606.88 411.99 606.97 C 410.49 607.10 409.01 607.39 407.54 607.69 C 406.44 603.39 405.58 599.03 404.48 594.73 C 416.30 595.52 428.14 594.82 439.97 595.15 C 442.71 595.30 445.47 594.93 447.93 593.63 Z" />
</g>
<g id="#30385659">
<path fill="#303856" opacity="0.35" d=" M 644.23 613.73 C 644.81 610.85 645.51 608.01 646.17 605.15 C 647.12 606.30 648.47 606.88 649.98 606.77 C 656.62 606.93 663.27 606.42 669.91 607.00 C 670.08 607.81 670.43 609.42 670.61 610.23 C 669.96 613.17 669.19 616.10 668.47 619.03 C 668.24 618.62 667.78 617.79 667.55 617.38 C 660.11 616.85 652.65 617.56 645.22 617.01 C 644.97 616.19 644.48 614.55 644.23 613.73 Z" />
</g>
<g id="#313a585b">
<path fill="#313a58" opacity="0.36" d=" M 407.54 607.69 C 409.01 607.39 410.49 607.10 411.99 606.97 C 488.83 606.88 565.68 607.07 642.53 606.94 C 641.67 610.76 640.77 614.58 639.91 618.41 C 633.29 617.66 626.64 618.08 620.00 617.97 C 554.32 618.05 488.64 617.96 422.96 618.01 C 418.70 617.86 414.39 617.68 410.22 618.75 C 409.33 615.06 408.47 611.37 407.54 607.69 Z" />
</g>
<g id="#3a44686b">
<path fill="#3a4468" opacity="0.42" d=" M 638.99 636.54 C 640.78 628.94 642.37 621.31 644.23 613.73 C 644.48 614.55 644.97 616.19 645.22 617.01 C 652.65 617.56 660.11 616.85 667.55 617.38 C 667.78 617.79 668.24 618.62 668.47 619.03 C 666.83 625.73 665.36 632.47 663.66 639.16 C 663.39 638.42 662.84 636.93 662.57 636.18 C 654.71 636.12 646.79 635.43 638.99 636.54 Z" />
</g>
<g id="#38416467">
<path fill="#384164" opacity="0.40" d=" M 410.22 618.75 C 414.39 617.68 418.70 617.86 422.96 618.01 C 488.64 617.96 554.32 618.05 620.00 617.97 C 626.64 618.08 633.29 617.66 639.91 618.41 C 639.09 622.03 638.25 625.65 637.44 629.28 C 632.00 630.30 626.47 629.85 620.99 629.89 C 556.33 629.92 491.67 629.90 427.02 629.90 C 422.37 629.89 417.62 629.36 413.11 630.80 C 412.14 626.79 411.20 622.76 410.22 618.75 Z" />
</g>
<g id="#3f4a7275">
<path fill="#3f4a72" opacity="0.46" d=" M 620.99 629.89 C 626.47 629.85 632.00 630.30 637.44 629.28 C 636.46 633.57 635.44 637.85 634.48 642.15 C 606.98 641.61 579.48 642.27 551.98 641.94 C 508.66 642.00 465.34 642.00 422.02 641.92 C 419.99 642.00 418.00 642.47 416.03 642.90 C 415.03 638.87 414.10 634.83 413.11 630.80 C 417.62 629.36 422.37 629.89 427.02 629.90 C 491.67 629.90 556.33 629.92 620.99 629.89 Z" />
</g>
<g id="#46537e82">
<path fill="#46537e" opacity="0.51" d=" M 638.99 636.54 C 646.79 635.43 654.71 636.12 662.57 636.18 C 662.84 636.93 663.39 638.42 663.66 639.16 C 662.23 644.76 661.02 650.42 659.62 656.03 C 651.91 655.34 644.17 656.07 636.46 655.56 C 636.12 655.08 635.44 654.12 635.10 653.64 C 636.37 647.93 637.65 642.23 638.99 636.54 Z" />
</g>
<g id="#becdf4ff">
<path fill="#becdf4" opacity="1.00" d=" M 270.00 646.02 C 276.89 642.83 284.65 642.61 291.92 640.71 C 292.17 642.01 292.24 643.34 292.31 644.68 C 291.03 644.06 289.85 642.98 288.33 643.45 C 282.05 644.44 275.71 645.59 269.79 648.02 C 271.19 651.40 272.28 655.49 275.65 657.46 C 281.50 658.03 286.91 654.49 292.64 654.32 C 292.77 654.59 293.01 655.14 293.13 655.42 C 288.33 657.42 283.13 658.32 278.06 659.34 C 274.60 660.28 272.34 656.95 270.09 654.95 C 270.89 663.07 271.69 671.26 273.94 679.13 C 274.57 680.33 274.88 682.75 276.70 682.46 C 283.16 682.00 289.29 679.68 295.61 678.44 C 295.74 678.59 296.01 678.89 296.14 679.04 C 296.04 679.29 295.84 679.81 295.74 680.06 C 292.33 681.60 288.57 682.03 284.97 682.92 C 281.72 683.54 278.41 684.59 275.08 684.13 C 272.94 682.91 272.49 680.24 271.75 678.11 C 269.59 669.92 268.89 661.44 268.03 653.04 C 268.03 650.65 267.12 647.10 270.00 646.02 Z" />
</g>
<g id="#48558185">
<path fill="#485581" opacity="0.52" d=" M 416.03 642.90 C 418.00 642.47 419.99 642.00 422.02 641.92 C 465.34 642.00 508.66 642.00 551.98 641.94 C 579.48 642.27 606.98 641.61 634.48 642.15 C 633.49 646.56 632.45 650.96 631.46 655.37 C 625.31 656.11 619.11 655.86 612.94 655.85 C 570.62 655.84 528.31 655.87 486.00 655.87 C 481.18 655.91 476.35 655.97 471.57 655.31 C 471.23 653.25 470.83 651.20 470.43 649.17 C 469.46 649.28 468.50 649.41 467.54 649.54 C 467.64 650.53 467.75 651.53 467.87 652.54 C 467.56 653.36 466.94 655.01 466.63 655.84 C 450.84 656.31 435.02 655.38 419.24 656.26 C 418.13 651.81 417.12 647.35 416.03 642.90 Z" />
</g>
<g id="#515f9296">
<path fill="#515f92" opacity="0.59" d=" M 467.87 652.54 C 468.90 658.01 469.81 663.51 470.76 669.01 C 469.34 671.43 466.36 670.87 464.02 670.97 C 453.00 670.76 441.97 670.97 430.95 670.84 C 428.25 670.73 425.59 671.24 422.99 671.92 C 421.69 666.71 420.53 661.47 419.24 656.26 C 435.02 655.38 450.84 656.31 466.63 655.84 C 466.94 655.01 467.56 653.36 467.87 652.54 Z" />
</g>
<g id="#505d8f93">
<path fill="#505d8f" opacity="0.58" d=" M 633.44 660.78 C 633.93 658.38 634.53 656.01 635.10 653.64 C 635.44 654.12 636.12 655.08 636.46 655.56 C 644.17 656.07 651.91 655.34 659.62 656.03 C 658.70 659.72 657.82 663.42 656.94 667.13 C 656.05 665.75 654.69 665.01 653.06 665.17 C 646.80 664.99 640.53 665.38 634.28 664.97 C 633.98 663.57 633.70 662.17 633.44 660.78 Z" />
<path fill="#505d8f" opacity="0.58" d=" M 471.57 655.31 C 476.35 655.97 481.18 655.91 486.00 655.87 C 528.31 655.87 570.62 655.84 612.94 655.85 C 619.11 655.86 625.31 656.11 631.46 655.37 C 630.62 659.05 629.75 662.73 628.92 666.42 C 577.10 665.82 525.25 666.43 473.42 666.07 C 472.81 662.48 472.18 658.89 471.57 655.31 Z" />
</g>
<g id="#57669ca0">
<path fill="#57669c" opacity="0.63" d=" M 630.22 674.79 C 631.28 670.11 632.34 665.44 633.44 660.78 C 633.70 662.17 633.98 663.57 634.28 664.97 C 640.53 665.38 646.80 664.99 653.06 665.17 C 654.69 665.01 656.05 665.75 656.94 667.13 C 655.94 671.42 654.86 675.70 653.87 680.00 C 652.96 678.73 651.66 677.93 650.08 678.02 C 643.86 677.68 637.63 678.28 631.42 677.84 C 631.12 677.07 630.52 675.55 630.22 674.79 Z" />
</g>
<g id="#58689fa3">
<path fill="#58689f" opacity="0.64" d=" M 473.42 666.07 C 525.25 666.43 577.10 665.82 628.92 666.42 C 627.74 671.76 626.44 677.07 625.27 682.42 C 620.84 682.87 616.40 682.95 611.96 682.85 C 596.97 682.80 581.99 682.83 567.01 682.85 C 560.26 682.74 553.48 683.25 546.77 682.31 C 545.71 682.47 544.67 682.64 543.61 682.74 C 534.76 683.27 525.86 682.78 516.98 682.95 C 503.44 683.33 489.90 682.54 476.36 683.08 C 475.42 677.40 474.35 671.75 473.42 666.07 Z" />
</g>
<g id="#5a6aa2a6">
<path fill="#5a6aa2" opacity="0.65" d=" M 470.76 669.01 C 471.36 672.60 472.03 676.18 472.58 679.79 C 472.35 680.58 471.89 682.17 471.67 682.97 C 457.75 683.34 443.83 683.01 429.92 683.11 C 428.34 682.95 426.99 683.68 426.12 684.98 C 425.08 680.62 424.05 676.26 422.99 671.92 C 425.59 671.24 428.25 670.73 430.95 670.84 C 441.97 670.97 453.00 670.76 464.02 670.97 C 466.36 670.87 469.34 671.43 470.76 669.01 Z" />
</g>
<g id="#5e6fa9ae">
<path fill="#5e6fa9" opacity="0.68" d=" M 627.16 688.19 C 628.17 683.72 629.18 679.25 630.22 674.79 C 630.52 675.55 631.12 677.07 631.42 677.84 C 637.63 678.28 643.86 677.68 650.08 678.02 C 651.66 677.93 652.96 678.73 653.87 680.00 C 652.92 684.10 651.90 688.19 650.92 692.30 C 650.59 691.50 649.93 689.92 649.59 689.13 C 642.12 688.34 634.52 689.93 627.16 688.19 Z" />
</g>
<g id="#6374b1b6">
<path fill="#6374b1" opacity="0.71" d=" M 472.58 679.79 C 473.72 685.83 474.62 691.91 475.73 697.95 C 460.93 698.42 446.12 697.99 431.32 698.19 C 430.96 699.56 430.62 700.93 430.31 702.33 C 428.84 696.56 427.49 690.76 426.12 684.98 C 426.99 683.68 428.34 682.95 429.92 683.11 C 443.83 683.01 457.75 683.34 471.67 682.97 C 471.89 682.17 472.35 680.58 472.58 679.79 Z" />
<path fill="#6374b1" opacity="0.71" d=" M 476.36 683.08 C 489.90 682.54 503.44 683.33 516.98 682.95 C 525.86 682.78 534.76 683.27 543.61 682.74 C 543.59 687.85 542.89 692.93 542.56 698.03 C 523.03 697.76 503.50 697.93 483.97 697.93 C 481.99 698.05 480.21 697.17 478.57 696.21 C 477.87 691.82 477.06 687.46 476.36 683.08 Z" />
</g>
<g id="#6171adb2">
<path fill="#6171ad" opacity="0.70" d=" M 546.77 682.31 C 553.48 683.25 560.26 682.74 567.01 682.85 C 581.99 682.83 596.97 682.80 611.96 682.85 C 616.40 682.95 620.84 682.87 625.27 682.42 C 624.47 685.96 623.63 689.50 622.84 693.05 C 604.89 693.06 586.94 693.12 568.98 693.08 C 561.38 692.80 553.75 693.50 546.17 692.71 C 546.48 689.25 546.67 685.78 546.77 682.31 Z" />
</g>
<g id="#6476b4b9">
<path fill="#6476b4" opacity="0.73" d=" M 625.25 696.27 C 625.89 693.58 626.54 690.89 627.16 688.19 C 634.52 689.93 642.12 688.34 649.59 689.13 C 649.93 689.92 650.59 691.50 650.92 692.30 C 650.21 695.26 649.49 698.23 648.78 701.19 C 648.46 700.45 647.83 698.97 647.52 698.23 C 641.34 697.82 635.16 698.30 628.98 698.12 C 627.41 698.30 626.33 697.18 625.25 696.27 Z" />
</g>
<g id="#687ababf">
<path fill="#687aba" opacity="0.75" d=" M 545.25 704.15 C 545.54 700.33 545.78 696.52 546.17 692.71 C 553.75 693.50 561.38 692.80 568.98 693.08 C 586.94 693.12 604.89 693.06 622.84 693.05 C 622.03 696.63 621.18 700.21 620.38 703.80 C 595.35 704.62 570.29 703.96 545.25 704.15 Z" />
</g>
<g id="#6a7dbfc4">
<path fill="#6a7dbf" opacity="0.77" d=" M 478.57 696.21 C 480.21 697.17 481.99 698.05 483.97 697.93 C 503.50 697.93 523.03 697.76 542.56 698.03 C 542.32 702.00 541.89 705.96 541.62 709.94 C 522.75 709.79 503.88 710.04 485.01 709.87 C 483.36 709.94 481.99 708.97 480.63 708.21 C 480.01 704.19 479.28 700.20 478.57 696.21 Z" />
</g>
<g id="#6b7ec1c6">
<path fill="#6b7ec1" opacity="0.78" d=" M 622.21 709.81 C 623.26 705.30 624.26 700.79 625.25 696.27 C 626.33 697.18 627.41 698.30 628.98 698.12 C 635.16 698.30 641.34 697.82 647.52 698.23 C 647.83 698.97 648.46 700.45 648.78 701.19 C 648.07 704.14 647.38 707.09 646.67 710.04 C 638.52 710.19 630.35 710.39 622.21 709.81 Z" />
</g>
<g id="#6d80c4c9">
<path fill="#6d80c4" opacity="0.79" d=" M 431.32 698.19 C 446.12 697.99 460.93 698.42 475.73 697.95 C 476.81 703.86 477.70 709.81 478.78 715.72 C 464.32 716.30 449.82 715.66 435.35 716.12 C 435.11 716.92 434.62 718.51 434.37 719.31 C 432.93 713.67 431.60 708.00 430.31 702.33 C 430.62 700.93 430.96 699.56 431.32 698.19 Z" />
</g>
<g id="#7084cacf">
<path fill="#7084ca" opacity="0.81" d=" M 545.25 704.15 C 570.29 703.96 595.35 704.62 620.38 703.80 C 619.10 709.65 617.61 715.46 616.37 721.33 C 606.30 722.71 596.09 721.61 585.96 722.08 C 572.41 721.67 558.84 722.49 545.30 721.82 C 545.02 721.03 544.46 719.44 544.18 718.64 C 544.43 713.80 544.82 708.98 545.25 704.15 Z" />
</g>
<g id="#7286cdd2">
<path fill="#7286cd" opacity="0.82" d=" M 480.63 708.21 C 481.99 708.97 483.36 709.94 485.01 709.87 C 503.88 710.04 522.75 709.79 541.62 709.94 C 541.37 713.97 540.96 717.99 540.68 722.02 C 521.46 722.19 502.25 722.05 483.04 722.07 C 482.28 717.44 481.44 712.83 480.63 708.21 Z" />
</g>
<g id="#7488d0d6">
<path fill="#7488d0" opacity="0.84" d=" M 618.22 727.25 C 619.61 721.45 620.84 715.61 622.21 709.81 C 630.35 710.39 638.52 710.19 646.67 710.04 C 645.02 716.71 643.50 723.41 641.87 730.08 C 640.91 728.89 639.74 727.72 638.08 727.90 C 631.47 727.45 624.79 728.49 618.22 727.25 Z" />
</g>
<g id="#788dd7dd">
<path fill="#788dd7" opacity="0.87" d=" M 435.35 716.12 C 449.82 715.66 464.32 716.30 478.78 715.72 C 479.88 721.76 480.80 727.84 481.88 733.89 C 469.93 733.61 457.98 733.91 446.03 733.72 C 443.32 733.70 440.63 734.06 437.96 734.43 C 436.72 729.40 435.53 724.35 434.37 719.31 C 434.62 718.51 435.11 716.92 435.35 716.12 Z" />
</g>
<g id="#7c92dfe5">
<path fill="#7c92df" opacity="0.90" d=" M 542.65 737.09 C 543.21 730.94 543.49 724.77 544.18 718.64 C 544.46 719.44 545.02 721.03 545.30 721.82 C 558.84 722.49 572.41 721.67 585.96 722.08 C 596.09 721.61 606.30 722.71 616.37 721.33 C 614.99 727.54 613.46 733.72 612.09 739.94 C 599.73 739.31 587.41 738.07 575.05 737.71 C 564.24 737.90 553.46 736.65 542.65 737.09 Z" />
</g>
<g id="#7b91dde3">
<path fill="#7b91dd" opacity="0.89" d=" M 483.04 722.07 C 502.25 722.05 521.46 722.19 540.68 722.02 C 540.38 726.99 539.85 731.94 539.48 736.90 C 527.60 736.41 515.77 737.91 503.90 737.65 C 497.86 737.50 491.89 738.94 485.85 738.39 C 484.96 732.94 483.93 727.51 483.04 722.07 Z" />
</g>
<g id="#7f95e4ea">
<path fill="#7f95e4" opacity="0.92" d=" M 615.17 740.67 C 616.15 736.19 617.16 731.71 618.22 727.25 C 624.79 728.49 631.47 727.45 638.08 727.90 C 639.74 727.72 640.91 728.89 641.87 730.08 C 640.81 734.53 639.81 739.00 638.57 743.41 C 630.79 742.33 623.01 741.15 615.17 740.67 Z" />
</g>
<g id="#8197e7ed">
<path fill="#8197e7" opacity="0.93" d=" M 437.96 734.43 C 440.63 734.06 443.32 733.70 446.03 733.72 C 457.98 733.91 469.93 733.61 481.88 733.89 C 482.17 735.57 482.46 737.25 482.75 738.95 C 468.53 740.61 454.07 740.84 440.11 744.18 C 439.51 740.90 438.77 737.65 437.96 734.43 Z" />
</g>
<g id="#8ba3f9ff">
<path fill="#8ba3f9" opacity="1.00" d=" M 503.90 737.65 C 515.77 737.91 527.60 736.41 539.48 736.90 C 539.22 740.30 539.15 743.71 539.20 747.12 C 538.97 747.27 538.49 747.57 538.25 747.72 C 538.12 746.39 537.99 745.07 537.86 743.78 C 521.30 743.58 504.69 743.80 488.18 745.18 C 487.97 745.65 487.56 746.59 487.36 747.06 C 486.82 744.17 486.32 741.28 485.85 738.39 C 491.89 738.94 497.86 737.50 503.90 737.65 Z" />
<path fill="#8ba3f9" opacity="1.00" d=" M 542.65 737.09 C 553.46 736.65 564.24 737.90 575.05 737.71 C 587.41 738.07 599.73 739.31 612.09 739.94 C 611.58 742.07 611.03 744.19 610.55 746.34 C 593.02 745.09 575.49 743.83 557.91 743.76 C 552.61 743.84 547.16 742.87 542.01 744.55 C 542.23 742.06 542.44 739.57 542.65 737.09 Z" />
</g>
<g id="#798edeff">
<path fill="#798ede" opacity="1.00" d=" M 488.18 745.18 C 504.69 743.80 521.30 743.58 537.86 743.78 C 537.99 745.07 538.12 746.39 538.25 747.72 C 538.37 749.91 538.29 752.15 538.62 754.34 C 539.49 754.49 540.37 754.59 541.27 754.65 C 541.51 751.28 541.72 747.91 542.01 744.55 C 547.16 742.87 552.61 743.84 557.91 743.76 C 575.49 743.83 593.02 745.09 610.55 746.34 C 610.35 747.76 610.24 749.21 610.34 750.67 C 613.02 751.60 613.25 748.67 613.82 746.82 C 621.81 748.46 630.69 748.14 637.65 752.95 C 635.81 754.49 633.81 755.92 631.42 756.45 C 622.10 758.90 612.44 759.64 602.88 760.60 C 586.27 761.82 569.62 762.82 552.96 762.81 C 524.32 763.16 495.62 762.62 467.11 759.65 C 460.58 758.87 454.00 758.16 447.65 756.40 C 445.70 755.72 443.10 755.31 442.51 752.98 C 443.49 751.72 444.89 750.92 446.40 750.47 C 458.52 746.76 471.35 747.05 483.74 744.87 C 484.33 748.24 484.95 751.60 485.60 754.96 C 486.49 754.61 487.39 754.32 488.32 754.11 C 488.18 751.73 487.76 749.39 487.36 747.06 C 487.56 746.59 487.97 745.65 488.18 745.18 Z" />
</g>
</svg>
