<?xml version="1.0" encoding="UTF-8" ?>
<!DOCTYPE svg PUBLIC "-//W3C//DTD SVG 1.1//EN" "http://www.w3.org/Graphics/SVG/1.1/DTD/svg11.dtd">
<svg width="1000pt" height="1000pt" viewBox="0 0 1000 1000" version="1.1" xmlns="http://www.w3.org/2000/svg">
<g id="#ffffffff">
<path fill="#ffffff" opacity="1.00" d=" M 658.03 416.98 C 668.99 415.49 680.13 416.99 691.16 416.14 C 712.45 416.20 733.74 416.10 755.02 416.18 C 765.45 417.08 776.00 417.56 786.43 416.40 C 792.53 416.22 798.63 416.46 804.74 416.36 C 805.32 416.36 806.47 416.36 807.05 416.36 C 813.89 416.56 820.76 416.00 827.58 416.61 C 830.91 417.32 831.26 421.21 831.21 424.01 C 831.14 458.22 831.29 492.43 831.13 526.64 C 828.25 527.31 825.44 528.40 823.22 530.39 C 821.10 530.20 818.99 530.01 816.89 529.83 C 816.12 524.90 815.82 519.92 815.39 514.95 C 818.07 514.74 820.76 514.59 823.45 514.43 C 824.06 497.62 823.56 480.78 823.72 463.96 C 823.70 450.76 823.80 437.55 823.64 424.34 C 822.10 424.09 820.56 423.80 819.01 423.73 C 770.01 423.72 721.01 423.73 672.01 423.71 C 669.21 423.89 666.09 423.17 663.51 424.45 C 662.96 426.23 662.93 428.13 662.89 429.99 C 662.97 456.33 662.92 482.67 662.92 509.01 C 663.02 511.12 662.71 515.19 665.98 514.67 C 701.66 514.78 737.35 514.60 773.03 514.76 C 770.81 519.60 769.27 524.76 768.03 529.93 C 765.61 529.99 763.20 530.03 760.80 530.05 C 745.06 530.08 729.32 529.83 713.59 530.23 C 712.85 530.26 711.37 530.31 710.64 530.33 C 708.46 528.63 705.96 526.88 703.05 527.11 C 699.76 527.06 696.92 529.00 694.41 530.90 C 689.06 529.40 683.48 530.31 678.01 530.12 C 671.99 529.94 665.96 530.45 659.95 530.00 C 657.83 530.00 655.90 528.21 655.99 526.05 C 655.63 521.40 655.94 516.72 655.79 512.06 C 655.75 509.75 655.73 507.44 655.76 505.13 C 655.83 501.21 655.91 497.29 655.79 493.37 C 655.74 490.76 655.73 488.16 655.78 485.57 C 655.88 481.97 655.87 478.37 655.77 474.78 C 655.71 472.26 655.73 469.75 655.79 467.24 C 655.92 463.12 655.85 459.01 655.75 454.89 C 655.71 452.59 655.73 450.28 655.77 447.99 C 655.86 443.84 655.90 439.69 655.84 435.55 C 655.81 433.22 655.79 430.89 655.79 428.57 C 655.80 425.39 655.89 422.21 655.93 419.03 C 656.61 418.34 657.31 417.65 658.03 416.98 Z" />
</g>
<g id="#d3e0ffff">
<path fill="#d3e0ff" opacity="1.00" d=" M 188.34 229.08 C 187.52 219.56 196.36 210.34 206.02 211.25 C 392.02 211.21 578.03 211.25 764.04 211.23 C 768.40 211.52 773.19 210.48 777.13 212.91 C 783.10 215.74 787.12 222.33 786.63 228.95 C 786.61 258.57 786.73 288.20 786.57 317.82 C 786.24 350.67 786.49 383.54 786.43 416.40 C 778.09 415.47 769.69 416.23 761.32 415.78 C 761.30 361.17 761.30 306.56 761.32 251.94 C 761.23 248.00 761.78 243.80 760.05 240.12 C 758.34 236.85 754.40 235.79 750.96 235.92 C 575.31 236.00 399.65 235.90 223.99 235.96 C 218.70 235.32 212.70 239.17 213.29 244.98 C 213.26 316.99 213.27 389.01 213.26 461.02 C 213.22 462.62 212.71 464.16 212.28 465.69 C 208.21 461.62 203.60 458.05 198.39 455.57 C 195.32 453.97 191.96 452.88 189.14 450.84 C 187.49 449.50 188.76 447.22 188.92 445.52 C 190.32 445.61 191.78 445.79 193.16 445.36 C 194.21 444.02 194.94 442.48 195.81 441.04 C 196.05 440.83 196.54 440.42 196.78 440.22 L 196.37 439.70 C 196.49 438.99 196.72 437.56 196.84 436.85 C 198.57 436.47 200.31 436.08 202.05 435.70 C 200.39 431.40 198.53 427.16 197.36 422.69 C 200.27 417.89 202.05 411.35 198.88 406.25 C 196.16 402.65 191.80 400.84 187.97 398.68 C 188.55 393.81 188.38 388.89 188.35 384.00 C 188.34 332.36 188.40 280.72 188.34 229.08 Z" />
<path fill="#d3e0ff" opacity="1.00" d=" M 203.81 515.16 C 207.08 516.10 210.26 517.33 213.37 518.71 C 213.33 525.43 213.00 532.17 213.39 538.89 C 213.70 544.05 219.33 546.74 223.97 546.34 C 317.74 546.18 411.52 546.50 505.29 546.18 C 498.95 564.07 492.31 581.85 485.88 599.71 C 483.65 598.97 481.32 598.57 478.98 598.67 C 461.95 598.79 444.93 598.59 427.91 598.77 C 372.60 598.61 317.29 598.76 261.99 598.68 C 249.80 598.89 237.60 598.35 225.43 598.99 C 223.64 591.88 221.64 584.82 219.17 577.92 C 216.35 568.18 213.08 558.54 208.93 549.29 C 206.99 544.30 204.57 539.39 204.26 533.96 C 203.85 527.74 201.47 521.21 203.81 515.16 Z" />
<path fill="#d3e0ff" opacity="1.00" d=" M 691.33 542.81 C 692.83 541.69 694.33 540.58 695.83 539.46 C 697.41 542.75 698.60 546.32 700.97 549.16 C 703.15 550.20 705.62 549.36 707.90 549.15 C 711.19 552.75 714.96 555.86 718.79 558.86 C 687.62 559.39 656.44 558.79 625.27 559.15 C 625.25 562.38 625.25 565.61 625.28 568.85 C 630.78 568.99 636.29 568.95 641.80 568.88 C 641.84 578.87 641.85 588.85 641.83 598.84 C 611.75 598.56 581.67 598.74 551.59 598.73 C 545.24 599.02 538.76 597.96 532.54 599.61 C 528.66 597.76 523.71 597.53 520.68 594.30 C 525.96 580.42 531.01 566.45 535.95 552.45 C 536.31 550.42 536.24 548.36 535.96 546.34 C 586.43 546.33 636.90 546.24 687.37 546.35 C 688.31 548.42 689.34 551.16 692.01 551.36 C 694.72 551.01 696.81 549.15 698.73 547.36 C 697.78 545.42 696.86 543.48 695.95 541.54 C 694.40 541.95 692.87 542.38 691.33 542.81 Z" />
<path fill="#d3e0ff" opacity="1.00" d=" M 648.35 568.97 C 677.23 568.92 706.10 569.00 734.98 568.93 C 740.74 568.85 746.54 569.49 752.28 568.67 L 752.90 568.59 C 751.30 575.40 749.30 582.70 752.08 589.51 C 751.71 591.58 750.93 593.54 750.15 595.49 C 739.08 595.62 728.02 595.56 716.95 595.51 C 714.43 595.58 711.31 595.41 709.72 597.78 C 709.02 599.24 708.63 600.81 708.15 602.35 L 707.95 602.40 C 707.97 601.51 708.02 599.73 708.05 598.84 C 696.37 598.49 684.69 598.80 673.01 598.70 C 664.80 598.81 656.59 598.38 648.39 598.99 C 648.39 588.98 648.46 578.97 648.35 568.97 Z" />
<path fill="#d3e0ff" opacity="1.00" d=" M 461.57 678.50 C 466.61 678.27 471.65 678.56 476.70 678.49 C 476.32 686.08 477.03 693.68 476.45 701.26 C 476.21 699.80 475.98 698.34 475.76 696.89 C 444.53 696.50 413.29 696.85 382.05 696.70 C 381.85 693.83 381.33 690.86 382.19 688.06 C 383.80 683.81 387.38 680.43 391.66 678.95 C 401.40 679.83 411.17 679.02 420.93 679.16 C 434.13 679.30 447.34 679.02 460.54 679.36 C 460.80 679.15 461.31 678.71 461.57 678.50 Z" />
<path fill="#d3e0ff" opacity="1.00" d=" M 563.43 695.77 C 567.22 690.42 570.45 684.61 572.38 678.32 C 574.65 679.95 577.44 679.13 580.01 679.15 C 583.93 678.88 587.73 680.84 590.49 683.52 C 593.24 687.06 593.44 691.81 593.15 696.12 C 583.26 696.41 573.29 696.79 563.43 695.77 Z" />
<path fill="#d3e0ff" opacity="1.00" d=" M 495.74 678.48 C 500.66 678.56 505.62 678.07 510.51 678.86 C 511.99 679.08 513.47 679.23 514.97 679.26 C 528.02 679.14 541.07 679.21 554.12 679.17 C 550.10 687.44 543.02 694.07 534.65 697.80 C 530.97 696.17 526.90 696.65 523.00 696.69 C 513.87 696.91 504.75 696.65 495.62 696.86 C 495.62 690.73 495.56 684.60 495.74 678.48 Z" />
</g>
<g id="#ebf1ffff">
<path fill="#ebf1ff" opacity="1.00" d=" M 213.29 244.98 C 212.70 239.17 218.70 235.32 223.99 235.96 C 399.65 235.90 575.31 236.00 750.96 235.92 C 754.40 235.79 758.34 236.85 760.05 240.12 C 761.78 243.80 761.23 248.00 761.32 251.94 C 761.30 306.56 761.30 361.17 761.32 415.78 C 769.69 416.23 778.09 415.47 786.43 416.40 C 776.00 417.56 765.45 417.08 755.02 416.18 C 733.74 416.10 712.45 416.20 691.16 416.14 C 690.59 414.33 690.92 411.94 689.24 410.68 C 688.18 410.44 687.11 410.32 686.04 410.32 C 666.76 410.37 647.48 410.34 628.20 410.35 C 627.35 412.33 625.79 415.28 628.38 416.68 C 631.44 417.75 634.81 417.23 638.01 417.35 C 644.68 417.13 651.38 417.76 658.03 416.98 C 657.31 417.65 656.61 418.34 655.93 419.03 C 655.89 422.21 655.80 425.39 655.79 428.57 C 653.70 428.76 650.67 429.18 651.00 432.02 C 650.62 434.90 653.63 435.56 655.84 435.55 C 655.90 439.69 655.86 443.84 655.77 447.99 C 638.50 448.20 621.22 447.75 603.96 448.18 C 600.57 448.57 601.35 452.42 602.15 454.68 C 620.01 454.94 637.89 454.58 655.75 454.89 C 655.85 459.01 655.92 463.12 655.79 467.24 C 650.99 467.57 646.16 467.06 641.38 467.56 C 637.90 468.29 638.48 474.50 642.07 474.54 C 646.63 474.76 651.20 474.48 655.77 474.78 C 655.87 478.37 655.88 481.97 655.78 485.57 C 653.80 486.08 650.85 486.28 650.83 488.99 C 650.62 491.85 653.67 492.67 655.79 493.37 C 655.91 497.29 655.83 501.21 655.76 505.13 C 638.83 505.42 621.90 505.09 604.98 505.27 C 602.30 504.84 600.26 508.04 601.66 510.31 C 603.04 512.46 605.88 512.00 608.07 512.14 C 623.97 512.04 639.88 512.18 655.79 512.06 C 655.94 516.72 655.63 521.40 655.99 526.05 C 655.90 528.21 657.83 530.00 659.95 530.00 C 665.96 530.45 671.99 529.94 678.01 530.12 C 683.48 530.31 689.06 529.40 694.41 530.90 C 691.80 533.44 688.92 535.82 686.99 538.94 C 685.51 541.25 686.61 544.00 687.37 546.35 C 636.90 546.24 586.43 546.33 535.96 546.34 C 534.63 544.65 532.95 543.24 530.84 542.66 C 530.71 542.30 530.44 541.59 530.31 541.23 C 531.34 538.37 532.40 535.52 533.51 532.69 C 529.77 530.98 525.88 528.84 521.75 528.59 C 520.12 531.41 519.36 534.62 518.42 537.71 C 516.13 537.09 513.61 536.38 511.33 537.40 C 508.58 538.44 506.97 541.14 506.06 543.80 C 505.87 544.39 505.48 545.58 505.29 546.18 C 411.52 546.50 317.74 546.18 223.97 546.34 C 219.33 546.74 213.70 544.05 213.39 538.89 C 213.00 532.17 213.33 525.43 213.37 518.71 C 218.79 520.51 224.42 521.71 230.01 522.88 C 239.02 523.06 247.64 519.55 255.48 515.39 C 255.81 514.48 256.15 513.59 256.50 512.70 C 263.14 510.46 265.11 503.32 267.99 497.73 C 280.01 497.77 292.03 497.53 304.05 497.85 C 345.01 497.98 385.96 497.82 426.92 497.93 C 426.92 497.50 426.94 496.65 426.94 496.23 C 416.07 496.30 405.19 496.25 394.32 496.26 C 394.47 480.12 394.45 463.97 394.34 447.83 C 390.50 447.67 386.66 447.68 382.83 447.86 C 382.53 463.98 382.72 480.12 382.74 496.25 C 378.85 496.20 374.96 496.24 371.07 496.34 C 371.00 485.23 371.19 474.12 370.96 463.01 C 367.12 462.91 363.28 462.89 359.44 462.92 L 359.42 464.03 C 359.32 474.79 359.35 485.55 359.42 496.31 C 355.53 496.25 351.65 496.23 347.76 496.16 C 347.42 476.52 347.73 456.87 347.61 437.23 C 343.77 437.26 339.94 437.27 336.11 437.26 C 335.81 456.90 336.12 476.54 335.95 496.18 C 332.08 496.25 328.22 496.29 324.35 496.43 C 324.38 466.79 324.33 437.16 324.38 407.53 C 320.50 407.48 316.63 407.47 312.76 407.46 C 312.62 407.46 312.33 407.46 312.18 407.46 C 312.47 437.03 312.33 466.60 312.26 496.17 C 308.43 496.24 304.59 496.28 300.76 496.32 C 300.86 484.59 300.81 472.86 300.79 461.13 C 296.95 460.85 293.09 460.85 289.25 461.12 C 289.28 472.85 289.35 484.58 289.22 496.31 C 282.60 496.44 275.98 496.48 269.37 496.28 C 271.88 492.01 276.13 488.17 276.30 482.96 C 275.05 478.16 269.49 477.28 265.94 474.78 C 264.83 470.77 267.81 466.13 265.87 462.20 C 263.66 460.36 262.35 464.07 261.64 465.63 C 259.48 472.85 256.64 480.05 256.18 487.65 C 250.94 490.76 245.97 494.54 239.98 496.10 C 235.65 497.56 230.21 496.32 227.85 492.17 C 222.24 483.59 219.23 473.42 212.28 465.69 C 212.71 464.16 213.22 462.62 213.26 461.02 C 213.27 389.01 213.26 316.99 213.29 244.98 M 606.87 267.78 C 605.31 269.50 606.09 271.91 606.81 273.83 C 595.05 289.31 583.32 304.83 571.84 320.52 C 569.39 319.73 567.36 321.30 565.10 321.79 C 561.33 320.99 557.95 318.87 554.08 318.41 C 556.71 321.57 561.34 321.58 564.88 323.32 C 565.25 324.56 565.56 325.84 566.12 327.03 C 567.74 329.56 572.19 329.41 573.50 326.62 C 574.07 324.65 573.42 322.59 573.23 320.62 C 574.17 320.26 574.66 319.20 575.34 318.50 C 585.88 304.26 596.66 290.19 607.08 275.87 L 607.12 274.88 C 608.82 274.77 610.53 274.68 612.25 274.59 C 613.95 276.81 615.22 279.57 617.84 280.90 C 616.83 278.37 615.20 276.19 613.58 274.03 C 613.98 272.15 615.13 269.98 613.76 268.21 C 612.37 265.87 608.50 265.54 606.87 267.78 M 496.43 271.92 C 496.26 301.34 496.56 330.77 496.28 360.20 L 496.76 359.74 C 502.14 360.57 507.59 360.00 513.00 360.16 C 583.22 360.06 653.45 360.37 723.67 360.01 C 723.00 357.97 720.53 358.97 718.99 358.67 C 645.24 358.84 571.47 358.50 497.72 358.83 C 497.84 353.15 497.52 347.47 497.83 341.79 C 504.27 341.73 510.71 341.63 517.15 341.82 C 519.30 343.14 520.96 346.65 524.01 345.03 C 527.63 344.11 526.30 340.04 526.39 337.36 C 527.60 335.65 529.01 334.07 529.92 332.15 C 527.67 332.94 526.41 335.05 524.91 336.74 C 521.92 336.30 519.26 337.46 517.95 340.24 C 511.24 340.55 504.51 340.45 497.80 340.28 C 497.48 316.82 497.99 293.35 497.54 269.89 C 496.68 270.29 496.31 270.97 496.43 271.92 M 271.52 277.44 C 258.18 285.69 249.46 301.21 250.10 316.98 C 249.85 328.77 255.04 340.24 263.07 348.72 C 269.92 355.28 278.51 360.19 287.95 361.67 C 300.22 363.93 313.40 360.85 323.34 353.30 C 334.81 344.85 342.18 330.78 341.83 316.45 C 341.97 305.02 337.49 293.65 329.70 285.31 C 321.24 275.92 308.78 270.58 296.19 270.45 C 287.53 270.39 278.85 272.82 271.52 277.44 M 355.30 273.39 C 355.27 278.10 355.25 282.82 355.31 287.54 C 360.03 287.48 364.74 287.54 369.46 287.43 C 369.53 282.77 369.53 278.12 369.48 273.46 C 364.76 273.32 360.03 273.39 355.30 273.39 M 382.26 278.29 C 380.81 278.64 381.16 280.59 381.37 281.67 C 381.87 283.09 383.82 282.69 384.99 282.93 C 397.31 283.01 409.64 282.91 421.96 283.02 C 423.76 282.87 426.44 283.27 427.06 280.99 C 427.88 279.26 425.69 277.57 424.07 277.76 C 412.03 277.63 399.98 277.80 387.93 277.67 C 386.03 277.72 384.04 277.53 382.26 278.29 M 721.17 287.21 C 709.65 296.69 698.03 306.07 686.56 315.61 C 684.85 317.09 682.97 318.36 681.02 319.50 L 680.24 318.33 C 678.97 318.40 677.72 318.47 676.47 318.54 C 674.15 315.35 672.65 311.37 669.29 309.08 C 670.45 312.83 673.31 315.67 675.27 319.00 C 675.01 321.12 673.62 323.79 675.60 325.50 C 677.87 328.59 684.24 326.01 682.59 322.11 C 683.13 320.88 683.87 319.72 684.98 318.92 C 696.95 309.28 708.71 299.38 720.71 289.79 C 722.06 288.78 723.16 287.49 723.97 286.02 C 722.94 286.22 722.01 286.62 721.17 287.21 M 654.47 295.75 C 653.23 296.99 652.06 298.31 651.14 299.80 C 652.55 299.07 653.95 298.25 655.27 297.35 C 657.63 297.91 660.02 298.31 662.44 298.58 C 662.70 295.55 664.01 290.92 660.01 289.80 C 656.28 288.66 654.04 292.51 654.47 295.75 M 624.35 290.17 C 627.04 296.45 632.43 301.12 635.63 307.12 C 635.26 309.24 633.74 311.69 635.65 313.53 C 637.71 316.69 643.36 314.78 643.04 311.04 C 642.72 308.99 643.25 307.09 644.56 305.48 C 642.34 306.77 639.81 306.85 637.34 306.60 C 633.98 302.28 630.79 297.84 627.63 293.38 C 626.77 292.09 625.65 290.99 624.35 290.17 M 355.31 309.39 C 355.38 314.13 355.07 318.88 355.51 323.61 C 360.13 323.41 364.77 323.53 369.40 323.46 C 369.42 318.82 369.35 314.18 369.46 309.54 C 364.74 309.27 360.02 309.43 355.31 309.39 M 540.00 318.13 C 539.01 319.61 538.08 321.13 537.35 322.76 C 538.77 321.78 540.05 320.63 541.25 319.39 C 544.18 319.52 546.78 318.17 549.44 317.15 C 547.96 314.53 547.00 309.92 542.99 310.84 C 539.36 311.24 539.12 315.36 540.00 318.13 M 382.16 314.37 C 380.92 314.92 381.02 316.58 381.32 317.68 C 382.31 319.25 384.38 318.86 385.97 319.05 C 398.31 319.03 410.66 319.09 423.00 319.01 C 424.19 318.77 426.15 319.25 426.68 317.78 C 428.15 315.95 426.14 313.49 424.04 313.86 C 411.68 313.75 399.32 313.89 386.96 313.78 C 385.36 313.91 383.61 313.57 382.16 314.37 M 355.35 345.41 C 355.23 350.13 355.22 354.86 355.34 359.58 C 360.02 359.44 364.70 359.65 369.38 359.39 C 369.39 354.80 369.39 350.20 369.40 345.61 C 364.72 345.31 360.03 345.58 355.35 345.41 M 381.37 350.51 C 381.31 351.60 381.31 352.70 381.35 353.81 C 382.41 355.26 384.39 355.09 385.98 355.20 C 397.66 355.20 409.34 355.15 421.01 355.23 C 422.92 355.24 424.82 354.95 426.70 354.63 C 426.70 353.21 426.69 351.79 426.68 350.37 C 416.83 349.51 406.91 350.25 397.03 350.00 C 391.81 350.19 386.53 349.51 381.37 350.51 M 499.22 410.51 C 497.06 411.23 496.77 413.84 497.37 415.74 C 498.55 417.56 501.11 417.06 502.98 417.30 C 520.00 417.41 537.02 417.28 554.04 417.35 C 556.07 417.12 558.55 417.72 560.17 416.17 C 562.15 413.91 560.05 409.79 557.02 410.33 C 537.76 410.48 518.47 410.12 499.22 410.51 M 574.40 410.52 C 570.53 410.87 571.05 417.44 575.00 417.18 C 585.67 417.56 596.37 417.22 607.05 417.35 C 609.73 417.30 613.44 417.81 614.69 414.72 C 614.62 412.75 613.58 409.85 611.10 410.35 C 598.87 410.43 586.61 410.10 574.40 410.52 M 498.20 429.29 C 496.60 430.70 496.74 433.39 498.16 434.89 C 499.68 435.48 501.35 435.33 502.96 435.40 C 519.98 435.36 537.00 435.53 554.02 435.30 C 558.21 435.69 558.14 428.34 553.98 428.76 C 537.02 428.47 520.04 428.77 503.08 428.61 C 501.45 428.72 499.65 428.40 498.20 429.29 M 569.26 429.30 C 566.97 430.80 567.91 435.62 571.02 435.33 C 590.32 435.50 609.62 435.32 628.92 435.41 C 631.61 435.41 634.33 435.59 637.01 435.15 C 640.09 434.14 639.57 428.50 636.06 428.71 C 615.40 428.51 594.72 428.72 574.06 428.61 C 572.47 428.77 570.63 428.32 569.26 429.30 M 498.29 448.46 C 496.70 449.65 496.99 451.98 497.44 453.67 C 498.46 455.06 500.47 454.62 501.96 454.80 C 530.63 454.67 559.31 454.90 587.98 454.70 C 591.83 454.19 591.01 447.57 587.05 448.10 C 559.37 447.89 531.69 448.10 504.01 448.02 C 502.10 448.08 500.13 447.88 498.29 448.46 M 498.33 468.31 C 496.69 469.37 496.98 471.76 497.62 473.34 C 499.12 474.59 501.18 474.29 503.00 474.42 C 524.67 474.37 546.33 474.39 567.99 474.40 C 569.60 474.29 571.88 474.56 572.71 472.79 C 574.31 470.33 571.84 467.03 569.03 467.64 C 547.04 467.53 525.06 467.63 503.07 467.58 C 501.49 467.72 499.69 467.37 498.33 468.31 M 585.26 468.22 C 583.74 469.18 583.84 471.29 584.29 472.82 C 585.48 474.71 588.04 474.30 589.96 474.44 C 600.31 474.28 610.66 474.48 621.02 474.41 C 622.78 474.30 624.78 474.44 626.26 473.26 C 627.73 470.96 625.95 467.06 622.92 467.62 C 611.96 467.55 600.99 467.64 590.03 467.57 C 588.45 467.73 586.64 467.28 585.26 468.22 M 498.34 486.42 C 495.85 487.75 497.03 492.74 500.07 492.61 C 518.06 492.78 536.06 492.61 554.05 492.67 C 556.58 493.20 557.75 489.96 556.97 488.04 C 556.47 485.82 553.81 485.80 552.01 485.72 C 536.32 485.64 520.63 485.82 504.95 485.66 C 502.73 485.71 500.43 485.57 498.34 486.42 M 569.32 486.48 C 566.68 487.95 568.06 492.60 571.05 492.61 C 592.38 492.76 613.72 492.63 635.05 492.71 C 637.59 493.21 639.71 490.34 638.89 488.01 C 638.43 485.83 635.71 485.80 633.96 485.72 C 614.30 485.67 594.64 485.78 574.98 485.67 C 573.08 485.77 571.04 485.56 569.32 486.48 M 499.21 505.41 C 497.12 506.22 496.58 508.80 497.35 510.74 C 498.73 512.38 501.17 511.93 503.08 512.10 C 531.09 512.05 559.11 512.21 587.12 512.01 C 589.78 512.28 591.09 509.18 590.07 507.03 C 589.49 504.74 586.73 505.41 584.99 505.21 C 556.40 505.40 527.79 504.97 499.21 505.41 Z" />
<path fill="#ebf1ff" opacity="1.00" d=" M 268.50 310.30 C 271.12 297.82 283.04 288.22 295.79 288.26 C 303.64 288.13 311.37 291.59 316.63 297.38 C 321.49 302.48 323.93 309.48 324.28 316.43 C 324.00 325.36 319.73 334.15 312.37 339.34 C 301.67 347.38 285.33 345.97 276.03 336.38 C 269.46 329.63 266.20 319.54 268.50 310.30 Z" />
<path fill="#ebf1ff" opacity="1.00" d=" M 713.59 530.23 C 729.32 529.83 745.06 530.08 760.80 530.05 C 761.38 532.25 761.96 534.44 762.56 536.64 C 755.90 540.67 748.13 542.02 740.50 542.76 C 736.34 542.22 732.03 542.48 728.03 541.06 C 724.97 539.98 721.73 539.54 718.68 538.42 C 717.86 535.22 715.37 532.89 713.59 530.23 Z" />
<path fill="#ebf1ff" opacity="1.00" d=" M 427.91 598.77 C 444.93 598.59 461.95 598.79 478.98 598.67 C 481.32 598.57 483.65 598.97 485.88 599.71 C 483.66 605.56 481.68 611.50 479.37 617.31 C 479.24 617.65 478.98 618.32 478.85 618.65 C 479.37 619.04 480.40 619.81 480.92 620.19 C 480.70 621.58 480.49 622.99 480.29 624.40 C 482.55 625.14 484.82 625.88 487.10 626.60 C 486.75 628.23 486.39 629.88 486.02 631.52 C 488.99 632.54 491.99 633.49 494.99 634.41 C 495.48 632.95 495.96 631.50 496.45 630.06 C 498.65 630.97 500.85 631.93 503.20 632.41 C 504.90 632.16 504.54 629.52 505.44 628.43 C 506.40 628.58 507.37 628.72 508.35 628.86 C 508.92 627.12 509.51 625.40 510.10 623.68 C 515.52 625.12 520.55 627.78 526.02 629.02 C 528.08 628.04 528.42 625.04 529.63 623.19 C 539.63 626.42 548.55 633.20 553.53 642.55 C 559.76 653.68 559.91 667.84 554.12 679.17 C 541.07 679.21 528.02 679.14 514.97 679.26 C 513.47 679.23 511.99 679.08 510.51 678.86 C 510.74 675.38 510.75 671.89 510.61 668.41 C 509.39 668.41 508.18 668.42 506.97 668.44 C 506.76 664.64 507.86 660.25 506.08 656.85 C 501.93 655.72 497.47 656.48 493.23 656.77 C 492.61 650.78 494.34 644.36 492.24 638.65 C 488.11 638.20 483.89 638.13 479.78 638.73 C 478.67 642.15 479.36 645.84 479.23 649.38 C 474.65 649.27 470.08 649.26 465.52 649.54 C 465.16 655.70 465.40 661.88 465.28 668.05 C 464.04 668.19 462.81 668.33 461.59 668.47 C 461.48 671.81 461.50 675.15 461.57 678.50 C 461.31 678.71 460.80 679.15 460.54 679.36 C 447.34 679.02 434.13 679.30 420.93 679.16 C 411.17 679.02 401.40 679.83 391.66 678.95 C 398.60 675.73 407.53 680.81 413.56 675.16 C 412.18 671.78 412.88 668.11 413.28 664.61 C 414.15 664.06 415.03 663.51 415.92 662.97 C 416.01 659.25 416.22 655.53 416.93 651.88 C 418.12 645.54 419.44 639.23 420.93 632.96 C 423.34 621.58 425.16 610.08 427.91 598.77 Z" />
<path fill="#ebf1ff" opacity="1.00" d=" M 532.54 599.61 C 538.76 597.96 545.24 599.02 551.59 598.73 C 551.55 604.72 553.67 610.56 552.87 616.58 C 547.44 612.70 541.45 609.62 535.10 607.56 C 535.70 605.46 536.30 603.36 536.91 601.27 C 535.45 600.71 533.99 600.15 532.54 599.61 Z" />
</g>
<g id="#87a1f8ff">
<path fill="#87a1f8" opacity="1.00" d=" M 606.87 267.78 C 608.50 265.54 612.37 265.87 613.76 268.21 C 615.13 269.98 613.98 272.15 613.58 274.03 C 615.20 276.19 616.83 278.37 617.84 280.90 C 615.22 279.57 613.95 276.81 612.25 274.59 C 610.53 274.68 608.82 274.77 607.12 274.88 L 606.81 273.83 C 606.09 271.91 605.31 269.50 606.87 267.78 Z" />
</g>
<g id="#88a0faff">
<path fill="#88a0fa" opacity="1.00" d=" M 496.43 271.92 C 496.31 270.97 496.68 270.29 497.54 269.89 C 497.99 293.35 497.48 316.82 497.80 340.28 C 504.51 340.45 511.24 340.55 517.95 340.24 C 519.26 337.46 521.92 336.30 524.91 336.74 C 526.41 335.05 527.67 332.94 529.92 332.15 C 529.01 334.07 527.60 335.65 526.39 337.36 C 526.30 340.04 527.63 344.11 524.01 345.03 C 520.96 346.65 519.30 343.14 517.15 341.82 C 510.71 341.63 504.27 341.73 497.83 341.79 C 497.52 347.47 497.84 353.15 497.72 358.83 C 497.48 359.06 497.00 359.51 496.76 359.74 L 496.28 360.20 C 496.56 330.77 496.26 301.34 496.43 271.92 Z" />
<path fill="#88a0fa" opacity="1.00" d=" M 554.08 318.41 C 557.95 318.87 561.33 320.99 565.10 321.79 C 567.36 321.30 569.39 319.73 571.84 320.52 C 572.19 320.54 572.88 320.59 573.23 320.62 C 573.42 322.59 574.07 324.65 573.50 326.62 C 572.19 329.41 567.74 329.56 566.12 327.03 C 565.56 325.84 565.25 324.56 564.88 323.32 C 561.34 321.58 556.71 321.57 554.08 318.41 Z" />
<path fill="#88a0fa" opacity="1.00" d=" M 854.37 717.34 C 856.53 717.33 858.67 717.29 860.84 717.23 C 860.84 723.03 860.85 728.82 860.73 734.62 C 858.61 734.62 856.49 734.62 854.39 734.64 C 854.38 728.87 854.37 723.10 854.37 717.34 Z" />
</g>
<g id="#03aff1ff">
<path fill="#03aff1" opacity="1.00" d=" M 271.52 277.44 C 278.85 272.82 287.53 270.39 296.19 270.45 C 295.74 276.37 295.73 282.32 295.79 288.26 C 283.04 288.22 271.12 297.82 268.50 310.30 C 266.20 319.54 269.46 329.63 276.03 336.38 C 271.77 340.55 267.63 344.86 263.07 348.72 C 255.04 340.24 249.85 328.77 250.10 316.98 C 249.46 301.21 258.18 285.69 271.52 277.44 Z" />
<path fill="#03aff1" opacity="1.00" d=" M 823.22 530.39 C 825.44 528.40 828.25 527.31 831.13 526.64 C 833.67 527.56 836.15 528.70 838.50 530.06 C 838.51 530.65 838.54 531.83 838.56 532.42 C 838.90 537.02 834.46 539.81 832.74 543.68 C 830.24 548.77 827.83 554.02 826.16 559.42 C 825.66 562.98 824.11 566.24 823.01 569.63 C 820.52 579.74 817.61 589.76 815.83 600.03 C 814.24 609.00 812.47 617.94 811.17 626.96 C 810.48 631.92 809.25 636.82 807.30 641.46 C 806.20 643.50 805.06 645.53 804.16 647.68 C 797.73 656.77 786.44 660.79 775.70 661.39 C 771.47 661.44 767.25 661.63 763.04 662.03 C 761.61 662.14 760.21 662.29 758.79 662.40 C 748.83 662.32 738.80 662.44 728.94 660.85 C 725.03 660.14 720.90 659.34 717.79 656.72 C 715.65 654.12 712.81 651.66 712.70 648.02 C 712.21 642.87 713.44 636.38 718.62 633.98 C 724.33 631.97 730.48 632.95 736.33 633.71 C 744.06 634.74 751.68 636.57 759.49 636.99 C 759.60 641.74 759.08 646.54 759.78 651.27 C 760.92 652.68 762.53 653.60 763.96 654.72 C 765.82 653.76 768.32 653.13 768.96 650.83 C 769.92 646.55 769.24 642.10 769.41 637.75 C 776.12 636.56 782.45 633.05 786.42 627.41 C 794.10 616.62 795.53 603.09 798.44 590.53 C 802.86 572.27 807.78 553.74 817.46 537.46 C 819.17 534.94 821.12 532.59 823.22 530.39 Z" />
<path fill="#03aff1" opacity="1.00" d=" M 506.06 543.80 C 506.54 543.46 507.49 542.78 507.97 542.44 C 517.30 545.75 526.54 549.37 535.95 552.45 C 531.01 566.45 525.96 580.42 520.68 594.30 C 517.33 604.16 513.33 613.78 510.10 623.68 C 509.51 625.40 508.92 627.12 508.35 628.86 C 507.37 628.72 506.40 628.58 505.44 628.43 C 497.94 624.95 489.78 623.22 482.28 619.74 C 481.12 619.18 480.27 618.17 479.37 617.31 C 481.68 611.50 483.66 605.56 485.88 599.71 C 492.31 581.85 498.95 564.07 505.29 546.18 C 505.48 545.58 505.87 544.39 506.06 543.80 Z" />
<path fill="#03aff1" opacity="1.00" d=" M 441.50 717.65 C 448.73 717.32 455.97 717.55 463.21 717.49 C 484.37 717.44 505.53 717.54 526.68 717.44 C 547.29 717.52 567.90 717.52 588.51 717.44 C 588.91 722.87 588.70 728.32 588.73 733.76 C 582.19 734.50 575.62 733.89 569.07 733.89 C 544.05 734.11 519.02 734.15 494.00 733.92 C 479.33 734.58 464.66 733.52 450.00 734.05 C 447.12 734.13 444.26 733.85 441.41 733.55 C 441.53 728.25 441.47 722.95 441.50 717.65 Z" />
</g>
<g id="#fa3f6aff">
<path fill="#fa3f6a" opacity="1.00" d=" M 296.19 270.45 C 308.78 270.58 321.24 275.92 329.70 285.31 C 337.49 293.65 341.97 305.02 341.83 316.45 C 335.98 316.44 330.13 316.43 324.28 316.43 C 323.93 309.48 321.49 302.48 316.63 297.38 C 311.37 291.59 303.64 288.13 295.79 288.26 C 295.73 282.32 295.74 276.37 296.19 270.45 Z" />
<path fill="#fa3f6a" opacity="1.00" d=" M 355.31 309.39 C 360.02 309.43 364.74 309.27 369.46 309.54 C 369.35 314.18 369.42 318.82 369.40 323.46 C 364.77 323.53 360.13 323.41 355.51 323.61 C 355.07 318.88 355.38 314.13 355.31 309.39 Z" />
<path fill="#fa3f6a" opacity="1.00" d=" M 679.60 455.81 C 679.80 445.58 688.97 436.00 699.43 436.57 C 699.44 443.09 699.49 449.61 699.39 456.13 C 692.85 456.02 686.31 455.99 679.78 455.82 L 679.60 455.81 Z" />
<path fill="#fa3f6a" opacity="1.00" d=" M 359.42 464.03 C 362.89 463.71 366.37 463.70 369.84 463.96 C 370.13 474.76 370.09 485.56 369.93 496.36 C 366.42 496.44 362.92 496.40 359.42 496.31 C 359.35 485.55 359.32 474.79 359.42 464.03 Z" />
<path fill="#fa3f6a" opacity="1.00" d=" M 479.78 638.73 C 483.89 638.13 488.11 638.20 492.24 638.65 C 494.34 644.36 492.61 650.78 493.23 656.77 C 493.31 660.68 493.33 664.58 493.30 668.50 C 488.61 668.48 483.92 668.52 479.24 668.51 C 479.15 662.13 479.18 655.75 479.23 649.38 C 479.36 645.84 478.67 642.15 479.78 638.73 Z" />
</g>
<g id="#03afeeff">
<path fill="#03afee" opacity="1.00" d=" M 355.30 273.39 C 360.03 273.39 364.76 273.32 369.48 273.46 C 369.53 278.12 369.53 282.77 369.46 287.43 C 364.74 287.54 360.03 287.48 355.31 287.54 C 355.25 282.82 355.27 278.10 355.30 273.39 Z" />
</g>
<g id="#9eafe5ff">
<path fill="#9eafe5" opacity="1.00" d=" M 571.84 320.52 C 583.32 304.83 595.05 289.31 606.81 273.83 L 607.12 274.88 L 607.08 275.87 C 596.66 290.19 585.88 304.26 575.34 318.50 C 574.66 319.20 574.17 320.26 573.23 320.62 C 572.88 320.59 572.19 320.54 571.84 320.52 Z" />
<path fill="#9eafe5" opacity="1.00" d=" M 721.17 287.21 C 722.01 286.62 722.94 286.22 723.97 286.02 C 723.16 287.49 722.06 288.78 720.71 289.79 C 708.71 299.38 696.95 309.28 684.98 318.92 C 683.87 319.72 683.13 320.88 682.59 322.11 C 682.09 321.22 681.57 320.35 681.02 319.50 C 682.97 318.36 684.85 317.09 686.56 315.61 C 698.03 306.07 709.65 296.69 721.17 287.21 Z" />
<path fill="#9eafe5" opacity="1.00" d=" M 312.18 407.46 C 312.33 407.46 312.62 407.46 312.76 407.46 C 312.39 437.11 312.71 466.76 312.59 496.41 C 316.51 496.64 320.43 496.64 324.35 496.43 C 328.22 496.29 332.08 496.25 335.95 496.18 C 336.12 476.54 335.81 456.90 336.11 437.26 C 339.94 437.27 343.77 437.26 347.61 437.23 C 347.73 456.87 347.42 476.52 347.76 496.16 C 351.65 496.23 355.53 496.25 359.42 496.31 C 362.92 496.40 366.42 496.44 369.93 496.36 L 371.07 496.34 C 374.96 496.24 378.85 496.20 382.74 496.25 C 386.60 496.31 390.46 496.32 394.32 496.26 C 405.19 496.25 416.07 496.30 426.94 496.23 C 426.94 496.65 426.92 497.50 426.92 497.93 C 385.96 497.82 345.01 497.98 304.05 497.85 C 302.94 497.37 301.85 496.84 300.76 496.32 C 304.59 496.28 308.43 496.24 312.26 496.17 C 312.33 466.60 312.47 437.03 312.18 407.46 Z" />
</g>
<g id="#9cafe7ff">
<path fill="#9cafe7" opacity="1.00" d=" M 382.26 278.29 C 384.04 277.53 386.03 277.72 387.93 277.67 C 399.98 277.80 412.03 277.63 424.07 277.76 C 425.69 277.57 427.88 279.26 427.06 280.99 C 426.44 283.27 423.76 282.87 421.96 283.02 C 409.64 282.91 397.31 283.01 384.99 282.93 C 383.82 282.69 381.87 283.09 381.37 281.67 C 381.16 280.59 380.81 278.64 382.26 278.29 Z" />
</g>
<g id="#87a0fbff">
<path fill="#87a0fb" opacity="1.00" d=" M 654.47 295.75 C 654.04 292.51 656.28 288.66 660.01 289.80 C 664.01 290.92 662.70 295.55 662.44 298.58 C 660.02 298.31 657.63 297.91 655.27 297.35 C 653.95 298.25 652.55 299.07 651.14 299.80 C 652.06 298.31 653.23 296.99 654.47 295.75 Z" />
<path fill="#87a0fb" opacity="1.00" d=" M 540.00 318.13 C 539.12 315.36 539.36 311.24 542.99 310.84 C 547.00 309.92 547.96 314.53 549.44 317.15 C 546.78 318.17 544.18 319.52 541.25 319.39 C 540.05 320.63 538.77 321.78 537.35 322.76 C 538.08 321.13 539.01 319.61 540.00 318.13 Z" />
</g>
<g id="#86a0fbff">
<path fill="#86a0fb" opacity="1.00" d=" M 624.35 290.17 C 625.65 290.99 626.77 292.09 627.63 293.38 C 630.79 297.84 633.98 302.28 637.34 306.60 C 639.81 306.85 642.34 306.77 644.56 305.48 C 643.25 307.09 642.72 308.99 643.04 311.04 C 643.36 314.78 637.71 316.69 635.65 313.53 C 633.74 311.69 635.26 309.24 635.63 307.12 C 632.43 301.12 627.04 296.45 624.35 290.17 Z" />
</g>
<g id="#86a1fbff">
<path fill="#86a1fb" opacity="1.00" d=" M 669.29 309.08 C 672.65 311.37 674.15 315.35 676.47 318.54 C 677.72 318.47 678.97 318.40 680.24 318.33 L 681.02 319.50 C 681.57 320.35 682.09 321.22 682.59 322.11 C 684.24 326.01 677.87 328.59 675.60 325.50 C 673.62 323.79 675.01 321.12 675.27 319.00 C 673.31 315.67 670.45 312.83 669.29 309.08 Z" />
</g>
<g id="#9db1e5ff">
<path fill="#9db1e5" opacity="1.00" d=" M 382.16 314.37 C 383.61 313.57 385.36 313.91 386.96 313.78 C 399.32 313.89 411.68 313.75 424.04 313.86 C 426.14 313.49 428.15 315.95 426.68 317.78 C 426.15 319.25 424.19 318.77 423.00 319.01 C 410.66 319.09 398.31 319.03 385.97 319.05 C 384.38 318.86 382.31 319.25 381.32 317.68 C 381.02 316.58 380.92 314.92 382.16 314.37 Z" />
</g>
<g id="#fbb2c3ff">
<path fill="#fbb2c3" opacity="1.00" d=" M 786.57 317.82 C 802.57 314.31 819.70 314.74 835.01 320.94 C 848.79 326.23 860.70 336.75 866.73 350.34 C 874.07 365.79 872.84 383.60 869.75 399.96 C 866.91 416.55 860.66 432.45 859.27 449.29 C 857.04 451.77 855.98 454.97 854.78 458.02 C 851.70 465.54 849.99 473.88 851.33 481.99 C 851.78 488.01 853.59 493.82 854.21 499.83 C 853.61 499.65 852.41 499.31 851.82 499.13 C 850.71 505.14 851.09 511.52 848.23 517.11 C 846.24 522.30 841.74 525.74 838.50 530.06 C 836.15 528.70 833.67 527.56 831.13 526.64 C 831.29 492.43 831.14 458.22 831.21 424.01 C 831.26 421.21 830.91 417.32 827.58 416.61 C 820.76 416.00 813.89 416.56 807.05 416.36 C 807.02 408.81 807.44 401.25 806.85 393.72 C 805.48 394.28 804.57 395.39 804.78 396.94 C 804.58 403.41 804.76 409.89 804.74 416.36 C 798.63 416.46 792.53 416.22 786.43 416.40 C 786.49 383.54 786.24 350.67 786.57 317.82 Z" />
<path fill="#fbb2c3" opacity="1.00" d=" M 854.57 503.56 C 859.11 513.70 860.77 525.25 859.08 536.23 C 857.45 544.97 849.33 549.90 845.56 557.51 C 839.69 559.05 833.22 558.59 827.28 557.44 C 827.26 557.66 827.22 558.10 827.21 558.32 C 833.46 559.23 839.86 558.22 846.16 559.02 C 839.50 559.48 832.82 559.04 826.16 559.42 C 827.83 554.02 830.24 548.77 832.74 543.68 C 834.46 539.81 838.90 537.02 838.56 532.42 C 844.38 529.09 849.19 523.79 851.35 517.39 C 852.88 512.90 853.63 508.19 854.57 503.56 Z" />
<path fill="#fbb2c3" opacity="1.00" d=" M 823.01 569.63 C 828.61 568.94 834.27 568.95 839.91 568.99 C 837.11 578.97 835.09 589.54 837.56 599.83 C 830.31 600.89 823.06 602.27 815.71 602.10 C 815.74 601.58 815.80 600.55 815.83 600.03 C 817.61 589.76 820.52 579.74 823.01 569.63 Z" />
</g>
<g id="#889ffcff">
<path fill="#889ffc" opacity="1.00" d=" M 324.28 316.43 C 330.13 316.43 335.98 316.44 341.83 316.45 C 342.18 330.78 334.81 344.85 323.34 353.30 C 313.40 360.85 300.22 363.93 287.95 361.67 C 278.51 360.19 269.92 355.28 263.07 348.72 C 267.63 344.86 271.77 340.55 276.03 336.38 C 285.33 345.97 301.67 347.38 312.37 339.34 C 319.73 334.15 324.00 325.36 324.28 316.43 Z" />
<path fill="#889ffc" opacity="1.00" d=" M 625.27 559.15 C 656.44 558.79 687.62 559.39 718.79 558.86 C 728.83 565.04 740.68 567.52 752.28 568.67 C 746.54 569.49 740.74 568.85 734.98 568.93 C 706.10 569.00 677.23 568.92 648.35 568.97 C 646.16 568.92 643.98 568.88 641.80 568.88 C 636.29 568.95 630.78 568.99 625.28 568.85 C 625.25 565.61 625.25 562.38 625.27 559.15 Z" />
<path fill="#889ffc" opacity="1.00" d=" M 846.16 559.02 C 856.08 559.06 866.01 558.88 875.93 559.15 C 876.03 562.41 876.03 565.68 875.93 568.95 C 870.91 569.09 865.88 569.04 860.86 568.90 C 858.84 568.87 856.83 568.87 854.83 568.87 C 854.32 587.01 855.00 605.17 854.43 623.31 C 853.93 605.25 854.62 587.17 854.02 569.12 C 849.31 568.95 844.61 569.09 839.91 568.99 C 834.27 568.95 828.61 568.94 823.01 569.63 C 824.11 566.24 825.66 562.98 826.16 559.42 C 832.82 559.04 839.50 559.48 846.16 559.02 Z" />
<path fill="#889ffc" opacity="1.00" d=" M 510.10 623.68 C 513.33 613.78 517.33 604.16 520.68 594.30 C 523.71 597.53 528.66 597.76 532.54 599.61 C 533.99 600.15 535.45 600.71 536.91 601.27 C 536.30 603.36 535.70 605.46 535.10 607.56 C 541.45 609.62 547.44 612.70 552.87 616.58 C 564.09 625.33 571.91 638.22 574.34 652.26 C 575.37 660.95 575.19 669.95 572.38 678.32 C 570.45 684.61 567.22 690.42 563.43 695.77 C 554.50 707.39 541.01 714.87 526.68 717.44 C 505.53 717.54 484.37 717.44 463.21 717.49 C 463.18 712.07 463.14 706.65 463.21 701.24 C 467.62 701.16 472.04 701.13 476.45 701.26 C 477.03 693.68 476.32 686.08 476.70 678.49 C 483.05 678.51 489.39 678.49 495.74 678.48 C 495.56 684.60 495.62 690.73 495.62 696.86 C 495.64 698.28 495.66 699.70 495.69 701.14 C 508.67 700.66 522.35 703.08 534.65 697.80 C 543.02 694.07 550.10 687.44 554.12 679.17 C 559.91 667.84 559.76 653.68 553.53 642.55 C 548.55 633.20 539.63 626.42 529.63 623.19 C 528.42 625.04 528.08 628.04 526.02 629.02 C 520.55 627.78 515.52 625.12 510.10 623.68 Z" />
<path fill="#889ffc" opacity="1.00" d=" M 763.04 662.03 C 767.25 661.63 771.47 661.44 775.70 661.39 C 775.71 664.02 775.72 666.66 775.72 669.30 C 775.80 685.49 775.48 701.68 775.88 717.87 C 787.41 719.69 799.69 724.77 805.75 735.32 C 807.22 737.20 804.78 738.86 802.98 738.45 C 782.99 738.48 763.00 738.44 743.01 738.46 C 739.30 738.42 735.57 738.76 731.90 738.16 C 730.61 736.08 732.41 734.19 733.54 732.57 C 740.53 723.62 751.76 719.09 762.78 717.74 C 762.96 699.17 762.52 680.59 763.04 662.03 Z" />
<path fill="#889ffc" opacity="1.00" d=" M 97.27 728.73 C 97.17 723.47 100.42 719.00 102.47 714.38 C 107.25 718.87 114.06 719.44 120.24 718.31 C 123.03 722.28 125.65 726.45 129.17 729.84 C 133.07 733.55 138.73 734.63 142.62 738.32 C 143.51 739.66 142.40 740.96 141.00 741.17 C 137.61 741.65 134.24 740.71 130.97 739.91 C 121.80 737.41 112.39 735.72 103.40 732.59 C 101.16 731.72 98.66 730.83 97.27 728.73 Z" />
</g>
<g id="#87a0faff">
<path fill="#87a0fa" opacity="1.00" d=" M 355.35 345.41 C 360.03 345.58 364.72 345.31 369.40 345.61 C 369.39 350.20 369.39 354.80 369.38 359.39 C 364.70 359.65 360.02 359.44 355.34 359.58 C 355.22 354.86 355.23 350.13 355.35 345.41 Z" />
<path fill="#87a0fa" opacity="1.00" d=" M 493.23 656.77 C 497.47 656.48 501.93 655.72 506.08 656.85 C 507.86 660.25 506.76 664.64 506.97 668.44 C 502.41 668.51 497.85 668.55 493.30 668.50 C 493.33 664.58 493.31 660.68 493.23 656.77 Z" />
</g>
<g id="#9cb0e5ff">
<path fill="#9cb0e5" opacity="1.00" d=" M 381.37 350.51 C 386.53 349.51 391.81 350.19 397.03 350.00 C 406.91 350.25 416.83 349.51 426.68 350.37 C 426.69 351.79 426.70 353.21 426.70 354.63 C 424.82 354.95 422.92 355.24 421.01 355.23 C 409.34 355.15 397.66 355.20 385.98 355.20 C 384.39 355.09 382.41 355.26 381.35 353.81 C 381.31 352.70 381.31 351.60 381.37 350.51 Z" />
</g>
<g id="#91a2e1ff">
<path fill="#91a2e1" opacity="1.00" d=" M 496.76 359.74 C 497.00 359.51 497.48 359.06 497.72 358.83 C 571.47 358.50 645.24 358.84 718.99 358.67 C 720.53 358.97 723.00 357.97 723.67 360.01 C 653.45 360.37 583.22 360.06 513.00 360.16 C 507.59 360.00 502.14 360.57 496.76 359.74 Z" />
</g>
<g id="#fa99b2ff">
<path fill="#fa99b2" opacity="1.00" d=" M 804.78 396.94 C 804.57 395.39 805.48 394.28 806.85 393.72 C 807.44 401.25 807.02 408.81 807.05 416.36 C 806.47 416.36 805.32 416.36 804.74 416.36 C 804.76 409.89 804.58 403.41 804.78 396.94 Z" />
</g>
<g id="#3d3d3dff">
<path fill="#3d3d3d" opacity="1.00" d=" M 155.38 408.98 C 158.68 400.04 168.63 393.96 178.10 395.45 C 181.55 395.92 184.85 397.17 187.97 398.68 C 191.80 400.84 196.16 402.65 198.88 406.25 C 202.05 411.35 200.27 417.89 197.36 422.69 C 196.22 424.57 195.77 426.72 195.30 428.84 C 194.67 428.24 194.03 427.64 193.40 427.06 C 188.18 432.35 182.24 438.93 183.29 446.95 C 183.65 450.00 183.76 453.09 183.38 456.15 C 182.41 460.34 179.90 465.08 175.11 465.51 C 170.36 465.82 165.57 467.73 162.85 471.83 C 159.24 475.92 161.49 482.53 157.07 486.11 C 150.71 491.78 141.44 489.38 134.25 486.81 C 138.27 484.71 142.88 483.46 146.09 480.10 C 149.78 476.63 151.91 471.83 152.64 466.87 C 153.46 463.44 153.64 459.06 157.01 457.06 C 161.35 454.87 166.86 455.09 170.49 451.51 C 175.00 446.91 175.27 439.93 174.92 433.88 C 174.97 432.19 174.13 430.74 173.02 429.55 C 171.34 435.77 173.91 443.01 169.52 448.47 C 165.84 453.97 157.63 451.54 153.60 456.56 C 149.16 461.77 151.04 469.55 146.97 475.00 C 144.08 479.82 138.78 482.23 133.57 483.68 C 133.32 484.30 132.82 485.55 132.57 486.17 C 132.28 486.05 131.70 485.80 131.41 485.68 C 128.30 484.29 125.28 482.64 122.73 480.35 C 130.88 478.52 138.20 472.37 140.10 464.05 C 141.36 459.86 140.84 454.58 144.57 451.57 C 148.15 449.26 152.72 449.43 156.40 447.33 C 158.28 446.16 159.57 444.31 161.00 442.66 C 160.40 442.10 159.80 441.54 159.20 440.98 C 157.37 442.87 155.70 445.23 153.05 446.00 C 149.02 447.43 143.91 447.36 141.20 451.19 C 137.45 456.47 139.01 463.79 135.04 469.02 C 131.93 474.27 126.14 476.85 120.43 478.20 C 118.48 475.19 117.59 471.00 119.72 467.86 C 122.83 464.51 128.05 463.50 130.24 459.23 C 131.43 456.08 129.94 452.47 131.53 449.41 C 134.67 443.13 141.41 440.06 147.59 437.55 C 149.94 436.43 153.17 435.06 153.24 432.01 C 153.44 424.32 152.53 416.33 155.38 408.98 Z" />
<path fill="#3d3d3d" opacity="1.00" d=" M 773.18 434.08 C 778.30 433.73 782.08 437.66 786.55 439.45 C 794.41 443.35 803.95 439.99 811.66 444.37 C 814.62 445.93 815.63 449.29 815.96 452.40 C 819.18 452.44 821.90 454.67 822.08 457.99 C 823.66 465.07 816.26 469.55 815.53 476.12 C 814.89 480.72 812.19 485.13 807.93 487.19 C 806.54 487.25 805.16 487.29 803.79 487.32 C 803.98 485.23 804.20 483.15 804.43 481.08 C 809.36 479.78 811.84 474.13 810.37 469.46 C 809.25 467.36 806.42 467.26 804.34 467.41 C 802.26 469.39 801.66 472.91 798.85 474.04 C 797.16 474.04 797.25 472.16 796.87 471.02 C 795.88 466.64 795.82 462.13 795.61 457.66 C 789.51 457.51 783.37 457.07 777.47 455.42 C 775.27 454.67 773.14 453.77 771.00 452.89 C 768.49 450.56 766.53 447.59 766.30 444.08 C 769.25 440.88 773.49 442.68 777.01 443.64 C 775.76 442.12 774.51 440.65 773.34 439.09 C 773.05 437.43 773.08 435.75 773.18 434.08 Z" />
<path fill="#3d3d3d" opacity="1.00" d=" M 191.01 437.30 C 192.85 437.97 194.63 438.78 196.37 439.70 L 196.78 440.22 C 196.54 440.42 196.05 440.83 195.81 441.04 C 193.88 440.26 191.80 439.39 191.01 437.30 Z" />
<path fill="#3d3d3d" opacity="1.00" d=" M 752.08 589.51 C 767.53 589.29 782.98 590.41 798.44 590.53 C 795.53 603.09 794.10 616.62 786.42 627.41 C 782.45 633.05 776.12 636.56 769.41 637.75 C 769.39 627.78 769.47 617.81 769.36 607.84 C 773.77 607.34 778.58 608.63 782.72 606.74 C 787.50 603.99 785.46 595.85 779.98 595.61 C 770.04 595.29 760.09 595.57 750.15 595.49 C 750.93 593.54 751.71 591.58 752.08 589.51 Z" />
<path fill="#3d3d3d" opacity="1.00" d=" M 677.44 609.72 C 687.13 605.65 697.64 604.12 707.95 602.40 L 708.15 602.35 C 708.95 605.03 710.95 607.76 714.04 607.67 C 729.17 607.79 744.31 607.68 759.45 607.71 C 759.51 617.47 759.46 627.23 759.49 636.99 C 751.68 636.57 744.06 634.74 736.33 633.71 C 730.48 632.95 724.33 631.97 718.62 633.98 C 713.44 636.38 712.21 642.87 712.70 648.02 C 712.81 651.66 715.65 654.12 717.79 656.72 C 716.99 656.29 716.20 655.87 715.41 655.47 C 715.14 658.74 714.93 662.01 714.85 665.29 C 714.74 680.51 714.66 695.79 712.35 710.88 C 711.90 713.92 711.12 717.02 711.73 720.11 C 711.52 719.67 711.10 718.77 710.88 718.32 C 704.59 721.93 697.20 723.04 690.04 722.38 C 688.45 722.53 687.80 720.99 687.08 719.93 C 686.46 718.85 685.81 717.81 685.15 716.78 C 685.17 714.03 686.29 711.53 687.20 709.00 C 687.28 705.87 685.86 702.94 685.10 699.96 C 680.73 706.80 676.35 713.62 672.08 720.51 C 664.75 720.39 657.66 717.87 651.50 713.99 L 651.34 713.18 C 655.89 695.68 660.76 678.27 665.47 660.81 C 667.15 654.19 669.29 647.67 670.67 640.98 C 670.15 632.70 668.06 624.21 670.15 615.97 C 670.81 612.41 674.59 611.14 677.44 609.72 M 711.82 676.69 C 707.36 684.94 702.03 692.75 695.93 699.89 C 693.81 702.44 691.12 704.64 689.90 707.82 C 695.58 708.93 701.35 707.93 707.08 708.18 C 701.90 713.37 695.02 716.61 687.72 717.34 C 689.65 718.75 692.11 717.75 694.22 717.33 C 699.96 715.67 705.73 712.39 708.92 707.21 C 703.18 706.44 697.40 707.54 691.65 707.00 C 698.77 698.90 705.60 690.45 710.89 681.01 C 712.14 678.73 713.62 676.48 713.99 673.85 C 713.17 674.71 712.38 675.62 711.82 676.69 Z" />
<path fill="#3d3d3d" opacity="1.00" d=" M 157.55 626.57 C 160.78 620.04 162.40 612.89 164.38 605.93 C 165.16 609.44 166.03 612.94 166.85 616.45 C 164.41 627.61 162.19 638.84 158.83 649.77 C 156.73 656.69 154.25 663.59 150.34 669.72 C 140.56 686.07 130.45 702.23 120.24 718.31 C 114.06 719.44 107.25 718.87 102.47 714.38 C 108.51 701.27 113.89 687.84 118.64 674.21 C 121.67 665.37 124.48 656.38 125.61 647.07 C 126.58 639.85 127.17 632.59 127.76 625.33 C 135.96 627.91 144.37 630.47 153.03 630.52 C 155.39 630.67 156.56 628.28 157.55 626.57 Z" />
<path fill="#3d3d3d" opacity="1.00" d=" M 183.33 632.68 C 194.51 634.13 206.14 632.67 216.33 627.72 C 218.85 640.94 219.75 654.47 218.82 667.90 C 217.55 682.68 215.72 697.41 213.50 712.08 C 213.01 714.69 212.94 717.62 211.02 719.68 C 204.98 722.36 198.33 720.86 192.45 718.54 C 193.57 700.36 194.53 682.07 193.18 663.88 C 191.85 653.38 187.24 643.68 183.77 633.78 L 183.33 632.68 Z" />
</g>
<g id="#02b0edff">
<path fill="#02b0ed" opacity="1.00" d=" M 312.76 407.46 C 316.63 407.47 320.50 407.48 324.38 407.53 C 324.33 437.16 324.38 466.79 324.35 496.43 C 320.43 496.64 316.51 496.64 312.59 496.41 C 312.71 466.76 312.39 437.11 312.76 407.46 Z" />
</g>
<g id="#bec8f9ff">
<path fill="#bec8f9" opacity="1.00" d=" M 499.22 410.51 C 518.47 410.12 537.76 410.48 557.02 410.33 C 560.05 409.79 562.15 413.91 560.17 416.17 C 558.55 417.72 556.07 417.12 554.04 417.35 C 537.02 417.28 520.00 417.41 502.98 417.30 C 501.11 417.06 498.55 417.56 497.37 415.74 C 496.77 413.84 497.06 411.23 499.22 410.51 Z" />
<path fill="#bec8f9" opacity="1.00" d=" M 574.40 410.52 C 586.61 410.10 598.87 410.43 611.10 410.35 C 613.58 409.85 614.62 412.75 614.69 414.72 C 613.44 417.81 609.73 417.30 607.05 417.35 C 596.37 417.22 585.67 417.56 575.00 417.18 C 571.05 417.44 570.53 410.87 574.40 410.52 Z" />
<path fill="#bec8f9" opacity="1.00" d=" M 628.20 410.35 C 647.48 410.34 666.76 410.37 686.04 410.32 C 687.11 410.32 688.18 410.44 689.24 410.68 C 690.92 411.94 690.59 414.33 691.16 416.14 C 680.13 416.99 668.99 415.49 658.03 416.98 C 651.38 417.76 644.68 417.13 638.01 417.35 C 634.81 417.23 631.44 417.75 628.38 416.68 C 625.79 415.28 627.35 412.33 628.20 410.35 Z" />
</g>
<g id="#faaeb2ff">
<path fill="#faaeb2" opacity="1.00" d=" M 195.30 428.84 C 195.77 426.72 196.22 424.57 197.36 422.69 C 198.53 427.16 200.39 431.40 202.05 435.70 C 200.31 436.08 198.57 436.47 196.84 436.85 C 196.72 437.56 196.49 438.99 196.37 439.70 C 194.63 438.78 192.85 437.97 191.01 437.30 C 191.80 439.39 193.88 440.26 195.81 441.04 C 194.94 442.48 194.21 444.02 193.16 445.36 C 191.78 445.79 190.32 445.61 188.92 445.52 C 188.44 445.42 187.49 445.23 187.02 445.13 C 186.27 446.59 185.52 448.04 184.77 449.51 C 184.26 448.66 183.77 447.80 183.29 446.95 C 182.24 438.93 188.18 432.35 193.40 427.06 C 194.03 427.64 194.67 428.24 195.30 428.84 Z" />
</g>
<g id="#889ffbff">
<path fill="#889ffb" opacity="1.00" d=" M 663.51 424.45 C 666.09 423.17 669.21 423.89 672.01 423.71 C 721.01 423.73 770.01 423.72 819.01 423.73 C 820.56 423.80 822.10 424.09 823.64 424.34 C 823.80 437.55 823.70 450.76 823.72 463.96 C 823.56 480.78 824.06 497.62 823.45 514.43 C 820.76 514.59 818.07 514.74 815.39 514.95 C 813.34 510.21 811.78 505.28 809.56 500.62 C 809.14 499.41 808.81 498.19 808.49 496.97 C 808.02 495.05 807.29 493.23 806.38 491.50 C 806.86 490.05 807.39 488.61 807.93 487.19 C 812.19 485.13 814.89 480.72 815.53 476.12 C 816.26 469.55 823.66 465.07 822.08 457.99 C 821.90 454.67 819.18 452.44 815.96 452.40 C 815.63 449.29 814.62 445.93 811.66 444.37 C 803.95 439.99 794.41 443.35 786.55 439.45 C 782.08 437.66 778.30 433.73 773.18 434.08 C 773.08 435.75 773.05 437.43 773.34 439.09 C 771.36 439.55 769.35 439.88 767.46 440.60 C 766.24 441.26 766.52 442.92 766.30 444.08 C 766.53 447.59 768.49 450.56 771.00 452.89 C 765.76 452.91 760.52 453.11 755.28 453.35 C 755.37 454.87 754.81 456.76 756.23 457.86 C 763.14 458.85 770.21 457.27 777.07 458.86 C 776.78 462.78 773.76 465.42 771.51 468.33 C 766.19 466.42 760.51 467.17 755.00 467.12 C 746.03 467.12 737.07 466.97 728.11 467.24 C 727.60 468.85 726.30 471.68 729.03 471.91 C 741.99 473.00 755.14 471.01 768.04 472.88 C 767.75 473.80 767.54 474.75 767.40 475.71 C 769.28 477.01 771.61 477.41 773.64 478.45 C 774.90 479.59 774.09 481.61 774.36 483.12 C 767.99 484.37 761.48 483.59 755.05 483.76 C 730.04 483.95 705.02 483.53 680.02 483.96 C 679.72 490.34 679.67 496.72 679.96 503.10 C 712.98 503.63 746.02 503.13 779.04 503.35 C 778.60 504.22 778.18 505.11 777.78 506.02 C 776.81 508.02 775.90 510.05 774.95 512.06 C 774.29 512.94 773.64 513.83 773.03 514.76 C 737.35 514.60 701.66 514.78 665.98 514.67 C 662.71 515.19 663.02 511.12 662.92 509.01 C 662.92 482.67 662.97 456.33 662.89 429.99 C 662.93 428.13 662.96 426.23 663.51 424.45 M 679.60 455.81 L 679.78 455.82 C 679.73 463.36 684.24 470.75 691.19 473.81 C 698.37 477.11 707.42 475.56 713.02 469.96 L 712.15 469.07 C 712.41 469.20 712.95 469.47 713.22 469.60 C 720.30 463.64 720.51 451.79 715.27 444.55 C 711.33 439.95 705.79 436.08 699.43 436.57 C 688.97 436.00 679.80 445.58 679.60 455.81 M 728.20 440.24 C 726.12 441.66 727.22 445.40 729.97 444.86 C 738.64 445.01 747.34 445.07 756.02 444.79 C 758.42 444.74 758.28 441.83 757.98 440.14 C 750.68 439.50 743.34 440.01 736.02 439.84 C 733.41 439.89 730.74 439.56 728.20 440.24 M 728.23 453.18 C 727.60 454.72 726.56 456.53 728.13 457.90 C 731.73 458.56 735.42 458.05 739.06 458.21 C 741.50 458.09 744.18 458.59 746.41 457.34 C 747.42 455.94 747.05 453.11 744.92 453.20 C 739.36 452.86 733.79 453.21 728.23 453.18 Z" />
<path fill="#889ffb" opacity="1.00" d=" M 189.99 732.99 C 189.51 728.03 191.27 723.27 192.45 718.54 C 198.33 720.86 204.98 722.36 211.02 719.68 C 214.47 722.34 217.58 725.46 221.30 727.76 C 225.67 730.47 230.95 730.79 235.68 732.59 C 236.82 732.91 238.18 734.94 236.61 735.68 C 233.90 737.68 230.25 737.34 227.05 737.46 C 216.65 737.10 206.17 737.74 195.82 736.31 C 193.69 735.84 190.52 735.63 189.99 732.99 Z" />
</g>
<g id="#becaf8ff">
<path fill="#becaf8" opacity="1.00" d=" M 498.20 429.29 C 499.65 428.40 501.45 428.72 503.08 428.61 C 520.04 428.77 537.02 428.47 553.98 428.76 C 558.14 428.34 558.21 435.69 554.02 435.30 C 537.00 435.53 519.98 435.36 502.96 435.40 C 501.35 435.33 499.68 435.48 498.16 434.89 C 496.74 433.39 496.60 430.70 498.20 429.29 Z" />
<path fill="#becaf8" opacity="1.00" d=" M 569.26 429.30 C 570.63 428.32 572.47 428.77 574.06 428.61 C 594.72 428.72 615.40 428.51 636.06 428.71 C 639.57 428.50 640.09 434.14 637.01 435.15 C 634.33 435.59 631.61 435.41 628.92 435.41 C 609.62 435.32 590.32 435.50 571.02 435.33 C 567.91 435.62 566.97 430.80 569.26 429.30 Z" />
</g>
<g id="#c2c7f8ff">
<path fill="#c2c7f8" opacity="1.00" d=" M 651.00 432.02 C 650.67 429.18 653.70 428.76 655.79 428.57 C 655.79 430.89 655.81 433.22 655.84 435.55 C 653.63 435.56 650.62 434.90 651.00 432.02 Z" />
</g>
<g id="#686e83ff">
<path fill="#686e83" opacity="1.00" d=" M 173.02 429.55 C 174.13 430.74 174.97 432.19 174.92 433.88 C 175.27 439.93 175.00 446.91 170.49 451.51 C 166.86 455.09 161.35 454.87 157.01 457.06 C 153.64 459.06 153.46 463.44 152.64 466.87 C 151.91 471.83 149.78 476.63 146.09 480.10 C 142.88 483.46 138.27 484.71 134.25 486.81 C 133.83 486.65 132.99 486.33 132.57 486.17 C 132.82 485.55 133.32 484.30 133.57 483.68 C 138.78 482.23 144.08 479.82 146.97 475.00 C 151.04 469.55 149.16 461.77 153.60 456.56 C 157.63 451.54 165.84 453.97 169.52 448.47 C 173.91 443.01 171.34 435.77 173.02 429.55 Z" />
</g>
<g id="#c3cefbff">
<path fill="#c3cefb" opacity="1.00" d=" M 887.32 433.46 C 902.52 430.87 919.59 433.96 931.04 444.86 C 939.86 452.94 943.81 465.21 943.37 476.96 C 942.87 489.57 939.56 501.85 936.34 513.99 C 934.24 522.44 932.97 531.83 936.93 539.96 C 939.64 546.85 945.76 551.48 949.18 557.95 C 956.02 569.99 959.43 584.30 957.15 598.08 C 955.06 608.24 948.94 617.70 939.99 623.09 C 927.72 631.08 912.67 632.56 898.41 633.17 C 898.32 618.77 898.48 604.37 898.30 589.97 C 906.09 589.55 914.38 588.77 920.82 583.89 C 928.68 578.77 932.01 568.71 930.87 559.68 C 927.02 561.62 928.93 566.97 927.43 570.36 C 924.16 582.71 910.01 588.02 898.34 586.84 C 898.46 554.90 898.35 522.96 898.40 491.02 C 898.32 489.23 898.44 486.87 896.03 486.84 C 895.40 496.89 895.91 506.97 895.78 517.03 C 895.57 518.13 896.08 520.77 894.15 520.36 C 887.56 520.15 880.33 518.33 876.13 512.86 C 873.87 510.31 873.84 506.75 873.31 503.58 C 872.76 503.47 871.65 503.23 871.10 503.11 C 870.94 507.20 871.34 511.55 874.18 514.76 C 879.21 521.34 888.01 522.76 895.77 523.18 C 895.73 559.82 895.79 596.45 895.74 633.09 C 884.57 632.77 873.18 631.70 862.71 627.53 C 862.24 627.35 861.30 627.00 860.82 626.82 C 860.84 607.51 860.76 588.21 860.86 568.90 C 865.88 569.04 870.91 569.09 875.93 568.95 C 876.03 565.68 876.03 562.41 875.93 559.15 C 866.01 558.88 856.08 559.06 846.16 559.02 C 839.86 558.22 833.46 559.23 827.21 558.32 C 827.22 558.10 827.26 557.66 827.28 557.44 C 833.22 558.59 839.69 559.05 845.56 557.51 C 849.33 549.90 857.45 544.97 859.08 536.23 C 860.77 525.25 859.11 513.70 854.57 503.56 C 854.45 502.31 854.32 501.06 854.21 499.83 C 853.59 493.82 851.78 488.01 851.33 481.99 C 849.99 473.88 851.70 465.54 854.78 458.02 C 855.98 454.97 857.04 451.77 859.27 449.29 C 866.58 441.13 876.47 435.29 887.32 433.46 Z" />
<path fill="#c3cefb" opacity="1.00" d=" M 839.91 568.99 C 844.61 569.09 849.31 568.95 854.02 569.12 C 854.62 587.17 853.93 605.25 854.43 623.31 C 846.03 618.06 839.44 609.67 837.56 599.83 C 835.09 589.54 837.11 578.97 839.91 568.99 Z" />
</g>
<g id="#03aff0ff">
<path fill="#03aff0" opacity="1.00" d=" M 699.43 436.57 C 705.79 436.08 711.33 439.95 715.27 444.55 C 720.51 451.79 720.30 463.64 713.22 469.60 C 712.95 469.47 712.41 469.20 712.15 469.07 C 707.92 464.73 703.52 460.56 699.39 456.13 C 699.49 449.61 699.44 443.09 699.43 436.57 Z" />
</g>
<g id="#9caef1ff">
<path fill="#9caef1" opacity="1.00" d=" M 767.46 440.60 C 769.35 439.88 771.36 439.55 773.34 439.09 C 774.51 440.65 775.76 442.12 777.01 443.64 C 773.49 442.68 769.25 440.88 766.30 444.08 C 766.52 442.92 766.24 441.26 767.46 440.60 Z" />
</g>
<g id="#9ab4ffff">
<path fill="#9ab4ff" opacity="1.00" d=" M 728.20 440.24 C 730.74 439.56 733.41 439.89 736.02 439.84 C 743.34 440.01 750.68 439.50 757.98 440.14 C 758.28 441.83 758.42 444.74 756.02 444.79 C 747.34 445.07 738.64 445.01 729.97 444.86 C 727.22 445.40 726.12 441.66 728.20 440.24 Z" />
<path fill="#9ab4ff" opacity="1.00" d=" M 728.11 467.24 C 737.07 466.97 746.03 467.12 755.00 467.12 C 760.51 467.17 766.19 466.42 771.51 468.33 C 770.33 469.83 769.16 471.33 768.04 472.88 C 755.14 471.01 741.99 473.00 729.03 471.91 C 726.30 471.68 727.60 468.85 728.11 467.24 Z" />
</g>
<g id="#6d6f84ff">
<path fill="#6d6f84" opacity="1.00" d=" M 153.05 446.00 C 155.70 445.23 157.37 442.87 159.20 440.98 C 159.80 441.54 160.40 442.10 161.00 442.66 C 159.57 444.31 158.28 446.16 156.40 447.33 C 152.72 449.43 148.15 449.26 144.57 451.57 C 140.84 454.58 141.36 459.86 140.10 464.05 C 138.20 472.37 130.88 478.52 122.73 480.35 C 121.69 480.20 120.93 479.49 120.43 478.20 C 126.14 476.85 131.93 474.27 135.04 469.02 C 139.01 463.79 137.45 456.47 141.20 451.19 C 143.91 447.36 149.02 447.43 153.05 446.00 Z" />
</g>
<g id="#feffffff">
<path fill="#feffff" opacity="1.00" d=" M 187.02 445.13 C 187.49 445.23 188.44 445.42 188.92 445.52 C 188.76 447.22 187.49 449.50 189.14 450.84 C 191.96 452.88 195.32 453.97 198.39 455.57 C 203.60 458.05 208.21 461.62 212.28 465.69 C 219.23 473.42 222.24 483.59 227.85 492.17 C 230.21 496.32 235.65 497.56 239.98 496.10 C 245.97 494.54 250.94 490.76 256.18 487.65 L 256.30 489.09 C 255.75 490.47 254.99 491.81 253.68 492.61 C 247.67 496.73 240.45 500.42 232.95 499.15 C 231.11 499.00 229.46 498.09 228.22 496.76 C 219.31 487.94 217.52 474.31 208.28 465.71 C 201.39 459.68 193.02 455.66 184.56 452.31 C 184.16 453.58 183.76 454.86 183.38 456.15 C 183.76 453.09 183.65 450.00 183.29 446.95 C 183.77 447.80 184.26 448.66 184.77 449.51 C 185.52 448.04 186.27 446.59 187.02 445.13 Z" />
</g>
<g id="#fb8ba4ff">
<path fill="#fb8ba4" opacity="1.00" d=" M 382.83 447.86 C 386.66 447.68 390.50 447.67 394.34 447.83 C 394.45 463.97 394.47 480.12 394.32 496.26 C 390.46 496.32 386.60 496.31 382.74 496.25 C 382.72 480.12 382.53 463.98 382.83 447.86 Z" />
</g>
<g id="#bccaf6ff">
<path fill="#bccaf6" opacity="1.00" d=" M 498.29 448.46 C 500.13 447.88 502.10 448.08 504.01 448.02 C 531.69 448.10 559.37 447.89 587.05 448.10 C 591.01 447.57 591.83 454.19 587.98 454.70 C 559.31 454.90 530.63 454.67 501.96 454.80 C 500.47 454.62 498.46 455.06 497.44 453.67 C 496.99 451.98 496.70 449.65 498.29 448.46 Z" />
<path fill="#bccaf6" opacity="1.00" d=" M 602.15 454.68 C 601.35 452.42 600.57 448.57 603.96 448.18 C 621.22 447.75 638.50 448.20 655.77 447.99 C 655.73 450.28 655.71 452.59 655.75 454.89 C 637.89 454.58 620.01 454.94 602.15 454.68 Z" />
<path fill="#bccaf6" opacity="1.00" d=" M 641.38 467.56 C 646.16 467.06 650.99 467.57 655.79 467.24 C 655.73 469.75 655.71 472.26 655.77 474.78 C 651.20 474.48 646.63 474.76 642.07 474.54 C 638.48 474.50 637.90 468.29 641.38 467.56 Z" />
<path fill="#bccaf6" opacity="1.00" d=" M 499.21 505.41 C 527.79 504.97 556.40 505.40 584.99 505.21 C 586.73 505.41 589.49 504.74 590.07 507.03 C 591.09 509.18 589.78 512.28 587.12 512.01 C 559.11 512.21 531.09 512.05 503.08 512.10 C 501.17 511.93 498.73 512.38 497.35 510.74 C 496.58 508.80 497.12 506.22 499.21 505.41 Z" />
<path fill="#bccaf6" opacity="1.00" d=" M 601.66 510.31 C 600.26 508.04 602.30 504.84 604.98 505.27 C 621.90 505.09 638.83 505.42 655.76 505.13 C 655.73 507.44 655.75 509.75 655.79 512.06 C 639.88 512.18 623.97 512.04 608.07 512.14 C 605.88 512.00 603.04 512.46 601.66 510.31 Z" />
</g>
<g id="#ebebf5ff">
<path fill="#ebebf5" opacity="1.00" d=" M 183.38 456.15 C 183.76 454.86 184.16 453.58 184.56 452.31 C 193.02 455.66 201.39 459.68 208.28 465.71 C 217.52 474.31 219.31 487.94 228.22 496.76 C 229.46 498.09 231.11 499.00 232.95 499.15 C 240.45 500.42 247.67 496.73 253.68 492.61 C 254.99 491.81 255.75 490.47 256.30 489.09 C 257.95 493.35 261.32 496.54 264.71 499.46 C 265.81 498.89 266.90 498.32 267.99 497.73 C 265.11 503.32 263.14 510.46 256.50 512.70 C 256.15 513.59 255.81 514.48 255.48 515.39 C 247.64 519.55 239.02 523.06 230.01 522.88 C 224.42 521.71 218.79 520.51 213.37 518.71 C 210.26 517.33 207.08 516.10 203.81 515.16 C 201.47 521.21 203.85 527.74 204.26 533.96 C 204.57 539.39 206.99 544.30 208.93 549.29 C 213.08 558.54 216.35 568.18 219.17 577.92 C 221.64 584.82 223.64 591.88 225.43 598.99 C 226.62 605.20 229.56 611.32 228.70 617.75 C 226.35 622.75 220.91 625.17 216.33 627.72 C 206.14 632.67 194.51 634.13 183.33 632.68 L 183.77 633.78 C 180.68 630.75 175.17 632.15 172.57 628.42 C 169.94 624.82 168.65 620.48 166.85 616.45 C 166.03 612.94 165.16 609.44 164.38 605.93 C 162.40 612.89 160.78 620.04 157.55 626.57 C 156.56 628.28 155.39 630.67 153.03 630.52 C 144.37 630.47 135.96 627.91 127.76 625.33 C 123.95 623.91 119.21 622.55 117.66 618.32 C 115.43 611.12 115.75 603.50 115.79 596.05 C 115.39 585.21 119.61 575.01 122.91 564.89 C 126.06 554.19 129.96 543.71 132.77 532.91 C 132.49 529.42 129.32 527.16 127.84 524.18 C 125.48 519.55 122.92 514.45 124.21 509.10 C 125.79 501.08 128.11 493.16 131.41 485.68 C 131.70 485.80 132.28 486.05 132.57 486.17 C 132.99 486.33 133.83 486.65 134.25 486.81 C 141.44 489.38 150.71 491.78 157.07 486.11 C 161.49 482.53 159.24 475.92 162.85 471.83 C 165.57 467.73 170.36 465.82 175.11 465.51 C 179.90 465.08 182.41 460.34 183.38 456.15 M 184.03 497.04 C 184.49 500.00 186.71 502.15 188.58 504.33 C 192.58 508.82 197.36 512.85 203.03 515.02 C 203.07 512.97 201.02 512.30 199.61 511.34 C 194.91 508.57 190.79 504.80 187.57 500.40 C 186.61 499.05 185.43 497.90 184.03 497.04 M 140.27 498.62 C 139.06 507.58 136.81 516.36 134.20 525.01 C 133.54 527.02 133.15 529.12 133.03 531.24 C 134.20 530.94 134.88 530.20 135.05 529.03 C 137.26 521.09 139.48 513.13 141.05 505.03 C 141.20 502.91 142.40 500.16 140.27 498.62 Z" />
</g>
<g id="#99b4fcff">
<path fill="#99b4fc" opacity="1.00" d=" M 728.23 453.18 C 733.79 453.21 739.36 452.86 744.92 453.20 C 747.05 453.11 747.42 455.94 746.41 457.34 C 744.18 458.59 741.50 458.09 739.06 458.21 C 735.42 458.05 731.73 458.56 728.13 457.90 C 726.56 456.53 727.60 454.72 728.23 453.18 Z" />
</g>
<g id="#9bb3feff">
<path fill="#9bb3fe" opacity="1.00" d=" M 755.28 453.35 C 760.52 453.11 765.76 452.91 771.00 452.89 C 773.14 453.77 775.27 454.67 777.47 455.42 C 777.33 456.55 777.22 457.71 777.07 458.86 C 770.21 457.27 763.14 458.85 756.23 457.86 C 754.81 456.76 755.37 454.87 755.28 453.35 Z" />
</g>
<g id="#faadb3ff">
<path fill="#faadb3" opacity="1.00" d=" M 777.47 455.42 C 783.37 457.07 789.51 457.51 795.61 457.66 C 795.82 462.13 795.88 466.64 796.87 471.02 C 797.25 472.16 797.16 474.04 798.85 474.04 C 801.66 472.91 802.26 469.39 804.34 467.41 C 806.42 467.26 809.25 467.36 810.37 469.46 C 811.84 474.13 809.36 479.78 804.43 481.08 C 804.20 483.15 803.98 485.23 803.79 487.32 C 803.61 489.08 803.44 490.84 803.28 492.61 C 797.75 494.20 792.34 496.19 786.76 497.59 C 786.67 495.73 786.61 493.88 786.57 492.03 C 786.47 494.08 786.46 496.20 785.72 498.16 C 785.65 495.91 785.65 493.67 785.68 491.44 C 782.50 491.48 779.32 491.50 776.14 491.54 C 774.68 489.43 774.39 486.87 774.41 484.38 C 777.43 484.45 781.50 485.25 783.41 482.25 C 780.40 482.62 777.39 482.97 774.36 483.12 C 774.09 481.61 774.90 479.59 773.64 478.45 C 771.61 477.41 769.28 477.01 767.40 475.71 C 767.54 474.75 767.75 473.80 768.04 472.88 C 769.16 471.33 770.33 469.83 771.51 468.33 C 773.76 465.42 776.78 462.78 777.07 458.86 C 777.22 457.71 777.33 456.55 777.47 455.42 M 780.26 464.32 C 780.22 466.65 778.86 470.67 781.96 471.48 C 782.01 468.89 782.03 466.30 782.04 463.71 C 781.60 463.87 780.71 464.17 780.26 464.32 Z" />
<path fill="#faadb3" opacity="1.00" d=" M 261.64 465.63 C 262.35 464.07 263.66 460.36 265.87 462.20 C 267.81 466.13 264.83 470.77 265.94 474.78 C 269.49 477.28 275.05 478.16 276.30 482.96 C 276.13 488.17 271.88 492.01 269.37 496.28 C 268.92 496.77 268.46 497.26 267.99 497.73 C 266.90 498.32 265.81 498.89 264.71 499.46 C 261.32 496.54 257.95 493.35 256.30 489.09 L 256.18 487.65 C 256.64 480.05 259.48 472.85 261.64 465.63 Z" />
<path fill="#faadb3" opacity="1.00" d=" M 694.41 530.90 C 696.92 529.00 699.76 527.06 703.05 527.11 C 705.96 526.88 708.46 528.63 710.64 530.33 C 712.61 532.34 714.95 534.27 715.96 536.98 C 714.11 541.02 710.68 544.03 708.44 547.83 C 708.30 548.16 708.04 548.82 707.90 549.15 C 705.62 549.36 703.15 550.20 700.97 549.16 C 698.60 546.32 697.41 542.75 695.83 539.46 C 694.33 540.58 692.83 541.69 691.33 542.81 C 692.87 542.38 694.40 541.95 695.95 541.54 C 696.86 543.48 697.78 545.42 698.73 547.36 C 696.81 549.15 694.72 551.01 692.01 551.36 C 689.34 551.16 688.31 548.42 687.37 546.35 C 686.61 544.00 685.51 541.25 686.99 538.94 C 688.92 535.82 691.80 533.44 694.41 530.90 Z" />
</g>
<g id="#f6f6ffff">
<path fill="#f6f6ff" opacity="1.00" d=" M 679.78 455.82 C 686.31 455.99 692.85 456.02 699.39 456.13 C 703.52 460.56 707.92 464.73 712.15 469.07 L 713.02 469.96 C 707.42 475.56 698.37 477.11 691.19 473.81 C 684.24 470.75 679.73 463.36 679.78 455.82 Z" />
</g>
<g id="#87a0f9ff">
<path fill="#87a0f9" opacity="1.00" d=" M 289.25 461.12 C 293.09 460.85 296.95 460.85 300.79 461.13 C 300.81 472.86 300.86 484.59 300.76 496.32 C 301.85 496.84 302.94 497.37 304.05 497.85 C 292.03 497.53 280.01 497.77 267.99 497.73 C 268.46 497.26 268.92 496.77 269.37 496.28 C 275.98 496.48 282.60 496.44 289.22 496.31 C 289.35 484.58 289.28 472.85 289.25 461.12 Z" />
<path fill="#87a0f9" opacity="1.00" d=" M 709.72 597.78 C 711.31 595.41 714.43 595.58 716.95 595.51 C 728.02 595.56 739.08 595.62 750.15 595.49 C 760.09 595.57 770.04 595.29 779.98 595.61 C 785.46 595.85 787.50 603.99 782.72 606.74 C 778.58 608.63 773.77 607.34 769.36 607.84 C 769.47 617.81 769.39 627.78 769.41 637.75 C 769.24 642.10 769.92 646.55 768.96 650.83 C 768.32 653.13 765.82 653.76 763.96 654.72 C 762.53 653.60 760.92 652.68 759.78 651.27 C 759.08 646.54 759.60 641.74 759.49 636.99 C 759.46 627.23 759.51 617.47 759.45 607.71 C 744.31 607.68 729.17 607.79 714.04 607.67 C 710.95 607.76 708.95 605.03 708.15 602.35 C 708.63 600.81 709.02 599.24 709.72 597.78 Z" />
</g>
<g id="#d35076ff">
<path fill="#d35076" opacity="1.00" d=" M 359.44 462.92 C 363.28 462.89 367.12 462.91 370.96 463.01 C 371.19 474.12 371.00 485.23 371.07 496.34 L 369.93 496.36 C 370.09 485.56 370.13 474.76 369.84 463.96 C 366.37 463.70 362.89 463.71 359.42 464.03 L 359.44 462.92 Z" />
</g>
<g id="#8a6063ff">
<path fill="#8a6063" opacity="1.00" d=" M 780.26 464.32 C 780.71 464.17 781.60 463.87 782.04 463.71 C 782.03 466.30 782.01 468.89 781.96 471.48 C 778.86 470.67 780.22 466.65 780.26 464.32 Z" />
</g>
<g id="#bcc9faff">
<path fill="#bcc9fa" opacity="1.00" d=" M 498.33 468.31 C 499.69 467.37 501.49 467.72 503.07 467.58 C 525.06 467.63 547.04 467.53 569.03 467.64 C 571.84 467.03 574.31 470.33 572.71 472.79 C 571.88 474.56 569.60 474.29 567.99 474.40 C 546.33 474.39 524.67 474.37 503.00 474.42 C 501.18 474.29 499.12 474.59 497.62 473.34 C 496.98 471.76 496.69 469.37 498.33 468.31 Z" />
<path fill="#bcc9fa" opacity="1.00" d=" M 585.26 468.22 C 586.64 467.28 588.45 467.73 590.03 467.57 C 600.99 467.64 611.96 467.55 622.92 467.62 C 625.95 467.06 627.73 470.96 626.26 473.26 C 624.78 474.44 622.78 474.30 621.02 474.41 C 610.66 474.48 600.31 474.28 589.96 474.44 C 588.04 474.30 585.48 474.71 584.29 472.82 C 583.84 471.29 583.74 469.18 585.26 468.22 Z" />
</g>
<g id="#70454aff">
<path fill="#70454a" opacity="1.00" d=" M 774.36 483.12 C 777.39 482.97 780.40 482.62 783.41 482.25 C 781.50 485.25 777.43 484.45 774.41 484.38 L 774.36 483.12 Z" />
</g>
<g id="#6f8becff">
<path fill="#6f8bec" opacity="1.00" d=" M 755.05 483.76 C 761.48 483.59 767.99 484.37 774.36 483.12 L 774.41 484.38 C 774.39 486.87 774.68 489.43 776.14 491.54 C 779.32 491.50 782.50 491.48 785.68 491.44 C 785.65 493.67 785.65 495.91 785.72 498.16 C 782.78 498.92 779.92 500.15 779.04 503.35 C 746.02 503.13 712.98 503.63 679.96 503.10 C 679.67 496.72 679.72 490.34 680.02 483.96 C 705.02 483.53 730.04 483.95 755.05 483.76 Z" />
</g>
<g id="#bccaf8ff">
<path fill="#bccaf8" opacity="1.00" d=" M 498.34 486.42 C 500.43 485.57 502.73 485.71 504.95 485.66 C 520.63 485.82 536.32 485.64 552.01 485.72 C 553.81 485.80 556.47 485.82 556.97 488.04 C 557.75 489.96 556.58 493.20 554.05 492.67 C 536.06 492.61 518.06 492.78 500.07 492.61 C 497.03 492.74 495.85 487.75 498.34 486.42 Z" />
<path fill="#bccaf8" opacity="1.00" d=" M 569.32 486.48 C 571.04 485.56 573.08 485.77 574.98 485.67 C 594.64 485.78 614.30 485.67 633.96 485.72 C 635.71 485.80 638.43 485.83 638.89 488.01 C 639.71 490.34 637.59 493.21 635.05 492.71 C 613.72 492.63 592.38 492.76 571.05 492.61 C 568.06 492.60 566.68 487.95 569.32 486.48 Z" />
</g>
<g id="#bec9f7ff">
<path fill="#bec9f7" opacity="1.00" d=" M 650.83 488.99 C 650.85 486.28 653.80 486.08 655.78 485.57 C 655.73 488.16 655.74 490.76 655.79 493.37 C 653.67 492.67 650.62 491.85 650.83 488.99 Z" />
</g>
<g id="#7b88dbff">
<path fill="#7b88db" opacity="1.00" d=" M 803.28 492.61 C 803.44 490.84 803.61 489.08 803.79 487.32 C 805.16 487.29 806.54 487.25 807.93 487.19 C 807.39 488.61 806.86 490.05 806.38 491.50 C 805.34 491.88 804.31 492.25 803.28 492.61 Z" />
</g>
<g id="#8c9dedff">
<path fill="#8c9ded" opacity="1.00" d=" M 896.03 486.84 C 898.44 486.87 898.32 489.23 898.40 491.02 C 898.35 522.96 898.46 554.90 898.34 586.84 C 910.01 588.02 924.16 582.71 927.43 570.36 C 928.93 566.97 927.02 561.62 930.87 559.68 C 932.01 568.71 928.68 578.77 920.82 583.89 C 914.38 588.77 906.09 589.55 898.30 589.97 C 898.48 604.37 898.32 618.77 898.41 633.17 C 898.44 648.71 898.40 664.25 898.42 679.79 C 898.25 686.82 898.80 693.87 898.11 700.87 C 897.46 700.71 896.16 700.40 895.52 700.24 C 895.80 677.86 895.67 655.47 895.74 633.09 C 895.79 596.45 895.73 559.82 895.77 523.18 C 888.01 522.76 879.21 521.34 874.18 514.76 C 871.34 511.55 870.94 507.20 871.10 503.11 C 871.65 503.23 872.76 503.47 873.31 503.58 C 873.84 506.75 873.87 510.31 876.13 512.86 C 880.33 518.33 887.56 520.15 894.15 520.36 C 896.08 520.77 895.57 518.13 895.78 517.03 C 895.91 506.97 895.40 496.89 896.03 486.84 Z" />
</g>
<g id="#f0f1f6ff">
<path fill="#f0f1f6" opacity="1.00" d=" M 786.57 492.03 C 786.61 493.88 786.67 495.73 786.76 497.59 C 792.34 496.19 797.75 494.20 803.28 492.61 C 804.31 492.25 805.34 491.88 806.38 491.50 C 807.29 493.23 808.02 495.05 808.49 496.97 C 808.74 498.51 808.33 500.02 807.10 501.05 C 801.77 506.24 795.09 509.93 788.15 512.48 C 786.80 508.75 785.08 505.17 783.06 501.77 C 781.37 503.82 779.60 505.80 777.76 507.72 L 777.78 506.02 C 778.18 505.11 778.60 504.22 779.04 503.35 C 779.92 500.15 782.78 498.92 785.72 498.16 C 786.46 496.20 786.47 494.08 786.57 492.03 Z" />
<path fill="#f0f1f6" opacity="1.00" d=" M 787.34 514.02 C 795.77 511.53 803.02 506.34 809.56 500.62 C 811.78 505.28 813.34 510.21 815.39 514.95 C 815.82 519.92 816.12 524.90 816.89 529.83 C 817.18 532.36 817.33 534.91 817.46 537.46 C 807.78 553.74 802.86 572.27 798.44 590.53 C 782.98 590.41 767.53 589.29 752.08 589.51 C 749.30 582.70 751.30 575.40 752.90 568.59 C 756.56 567.71 760.33 567.73 764.07 567.58 C 776.14 566.58 788.36 562.53 797.41 554.24 C 803.69 548.53 808.25 540.84 809.66 532.43 C 809.38 532.35 808.83 532.18 808.56 532.10 C 806.41 545.03 796.79 555.91 784.97 561.11 C 772.64 566.73 758.71 567.72 745.37 566.46 C 731.45 564.79 717.27 559.14 708.44 547.83 C 710.68 544.03 714.11 541.02 715.96 536.98 C 714.95 534.27 712.61 532.34 710.64 530.33 C 711.37 530.31 712.85 530.26 713.59 530.23 C 715.37 532.89 717.86 535.22 718.68 538.42 C 721.73 539.54 724.97 539.98 728.03 541.06 C 732.03 542.48 736.34 542.22 740.50 542.76 C 743.86 544.06 747.44 543.04 750.84 542.46 C 755.46 541.64 759.66 539.49 763.93 537.67 C 761.79 545.27 760.76 553.07 760.02 560.91 C 758.70 560.80 758.13 559.38 757.32 558.56 C 753.98 554.29 751.40 549.52 748.62 544.89 C 744.32 547.31 742.06 551.93 741.11 556.59 C 741.41 556.64 742.01 556.72 742.31 556.77 C 743.04 552.71 744.91 548.98 748.03 546.24 C 751.25 551.21 754.01 556.52 757.91 561.03 C 758.77 562.14 760.15 562.56 761.39 563.15 C 761.35 554.71 762.67 546.29 765.11 538.22 C 765.66 535.94 767.78 534.70 769.42 533.26 C 773.52 530.02 776.21 525.46 779.48 521.46 C 779.22 521.05 778.97 520.64 778.73 520.24 C 775.67 524.70 772.43 529.12 768.29 532.67 C 768.23 531.98 768.09 530.61 768.03 529.93 C 769.27 524.76 770.81 519.60 773.03 514.76 C 773.64 513.83 774.29 512.94 774.95 512.06 C 777.72 509.71 780.00 506.89 782.51 504.28 C 785.68 506.17 785.93 510.80 787.34 514.02 Z" />
<path fill="#f0f1f6" opacity="1.00" d=" M 860.82 626.82 C 861.30 627.00 862.24 627.35 862.71 627.53 C 860.82 632.82 862.14 638.53 861.78 644.01 C 862.04 652.95 861.19 661.94 862.12 670.83 C 872.77 674.37 884.17 675.59 894.89 679.12 C 895.39 686.15 894.10 693.30 895.52 700.24 C 896.16 700.40 897.46 700.71 898.11 700.87 C 898.80 693.87 898.25 686.82 898.42 679.79 C 914.10 683.19 929.99 687.55 943.54 696.45 C 949.34 700.22 954.86 705.36 956.86 712.19 C 959.50 719.11 956.62 726.55 953.96 733.00 C 944.80 745.54 930.55 753.13 916.28 758.42 C 907.81 762.32 898.68 764.54 890.07 768.12 C 883.33 769.74 877.12 772.95 870.36 774.50 C 840.11 783.00 808.28 784.19 777.08 782.15 C 765.69 782.38 754.39 780.87 743.02 780.85 C 733.06 779.41 722.96 780.60 712.99 779.22 C 621.01 778.95 529.03 779.15 437.06 778.87 C 409.72 778.95 382.39 778.82 355.06 778.91 C 351.35 778.97 347.68 778.39 343.99 778.24 C 274.98 778.19 205.96 778.24 136.94 777.93 C 127.64 776.84 118.28 777.05 108.93 776.86 C 91.90 775.34 74.07 775.36 58.41 767.57 C 48.77 762.27 40.87 753.75 36.45 743.65 C 33.61 734.60 31.15 724.66 34.32 715.36 C 36.71 707.16 42.12 700.02 49.03 695.09 C 52.85 692.95 56.58 690.65 60.42 688.56 C 69.39 684.73 78.74 681.90 88.04 679.00 C 96.00 677.19 104.02 675.66 112.06 674.22 C 114.23 673.75 116.45 673.95 118.64 674.21 C 113.89 687.84 108.51 701.27 102.47 714.38 C 100.42 719.00 97.17 723.47 97.27 728.73 C 98.66 730.83 101.16 731.72 103.40 732.59 C 112.39 735.72 121.80 737.41 130.97 739.91 C 134.24 740.71 137.61 741.65 141.00 741.17 C 142.40 740.96 143.51 739.66 142.62 738.32 C 138.73 734.63 133.07 733.55 129.17 729.84 C 125.65 726.45 123.03 722.28 120.24 718.31 C 130.45 702.23 140.56 686.07 150.34 669.72 C 158.25 670.34 166.11 668.89 174.01 668.98 C 180.23 668.89 186.45 668.93 192.66 668.74 C 192.85 667.11 193.04 665.49 193.18 663.88 C 194.53 682.07 193.57 700.36 192.45 718.54 C 191.27 723.27 189.51 728.03 189.99 732.99 C 190.52 735.63 193.69 735.84 195.82 736.31 C 206.17 737.74 216.65 737.10 227.05 737.46 C 230.25 737.34 233.90 737.68 236.61 735.68 C 238.18 734.94 236.82 732.91 235.68 732.59 C 230.95 730.79 225.67 730.47 221.30 727.76 C 217.58 725.46 214.47 722.34 211.02 719.68 C 212.94 717.62 213.01 714.69 213.50 712.08 C 215.72 697.41 217.55 682.68 218.82 667.90 C 227.53 668.25 236.19 666.79 244.92 667.10 C 262.00 666.42 278.95 664.03 295.93 662.19 C 330.14 658.22 364.42 654.55 398.80 652.59 C 404.80 651.69 410.88 651.79 416.93 651.88 C 416.22 655.53 416.01 659.25 415.92 662.97 C 415.03 663.51 414.15 664.06 413.28 664.61 C 412.88 668.11 412.18 671.78 413.56 675.16 C 407.53 680.81 398.60 675.73 391.66 678.95 C 387.38 680.43 383.80 683.81 382.19 688.06 C 381.33 690.86 381.85 693.83 382.05 696.70 C 413.29 696.85 444.53 696.50 475.76 696.89 C 475.98 698.34 476.21 699.80 476.45 701.26 C 472.04 701.13 467.62 701.16 463.21 701.24 C 463.14 706.65 463.18 712.07 463.21 717.49 C 455.97 717.55 448.73 717.32 441.50 717.65 C 441.47 722.95 441.53 728.25 441.41 733.55 C 444.26 733.85 447.12 734.13 450.00 734.05 C 464.66 733.52 479.33 734.58 494.00 733.92 C 519.02 734.15 544.05 734.11 569.07 733.89 C 575.62 733.89 582.19 734.50 588.73 733.76 C 588.70 728.32 588.91 722.87 588.51 717.44 C 567.90 717.52 547.29 717.52 526.68 717.44 C 541.01 714.87 554.50 707.39 563.43 695.77 C 573.29 696.79 583.26 696.41 593.15 696.12 C 593.44 691.81 593.24 687.06 590.49 683.52 C 587.73 680.84 583.93 678.88 580.01 679.15 C 577.44 679.13 574.65 679.95 572.38 678.32 C 575.19 669.95 575.37 660.95 574.34 652.26 C 585.90 652.87 597.47 653.56 608.99 654.82 C 619.67 655.26 630.28 656.69 640.86 658.17 C 641.35 679.52 640.61 700.90 641.30 722.25 C 635.96 725.32 630.23 727.92 624.08 728.78 C 620.08 729.55 614.75 730.59 613.41 735.07 C 612.96 738.12 616.86 738.40 619.02 738.45 C 631.20 738.61 643.37 737.45 655.54 736.99 C 656.54 738.80 657.60 741.06 660.02 741.11 C 670.34 742.21 680.57 738.82 690.92 739.64 C 697.36 740.14 703.99 740.14 710.23 738.28 C 711.79 737.70 713.89 737.05 714.17 735.13 C 714.27 730.04 713.21 724.96 711.73 720.11 C 711.12 717.02 711.90 713.92 712.35 710.88 C 714.66 695.79 714.74 680.51 714.85 665.29 C 730.52 666.98 746.27 667.71 761.97 668.98 C 761.95 667.03 761.94 665.08 761.95 663.14 C 761.16 662.96 759.58 662.58 758.79 662.40 C 760.21 662.29 761.61 662.14 763.04 662.03 C 762.52 680.59 762.96 699.17 762.78 717.74 C 751.76 719.09 740.53 723.62 733.54 732.57 C 732.41 734.19 730.61 736.08 731.90 738.16 C 735.57 738.76 739.30 738.42 743.01 738.46 C 763.00 738.44 782.99 738.48 802.98 738.45 C 804.78 738.86 807.22 737.20 805.75 735.32 C 799.69 724.77 787.41 719.69 775.88 717.87 C 775.48 701.68 775.80 685.49 775.72 669.30 C 785.27 670.52 794.93 669.59 804.53 670.00 C 804.71 679.37 804.18 688.77 804.74 698.12 C 805.35 698.31 806.57 698.70 807.18 698.89 L 807.93 699.11 C 808.36 689.47 807.85 679.81 808.13 670.17 C 816.76 669.61 825.44 670.30 834.05 669.30 C 840.83 668.93 847.84 668.60 854.39 670.77 C 854.40 686.29 854.42 701.82 854.37 717.34 C 854.37 723.10 854.38 728.87 854.39 734.64 C 856.49 734.62 858.61 734.62 860.73 734.62 C 860.85 728.82 860.84 723.03 860.84 717.23 C 860.80 687.09 860.79 656.96 860.82 626.82 M 451.05 734.75 C 452.18 737.70 453.21 740.68 454.20 743.68 C 457.98 743.72 461.75 743.74 465.53 743.65 C 466.51 740.57 467.47 737.49 468.33 734.39 C 462.59 734.24 456.71 733.62 451.05 734.75 M 561.20 743.71 C 564.94 743.72 568.68 743.72 572.43 743.65 C 573.33 740.60 574.26 737.55 575.24 734.53 C 569.63 733.77 563.95 734.37 558.32 734.12 C 558.52 737.49 560.09 740.56 561.20 743.71 Z" />
<path fill="#f0f1f6" opacity="1.00" d=" M 648.40 658.20 C 654.03 659.45 659.83 659.59 665.47 660.81 C 660.76 678.27 655.89 695.68 651.34 713.18 L 651.50 713.99 C 651.57 714.40 651.71 715.20 651.79 715.60 C 650.73 716.36 649.66 717.11 648.58 717.83 C 648.16 697.96 648.53 678.07 648.40 658.20 Z" />
</g>
<g id="#c9d0e7ff">
<path fill="#c9d0e7" opacity="1.00" d=" M 184.03 497.04 C 185.43 497.90 186.61 499.05 187.57 500.40 C 190.79 504.80 194.91 508.57 199.61 511.34 C 201.02 512.30 203.07 512.97 203.03 515.02 C 197.36 512.85 192.58 508.82 188.58 504.33 C 186.71 502.15 184.49 500.00 184.03 497.04 Z" />
</g>
<g id="#b0b0b0ff">
<path fill="#b0b0b0" opacity="1.00" d=" M 808.49 496.97 C 808.81 498.19 809.14 499.41 809.56 500.62 C 803.02 506.34 795.77 511.53 787.34 514.02 C 785.93 510.80 785.68 506.17 782.51 504.28 C 780.00 506.89 777.72 509.71 774.95 512.06 C 775.90 510.05 776.81 508.02 777.78 506.02 L 777.76 507.72 C 779.60 505.80 781.37 503.82 783.06 501.77 C 785.08 505.17 786.80 508.75 788.15 512.48 C 795.09 509.93 801.77 506.24 807.10 501.05 C 808.33 500.02 808.74 498.51 808.49 496.97 Z" />
<path fill="#b0b0b0" opacity="1.00" d=" M 778.73 520.24 C 778.97 520.64 779.22 521.05 779.48 521.46 C 776.21 525.46 773.52 530.02 769.42 533.26 C 767.78 534.70 765.66 535.94 765.11 538.22 C 762.67 546.29 761.35 554.71 761.39 563.15 C 760.15 562.56 758.77 562.14 757.91 561.03 C 754.01 556.52 751.25 551.21 748.03 546.24 C 744.91 548.98 743.04 552.71 742.31 556.77 C 742.01 556.72 741.41 556.64 741.11 556.59 C 742.06 551.93 744.32 547.31 748.62 544.89 C 751.40 549.52 753.98 554.29 757.32 558.56 C 758.13 559.38 758.70 560.80 760.02 560.91 C 760.76 553.07 761.79 545.27 763.93 537.67 C 759.66 539.49 755.46 541.64 750.84 542.46 C 747.44 543.04 743.86 544.06 740.50 542.76 C 748.13 542.02 755.90 540.67 762.56 536.64 C 764.58 535.49 766.56 534.23 768.29 532.67 C 772.43 529.12 775.67 524.70 778.73 520.24 Z" />
<path fill="#b0b0b0" opacity="1.00" d=" M 808.56 532.10 C 808.83 532.18 809.38 532.35 809.66 532.43 C 808.25 540.84 803.69 548.53 797.41 554.24 C 788.36 562.53 776.14 566.58 764.07 567.58 C 760.33 567.73 756.56 567.71 752.90 568.59 L 752.28 568.67 C 740.68 567.52 728.83 565.04 718.79 558.86 C 714.96 555.86 711.19 552.75 707.90 549.15 C 708.04 548.82 708.30 548.16 708.44 547.83 C 717.27 559.14 731.45 564.79 745.37 566.46 C 758.71 567.72 772.64 566.73 784.97 561.11 C 796.79 555.91 806.41 545.03 808.56 532.10 Z" />
<path fill="#b0b0b0" opacity="1.00" d=" M 451.05 734.75 C 456.71 733.62 462.59 734.24 468.33 734.39 C 467.47 737.49 466.51 740.57 465.53 743.65 C 461.75 743.74 457.98 743.72 454.20 743.68 C 453.21 740.68 452.18 737.70 451.05 734.75 Z" />
<path fill="#b0b0b0" opacity="1.00" d=" M 561.20 743.71 C 560.09 740.56 558.52 737.49 558.32 734.12 C 563.95 734.37 569.63 733.77 575.24 734.53 C 574.26 737.55 573.33 740.60 572.43 743.65 C 568.68 743.72 564.94 743.72 561.20 743.71 Z" />
</g>
<g id="#cbd1ebff">
<path fill="#cbd1eb" opacity="1.00" d=" M 140.27 498.62 C 142.40 500.16 141.20 502.91 141.05 505.03 C 139.48 513.13 137.26 521.09 135.05 529.03 C 134.88 530.20 134.20 530.94 133.03 531.24 C 133.15 529.12 133.54 527.02 134.20 525.01 C 136.81 516.36 139.06 507.58 140.27 498.62 Z" />
</g>
<g id="#f997afff">
<path fill="#f997af" opacity="1.00" d=" M 851.82 499.13 C 852.41 499.31 853.61 499.65 854.21 499.83 C 854.32 501.06 854.45 502.31 854.57 503.56 C 853.63 508.19 852.88 512.90 851.35 517.39 C 849.19 523.79 844.38 529.09 838.56 532.42 C 838.54 531.83 838.51 530.65 838.50 530.06 C 841.74 525.74 846.24 522.30 848.23 517.11 C 851.09 511.52 850.71 505.14 851.82 499.13 Z" />
</g>
<g id="#afb0b0ff">
<path fill="#afb0b0" opacity="1.00" d=" M 521.75 528.59 C 525.88 528.84 529.77 530.98 533.51 532.69 C 532.40 535.52 531.34 538.37 530.31 541.23 C 530.44 541.59 530.71 542.30 530.84 542.66 C 526.62 541.22 522.63 539.18 518.42 537.71 C 519.36 534.62 520.12 531.41 521.75 528.59 Z" />
</g>
<g id="#d5e3ffff">
<path fill="#d5e3ff" opacity="1.00" d=" M 760.80 530.05 C 763.20 530.03 765.61 529.99 768.03 529.93 C 768.09 530.61 768.23 531.98 768.29 532.67 C 766.56 534.23 764.58 535.49 762.56 536.64 C 761.96 534.44 761.38 532.25 760.80 530.05 Z" />
</g>
<g id="#feb2b7ff">
<path fill="#feb2b7" opacity="1.00" d=" M 816.89 529.83 C 818.99 530.01 821.10 530.20 823.22 530.39 C 821.12 532.59 819.17 534.94 817.46 537.46 C 817.33 534.91 817.18 532.36 816.89 529.83 Z" />
</g>
<g id="#87a1faff">
<path fill="#87a1fa" opacity="1.00" d=" M 511.33 537.40 C 513.61 536.38 516.13 537.09 518.42 537.71 C 522.63 539.18 526.62 541.22 530.84 542.66 C 532.95 543.24 534.63 544.65 535.96 546.34 C 536.24 548.36 536.31 550.42 535.95 552.45 C 526.54 549.37 517.30 545.75 507.97 542.44 C 507.49 542.78 506.54 543.46 506.06 543.80 C 506.97 541.14 508.58 538.44 511.33 537.40 Z" />
</g>
<g id="#6383f8ff">
<path fill="#6383f8" opacity="1.00" d=" M 641.80 568.88 C 643.98 568.88 646.16 568.92 648.35 568.97 C 648.46 578.97 648.39 588.98 648.39 598.99 C 648.41 618.73 648.40 638.46 648.40 658.20 C 648.53 678.07 648.16 697.96 648.58 717.83 C 646.51 719.16 644.39 720.39 642.28 721.65 C 641.41 713.45 641.82 705.21 641.74 696.99 C 641.73 664.27 641.84 631.56 641.83 598.84 C 641.85 588.85 641.84 578.87 641.80 568.88 Z" />
</g>
<g id="#6282f7ff">
<path fill="#6282f7" opacity="1.00" d=" M 854.83 568.87 C 856.83 568.87 858.84 568.87 860.86 568.90 C 860.76 588.21 860.84 607.51 860.82 626.82 C 860.79 656.96 860.80 687.09 860.84 717.23 C 858.67 717.29 856.53 717.33 854.37 717.34 C 854.42 701.82 854.40 686.29 854.39 670.77 C 854.41 654.95 854.35 639.13 854.43 623.31 C 855.00 605.17 854.32 587.01 854.83 568.87 Z" />
</g>
<g id="#87a1fbff">
<path fill="#87a1fb" opacity="1.00" d=" M 478.85 618.65 C 478.98 618.32 479.24 617.65 479.37 617.31 C 480.27 618.17 481.12 619.18 482.28 619.74 C 489.78 623.22 497.94 624.95 505.44 628.43 C 504.54 629.52 504.90 632.16 503.20 632.41 C 500.85 631.93 498.65 630.97 496.45 630.06 C 493.40 628.72 490.28 627.57 487.10 626.60 C 484.82 625.88 482.55 625.14 480.29 624.40 C 480.49 622.99 480.70 621.58 480.92 620.19 C 480.40 619.81 479.37 619.04 478.85 618.65 Z" />
</g>
<g id="#b1afb1ff">
<path fill="#b1afb1" opacity="1.00" d=" M 487.10 626.60 C 490.28 627.57 493.40 628.72 496.45 630.06 C 495.96 631.50 495.48 632.95 494.99 634.41 C 491.99 633.49 488.99 632.54 486.02 631.52 C 486.39 629.88 486.75 628.23 487.10 626.60 Z" />
</g>
<g id="#f69bb7ff">
<path fill="#f69bb7" opacity="1.00" d=" M 804.16 647.68 C 805.06 645.53 806.20 643.50 807.30 641.46 C 807.02 660.60 807.55 679.75 807.18 698.89 C 806.57 698.70 805.35 698.31 804.74 698.12 C 804.18 688.77 804.71 679.37 804.53 670.00 C 804.44 662.56 804.84 655.10 804.16 647.68 Z" />
</g>
<g id="#fa8ba3ff">
<path fill="#fa8ba3" opacity="1.00" d=" M 465.52 649.54 C 470.08 649.26 474.65 649.27 479.23 649.38 C 479.18 655.75 479.15 662.13 479.24 668.51 C 473.35 668.54 467.47 668.44 461.59 668.47 C 462.81 668.33 464.04 668.19 465.28 668.05 C 465.40 661.88 465.16 655.70 465.52 649.54 Z" />
</g>
<g id="#03afefff">
<path fill="#03afef" opacity="1.00" d=" M 493.30 668.50 C 497.85 668.55 502.41 668.51 506.97 668.44 C 508.18 668.42 509.39 668.41 510.61 668.41 C 510.75 671.89 510.74 675.38 510.51 678.86 C 505.62 678.07 500.66 678.56 495.74 678.48 C 489.39 678.49 483.05 678.51 476.70 678.49 C 471.65 678.56 466.61 678.27 461.57 678.50 C 461.50 675.15 461.48 671.81 461.59 668.47 C 467.47 668.44 473.35 668.54 479.24 668.51 C 483.92 668.52 488.61 668.48 493.30 668.50 Z" />
</g>
<g id="#676767ff">
<path fill="#676767" opacity="1.00" d=" M 711.82 676.69 C 712.38 675.62 713.17 674.71 713.99 673.85 C 713.62 676.48 712.14 678.73 710.89 681.01 C 705.60 690.45 698.77 698.90 691.65 707.00 C 697.40 707.54 703.18 706.44 708.92 707.21 C 705.73 712.39 699.96 715.67 694.22 717.33 C 692.11 717.75 689.65 718.75 687.72 717.34 C 695.02 716.61 701.90 713.37 707.08 708.18 C 701.35 707.93 695.58 708.93 689.90 707.82 C 691.12 704.64 693.81 702.44 695.93 699.89 C 702.03 692.75 707.36 684.94 711.82 676.69 Z" />
<path fill="#676767" opacity="1.00" d=" M 651.50 713.99 C 657.66 717.87 664.75 720.39 672.08 720.51 C 672.41 723.33 672.72 726.16 673.02 729.00 C 678.18 727.43 683.44 725.70 687.71 722.29 C 687.56 721.70 687.24 720.52 687.08 719.93 C 687.80 720.99 688.45 722.53 690.04 722.38 C 697.20 723.04 704.59 721.93 710.88 718.32 C 711.10 718.77 711.52 719.67 711.73 720.11 C 713.21 724.96 714.27 730.04 714.17 735.13 C 713.89 737.05 711.79 737.70 710.23 738.28 C 703.99 740.14 697.36 740.14 690.92 739.64 C 680.57 738.82 670.34 742.21 660.02 741.11 C 657.60 741.06 656.54 738.80 655.54 736.99 C 643.37 737.45 631.20 738.61 619.02 738.45 C 616.86 738.40 612.96 738.12 613.41 735.07 C 614.75 730.59 620.08 729.55 624.08 728.78 C 630.23 727.92 635.96 725.32 641.30 722.25 L 642.28 721.65 C 644.39 720.39 646.51 719.16 648.58 717.83 C 649.66 717.11 650.73 716.36 651.79 715.60 C 651.71 715.20 651.57 714.40 651.50 713.99 Z" />
</g>
<g id="#eff2f6ff">
<path fill="#eff2f6" opacity="1.00" d=" M 495.62 696.86 C 504.75 696.65 513.87 696.91 523.00 696.69 C 526.90 696.65 530.97 696.17 534.65 697.80 C 522.35 703.08 508.67 700.66 495.69 701.14 C 495.66 699.70 495.64 698.28 495.62 696.86 Z" />
</g>
<g id="#f1f0f6ff">
<path fill="#f1f0f6" opacity="1.00" d=" M 672.08 720.51 C 676.35 713.62 680.73 706.80 685.10 699.96 C 685.86 702.94 687.28 705.87 687.20 709.00 C 686.29 711.53 685.17 714.03 685.15 716.78 C 685.81 717.81 686.46 718.85 687.08 719.93 C 687.24 720.52 687.56 721.70 687.71 722.29 C 683.44 725.70 678.18 727.43 673.02 729.00 C 672.72 726.16 672.41 723.33 672.08 720.51 Z" />
</g>
</svg>
