<?xml version="1.0" encoding="UTF-8" ?>
<!DOCTYPE svg PUBLIC "-//W3C//DTD SVG 1.1//EN" "http://www.w3.org/Graphics/SVG/1.1/DTD/svg11.dtd">
<svg width="1000pt" height="1000pt" viewBox="0 0 1000 1000" version="1.1" xmlns="http://www.w3.org/2000/svg">
<g id="#fa3e6aff">
<path fill="#fa3e6a" opacity="1.00" d=" M 371.39 151.91 C 371.15 146.85 376.12 142.51 381.10 143.28 C 385.34 143.68 388.87 147.59 388.73 151.87 C 388.80 159.66 388.72 167.45 388.75 175.24 C 388.75 175.62 388.75 176.38 388.75 176.76 C 388.72 184.52 388.81 192.29 388.73 200.05 C 388.87 203.83 386.15 207.15 382.72 208.45 C 380.94 208.57 379.16 208.60 377.39 208.45 C 373.93 207.15 371.21 203.77 371.39 199.97 C 371.37 183.95 371.36 167.93 371.39 151.91 Z" />
<path fill="#fa3e6a" opacity="1.00" d=" M 529.43 151.09 C 529.62 146.71 533.73 143.10 538.06 143.22 C 542.72 143.07 546.94 147.27 546.74 151.95 C 546.80 165.95 546.69 179.94 546.79 193.94 C 546.76 196.82 546.95 199.75 546.35 202.59 C 545.71 205.43 543.13 207.13 540.80 208.55 C 538.95 208.64 537.11 208.65 535.28 208.56 C 532.99 207.27 531.06 205.44 529.74 203.17 C 528.89 194.46 529.61 185.65 529.38 176.91 C 529.38 176.45 529.38 175.55 529.38 175.09 C 529.43 167.09 529.27 159.08 529.43 151.09 Z" />
<path fill="#fa3e6a" opacity="1.00" d=" M 663.93 229.87 C 674.64 218.26 690.16 211.24 705.97 210.99 C 720.19 210.57 734.47 215.54 745.36 224.70 C 758.14 235.26 766.14 251.40 766.62 267.99 C 767.35 285.25 760.08 302.68 747.22 314.23 C 744.20 316.92 740.29 318.55 737.72 321.74 C 734.95 325.57 734.71 330.53 732.53 334.64 C 731.13 337.12 728.76 339.15 725.98 339.86 C 725.40 339.96 724.22 340.16 723.64 340.26 C 726.20 324.47 729.07 308.73 731.74 292.96 C 732.50 288.01 733.95 283.10 733.82 278.06 C 733.37 277.67 732.46 276.89 732.00 276.51 C 727.89 278.81 725.51 284.74 720.03 284.25 C 715.51 282.72 712.08 278.22 706.97 278.59 C 701.99 278.82 698.70 283.33 694.02 284.39 C 690.20 284.08 687.83 280.94 685.58 278.26 C 684.61 276.70 682.59 276.98 681.05 276.67 C 683.68 297.98 688.13 319.02 691.26 340.26 C 690.69 340.17 689.56 339.99 688.99 339.90 C 685.43 339.07 682.57 336.12 681.40 332.72 C 680.04 329.14 679.57 325.10 677.10 322.03 C 674.37 318.69 670.58 316.49 667.41 313.63 C 655.64 302.75 648.20 287.06 648.10 270.94 C 647.79 255.88 653.64 240.86 663.93 229.87 M 718.48 222.65 C 715.28 224.04 714.84 229.23 718.05 230.85 C 720.51 232.11 723.21 233.26 726.02 233.32 C 730.24 232.88 731.39 226.41 727.58 224.59 C 724.82 223.26 721.58 221.58 718.48 222.65 M 736.21 233.22 C 733.10 234.75 733.08 239.21 735.70 241.24 C 742.56 248.07 747.22 257.27 747.75 267.03 C 748.12 269.63 747.57 273.26 750.55 274.52 C 753.58 276.20 757.71 273.52 757.36 270.05 C 757.41 256.87 751.82 243.81 742.43 234.59 C 740.87 232.92 738.31 231.94 736.21 233.22 Z" />
<path fill="#fa3e6a" opacity="1.00" d=" M 698.54 288.39 C 701.73 286.97 704.39 283.96 708.02 283.78 C 711.98 284.99 714.86 288.53 718.99 289.31 C 721.78 289.48 724.52 288.71 727.25 288.20 C 724.34 305.62 721.33 323.02 718.24 340.41 C 710.97 340.36 703.70 340.36 696.43 340.39 C 693.89 322.98 690.65 305.68 687.89 288.30 C 691.37 288.90 695.21 290.34 698.54 288.39 Z" />
<path fill="#fa3e6a" opacity="1.00" d=" M 429.02 381.11 C 435.71 381.14 442.41 381.13 449.10 381.12 C 449.10 397.96 449.21 414.80 449.05 431.65 C 442.38 431.61 435.72 431.59 429.06 431.67 C 428.94 414.81 429.01 397.96 429.02 381.11 Z" />
<path fill="#fa3e6a" opacity="1.00" d=" M 225.21 431.37 C 227.77 428.89 230.59 426.36 234.13 425.43 C 237.67 424.76 240.84 427.07 243.47 429.13 C 243.15 433.03 242.54 436.90 242.07 440.78 C 237.45 440.80 232.84 440.70 228.24 440.40 C 227.31 437.36 226.23 434.38 225.21 431.37 Z" />
<path fill="#fa3e6a" opacity="1.00" d=" M 684.74 433.17 C 691.17 433.54 697.64 436.07 701.77 441.18 C 705.27 445.07 706.64 450.28 707.23 455.37 C 699.74 455.39 692.25 455.36 684.77 455.39 C 684.73 447.98 684.76 440.58 684.74 433.17 Z" />
<path fill="#fa3e6a" opacity="1.00" d=" M 228.68 442.27 C 233.10 442.22 237.52 442.29 241.94 442.54 C 244.74 466.61 248.59 490.67 248.66 514.97 C 248.52 518.87 248.80 523.15 246.56 526.57 C 244.42 529.89 241.59 532.69 238.75 535.41 C 237.18 536.35 235.61 537.28 234.06 538.23 C 233.01 537.27 231.95 536.33 230.91 535.38 C 226.66 530.91 221.66 526.70 219.18 520.95 C 219.07 513.60 220.97 506.37 221.59 499.06 C 223.88 480.12 226.76 461.24 228.68 442.27 Z" />
<path fill="#fa3e6a" opacity="1.00" d=" M 730.41 522.26 C 736.21 517.46 743.05 513.97 750.40 512.28 C 749.76 518.77 750.60 525.84 754.83 531.08 C 757.69 534.88 762.19 536.83 766.47 538.57 C 760.77 545.50 757.27 553.94 754.64 562.44 C 749.62 579.35 748.14 597.37 750.70 614.85 C 751.31 619.27 752.04 623.67 752.73 628.09 C 747.56 627.23 742.42 626.01 737.69 623.70 C 736.08 621.72 734.96 619.37 734.41 616.88 C 732.38 608.06 731.21 599.07 729.74 590.14 C 736.32 582.54 742.50 574.51 747.39 565.69 C 749.48 562.04 750.66 557.98 751.58 553.91 C 748.57 566.35 740.46 576.59 732.64 586.40 C 726.63 593.76 718.11 600.72 708.04 600.11 C 698.17 599.45 690.33 591.88 685.43 583.82 C 683.50 580.29 682.03 576.53 680.88 572.70 C 678.75 565.34 677.69 557.71 677.18 550.08 C 676.98 547.46 677.04 544.79 677.84 542.27 C 682.58 540.88 687.38 539.72 692.14 538.40 C 692.42 538.82 692.98 539.65 693.26 540.07 C 697.13 545.98 700.25 552.38 702.80 558.96 C 703.57 558.94 704.34 558.92 705.13 558.91 C 707.23 552.22 711.10 546.29 714.74 540.36 C 719.13 533.68 724.22 527.37 730.41 522.26 M 702.24 560.07 C 700.08 564.31 697.75 568.72 698.09 573.64 C 700.00 571.94 700.22 569.31 701.07 567.05 C 701.92 564.27 704.01 562.13 705.77 559.91 C 704.58 559.96 703.41 560.01 702.24 560.07 Z" />
<path fill="#fa3e6a" opacity="1.00" d=" M 494.75 622.37 C 496.80 622.38 498.85 622.40 500.91 622.43 C 500.89 623.95 500.88 625.47 500.88 627.00 C 502.22 627.52 503.56 628.03 504.91 628.57 C 505.97 627.48 507.05 626.39 508.13 625.32 C 509.58 626.80 511.05 628.28 512.51 629.77 C 511.42 630.88 510.33 632.00 509.26 633.13 C 509.80 634.37 510.36 635.62 510.91 636.88 C 512.43 636.87 513.95 636.88 515.47 636.89 C 515.48 638.96 515.48 641.03 515.49 643.11 C 513.94 643.11 512.40 643.12 510.87 643.13 C 510.34 644.47 509.80 645.79 509.28 647.14 C 510.36 648.18 511.44 649.22 512.53 650.28 C 511.08 651.79 509.61 653.30 508.16 654.81 C 507.06 653.71 505.97 652.62 504.88 651.54 C 503.54 652.04 502.22 652.56 500.89 653.08 C 500.89 654.61 500.89 656.15 500.90 657.70 C 498.84 657.72 496.79 657.73 494.75 657.74 C 494.75 656.21 494.75 654.68 494.76 653.16 C 493.45 652.60 492.14 652.03 490.84 651.48 C 489.75 652.58 488.66 653.68 487.58 654.80 C 486.11 653.38 484.58 652.00 483.30 650.41 C 484.21 649.18 485.26 648.07 486.29 646.94 C 485.78 645.67 485.28 644.41 484.79 643.15 C 483.23 643.12 481.67 643.09 480.12 643.07 C 480.12 641.03 480.12 638.99 480.13 636.95 C 481.69 636.91 483.25 636.87 484.83 636.84 C 485.32 635.56 485.83 634.28 486.34 633.02 C 485.26 631.94 484.18 630.86 483.12 629.80 C 484.51 628.32 485.91 626.84 487.31 625.36 C 488.51 626.42 489.70 627.50 490.90 628.58 C 492.18 628.01 493.48 627.47 494.77 626.91 C 494.76 625.39 494.75 623.88 494.75 622.37 M 495.32 633.43 C 490.64 635.03 489.16 641.74 492.87 645.08 C 496.38 648.89 503.37 647.00 504.63 642.02 C 506.45 636.73 500.45 631.19 495.32 633.43 Z" />
<path fill="#fa3e6a" opacity="1.00" d=" M 435.76 651.66 C 441.33 651.61 446.90 651.61 452.47 651.65 C 452.51 657.21 452.51 662.77 452.48 668.34 C 446.91 668.39 441.34 668.39 435.77 668.34 C 435.74 662.78 435.74 657.22 435.76 651.66 Z" />
</g>
<g id="#9cb0e6ff">
<path fill="#9cb0e6" opacity="1.00" d=" M 450.65 149.32 C 451.66 151.02 451.92 152.99 452.16 154.92 C 453.29 163.89 454.58 172.85 455.71 181.82 L 456.71 181.84 C 459.01 174.88 460.19 167.38 463.63 160.89 C 467.25 174.89 470.15 189.07 473.38 203.17 C 474.15 203.73 474.92 204.31 475.68 204.90 C 475.20 206.56 474.66 208.20 474.07 209.83 C 473.40 208.97 472.89 207.98 472.68 206.91 C 469.53 193.11 466.51 179.27 463.25 165.50 C 460.35 173.18 459.17 181.54 455.47 188.88 C 453.26 178.20 452.55 167.25 450.73 156.50 C 448.63 167.62 446.93 178.82 444.98 189.98 C 444.29 193.52 444.15 197.27 442.60 200.58 C 439.46 192.82 437.37 184.69 434.70 176.76 C 419.38 176.74 404.07 176.75 388.75 176.76 C 388.75 176.38 388.75 175.62 388.75 175.24 C 404.44 175.27 420.13 175.22 435.82 175.27 C 438.05 182.04 440.04 188.90 442.45 195.62 C 445.34 180.22 447.22 164.60 450.65 149.32 Z" />
<path fill="#9cb0e6" opacity="1.00" d=" M 493.33 395.47 C 499.87 394.91 506.45 395.45 513.01 395.26 C 516.78 395.31 520.59 394.94 524.33 395.58 C 525.80 396.81 525.93 399.22 524.32 400.41 C 519.60 401.16 514.79 400.60 510.03 400.72 C 504.44 400.59 498.82 401.07 493.25 400.53 C 490.67 400.16 490.72 395.76 493.33 395.47 Z" />
<path fill="#9cb0e6" opacity="1.00" d=" M 535.37 395.62 C 539.55 394.84 543.84 395.37 548.07 395.27 C 554.04 395.42 560.02 394.95 565.98 395.43 C 568.09 395.32 568.98 398.28 567.63 399.71 C 567.06 401.06 565.16 400.40 564.05 400.73 C 555.00 400.70 545.95 400.86 536.91 400.66 C 533.97 401.33 532.97 396.64 535.37 395.62 Z" />
<path fill="#9cb0e6" opacity="1.00" d=" M 492.16 410.29 C 498.03 409.20 504.10 409.75 510.04 409.86 C 512.82 409.63 513.60 413.24 511.82 414.90 C 505.96 415.82 499.94 415.42 494.03 415.22 C 491.27 415.46 490.76 412.02 492.16 410.29 Z" />
<path fill="#9cb0e6" opacity="1.00" d=" M 522.27 410.33 C 523.75 409.71 525.41 409.78 527.00 409.70 C 543.98 409.78 560.96 409.73 577.95 409.73 C 581.60 409.78 585.31 409.42 588.94 410.04 C 590.75 410.39 591.18 412.80 590.30 414.19 C 588.92 415.65 586.74 415.24 584.95 415.41 C 567.29 415.35 549.63 415.34 531.98 415.40 C 528.70 415.33 525.31 415.76 522.15 414.76 C 521.10 413.56 520.89 411.37 522.27 410.33 Z" />
<path fill="#9cb0e6" opacity="1.00" d=" M 493.28 425.47 C 506.50 424.93 519.78 425.47 533.02 425.21 C 535.41 425.38 539.18 424.54 539.41 427.99 C 539.40 430.91 536.12 430.74 534.05 430.77 C 521.38 430.69 508.71 430.75 496.04 430.75 C 494.53 430.56 492.45 431.03 491.67 429.31 C 490.72 428.04 491.63 425.62 493.28 425.47 Z" />
</g>
<g id="#eff1f7ff">
<path fill="#eff1f7" opacity="1.00" d=" M 603.16 169.22 C 643.18 155.67 686.68 152.70 728.20 160.46 C 766.59 167.60 803.48 184.22 833.08 209.86 C 874.42 245.75 901.36 298.21 904.97 352.96 C 906.35 372.73 904.27 392.67 899.38 411.86 C 891.73 442.82 878.52 472.08 870.91 503.05 C 865.21 525.95 863.56 549.60 858.49 572.63 C 849.51 572.65 840.53 572.59 831.56 572.67 C 832.97 567.17 834.95 561.78 837.93 556.93 C 841.08 551.46 844.72 545.53 844.02 538.95 C 843.53 534.68 839.66 532.02 836.02 530.46 C 836.64 494.31 835.95 458.15 836.34 422.00 C 836.30 419.10 836.45 416.12 835.58 413.33 C 834.49 410.80 831.42 410.35 828.99 410.31 C 767.32 410.38 705.64 410.33 643.98 410.34 C 641.60 410.45 638.49 410.78 637.50 413.34 C 636.40 417.46 636.89 421.78 636.85 426.00 C 636.93 456.33 636.84 486.67 636.90 517.00 C 637.09 523.30 636.31 529.65 637.29 535.91 C 637.83 538.93 641.30 539.69 643.91 539.68 C 654.54 539.79 665.18 539.47 675.82 539.74 C 676.49 540.58 677.16 541.42 677.84 542.27 C 677.04 544.79 676.98 547.46 677.18 550.08 C 677.69 557.71 678.75 565.34 680.88 572.70 C 649.21 572.58 617.54 572.61 585.88 572.68 C 585.88 576.41 585.89 580.15 585.91 583.89 C 591.61 583.89 597.30 583.86 603.00 583.83 C 603.00 617.94 603.00 652.05 603.00 686.17 C 590.52 683.04 578.22 679.16 566.24 674.47 C 566.25 628.30 566.26 582.13 566.24 535.97 C 566.53 528.75 560.32 522.22 553.10 522.15 C 538.45 521.73 523.78 522.13 509.12 522.00 C 509.12 511.94 509.18 501.88 509.08 491.83 C 533.06 491.95 557.05 491.81 581.03 491.90 C 584.69 491.88 588.41 491.95 591.97 490.96 C 601.18 488.58 608.66 480.44 610.05 471.01 C 610.65 466.61 610.33 462.17 610.36 457.75 C 516.03 457.75 421.71 457.75 327.38 457.76 C 331.32 455.04 335.06 452.06 338.72 448.99 C 363.81 448.43 388.91 448.90 414.01 448.75 C 479.86 448.67 545.71 448.91 611.56 448.63 C 611.68 388.79 611.64 328.95 611.58 269.12 C 586.39 268.56 561.18 269.03 535.98 268.88 C 490.88 268.85 445.78 268.93 400.69 268.83 C 408.48 266.01 416.36 263.36 423.85 259.79 C 486.02 259.38 548.20 259.79 610.38 259.58 C 610.37 256.83 610.38 254.08 610.42 251.33 C 587.93 251.26 565.45 251.35 542.96 251.31 C 536.92 251.27 530.85 251.65 524.86 250.72 C 521.69 244.96 518.31 239.31 514.96 233.65 C 482.28 233.66 449.58 233.56 416.90 233.69 C 414.19 233.33 412.90 235.94 411.59 237.78 C 408.80 242.10 405.90 246.35 403.14 250.69 C 400.10 251.12 397.03 251.38 393.96 251.35 C 369.58 251.23 345.19 251.41 320.80 251.26 L 320.57 250.35 C 344.39 250.40 368.21 250.33 392.03 250.39 C 395.32 250.34 398.65 250.63 401.91 250.05 C 406.37 244.98 409.59 238.92 413.40 233.35 C 415.58 233.08 417.76 232.78 419.97 232.71 C 451.61 232.59 483.25 232.87 514.88 232.55 C 519.40 237.89 521.67 244.70 526.08 250.09 C 554.25 250.78 582.50 250.11 610.70 250.41 C 610.03 243.73 607.67 236.98 602.55 232.41 C 597.90 227.95 591.46 225.57 585.04 225.63 C 570.29 225.61 555.54 225.63 540.80 225.63 C 540.72 219.94 540.68 214.24 540.80 208.55 C 543.13 207.13 545.71 205.43 546.35 202.59 C 546.95 199.75 546.76 196.82 546.79 193.94 C 564.99 184.44 583.67 175.76 603.16 169.22 M 705.07 177.99 C 704.81 184.82 704.36 191.80 705.41 198.58 C 706.91 198.88 708.44 198.94 709.97 199.09 C 710.50 192.07 710.63 184.98 710.17 177.96 C 710.34 174.96 704.84 174.92 705.07 177.99 M 658.23 191.22 C 656.76 191.90 656.98 194.05 657.74 195.22 C 660.12 199.45 663.07 203.33 665.59 207.48 C 666.78 209.06 667.78 211.39 670.09 211.39 C 672.00 211.12 673.21 208.63 671.97 207.06 C 669.42 202.68 666.39 198.59 663.77 194.25 C 662.59 192.45 660.72 189.43 658.23 191.22 M 754.48 191.53 C 752.03 194.46 750.27 197.88 748.07 201.00 C 746.44 203.58 744.29 205.99 743.65 209.06 C 744.15 211.09 746.96 212.27 748.38 210.40 C 751.60 206.49 753.96 201.96 756.90 197.84 C 757.94 195.97 760.08 193.66 758.48 191.50 C 757.39 190.57 755.42 190.31 754.48 191.53 M 663.93 229.87 C 653.64 240.86 647.79 255.88 648.10 270.94 C 648.20 287.06 655.64 302.75 667.41 313.63 C 670.58 316.49 674.37 318.69 677.10 322.03 C 679.57 325.10 680.04 329.14 681.40 332.72 C 682.57 336.12 685.43 339.07 688.99 339.90 C 687.14 341.35 685.95 343.30 685.88 345.70 C 700.26 345.65 714.65 345.58 729.03 345.72 C 728.80 343.39 727.74 341.37 725.98 339.86 C 728.76 339.15 731.13 337.12 732.53 334.64 C 734.71 330.53 734.95 325.57 737.72 321.74 C 740.29 318.55 744.20 316.92 747.22 314.23 C 760.08 302.68 767.35 285.25 766.62 267.99 C 766.14 251.40 758.14 235.26 745.36 224.70 C 734.47 215.54 720.19 210.57 705.97 210.99 C 690.16 211.24 674.64 218.26 663.93 229.87 M 783.46 225.52 C 778.69 227.53 774.37 230.44 769.73 232.71 C 767.84 233.83 764.52 235.02 765.66 237.84 C 765.88 239.81 768.56 239.72 769.87 238.93 C 774.38 236.86 778.58 234.18 783.01 231.96 C 784.45 230.94 786.93 230.22 786.73 228.05 C 786.84 226.43 784.98 224.92 783.46 225.52 M 630.05 226.05 C 628.66 228.04 629.78 230.30 631.84 231.16 C 637.06 233.95 642.12 237.11 647.57 239.46 C 650.28 240.37 652.04 235.98 649.58 234.62 C 645.45 231.87 640.89 229.86 636.62 227.35 C 634.56 226.44 632.28 224.60 630.05 226.05 M 686.03 350.86 C 686.02 352.31 686.01 353.77 686.01 355.23 C 700.25 355.41 714.50 355.51 728.74 355.14 C 728.75 353.73 728.78 352.33 728.81 350.94 C 714.55 350.57 700.29 350.73 686.03 350.86 M 685.55 360.79 C 686.25 362.26 686.31 364.25 687.74 365.28 C 689.71 365.91 691.82 365.91 693.87 366.13 C 695.08 368.45 696.05 371.05 698.14 372.76 C 702.39 376.31 708.67 376.45 713.70 374.66 C 717.34 373.32 719.24 369.76 720.59 366.37 C 722.70 366.00 724.91 365.91 726.94 365.12 C 728.24 364.13 728.48 362.33 729.32 361.00 C 714.75 360.26 700.13 360.70 685.55 360.79 Z" />
<path fill="#eff1f7" opacity="1.00" d=" M 490.40 225.61 C 503.46 218.04 516.53 210.46 529.74 203.17 C 531.06 205.44 532.99 207.27 535.28 208.56 C 535.44 214.25 535.39 219.94 535.29 225.64 C 520.32 225.61 505.36 225.65 490.40 225.61 Z" />
<path fill="#eff1f7" opacity="1.00" d=" M 216.96 277.05 C 251.06 271.74 285.37 278.38 319.49 279.91 C 319.54 326.28 319.44 372.65 319.54 419.01 C 312.45 422.24 304.14 424.61 296.60 421.39 C 283.40 415.75 269.32 412.16 255.01 410.95 C 250.18 410.98 247.31 406.67 243.63 404.27 C 247.02 404.16 251.13 404.45 253.46 401.47 C 257.99 396.03 259.55 388.83 260.85 382.05 C 262.59 372.90 261.85 363.50 260.00 354.43 C 265.59 352.86 271.11 350.32 275.19 346.09 C 277.11 344.08 278.68 341.08 277.53 338.29 C 276.11 335.87 272.87 336.97 270.59 336.78 C 272.61 334.27 274.65 331.40 274.53 328.01 C 274.55 325.81 273.38 323.22 270.95 322.91 C 262.15 321.89 254.75 329.42 245.92 327.90 C 237.70 326.77 229.47 323.59 221.10 325.25 C 215.20 326.64 212.81 332.87 211.76 338.20 C 202.23 338.02 195.33 348.10 196.96 357.01 C 197.79 362.65 201.29 367.34 203.17 372.62 C 203.54 374.95 203.40 377.41 204.26 379.65 C 205.53 382.24 207.39 384.47 208.79 386.98 C 209.76 390.17 211.40 393.15 214.60 394.53 C 214.63 395.04 214.69 396.05 214.72 396.56 C 209.75 399.68 206.43 404.56 203.49 409.50 C 203.32 409.76 202.98 410.28 202.81 410.54 C 184.69 416.94 169.76 430.72 160.27 447.26 C 154.01 458.03 150.22 470.01 147.43 482.09 C 144.21 496.38 142.36 510.95 141.68 525.57 C 125.38 510.27 112.24 490.96 106.97 469.02 C 99.66 439.24 104.26 407.88 113.35 379.02 C 123.19 348.59 139.70 319.24 165.15 299.21 C 180.06 287.38 198.19 279.90 216.96 277.05 Z" />
<path fill="#eff1f7" opacity="1.00" d=" M 274.55 427.93 C 278.65 441.44 280.40 455.62 280.60 469.71 C 294.46 469.34 308.29 466.51 320.99 460.87 C 320.72 467.68 321.06 474.99 325.20 480.73 C 330.63 489.32 341.24 492.82 351.01 491.90 C 374.78 491.81 398.55 491.95 422.33 491.82 C 422.40 501.88 422.39 511.94 422.33 522.00 C 408.21 522.09 394.09 521.91 379.97 522.02 C 374.30 521.90 368.48 524.92 366.34 530.36 C 364.40 535.31 365.23 540.78 365.11 545.97 C 365.21 571.05 365.07 596.12 365.12 621.19 C 335.43 617.52 306.11 610.84 277.74 601.37 C 278.47 585.12 281.42 568.66 278.29 552.49 C 277.56 548.20 275.79 544.20 274.83 539.98 C 274.57 536.90 274.85 533.81 274.86 530.73 C 279.16 526.26 280.29 519.93 280.98 514.01 C 282.81 497.38 281.49 480.61 279.91 464.01 C 279.62 451.80 277.16 439.81 274.55 427.93 Z" />
<path fill="#eff1f7" opacity="1.00" d=" M 192.41 442.86 C 194.10 447.40 195.40 452.09 195.94 456.92 C 197.44 470.45 193.07 483.78 187.93 496.11 C 186.01 501.03 182.60 505.56 182.48 511.02 C 182.25 517.84 183.20 525.42 188.44 530.34 C 188.27 533.62 188.15 536.91 188.16 540.20 C 185.00 544.91 182.95 550.23 181.29 555.63 C 176.26 552.48 171.33 549.19 166.47 545.77 C 169.60 535.34 173.73 525.22 178.46 515.42 C 185.85 499.65 194.23 483.68 195.62 466.02 C 196.42 458.13 194.28 450.43 192.41 442.86 Z" />
<path fill="#eff1f7" opacity="1.00" d=" M 693.26 540.07 C 700.41 539.47 707.63 539.17 714.74 540.36 C 711.10 546.29 707.23 552.22 705.13 558.91 C 704.34 558.92 703.57 558.94 702.80 558.96 C 700.25 552.38 697.13 545.98 693.26 540.07 Z" />
<path fill="#eff1f7" opacity="1.00" d=" M 732.64 586.40 C 740.46 576.59 748.57 566.35 751.58 553.91 C 750.66 557.98 749.48 562.04 747.39 565.69 C 742.50 574.51 736.32 582.54 729.74 590.14 C 731.21 599.07 732.38 608.06 734.41 616.88 C 734.96 619.37 736.08 621.72 737.69 623.70 C 730.79 626.79 723.55 629.30 715.98 630.05 C 704.15 631.46 691.67 633.59 682.00 641.08 C 675.49 646.02 671.47 653.85 670.95 661.98 C 670.14 673.23 673.38 684.27 677.13 694.75 C 654.71 695.02 632.27 692.70 610.37 687.89 C 610.35 653.21 610.42 618.53 610.34 583.84 C 635.37 583.88 660.40 583.92 685.43 583.82 C 690.33 591.88 698.17 599.45 708.04 600.11 C 718.11 600.72 726.63 593.76 732.64 586.40 Z" />
<path fill="#eff1f7" opacity="1.00" d=" M 828.20 634.69 C 826.67 617.75 826.87 600.61 829.34 583.77 C 834.44 583.88 839.55 583.90 844.66 583.85 C 844.56 593.03 844.70 602.22 844.59 611.41 C 840.07 619.78 834.44 627.51 828.20 634.69 Z" />
<path fill="#eff1f7" opacity="1.00" d=" M 851.99 583.83 C 853.22 583.83 854.45 583.84 855.69 583.86 C 854.58 587.62 853.42 591.38 852.02 595.05 C 852.01 591.31 852.00 587.57 851.99 583.83 Z" />
<path fill="#eff1f7" opacity="1.00" d=" M 476.33 604.47 C 481.52 603.66 486.80 604.23 492.04 604.14 C 506.70 604.05 521.36 604.17 536.03 604.07 C 539.01 604.15 542.52 603.95 544.74 606.36 C 546.86 608.28 547.00 611.30 547.03 613.97 C 546.97 628.98 546.96 644.00 547.04 659.01 C 547.01 661.71 546.89 664.78 544.71 666.73 C 542.79 668.92 539.70 668.86 537.05 668.92 C 518.37 668.89 499.69 668.81 481.01 668.94 C 478.28 668.90 475.15 668.97 473.10 666.85 C 470.50 664.66 470.68 660.99 470.59 657.92 C 470.70 642.96 470.61 628.00 470.65 613.04 C 470.37 609.32 472.49 605.29 476.33 604.47 M 526.33 615.27 C 525.80 616.38 525.28 617.50 524.76 618.62 C 524.17 618.64 522.99 618.69 522.41 618.71 C 521.84 617.82 521.29 616.93 520.74 616.05 C 519.63 616.67 518.52 617.30 517.42 617.93 C 517.57 619.30 517.94 620.63 518.17 622.01 C 516.66 622.83 514.93 623.01 513.30 623.43 C 513.15 624.55 513.01 625.69 512.88 626.83 C 513.94 627.17 515.00 627.51 516.06 627.86 C 515.96 628.47 515.75 629.69 515.65 630.31 C 514.99 631.08 514.38 631.90 513.83 632.76 C 514.35 633.83 514.92 634.89 515.53 635.93 C 516.68 635.31 517.84 634.70 519.00 634.09 C 520.05 635.60 520.60 637.33 520.50 639.18 C 521.67 639.51 522.83 639.82 524.03 640.16 C 524.36 639.11 524.69 638.06 525.04 637.03 C 525.73 637.00 527.13 636.95 527.83 636.92 C 528.49 637.73 529.16 638.55 529.83 639.38 C 530.73 638.85 531.64 638.33 532.56 637.81 C 532.49 635.95 532.57 634.09 532.60 632.24 C 534.05 632.33 535.50 632.43 536.97 632.53 C 537.07 631.61 537.26 629.77 537.36 628.85 C 536.34 628.44 535.34 628.05 534.33 627.66 C 534.29 627.04 534.19 625.79 534.15 625.17 C 535.01 624.49 535.89 623.81 536.77 623.13 C 536.18 622.16 535.60 621.20 535.03 620.24 C 533.24 620.31 531.46 620.41 529.68 620.50 C 529.77 619.05 529.87 617.60 529.97 616.16 C 528.74 615.85 527.54 615.56 526.33 615.27 M 494.75 622.37 C 494.75 623.88 494.76 625.39 494.77 626.91 C 493.48 627.47 492.18 628.01 490.90 628.58 C 489.70 627.50 488.51 626.42 487.31 625.36 C 485.91 626.84 484.51 628.32 483.12 629.80 C 484.18 630.86 485.26 631.94 486.34 633.02 C 485.83 634.28 485.32 635.56 484.83 636.84 C 483.25 636.87 481.69 636.91 480.13 636.95 C 480.12 638.99 480.12 641.03 480.12 643.07 C 481.67 643.09 483.23 643.12 484.79 643.15 C 485.28 644.41 485.78 645.67 486.29 646.94 C 485.26 648.07 484.21 649.18 483.30 650.41 C 484.58 652.00 486.11 653.38 487.58 654.80 C 488.66 653.68 489.75 652.58 490.84 651.48 C 492.14 652.03 493.45 652.60 494.76 653.16 C 494.75 654.68 494.75 656.21 494.75 657.74 C 496.79 657.73 498.84 657.72 500.90 657.70 C 500.89 656.15 500.89 654.61 500.89 653.08 C 502.22 652.56 503.54 652.04 504.88 651.54 C 505.97 652.62 507.06 653.71 508.16 654.81 C 509.61 653.30 511.08 651.79 512.53 650.28 C 511.44 649.22 510.36 648.18 509.28 647.14 C 509.80 645.79 510.34 644.47 510.87 643.13 C 512.40 643.12 513.94 643.11 515.49 643.11 C 515.48 641.03 515.48 638.96 515.47 636.89 C 513.95 636.88 512.43 636.87 510.91 636.88 C 510.36 635.62 509.80 634.37 509.26 633.13 C 510.33 632.00 511.42 630.88 512.51 629.77 C 511.05 628.28 509.58 626.80 508.13 625.32 C 507.05 626.39 505.97 627.48 504.91 628.57 C 503.56 628.03 502.22 627.52 500.88 627.00 C 500.88 625.47 500.89 623.95 500.91 622.43 C 498.85 622.40 496.80 622.38 494.75 622.37 Z" />
<path fill="#eff1f7" opacity="1.00" d=" M 523.20 623.24 C 526.71 621.51 531.09 625.32 529.83 629.05 C 529.05 632.56 524.13 633.79 521.66 631.25 C 519.15 629.04 520.05 624.36 523.20 623.24 Z" />
<path fill="#eff1f7" opacity="1.00" d=" M 495.32 633.43 C 500.45 631.19 506.45 636.73 504.63 642.02 C 503.37 647.00 496.38 648.89 492.87 645.08 C 489.16 641.74 490.64 635.03 495.32 633.43 Z" />
<path fill="#eff1f7" opacity="1.00" d=" M 742.34 679.88 C 747.36 680.28 752.40 680.58 757.44 680.74 C 752.88 682.29 748.34 683.86 743.72 685.21 C 743.26 683.43 742.79 681.64 742.34 679.88 Z" />
<path fill="#eff1f7" opacity="1.00" d=" M 263.42 768.86 C 264.59 756.26 265.90 743.66 266.74 731.03 L 266.70 732.49 C 266.96 733.30 267.25 734.12 267.55 734.94 C 300.05 733.36 332.60 732.63 365.13 731.85 C 365.14 735.49 365.15 739.12 365.14 742.77 C 359.13 744.31 353.56 747.87 350.14 753.11 C 345.42 759.96 344.70 769.25 348.08 776.82 C 350.89 783.27 356.65 788.35 363.39 790.38 C 369.13 791.89 375.12 791.30 380.99 791.37 C 440.66 791.37 500.33 791.34 560.00 791.39 C 567.19 791.58 574.43 788.68 579.21 783.24 C 585.86 776.05 587.30 764.76 582.97 756.02 C 579.80 749.26 573.29 744.49 566.13 742.70 C 566.20 738.74 566.27 734.78 566.28 730.83 C 578.52 730.91 590.76 730.90 603.00 731.13 C 602.99 738.34 603.00 745.56 603.01 752.78 C 603.00 759.23 602.98 765.68 603.02 772.13 C 605.44 772.11 607.87 772.11 610.31 772.11 C 610.39 765.65 610.37 759.20 610.36 752.74 C 610.37 745.53 610.37 738.31 610.37 731.09 C 638.35 731.44 666.34 731.77 694.32 732.00 C 698.80 741.30 704.71 750.14 706.96 760.35 C 704.76 764.18 702.72 768.38 698.87 770.85 C 692.23 775.84 683.79 777.14 676.61 781.09 C 678.98 783.23 681.51 785.67 684.88 785.98 C 690.92 786.85 696.51 783.87 702.09 782.06 C 707.80 780.07 713.80 779.14 719.73 778.08 C 723.31 777.57 726.76 776.47 730.19 775.37 C 737.28 773.43 744.68 771.80 751.00 767.90 C 754.19 765.90 753.63 761.62 752.17 758.71 C 750.37 755.16 749.41 751.28 749.60 747.29 C 750.00 742.45 749.88 737.59 749.87 732.74 C 756.87 732.81 763.87 732.84 770.88 733.01 C 770.85 743.88 770.90 754.75 770.84 765.62 C 763.63 766.49 756.39 767.83 749.67 770.68 C 743.43 773.39 737.07 776.56 732.83 782.09 C 749.53 782.72 766.27 782.20 782.99 782.37 C 796.21 782.15 809.46 782.81 822.66 781.99 C 816.06 774.49 806.48 770.44 797.05 767.83 C 793.03 766.63 788.61 766.76 784.78 765.06 C 784.08 754.44 784.75 743.75 784.51 733.10 C 804.54 733.32 824.58 733.58 844.63 733.63 C 844.62 740.00 844.63 746.36 844.64 752.73 C 844.62 759.19 844.61 765.66 844.69 772.12 C 847.11 772.11 849.54 772.10 851.98 772.10 C 852.01 765.65 852.00 759.21 851.99 752.77 C 851.99 746.43 852.00 740.09 852.00 733.75 C 858.45 733.67 864.90 733.85 871.35 733.89 C 872.79 746.57 874.42 759.22 875.64 771.93 C 890.05 772.35 904.47 772.07 918.89 772.09 C 920.80 760.14 922.84 748.21 924.73 736.26 C 936.50 738.76 947.84 745.29 954.12 755.81 C 958.91 763.49 959.70 773.56 955.78 781.77 C 952.04 789.68 944.71 795.16 937.07 798.98 C 925.96 804.40 913.75 807.16 901.56 808.73 C 850.07 815.47 798.59 822.21 747.10 828.95 C 653.43 841.14 559.57 854.32 464.97 855.91 C 369.65 857.74 274.75 845.39 180.98 829.37 C 146.93 823.54 112.95 817.30 78.99 810.96 C 67.52 808.44 55.45 804.74 47.11 796.01 C 40.03 788.76 39.73 776.55 45.68 768.53 C 52.27 759.59 62.89 754.94 73.07 751.37 C 95.83 743.93 119.86 741.58 143.64 739.87 C 141.57 750.27 139.42 760.66 137.35 771.06 C 136.29 777.27 134.97 783.57 135.53 789.91 C 136.04 793.46 139.73 795.13 142.62 796.48 C 152.98 800.62 164.52 800.74 175.45 799.26 C 178.26 798.60 182.16 798.26 183.29 795.10 C 182.58 791.29 179.10 789.04 176.63 786.38 C 171.87 781.73 168.07 776.20 164.57 770.57 C 169.90 759.99 174.69 749.16 179.59 738.38 C 193.93 738.04 208.29 737.99 222.61 736.90 C 225.99 736.94 229.36 736.92 232.74 736.87 C 233.53 750.01 235.63 763.04 236.51 776.17 C 235.82 780.28 234.43 784.51 235.50 788.68 C 236.11 791.08 238.96 791.31 241.01 791.32 C 245.36 791.22 249.63 790.22 253.98 790.06 C 267.11 789.35 279.98 794.20 293.11 792.67 C 296.18 792.12 299.94 791.19 301.29 788.04 C 301.59 785.77 299.58 784.12 297.74 783.26 C 294.33 781.70 290.58 781.09 287.07 779.81 C 278.87 776.89 271.24 772.63 263.42 768.86 Z" />
<path fill="#eff1f7" opacity="1.00" d=" M 723.69 732.38 C 724.59 732.46 726.37 732.61 727.27 732.68 C 730.18 740.35 732.59 748.22 734.12 756.28 C 731.97 758.40 729.87 760.57 727.74 762.70 C 727.02 761.03 726.23 759.41 725.43 757.80 C 725.03 749.32 724.30 740.85 723.69 732.38 Z" />
</g>
<g id="#8191bed3">
<path fill="#8191be" opacity="0.83" d=" M 483.60 161.34 C 486.44 165.23 485.98 170.55 487.32 175.06 C 501.34 175.13 515.36 175.07 529.38 175.09 C 529.38 175.55 529.38 176.45 529.38 176.91 C 514.92 176.88 500.46 176.97 486.01 176.86 C 485.37 173.95 484.84 171.00 483.93 168.16 C 480.84 180.00 478.40 192.01 475.92 203.98 C 475.42 203.21 474.94 202.44 474.46 201.67 C 477.68 188.27 480.21 174.70 483.60 161.34 Z" />
</g>
<g id="#87a0f9ff">
<path fill="#87a0f9" opacity="1.00" d=" M 705.07 177.99 C 704.84 174.92 710.34 174.96 710.17 177.96 C 710.63 184.98 710.50 192.07 709.97 199.09 C 708.44 198.94 706.91 198.88 705.41 198.58 C 704.36 191.80 704.81 184.82 705.07 177.99 Z" />
<path fill="#87a0f9" opacity="1.00" d=" M 658.23 191.22 C 660.72 189.43 662.59 192.45 663.77 194.25 C 666.39 198.59 669.42 202.68 671.97 207.06 C 673.21 208.63 672.00 211.12 670.09 211.39 C 667.78 211.39 666.78 209.06 665.59 207.48 C 663.07 203.33 660.12 199.45 657.74 195.22 C 656.98 194.05 656.76 191.90 658.23 191.22 Z" />
<path fill="#87a0f9" opacity="1.00" d=" M 754.48 191.53 C 755.42 190.31 757.39 190.57 758.48 191.50 C 760.08 193.66 757.94 195.97 756.90 197.84 C 753.96 201.96 751.60 206.49 748.38 210.40 C 746.96 212.27 744.15 211.09 743.65 209.06 C 744.29 205.99 746.44 203.58 748.07 201.00 C 750.27 197.88 752.03 194.46 754.48 191.53 Z" />
<path fill="#87a0f9" opacity="1.00" d=" M 377.39 208.45 C 379.16 208.60 380.94 208.57 382.72 208.45 C 382.78 214.18 382.73 219.90 382.75 225.63 C 380.95 225.62 379.16 225.63 377.37 225.63 C 377.39 219.90 377.36 214.18 377.39 208.45 Z" />
<path fill="#87a0f9" opacity="1.00" d=" M 535.28 208.56 C 537.11 208.65 538.95 208.64 540.80 208.55 C 540.68 214.24 540.72 219.94 540.80 225.63 C 538.95 225.63 537.12 225.63 535.29 225.64 C 535.39 219.94 535.44 214.25 535.28 208.56 Z" />
<path fill="#87a0f9" opacity="1.00" d=" M 783.46 225.52 C 784.98 224.92 786.84 226.43 786.73 228.05 C 786.93 230.22 784.45 230.94 783.01 231.96 C 778.58 234.18 774.38 236.86 769.87 238.93 C 768.56 239.72 765.88 239.81 765.66 237.84 C 764.52 235.02 767.84 233.83 769.73 232.71 C 774.37 230.44 778.69 227.53 783.46 225.52 Z" />
<path fill="#87a0f9" opacity="1.00" d=" M 630.05 226.05 C 632.28 224.60 634.56 226.44 636.62 227.35 C 640.89 229.86 645.45 231.87 649.58 234.62 C 652.04 235.98 650.28 240.37 647.57 239.46 C 642.12 237.11 637.06 233.95 631.84 231.16 C 629.78 230.30 628.66 228.04 630.05 226.05 Z" />
<path fill="#87a0f9" opacity="1.00" d=" M 203.49 409.50 C 206.43 404.56 209.75 399.68 214.72 396.56 C 215.54 407.82 221.94 418.88 232.55 423.46 C 226.73 427.23 221.76 432.01 216.85 436.85 C 213.11 435.28 210.70 431.74 208.89 428.28 C 205.94 422.40 205.11 415.80 203.49 409.50 Z" />
<path fill="#87a0f9" opacity="1.00" d=" M 242.84 404.12 L 243.63 404.27 C 247.31 406.67 250.18 410.98 255.01 410.95 C 269.32 412.16 283.40 415.75 296.60 421.39 C 304.14 424.61 312.45 422.24 319.54 419.01 C 320.04 428.83 318.88 438.72 320.09 448.48 C 326.28 449.02 332.51 448.72 338.72 448.99 C 335.06 452.06 331.32 455.04 327.38 457.76 C 325.26 457.75 323.14 457.75 321.02 457.76 C 321.01 458.54 321.00 460.09 320.99 460.87 C 308.29 466.51 294.46 469.34 280.60 469.71 C 280.40 455.62 278.65 441.44 274.55 427.93 C 277.16 439.81 279.62 451.80 279.91 464.01 C 281.49 480.61 282.81 497.38 280.98 514.01 C 280.29 519.93 279.16 526.26 274.86 530.73 C 263.45 535.30 250.85 535.26 238.75 535.41 C 241.59 532.69 244.42 529.89 246.56 526.57 C 248.80 523.15 248.52 518.87 248.66 514.97 C 248.59 490.67 244.74 466.61 241.94 442.54 C 241.97 442.10 242.03 441.22 242.07 440.78 C 242.54 436.90 243.15 433.03 243.47 429.13 C 245.53 431.06 247.64 432.95 250.03 434.47 C 253.81 427.41 254.61 418.10 250.41 411.06 C 250.75 418.01 251.79 425.05 249.83 431.87 C 246.05 428.84 242.12 425.99 237.92 423.56 C 241.98 417.90 243.05 410.93 242.84 404.12 M 249.35 455.31 C 250.64 461.73 250.54 468.30 250.37 474.82 C 254.26 477.80 258.93 479.37 263.64 480.49 C 266.65 478.65 270.03 477.19 272.39 474.50 C 273.16 467.81 272.48 461.01 271.55 454.36 C 264.15 454.69 256.67 453.87 249.35 455.31 Z" />
<path fill="#87a0f9" opacity="1.00" d=" M 455.77 404.01 C 462.44 404.00 469.10 403.96 475.77 404.05 C 475.70 413.25 475.79 422.45 475.71 431.66 C 469.10 431.61 462.50 431.61 455.89 431.67 C 455.59 422.45 455.78 413.23 455.77 404.01 Z" />
<path fill="#87a0f9" opacity="1.00" d=" M 160.27 447.26 C 169.76 430.72 184.69 416.94 202.81 410.54 C 202.72 416.60 204.25 422.60 206.83 428.06 C 208.94 432.58 212.06 437.19 216.96 438.94 C 220.16 436.95 222.56 433.99 225.21 431.37 C 226.23 434.38 227.31 437.36 228.24 440.40 C 228.35 440.87 228.57 441.80 228.68 442.27 C 226.76 461.24 223.88 480.12 221.59 499.06 C 220.97 506.37 219.07 513.60 219.18 520.95 C 221.66 526.70 226.66 530.91 230.91 535.38 C 222.87 535.52 214.83 534.94 206.83 534.16 C 200.61 533.48 194.28 532.73 188.44 530.34 C 183.20 525.42 182.25 517.84 182.48 511.02 C 182.60 505.56 186.01 501.03 187.93 496.11 C 193.07 483.78 197.44 470.45 195.94 456.92 C 195.40 452.09 194.10 447.40 192.41 442.86 C 194.28 450.43 196.42 458.13 195.62 466.02 C 194.23 483.68 185.85 499.65 178.46 515.42 C 173.73 525.22 169.60 535.34 166.47 545.77 C 164.50 552.27 162.98 558.91 162.17 565.66 C 156.13 565.30 150.13 564.54 144.09 564.23 C 144.01 564.87 143.85 566.16 143.77 566.80 C 142.75 565.42 142.46 563.70 142.35 562.05 C 141.33 549.92 141.15 537.73 141.68 525.57 C 142.36 510.95 144.21 496.38 147.43 482.09 C 150.22 470.01 154.01 458.03 160.27 447.26 Z" />
<path fill="#87a0f9" opacity="1.00" d=" M 646.20 419.22 C 651.08 418.26 656.09 418.78 661.03 418.72 C 715.01 418.73 768.99 418.73 822.97 418.72 C 824.59 419.10 827.94 418.49 827.67 421.03 C 828.18 426.00 827.80 431.01 827.86 436.00 C 827.90 462.67 827.79 489.34 827.93 516.00 C 827.70 517.87 828.19 520.17 826.77 521.67 C 824.34 522.13 821.86 522.16 819.42 522.30 C 820.21 511.55 812.83 502.98 807.78 494.25 C 804.48 488.47 799.97 482.08 801.83 475.08 C 803.31 469.78 805.97 464.67 805.64 459.01 C 805.76 449.57 800.60 440.13 792.06 435.85 C 782.88 431.04 772.08 430.97 762.01 432.05 C 756.84 432.53 751.75 434.17 747.48 437.15 C 739.34 436.64 731.18 437.00 723.04 436.80 C 719.85 436.79 716.59 436.67 713.50 437.56 C 712.14 439.17 712.46 442.59 715.07 442.51 C 723.89 443.28 732.79 442.25 741.63 443.06 C 736.78 450.24 734.06 459.68 737.33 468.05 C 729.90 468.59 722.44 467.83 715.03 468.41 C 711.99 468.44 711.96 473.72 715.01 473.80 C 723.03 474.46 731.09 473.76 739.13 474.01 C 738.74 478.89 736.36 483.23 734.82 487.78 C 733.37 491.22 738.64 490.55 740.60 491.41 C 741.96 495.50 742.20 500.61 745.82 503.46 C 747.92 503.37 750.00 502.95 752.09 502.63 C 751.53 505.85 750.85 509.04 750.40 512.28 C 743.05 513.97 736.21 517.46 730.41 522.26 C 719.47 521.90 708.54 522.38 697.61 521.98 C 697.75 521.05 698.02 519.17 698.16 518.23 C 695.69 518.63 693.26 519.64 692.34 522.16 C 691.50 522.13 689.81 522.09 688.97 522.07 C 688.43 518.59 690.29 512.68 686.04 511.20 C 679.45 510.50 672.07 515.05 671.61 522.09 C 664.40 522.06 657.19 522.31 649.99 522.13 C 648.34 521.88 645.62 522.34 645.43 520.03 C 644.75 515.37 645.19 510.64 645.13 505.95 C 645.11 478.97 645.20 451.98 645.07 425.00 C 645.19 423.05 645.01 420.89 646.20 419.22 M 684.74 433.17 C 674.60 433.37 665.07 440.82 663.17 450.89 C 661.51 458.17 664.09 465.76 669.00 471.22 C 675.49 477.38 685.58 479.63 693.82 475.74 C 701.92 472.39 706.84 463.94 707.23 455.37 C 706.64 450.28 705.27 445.07 701.77 441.18 C 697.64 436.07 691.17 433.54 684.74 433.17 M 714.33 452.45 C 711.78 453.15 712.23 457.65 715.03 457.70 C 721.02 458.03 727.07 458.09 733.05 457.64 C 735.86 457.58 735.78 452.44 733.02 452.35 C 726.82 451.92 720.51 451.83 714.33 452.45 Z" />
<path fill="#87a0f9" opacity="1.00" d=" M 250.60 455.70 C 257.09 455.72 263.61 455.08 270.08 455.70 C 270.49 456.01 271.30 456.63 271.71 456.93 C 270.72 458.51 268.64 458.36 267.05 458.79 C 262.51 459.50 257.88 459.48 253.30 459.36 C 253.31 459.69 253.33 460.35 253.34 460.68 C 259.30 460.49 265.21 459.49 271.19 459.50 C 271.31 463.67 271.98 467.80 272.12 471.97 C 270.83 476.00 266.25 477.46 263.01 479.62 C 259.18 478.24 255.40 476.73 251.74 474.96 C 251.65 468.52 250.71 462.13 250.60 455.70 Z" />
<path fill="#87a0f9" opacity="1.00" d=" M 422.33 491.82 C 451.24 491.69 480.16 491.69 509.08 491.83 C 509.18 501.88 509.12 511.94 509.12 522.00 C 480.19 522.00 451.26 522.00 422.33 522.00 C 422.39 511.94 422.40 501.88 422.33 491.82 Z" />
<path fill="#87a0f9" opacity="1.00" d=" M 790.02 550.93 C 800.46 548.50 811.32 548.60 821.92 549.81 C 820.91 554.05 820.10 558.33 819.53 562.66 C 808.98 562.30 798.39 562.69 787.92 564.06 C 788.47 559.66 789.17 555.28 790.02 550.93 Z" />
<path fill="#87a0f9" opacity="1.00" d=" M 585.88 572.68 C 617.54 572.61 649.21 572.58 680.88 572.70 C 682.03 576.53 683.50 580.29 685.43 583.82 C 660.40 583.92 635.37 583.88 610.34 583.84 C 607.89 583.82 605.44 583.81 603.00 583.83 C 597.30 583.86 591.61 583.89 585.91 583.89 C 585.89 580.15 585.88 576.41 585.88 572.68 Z" />
<path fill="#87a0f9" opacity="1.00" d=" M 831.56 572.67 C 840.53 572.59 849.51 572.65 858.49 572.63 C 862.61 572.62 866.74 572.62 870.88 572.63 C 870.87 576.37 870.87 580.12 870.87 583.87 C 865.81 583.86 860.75 583.89 855.69 583.86 C 854.45 583.84 853.22 583.83 851.99 583.83 C 849.54 583.81 847.10 583.82 844.66 583.85 C 839.55 583.90 834.44 583.88 829.34 583.77 C 829.94 580.04 830.62 576.33 831.56 572.67 Z" />
<path fill="#87a0f9" opacity="1.00" d=" M 384.71 604.11 C 390.20 604.14 395.69 604.14 401.18 604.14 C 401.32 609.72 401.31 615.30 401.19 620.88 C 395.70 620.86 390.21 620.86 384.73 620.88 C 384.48 615.29 384.48 609.70 384.71 604.11 Z" />
<path fill="#87a0f9" opacity="1.00" d=" M 410.17 604.17 C 415.72 604.11 421.28 604.12 426.84 604.13 C 426.89 609.70 426.88 615.27 426.84 620.84 C 421.27 620.88 415.71 620.88 410.15 620.83 C 410.13 615.27 410.14 609.72 410.17 604.17 Z" />
<path fill="#87a0f9" opacity="1.00" d=" M 435.86 604.14 C 441.33 604.12 446.80 604.13 452.28 604.14 C 452.52 609.71 452.51 615.29 452.26 620.87 C 446.79 620.86 441.33 620.86 435.86 620.87 C 435.63 615.29 435.66 609.71 435.86 604.14 Z" />
<path fill="#87a0f9" opacity="1.00" d=" M 526.33 615.27 C 527.54 615.56 528.74 615.85 529.97 616.16 C 529.87 617.60 529.77 619.05 529.68 620.50 C 531.46 620.41 533.24 620.31 535.03 620.24 C 535.60 621.20 536.18 622.16 536.77 623.13 C 535.89 623.81 535.01 624.49 534.15 625.17 C 534.19 625.79 534.29 627.04 534.33 627.66 C 535.34 628.05 536.34 628.44 537.36 628.85 C 537.26 629.77 537.07 631.61 536.97 632.53 C 535.50 632.43 534.05 632.33 532.60 632.24 C 532.57 634.09 532.49 635.95 532.56 637.81 C 531.64 638.33 530.73 638.85 529.83 639.38 C 529.16 638.55 528.49 637.73 527.83 636.92 C 527.13 636.95 525.73 637.00 525.04 637.03 C 524.69 638.06 524.36 639.11 524.03 640.16 C 522.83 639.82 521.67 639.51 520.50 639.18 C 520.60 637.33 520.05 635.60 519.00 634.09 C 517.84 634.70 516.68 635.31 515.53 635.93 C 514.92 634.89 514.35 633.83 513.83 632.76 C 514.38 631.90 514.99 631.08 515.65 630.31 C 515.75 629.69 515.96 628.47 516.06 627.86 C 515.00 627.51 513.94 627.17 512.88 626.83 C 513.01 625.69 513.15 624.55 513.30 623.43 C 514.93 623.01 516.66 622.83 518.17 622.01 C 517.94 620.63 517.57 619.30 517.42 617.93 C 518.52 617.30 519.63 616.67 520.74 616.05 C 521.29 616.93 521.84 617.82 522.41 618.71 C 522.99 618.69 524.17 618.64 524.76 618.62 C 525.28 617.50 525.80 616.38 526.33 615.27 M 523.20 623.24 C 520.05 624.36 519.15 629.04 521.66 631.25 C 524.13 633.79 529.05 632.56 529.83 629.05 C 531.09 625.32 526.71 621.51 523.20 623.24 Z" />
<path fill="#87a0f9" opacity="1.00" d=" M 384.44 627.36 C 390.04 627.33 395.66 627.29 401.26 627.50 C 401.28 633.06 401.29 638.63 401.20 644.20 C 395.59 644.33 389.97 644.38 384.36 644.02 C 384.44 638.47 384.45 632.91 384.44 627.36 Z" />
<path fill="#87a0f9" opacity="1.00" d=" M 410.20 627.35 C 415.73 627.36 421.25 627.35 426.78 627.33 C 426.88 632.93 426.87 638.52 426.88 644.12 C 421.29 644.34 415.70 644.35 410.12 644.16 C 410.14 638.55 410.12 632.95 410.20 627.35 Z" />
<path fill="#87a0f9" opacity="1.00" d=" M 435.71 627.52 C 441.34 627.30 446.97 627.36 452.61 627.36 C 452.53 632.91 452.52 638.46 452.64 644.01 C 447.04 644.39 441.43 644.32 435.83 644.21 C 435.70 638.64 435.71 633.08 435.71 627.52 Z" />
<path fill="#87a0f9" opacity="1.00" d=" M 384.64 651.73 C 390.15 651.58 395.67 651.59 401.19 651.73 C 401.32 657.24 401.31 662.76 401.18 668.27 C 395.67 668.41 390.16 668.40 384.66 668.26 C 384.52 662.75 384.52 657.23 384.64 651.73 Z" />
<path fill="#87a0f9" opacity="1.00" d=" M 410.15 651.74 C 415.72 651.58 421.30 651.57 426.87 651.75 C 426.87 657.25 426.88 662.75 426.88 668.26 C 421.29 668.42 415.70 668.43 410.12 668.24 C 410.13 662.74 410.14 657.24 410.15 651.74 Z" />
<path fill="#87a0f9" opacity="1.00" d=" M 770.86 680.57 C 775.41 680.40 779.96 680.11 784.51 679.74 C 784.50 697.52 784.50 715.31 784.51 733.10 C 784.75 743.75 784.08 754.44 784.78 765.06 C 788.61 766.76 793.03 766.63 797.05 767.83 C 806.48 770.44 816.06 774.49 822.66 781.99 C 809.46 782.81 796.21 782.15 782.99 782.37 C 766.27 782.20 749.53 782.72 732.83 782.09 C 737.07 776.56 743.43 773.39 749.67 770.68 C 756.39 767.83 763.63 766.49 770.84 765.62 C 770.90 754.75 770.85 743.88 770.88 733.01 C 770.87 715.53 770.89 698.05 770.86 680.57 Z" />
<path fill="#87a0f9" opacity="1.00" d=" M 433.17 684.36 C 441.20 681.49 450.93 687.48 451.46 696.11 C 452.88 704.43 445.27 712.49 436.94 711.85 C 429.70 711.76 423.36 705.25 423.52 697.99 C 423.19 691.91 427.45 686.19 433.17 684.36 Z" />
<path fill="#87a0f9" opacity="1.00" d=" M 875.24 712.50 C 877.14 712.48 879.05 712.48 880.97 712.48 C 885.19 712.49 889.40 712.46 893.62 712.48 L 894.90 712.50 C 900.09 712.54 905.29 712.47 910.49 712.47 C 914.74 712.47 918.99 712.48 923.25 712.48 C 925.03 712.48 926.80 712.48 928.60 712.50 C 927.31 720.42 926.01 728.34 924.73 736.26 C 922.84 748.21 920.80 760.14 918.89 772.09 C 904.47 772.07 890.05 772.35 875.64 771.93 C 874.42 759.22 872.79 746.57 871.35 733.89 C 870.53 726.76 869.69 719.63 868.87 712.50 C 870.98 712.49 873.11 712.50 875.24 712.50 Z" />
<path fill="#87a0f9" opacity="1.00" d=" M 365.14 742.77 C 371.06 741.98 377.05 742.29 383.01 742.26 C 438.01 742.28 493.01 742.25 548.01 742.27 C 554.05 742.30 560.12 741.98 566.13 742.70 C 573.29 744.49 579.80 749.26 582.97 756.02 C 587.30 764.76 585.86 776.05 579.21 783.24 C 574.43 788.68 567.19 791.58 560.00 791.39 C 500.33 791.34 440.66 791.37 380.99 791.37 C 375.12 791.30 369.13 791.89 363.39 790.38 C 356.65 788.35 350.89 783.27 348.08 776.82 C 344.70 769.25 345.42 759.96 350.14 753.11 C 353.56 747.87 359.13 744.31 365.14 742.77 M 365.39 750.51 C 359.67 752.59 355.23 757.86 354.30 763.89 C 352.24 773.92 360.77 784.34 371.03 784.17 C 381.19 784.79 390.15 774.90 388.67 764.86 C 387.85 754.00 375.47 746.45 365.39 750.51 M 413.12 750.29 C 406.40 752.36 401.33 758.91 401.14 765.96 C 400.76 771.69 403.52 777.48 408.18 780.83 C 413.87 785.13 422.31 785.31 428.18 781.25 C 432.84 778.12 435.89 772.65 435.81 767.00 C 435.97 761.11 432.79 755.30 427.82 752.17 C 423.52 749.38 417.98 748.78 413.12 750.29 M 460.11 750.32 C 453.43 752.41 448.39 758.93 448.19 765.95 C 447.82 771.68 450.56 777.47 455.22 780.83 C 461.11 785.30 469.96 785.29 475.84 780.80 C 480.20 777.67 482.89 772.39 482.87 767.02 C 483.06 760.85 479.55 754.77 474.19 751.76 C 469.97 749.34 464.73 748.84 460.11 750.32 M 506.43 750.56 C 499.75 752.97 495.02 759.86 495.23 766.97 C 495.12 774.11 500.04 780.92 506.76 783.23 C 511.62 784.84 517.25 784.43 521.62 781.68 C 526.63 778.62 530.01 772.95 529.91 767.04 C 530.13 760.83 526.58 754.74 521.17 751.74 C 516.75 749.18 511.21 748.81 506.43 750.56 M 553.42 750.58 C 547.12 752.93 542.48 759.22 542.28 765.97 C 541.88 772.13 545.14 778.34 550.40 781.57 C 556.43 785.42 564.89 784.98 570.45 780.44 C 575.79 776.32 578.17 768.94 576.45 762.45 C 574.18 752.70 562.70 746.79 553.42 750.58 Z" />
<path fill="#87a0f9" opacity="1.00" d=" M 603.01 752.78 C 605.46 752.76 607.90 752.74 610.36 752.74 C 610.37 759.20 610.39 765.65 610.31 772.11 C 607.87 772.11 605.44 772.11 603.02 772.13 C 602.98 765.68 603.00 759.23 603.01 752.78 Z" />
<path fill="#87a0f9" opacity="1.00" d=" M 844.64 752.73 C 847.08 752.73 849.53 752.74 851.99 752.77 C 852.00 759.21 852.01 765.65 851.98 772.10 C 849.54 772.10 847.11 772.11 844.69 772.12 C 844.61 765.66 844.62 759.19 844.64 752.73 Z" />
</g>
<g id="#fff3e4ff">
<path fill="#fff3e4" opacity="1.00" d=" M 718.48 222.65 C 721.58 221.58 724.82 223.26 727.58 224.59 C 731.39 226.41 730.24 232.88 726.02 233.32 C 723.21 233.26 720.51 232.11 718.05 230.85 C 714.84 229.23 715.28 224.04 718.48 222.65 Z" />
<path fill="#fff3e4" opacity="1.00" d=" M 736.21 233.22 C 738.31 231.94 740.87 232.92 742.43 234.59 C 751.82 243.81 757.41 256.87 757.36 270.05 C 757.71 273.52 753.58 276.20 750.55 274.52 C 747.57 273.26 748.12 269.63 747.75 267.03 C 747.22 257.27 742.56 248.07 735.70 241.24 C 733.08 239.21 733.10 234.75 736.21 233.22 Z" />
</g>
<g id="#0055feff">
<path fill="#0055fe" opacity="1.00" d=" M 329.14 232.18 C 333.68 227.96 339.84 225.61 346.04 225.63 C 356.48 225.61 366.92 225.63 377.37 225.63 C 379.16 225.63 380.95 225.62 382.75 225.63 C 418.64 225.61 454.52 225.64 490.40 225.61 C 505.36 225.65 520.32 225.61 535.29 225.64 C 537.12 225.63 538.95 225.63 540.80 225.63 C 555.54 225.63 570.29 225.61 585.04 225.63 C 591.46 225.57 597.90 227.95 602.55 232.41 C 607.67 236.98 610.03 243.73 610.70 250.41 C 582.50 250.11 554.25 250.78 526.08 250.09 C 521.67 244.70 519.40 237.89 514.88 232.55 C 483.25 232.87 451.61 232.59 419.97 232.71 C 417.76 232.78 415.58 233.08 413.40 233.35 C 409.59 238.92 406.37 244.98 401.91 250.05 C 398.65 250.63 395.32 250.34 392.03 250.39 C 368.21 250.33 344.39 250.40 320.57 250.35 C 321.52 243.62 323.82 236.73 329.14 232.18 Z" />
<path fill="#0055fe" opacity="1.00" d=" M 411.59 237.78 C 412.90 235.94 414.19 233.33 416.90 233.69 C 449.58 233.56 482.28 233.66 514.96 233.65 C 518.31 239.31 521.69 244.96 524.86 250.72 C 530.85 251.65 536.92 251.27 542.96 251.31 C 565.45 251.35 587.93 251.26 610.42 251.33 C 610.38 254.08 610.37 256.83 610.38 259.58 C 548.20 259.79 486.02 259.38 423.85 259.79 C 389.59 259.43 355.32 259.69 321.06 259.65 C 321.01 256.85 321.00 254.05 320.80 251.26 C 345.19 251.41 369.58 251.23 393.96 251.35 C 397.03 251.38 400.10 251.12 403.14 250.69 C 405.90 246.35 408.80 242.10 411.59 237.78 M 434.48 245.69 C 439.28 246.54 444.16 246.24 449.00 246.25 C 463.60 246.05 478.23 246.66 492.82 245.93 C 491.22 244.53 489.04 244.58 487.07 244.57 C 473.37 244.66 459.67 244.61 445.98 244.61 C 442.13 244.68 438.10 244.05 434.48 245.69 Z" />
<path fill="#0055fe" opacity="1.00" d=" M 422.45 301.58 C 429.53 298.79 438.21 303.55 439.52 311.06 C 441.27 318.31 435.50 326.15 428.03 326.50 C 421.66 327.24 415.33 322.48 414.27 316.17 C 412.96 310.16 416.64 303.60 422.45 301.58 Z" />
<path fill="#0055fe" opacity="1.00" d=" M 501.06 301.19 C 508.57 299.07 516.91 305.14 517.02 312.96 C 517.70 320.16 511.20 326.96 503.97 326.54 C 497.29 326.68 491.24 320.69 491.35 314.01 C 491.00 308.13 495.36 302.50 501.06 301.19 Z" />
<path fill="#0055fe" opacity="1.00" d=" M 402.36 361.79 C 409.07 361.72 415.78 361.76 422.49 361.75 C 422.51 385.03 422.47 408.31 422.52 431.59 C 415.80 431.66 409.09 431.61 402.38 431.63 C 402.36 408.35 402.40 385.07 402.36 361.79 Z" />
<path fill="#0055fe" opacity="1.00" d=" M 663.17 450.89 C 665.07 440.82 674.60 433.37 684.74 433.17 C 684.76 440.58 684.73 447.98 684.77 455.39 C 679.54 460.69 674.23 465.92 669.00 471.22 C 664.09 465.76 661.51 458.17 663.17 450.89 Z" />
<path fill="#0055fe" opacity="1.00" d=" M 321.02 457.76 C 323.14 457.75 325.26 457.75 327.38 457.76 C 421.71 457.75 516.03 457.75 610.36 457.75 C 610.33 462.17 610.65 466.61 610.05 471.01 C 608.66 480.44 601.18 488.58 591.97 490.96 C 588.41 491.95 584.69 491.88 581.03 491.90 C 557.05 491.81 533.06 491.95 509.08 491.83 C 480.16 491.69 451.24 491.69 422.33 491.82 C 398.55 491.95 374.78 491.81 351.01 491.90 C 341.24 492.82 330.63 489.32 325.20 480.73 C 321.06 474.99 320.72 467.68 320.99 460.87 C 321.00 460.09 321.01 458.54 321.02 457.76 Z" />
<path fill="#0055fe" opacity="1.00" d=" M 817.03 527.61 C 817.21 527.28 817.57 526.61 817.74 526.28 L 817.08 527.70 C 823.46 527.97 829.91 528.47 836.02 530.46 C 839.66 532.02 843.53 534.68 844.02 538.95 C 844.72 545.53 841.08 551.46 837.93 556.93 C 834.95 561.78 832.97 567.17 831.56 572.67 C 830.62 576.33 829.94 580.04 829.34 583.77 C 826.87 600.61 826.67 617.75 828.20 634.69 C 828.85 643.26 831.73 651.94 829.62 660.51 C 827.90 666.96 822.01 671.10 816.12 673.45 C 806.06 677.42 795.19 678.69 784.51 679.74 C 779.96 680.11 775.41 680.40 770.86 680.57 C 766.39 680.72 761.91 680.76 757.44 680.74 C 752.40 680.58 747.36 680.28 742.34 679.88 C 731.36 678.88 720.40 677.07 709.88 673.70 L 708.72 673.25 C 704.48 671.44 699.78 669.77 696.92 665.95 C 695.24 663.58 696.89 660.44 699.14 659.13 C 702.39 657.22 706.30 657.15 709.97 657.00 C 720.44 656.84 730.96 657.63 741.41 656.63 C 745.89 656.24 750.78 654.21 752.56 649.76 C 755.29 642.83 753.65 635.21 752.73 628.09 C 752.04 623.67 751.31 619.27 750.70 614.85 C 748.14 597.37 749.62 579.35 754.64 562.44 C 757.27 553.94 760.77 545.50 766.47 538.57 C 768.96 535.72 772.09 533.48 775.54 531.93 C 776.66 531.49 777.82 531.11 778.99 530.77 C 787.94 528.29 797.28 527.90 806.51 527.66 C 807.79 527.64 809.08 527.63 810.39 527.65 C 812.59 527.66 814.81 527.70 817.03 527.61 M 790.02 550.93 C 789.17 555.28 788.47 559.66 787.92 564.06 C 798.39 562.69 808.98 562.30 819.53 562.66 C 820.10 558.33 820.91 554.05 821.92 549.81 C 811.32 548.60 800.46 548.50 790.02 550.93 Z" />
<path fill="#0055fe" opacity="1.00" d=" M 365.39 750.51 C 375.47 746.45 387.85 754.00 388.67 764.86 C 390.15 774.90 381.19 784.79 371.03 784.17 C 360.77 784.34 352.24 773.92 354.30 763.89 C 355.23 757.86 359.67 752.59 365.39 750.51 M 368.35 760.43 C 363.25 762.57 363.01 770.58 367.97 773.02 C 372.36 775.71 378.64 772.10 378.51 766.95 C 378.79 761.86 372.86 758.07 368.35 760.43 Z" />
<path fill="#0055fe" opacity="1.00" d=" M 413.12 750.29 C 417.98 748.78 423.52 749.38 427.82 752.17 C 432.79 755.30 435.97 761.11 435.81 767.00 C 435.89 772.65 432.84 778.12 428.18 781.25 C 422.31 785.31 413.87 785.13 408.18 780.83 C 403.52 777.48 400.76 771.69 401.14 765.96 C 401.33 758.91 406.40 752.36 413.12 750.29 Z" />
<path fill="#0055fe" opacity="1.00" d=" M 460.11 750.32 C 464.73 748.84 469.97 749.34 474.19 751.76 C 479.55 754.77 483.06 760.85 482.87 767.02 C 482.89 772.39 480.20 777.67 475.84 780.80 C 469.96 785.29 461.11 785.30 455.22 780.83 C 450.56 777.47 447.82 771.68 448.19 765.95 C 448.39 758.93 453.43 752.41 460.11 750.32 Z" />
<path fill="#0055fe" opacity="1.00" d=" M 506.43 750.56 C 511.21 748.81 516.75 749.18 521.17 751.74 C 526.58 754.74 530.13 760.83 529.91 767.04 C 530.01 772.95 526.63 778.62 521.62 781.68 C 517.25 784.43 511.62 784.84 506.76 783.23 C 500.04 780.92 495.12 774.11 495.23 766.97 C 495.02 759.86 499.75 752.97 506.43 750.56 Z" />
<path fill="#0055fe" opacity="1.00" d=" M 553.42 750.58 C 562.70 746.79 574.18 752.70 576.45 762.45 C 578.17 768.94 575.79 776.32 570.45 780.44 C 564.89 784.98 556.43 785.42 550.40 781.57 C 545.14 778.34 541.88 772.13 542.28 765.97 C 542.48 759.22 547.12 752.93 553.42 750.58 M 556.31 760.40 C 551.49 762.99 551.92 770.96 557.03 772.97 C 561.69 775.26 567.71 771.10 567.00 765.91 C 566.82 760.84 560.55 757.71 556.31 760.40 Z" />
<path fill="#0055fe" opacity="1.00" d=" M 370.32 761.42 C 374.29 760.40 378.23 764.92 376.60 768.73 C 375.38 772.49 369.92 773.63 367.37 770.56 C 364.39 767.67 366.25 762.07 370.32 761.42 Z" />
<path fill="#0055fe" opacity="1.00" d=" M 558.12 761.30 C 562.10 759.66 566.69 763.99 565.26 768.06 C 564.23 772.04 558.52 773.43 555.89 770.22 C 553.15 767.50 554.51 762.45 558.12 761.30 Z" />
</g>
<g id="#9bafe6ff">
<path fill="#9bafe6" opacity="1.00" d=" M 434.48 245.69 C 438.10 244.05 442.13 244.68 445.98 244.61 C 459.67 244.61 473.37 244.66 487.07 244.57 C 489.04 244.58 491.22 244.53 492.82 245.93 C 478.23 246.66 463.60 246.05 449.00 246.25 C 444.16 246.24 439.28 246.54 434.48 245.69 Z" />
</g>
<g id="#5579f9ff">
<path fill="#5579f9" opacity="1.00" d=" M 319.65 268.95 C 346.66 268.76 373.68 268.97 400.69 268.83 C 445.78 268.93 490.88 268.85 535.98 268.88 C 561.18 269.03 586.39 268.56 611.58 269.12 C 611.64 328.95 611.68 388.79 611.56 448.63 C 545.71 448.91 479.86 448.67 414.01 448.75 C 388.91 448.90 363.81 448.43 338.72 448.99 C 332.51 448.72 326.28 449.02 320.09 448.48 C 318.88 438.72 320.04 428.83 319.54 419.01 C 319.44 372.65 319.54 326.28 319.49 279.91 C 319.49 276.26 319.43 272.60 319.65 268.95 M 322.32 272.02 C 322.34 274.68 322.36 277.34 322.38 280.01 C 322.36 325.79 322.36 371.56 322.38 417.34 C 322.34 426.83 322.40 436.32 322.34 445.82 C 329.09 445.91 335.85 445.87 342.60 445.88 C 431.33 445.85 520.05 445.91 608.77 445.85 C 608.74 387.87 608.75 329.90 608.77 271.92 C 549.83 271.81 490.88 271.90 431.94 271.87 C 418.02 272.05 404.06 271.53 390.16 272.11 C 382.42 271.62 374.67 271.98 366.93 271.87 C 352.06 271.97 337.18 271.68 322.32 272.02 Z" />
<path fill="#5579f9" opacity="1.00" d=" M 412.46 283.57 C 417.27 282.69 422.19 283.04 427.05 283.00 C 454.05 282.99 481.04 283.03 508.04 282.98 C 514.39 282.76 520.99 283.28 526.66 286.40 C 538.07 292.11 544.97 305.44 542.96 318.06 C 541.19 332.26 528.29 344.09 513.94 344.33 C 483.27 344.45 452.61 344.30 421.94 344.40 C 416.15 344.58 410.19 343.97 404.98 341.26 C 393.80 335.93 386.67 323.34 387.96 311.00 C 388.87 297.75 399.43 286.01 412.46 283.57 M 412.41 286.57 C 398.92 289.38 388.97 303.30 390.94 316.99 C 392.29 330.34 404.49 341.47 417.93 341.47 C 448.30 341.55 478.68 341.44 509.05 341.53 C 514.39 341.66 519.91 341.17 524.72 338.66 C 535.61 333.52 542.25 320.77 539.93 308.90 C 537.90 296.11 525.91 285.84 512.93 285.90 C 483.97 285.83 455.01 285.91 426.04 285.87 C 421.50 285.88 416.89 285.62 412.41 286.57 Z" />
<path fill="#5579f9" opacity="1.00" d=" M 445.57 326.09 C 445.99 324.84 446.36 323.22 448.04 323.45 C 460.27 323.26 472.51 323.41 484.75 323.41 C 484.82 324.10 484.96 325.46 485.04 326.15 C 471.88 326.28 458.72 326.38 445.57 326.09 Z" />
</g>
<g id="#80808080">
<path fill="#808080" opacity="0.50" d=" M 322.32 272.02 C 337.18 271.68 352.06 271.97 366.93 271.87 C 374.67 271.98 382.42 271.62 390.16 272.11 C 368.16 278.29 345.23 281.17 322.38 280.01 C 322.36 277.34 322.34 274.68 322.32 272.02 Z" />
</g>
<g id="#f7f8fbff">
<path fill="#f7f8fb" opacity="1.00" d=" M 390.16 272.11 C 404.06 271.53 418.02 272.05 431.94 271.87 C 490.88 271.90 549.83 271.81 608.77 271.92 C 608.75 329.90 608.74 387.87 608.77 445.85 C 520.05 445.91 431.33 445.85 342.60 445.88 C 347.50 439.84 352.37 433.67 355.64 426.56 C 360.10 417.60 362.30 407.74 363.39 397.84 C 367.16 396.06 371.21 394.29 373.81 390.88 C 376.98 386.71 378.57 381.26 377.92 376.05 C 377.15 372.68 373.62 371.08 370.87 369.53 C 376.44 367.51 381.81 364.04 384.50 358.58 C 388.44 351.10 387.84 341.25 382.35 334.67 C 377.42 328.36 368.86 325.25 361.03 326.85 C 352.18 328.42 344.81 336.16 343.78 345.10 C 342.29 353.71 346.74 362.52 354.06 367.05 C 353.94 368.55 353.83 370.05 353.71 371.56 C 351.28 372.67 347.96 372.91 346.44 375.33 C 344.82 380.99 347.51 386.66 349.92 391.68 C 342.40 401.81 333.30 410.91 322.38 417.34 C 322.36 371.56 322.36 325.79 322.38 280.01 C 345.23 281.17 368.16 278.29 390.16 272.11 M 412.46 283.57 C 399.43 286.01 388.87 297.75 387.96 311.00 C 386.67 323.34 393.80 335.93 404.98 341.26 C 410.19 343.97 416.15 344.58 421.94 344.40 C 452.61 344.30 483.27 344.45 513.94 344.33 C 528.29 344.09 541.19 332.26 542.96 318.06 C 544.97 305.44 538.07 292.11 526.66 286.40 C 520.99 283.28 514.39 282.76 508.04 282.98 C 481.04 283.03 454.05 282.99 427.05 283.00 C 422.19 283.04 417.27 282.69 412.46 283.57 M 402.36 361.79 C 402.40 385.07 402.36 408.35 402.38 431.63 C 409.09 431.61 415.80 431.66 422.52 431.59 C 422.47 408.31 422.51 385.03 422.49 361.75 C 415.78 361.76 409.07 361.72 402.36 361.79 M 429.02 381.11 C 429.01 397.96 428.94 414.81 429.06 431.67 C 435.72 431.59 442.38 431.61 449.05 431.65 C 449.21 414.80 449.10 397.96 449.10 381.12 C 442.41 381.13 435.71 381.14 429.02 381.11 M 493.33 395.47 C 490.72 395.76 490.67 400.16 493.25 400.53 C 498.82 401.07 504.44 400.59 510.03 400.72 C 514.79 400.60 519.60 401.16 524.32 400.41 C 525.93 399.22 525.80 396.81 524.33 395.58 C 520.59 394.94 516.78 395.31 513.01 395.26 C 506.45 395.45 499.87 394.91 493.33 395.47 M 535.37 395.62 C 532.97 396.64 533.97 401.33 536.91 400.66 C 545.95 400.86 555.00 400.70 564.05 400.73 C 565.16 400.40 567.06 401.06 567.63 399.71 C 568.98 398.28 568.09 395.32 565.98 395.43 C 560.02 394.95 554.04 395.42 548.07 395.27 C 543.84 395.37 539.55 394.84 535.37 395.62 M 455.77 404.01 C 455.78 413.23 455.59 422.45 455.89 431.67 C 462.50 431.61 469.10 431.61 475.71 431.66 C 475.79 422.45 475.70 413.25 475.77 404.05 C 469.10 403.96 462.44 404.00 455.77 404.01 M 492.16 410.29 C 490.76 412.02 491.27 415.46 494.03 415.22 C 499.94 415.42 505.96 415.82 511.82 414.90 C 513.60 413.24 512.82 409.63 510.04 409.86 C 504.10 409.75 498.03 409.20 492.16 410.29 M 522.27 410.33 C 520.89 411.37 521.10 413.56 522.15 414.76 C 525.31 415.76 528.70 415.33 531.98 415.40 C 549.63 415.34 567.29 415.35 584.95 415.41 C 586.74 415.24 588.92 415.65 590.30 414.19 C 591.18 412.80 590.75 410.39 588.94 410.04 C 585.31 409.42 581.60 409.78 577.95 409.73 C 560.96 409.73 543.98 409.78 527.00 409.70 C 525.41 409.78 523.75 409.71 522.27 410.33 M 493.28 425.47 C 491.63 425.62 490.72 428.04 491.67 429.31 C 492.45 431.03 494.53 430.56 496.04 430.75 C 508.71 430.75 521.38 430.69 534.05 430.77 C 536.12 430.74 539.40 430.91 539.41 427.99 C 539.18 424.54 535.41 425.38 533.02 425.21 C 519.78 425.47 506.50 424.93 493.28 425.47 Z" />
</g>
<g id="#fa8aa4ff">
<path fill="#fa8aa4" opacity="1.00" d=" M 681.05 276.67 C 682.59 276.98 684.61 276.70 685.58 278.26 C 687.83 280.94 690.20 284.08 694.02 284.39 C 698.70 283.33 701.99 278.82 706.97 278.59 C 712.08 278.22 715.51 282.72 720.03 284.25 C 725.51 284.74 727.89 278.81 732.00 276.51 C 732.46 276.89 733.37 277.67 733.82 278.06 C 733.95 283.10 732.50 288.01 731.74 292.96 C 729.07 308.73 726.20 324.47 723.64 340.26 C 721.83 340.37 720.03 340.39 718.24 340.41 C 721.33 323.02 724.34 305.62 727.25 288.20 C 724.52 288.71 721.78 289.48 718.99 289.31 C 714.86 288.53 711.98 284.99 708.02 283.78 C 704.39 283.96 701.73 286.97 698.54 288.39 C 695.21 290.34 691.37 288.90 687.89 288.30 C 690.65 305.68 693.89 322.98 696.43 340.39 C 694.69 340.38 692.98 340.36 691.26 340.26 C 688.13 319.02 683.68 297.98 681.05 276.67 Z" />
<path fill="#fa8aa4" opacity="1.00" d=" M 872.17 654.15 C 874.77 648.84 882.63 649.97 885.82 654.13 C 892.57 662.39 894.84 673.81 893.32 684.23 C 889.49 690.15 883.83 694.61 879.59 700.22 C 879.95 696.28 880.96 692.43 882.84 688.93 C 885.03 684.70 886.39 679.14 882.84 675.24 C 883.68 680.46 883.19 685.79 880.42 690.38 C 876.47 697.29 878.38 705.47 880.97 712.48 C 879.05 712.48 877.14 712.48 875.24 712.50 C 871.33 706.86 869.13 699.91 870.02 693.03 C 870.65 686.68 874.60 681.26 875.36 674.96 C 876.46 667.71 869.16 661.39 872.17 654.15 Z" />
<path fill="#fa8aa4" opacity="1.00" d=" M 927.06 676.08 C 930.43 673.37 933.40 669.59 937.94 668.93 C 940.61 668.34 943.86 669.39 945.01 672.05 C 946.43 675.59 944.91 679.70 942.22 682.21 C 938.77 685.46 934.33 687.50 931.18 691.10 C 925.81 696.83 923.32 704.72 923.25 712.48 C 918.99 712.48 914.74 712.47 910.49 712.47 C 912.67 709.03 915.23 705.83 917.32 702.33 C 919.47 698.83 919.41 694.52 921.08 690.84 C 922.97 688.56 925.40 686.82 927.68 684.95 C 925.27 685.92 922.88 686.94 920.51 688.01 C 919.89 685.45 919.29 682.91 918.56 680.39 C 921.55 679.30 924.62 678.19 927.06 676.08 Z" />
</g>
<g id="#f3f6ffff">
<path fill="#f3f6ff" opacity="1.00" d=" M 412.41 286.57 C 416.89 285.62 421.50 285.88 426.04 285.87 C 455.01 285.91 483.97 285.83 512.93 285.90 C 525.91 285.84 537.90 296.11 539.93 308.90 C 542.25 320.77 535.61 333.52 524.72 338.66 C 519.91 341.17 514.39 341.66 509.05 341.53 C 478.68 341.44 448.30 341.55 417.93 341.47 C 404.49 341.47 392.29 330.34 390.94 316.99 C 388.97 303.30 398.92 289.38 412.41 286.57 M 422.45 301.58 C 416.64 303.60 412.96 310.16 414.27 316.17 C 415.33 322.48 421.66 327.24 428.03 326.50 C 435.50 326.15 441.27 318.31 439.52 311.06 C 438.21 303.55 429.53 298.79 422.45 301.58 M 501.06 301.19 C 495.36 302.50 491.00 308.13 491.35 314.01 C 491.24 320.69 497.29 326.68 503.97 326.54 C 511.20 326.96 517.70 320.16 517.02 312.96 C 516.91 305.14 508.57 299.07 501.06 301.19 M 445.57 326.09 C 458.72 326.38 471.88 326.28 485.04 326.15 C 484.96 325.46 484.82 324.10 484.75 323.41 C 472.51 323.41 460.27 323.26 448.04 323.45 C 446.36 323.22 445.99 324.84 445.57 326.09 Z" />
<path fill="#f3f6ff" opacity="1.00" d=" M 684.77 455.39 C 692.25 455.36 699.74 455.39 707.23 455.37 C 706.84 463.94 701.92 472.39 693.82 475.74 C 685.58 479.63 675.49 477.38 669.00 471.22 C 674.23 465.92 679.54 460.69 684.77 455.39 Z" />
</g>
<g id="#3d3d3dff">
<path fill="#3d3d3d" opacity="1.00" d=" M 245.92 327.90 C 254.75 329.42 262.15 321.89 270.95 322.91 C 273.38 323.22 274.55 325.81 274.53 328.01 C 274.65 331.40 272.61 334.27 270.59 336.78 C 272.87 336.97 276.11 335.87 277.53 338.29 C 278.68 341.08 277.11 344.08 275.19 346.09 C 271.11 350.32 265.59 352.86 260.00 354.43 C 248.08 356.63 235.93 357.71 223.81 357.57 C 223.65 362.87 223.75 368.24 222.61 373.45 C 222.05 375.47 221.48 378.14 219.04 378.60 C 214.74 377.04 213.39 372.21 211.45 368.53 C 208.39 369.22 205.64 370.71 203.17 372.62 C 201.29 367.34 197.79 362.65 196.96 357.01 C 195.33 348.10 202.23 338.02 211.76 338.20 C 212.81 332.87 215.20 326.64 221.10 325.25 C 229.47 323.59 237.70 326.77 245.92 327.90 Z" />
<path fill="#3d3d3d" opacity="1.00" d=" M 258.64 376.41 C 257.09 373.01 255.97 368.91 257.45 365.31 C 258.63 368.87 259.01 372.67 258.64 376.41 Z" />
<path fill="#3d3d3d" opacity="1.00" d=" M 250.81 366.63 C 254.77 371.32 258.12 376.96 259.11 383.09 C 256.82 385.97 252.59 385.65 249.29 385.72 C 251.72 383.86 254.90 383.78 257.76 383.03 C 256.72 377.01 252.03 372.53 250.81 366.63 Z" />
<path fill="#3d3d3d" opacity="1.00" d=" M 239.71 377.93 C 237.41 375.03 236.99 370.41 238.54 367.08 C 239.43 370.62 239.71 374.28 239.71 377.93 Z" />
<path fill="#3d3d3d" opacity="1.00" d=" M 208.33 385.80 C 210.48 386.59 212.62 387.40 214.78 388.19 C 214.71 390.30 214.63 392.41 214.60 394.53 C 211.40 393.15 209.76 390.17 208.79 386.98 L 208.33 385.80 Z" />
<path fill="#3d3d3d" opacity="1.00" d=" M 238.26 391.58 C 243.91 393.11 249.70 392.17 255.18 390.48 C 250.83 395.48 242.85 394.10 237.06 392.74 C 237.36 392.45 237.96 391.87 238.26 391.58 Z" />
<path fill="#3d3d3d" opacity="1.00" d=" M 747.48 437.15 C 751.75 434.17 756.84 432.53 762.01 432.05 C 772.08 430.97 782.88 431.04 792.06 435.85 C 800.60 440.13 805.76 449.57 805.64 459.01 C 805.97 464.67 803.31 469.78 801.83 475.08 C 799.97 482.08 804.48 488.47 807.78 494.25 C 812.83 502.98 820.21 511.55 819.42 522.30 C 818.91 523.64 818.35 524.97 817.74 526.28 C 817.57 526.61 817.21 527.28 817.03 527.61 C 814.81 527.70 812.59 527.66 810.39 527.65 C 804.52 519.55 794.67 514.75 790.61 505.33 C 788.16 500.07 791.73 494.15 789.12 488.95 C 785.29 495.95 785.82 505.06 790.62 511.46 C 795.17 517.55 801.46 522.02 806.51 527.66 C 797.28 527.90 787.94 528.29 778.99 530.77 C 774.82 526.13 769.95 521.38 768.87 514.96 C 767.19 504.82 771.15 494.99 772.01 484.99 C 772.67 478.98 770.36 472.96 766.53 468.40 C 765.19 466.87 763.13 466.33 761.40 465.47 C 763.19 469.29 765.81 472.63 767.81 476.33 C 770.00 480.90 769.08 486.15 768.20 490.94 C 766.67 498.83 764.77 506.88 765.82 514.95 C 766.77 521.65 771.68 526.71 775.54 531.93 C 772.09 533.48 768.96 535.72 766.47 538.57 C 762.19 536.83 757.69 534.88 754.83 531.08 C 750.60 525.84 749.76 518.77 750.40 512.28 C 750.85 509.04 751.53 505.85 752.09 502.63 C 753.06 496.79 754.09 490.88 753.85 484.94 C 753.74 482.46 753.23 479.62 751.01 478.15 C 747.21 475.56 742.70 474.05 739.37 470.78 C 738.65 469.89 737.96 468.99 737.33 468.05 C 734.06 459.68 736.78 450.24 741.63 443.06 C 743.36 440.89 745.33 438.91 747.48 437.15 Z" />
<path fill="#3d3d3d" opacity="1.00" d=" M 188.44 530.34 C 194.28 532.73 200.61 533.48 206.83 534.16 C 214.83 534.94 222.87 535.52 230.91 535.38 C 231.95 536.33 233.01 537.27 234.06 538.23 C 235.61 537.28 237.18 536.35 238.75 535.41 C 250.85 535.26 263.45 535.30 274.86 530.73 C 274.85 533.81 274.57 536.90 274.83 539.98 C 275.79 544.20 277.56 548.20 278.29 552.49 C 281.42 568.66 278.47 585.12 277.74 601.37 C 275.64 629.61 273.29 657.84 270.89 686.06 C 269.49 701.04 268.55 716.08 266.74 731.03 C 265.90 743.66 264.59 756.26 263.42 768.86 C 255.07 773.15 245.88 775.63 236.51 776.17 C 235.63 763.04 233.53 750.01 232.74 736.87 C 229.36 736.92 225.99 736.94 222.61 736.90 C 225.92 736.13 229.32 736.10 232.70 736.04 C 230.15 712.80 228.37 689.43 228.45 666.04 C 228.03 647.53 227.24 629.00 225.60 610.56 C 216.02 643.92 205.70 677.15 192.18 709.15 C 188.10 718.94 183.90 728.69 179.59 738.38 C 174.69 749.16 169.90 759.99 164.57 770.57 C 159.81 774.72 153.05 776.06 146.94 774.85 C 143.54 774.16 140.46 772.51 137.35 771.06 C 139.42 760.66 141.57 750.27 143.64 739.87 C 148.50 715.31 153.50 690.78 157.71 666.10 C 161.70 643.41 165.88 620.75 170.68 598.22 C 173.78 583.92 176.96 569.62 181.29 555.63 C 182.95 550.23 185.00 544.91 188.16 540.20 C 188.15 536.91 188.27 533.62 188.44 530.34 M 248.02 540.65 C 232.70 540.53 217.38 541.07 202.06 540.97 C 198.42 541.05 194.59 540.26 191.14 541.82 C 199.04 542.95 207.05 542.25 215.00 542.40 C 232.99 542.16 251.05 542.74 268.99 541.14 C 270.00 540.83 272.68 541.16 271.97 539.32 C 263.98 539.68 256.03 540.79 248.02 540.65 M 261.95 545.42 C 262.23 552.14 265.95 558.05 269.40 563.60 C 271.74 566.59 273.94 570.74 278.15 571.12 C 275.06 567.14 271.25 563.69 268.86 559.20 C 266.02 554.87 265.06 549.59 261.95 545.42 M 207.50 547.53 C 205.91 550.76 204.85 554.21 203.41 557.50 C 201.00 562.69 196.92 567.21 191.68 569.62 C 187.53 571.65 182.80 571.66 178.34 572.47 C 179.53 572.90 180.68 573.59 181.99 573.65 C 191.14 573.58 199.92 568.09 204.18 560.02 C 206.13 556.17 208.51 552.01 207.50 547.53 M 236.64 563.99 C 236.42 569.35 236.95 574.70 236.65 580.06 C 236.62 582.49 235.09 584.89 232.78 585.75 C 227.00 588.10 220.53 587.42 214.70 589.59 C 220.62 590.36 226.42 588.73 232.22 587.84 C 229.74 595.44 226.25 602.81 225.19 610.80 C 226.23 609.29 227.20 607.71 227.73 605.96 C 229.70 599.63 231.88 593.37 234.13 587.14 C 239.02 585.40 245.13 584.11 247.29 578.74 C 244.11 580.85 240.97 583.08 237.39 584.49 C 238.95 576.72 237.38 568.82 238.08 560.99 C 238.34 556.51 239.35 552.12 239.65 547.66 C 236.56 552.53 236.90 558.46 236.64 563.99 M 168.21 637.34 C 167.94 637.65 167.40 638.27 167.13 638.58 C 175.38 641.40 184.26 642.39 192.11 646.33 C 190.46 648.17 187.96 648.82 185.77 649.79 C 180.35 651.87 175.20 654.59 170.00 657.15 C 166.96 658.69 163.43 659.79 161.53 662.86 C 168.14 660.22 174.20 656.42 180.73 653.61 C 185.01 651.51 189.70 650.30 193.73 647.71 C 193.76 645.12 191.02 644.04 189.01 643.24 C 182.19 640.88 175.10 639.44 168.21 637.34 M 231.47 652.47 C 233.82 657.51 238.48 660.88 242.89 664.01 C 246.09 666.35 250.18 666.58 253.68 668.24 C 254.00 669.30 253.81 670.23 253.11 671.04 C 246.76 677.60 235.04 676.87 230.42 685.37 C 234.65 683.33 238.39 680.38 242.82 678.73 C 246.84 677.02 251.39 675.75 254.35 672.33 C 255.73 670.78 256.61 667.82 254.39 666.56 C 250.89 664.91 246.83 664.60 243.62 662.32 C 239.14 659.55 236.27 654.79 231.47 652.47 M 177.01 672.04 C 175.03 672.82 172.98 673.57 171.38 675.03 C 173.22 678.35 177.51 679.22 181.04 679.45 C 178.83 677.85 176.46 676.50 174.05 675.26 C 183.27 671.52 192.45 667.68 201.47 663.48 C 204.49 661.87 208.31 660.65 209.48 657.05 C 199.11 662.98 188.08 667.59 177.01 672.04 M 257.68 678.61 C 260.72 681.82 265.44 683.35 269.62 681.49 C 266.37 680.97 263.18 680.15 260.15 678.86 C 263.57 674.83 267.07 670.86 270.21 666.61 C 264.45 668.62 262.32 675.05 257.68 678.61 Z" />
<path fill="#3d3d3d" opacity="1.00" d=" M 715.98 630.05 C 723.55 629.30 730.79 626.79 737.69 623.70 C 742.42 626.01 747.56 627.23 752.73 628.09 C 753.65 635.21 755.29 642.83 752.56 649.76 C 750.78 654.21 745.89 656.24 741.41 656.63 C 730.96 657.63 720.44 656.84 709.97 657.00 C 706.30 657.15 702.39 657.22 699.14 659.13 C 696.89 660.44 695.24 663.58 696.92 665.95 C 699.78 669.77 704.48 671.44 708.72 673.25 C 711.87 687.39 716.96 701.05 719.64 715.32 C 722.83 728.66 722.22 742.49 724.32 755.98 C 724.44 756.67 724.68 758.07 724.80 758.77 C 719.12 760.98 712.92 762.38 706.96 760.35 C 704.71 750.14 698.80 741.30 694.32 732.00 C 688.06 719.84 681.88 707.59 677.13 694.75 C 673.38 684.27 670.14 673.23 670.95 661.98 C 671.47 653.85 675.49 646.02 682.00 641.08 C 691.67 633.59 704.15 631.46 715.98 630.05 Z" />
<path fill="#3d3d3d" opacity="1.00" d=" M 709.88 673.70 C 720.40 677.07 731.36 678.88 742.34 679.88 C 742.79 681.64 743.26 683.43 743.72 685.21 C 747.87 700.70 749.77 716.72 749.87 732.74 C 749.88 737.59 750.00 742.45 749.60 747.29 C 749.37 749.55 749.20 751.82 749.02 754.10 C 744.35 756.23 739.23 757.60 734.12 756.28 C 732.59 748.22 730.18 740.35 727.27 732.68 L 727.23 732.58 C 725.52 727.92 723.74 723.29 722.07 718.62 C 718.74 703.46 714.84 688.40 709.88 673.70 Z" />
</g>
<g id="#c6d7fcff">
<path fill="#c6d7fc" opacity="1.00" d=" M 361.03 326.85 C 368.86 325.25 377.42 328.36 382.35 334.67 C 387.84 341.25 388.44 351.10 384.50 358.58 C 381.81 364.04 376.44 367.51 370.87 369.53 L 370.35 369.54 C 367.53 368.44 364.79 367.17 362.04 365.95 C 362.77 363.64 363.51 361.33 364.24 359.03 L 365.11 359.25 C 369.00 358.49 373.24 356.83 374.88 352.89 C 377.70 347.47 374.78 339.99 368.87 338.21 C 363.09 336.02 355.81 339.82 354.86 346.04 C 353.89 349.73 355.85 353.18 357.66 356.24 L 357.52 356.65 C 356.36 360.15 355.43 363.73 354.48 367.30 L 354.06 367.05 C 346.74 362.52 342.29 353.71 343.78 345.10 C 344.81 336.16 352.18 328.42 361.03 326.85 Z" />
</g>
<g id="#9ebdfcff">
<path fill="#9ebdfc" opacity="1.00" d=" M 354.86 346.04 C 355.81 339.82 363.09 336.02 368.87 338.21 C 374.78 339.99 377.70 347.47 374.88 352.89 C 373.24 356.83 369.00 358.49 365.11 359.25 C 365.82 355.02 366.05 350.73 365.81 346.46 C 361.39 347.95 359.10 352.08 357.66 356.24 C 355.85 353.18 353.89 349.73 354.86 346.04 Z" />
<path fill="#9ebdfc" opacity="1.00" d=" M 368.35 760.43 C 372.86 758.07 378.79 761.86 378.51 766.95 C 378.64 772.10 372.36 775.71 367.97 773.02 C 363.01 770.58 363.25 762.57 368.35 760.43 M 370.32 761.42 C 366.25 762.07 364.39 767.67 367.37 770.56 C 369.92 773.63 375.38 772.49 376.60 768.73 C 378.23 764.92 374.29 760.40 370.32 761.42 Z" />
<path fill="#9ebdfc" opacity="1.00" d=" M 556.31 760.40 C 560.55 757.71 566.82 760.84 567.00 765.91 C 567.71 771.10 561.69 775.26 557.03 772.97 C 551.92 770.96 551.49 762.99 556.31 760.40 M 558.12 761.30 C 554.51 762.45 553.15 767.50 555.89 770.22 C 558.52 773.43 564.23 772.04 565.26 768.06 C 566.69 763.99 562.10 759.66 558.12 761.30 Z" />
</g>
<g id="#cfd1d6ff">
<path fill="#cfd1d6" opacity="1.00" d=" M 688.99 339.90 C 689.56 339.99 690.69 340.17 691.26 340.26 C 692.98 340.36 694.69 340.38 696.43 340.39 C 703.70 340.36 710.97 340.36 718.24 340.41 C 720.03 340.39 721.83 340.37 723.64 340.26 C 724.22 340.16 725.40 339.96 725.98 339.86 C 727.74 341.37 728.80 343.39 729.03 345.72 C 714.65 345.58 700.26 345.65 685.88 345.70 C 685.95 343.30 687.14 341.35 688.99 339.90 Z" />
<path fill="#cfd1d6" opacity="1.00" d=" M 686.03 350.86 C 700.29 350.73 714.55 350.57 728.81 350.94 C 728.78 352.33 728.75 353.73 728.74 355.14 C 714.50 355.51 700.25 355.41 686.01 355.23 C 686.01 353.77 686.02 352.31 686.03 350.86 Z" />
<path fill="#cfd1d6" opacity="1.00" d=" M 685.55 360.79 C 700.13 360.70 714.75 360.26 729.32 361.00 C 728.48 362.33 728.24 364.13 726.94 365.12 C 724.91 365.91 722.70 366.00 720.59 366.37 C 719.24 369.76 717.34 373.32 713.70 374.66 C 708.67 376.45 702.39 376.31 698.14 372.76 C 696.05 371.05 695.08 368.45 693.87 366.13 C 691.82 365.91 689.71 365.91 687.74 365.28 C 686.31 364.25 686.25 362.26 685.55 360.79 Z" />
<path fill="#cfd1d6" opacity="1.00" d=" M 637.50 413.34 C 638.49 410.78 641.60 410.45 643.98 410.34 C 705.64 410.33 767.32 410.38 828.99 410.31 C 831.42 410.35 834.49 410.80 835.58 413.33 C 836.45 416.12 836.30 419.10 836.34 422.00 C 835.95 458.15 836.64 494.31 836.02 530.46 C 829.91 528.47 823.46 527.97 817.08 527.70 L 817.74 526.28 C 818.35 524.97 818.91 523.64 819.42 522.30 C 821.86 522.16 824.34 522.13 826.77 521.67 C 828.19 520.17 827.70 517.87 827.93 516.00 C 827.79 489.34 827.90 462.67 827.86 436.00 C 827.80 431.01 828.18 426.00 827.67 421.03 C 827.94 418.49 824.59 419.10 822.97 418.72 C 768.99 418.73 715.01 418.73 661.03 418.72 C 656.09 418.78 651.08 418.26 646.20 419.22 C 645.01 420.89 645.19 423.05 645.07 425.00 C 645.20 451.98 645.11 478.97 645.13 505.95 C 645.19 510.64 644.75 515.37 645.43 520.03 C 645.62 522.34 648.34 521.88 649.99 522.13 C 657.19 522.31 664.40 522.06 671.61 522.09 C 671.31 528.18 671.36 535.02 675.82 539.74 C 665.18 539.47 654.54 539.79 643.91 539.68 C 641.30 539.69 637.83 538.93 637.29 535.91 C 636.31 529.65 637.09 523.30 636.90 517.00 C 636.84 486.67 636.93 456.33 636.85 426.00 C 636.89 421.78 636.40 417.46 637.50 413.34 Z" />
<path fill="#cfd1d6" opacity="1.00" d=" M 366.34 530.36 C 368.48 524.92 374.30 521.90 379.97 522.02 C 394.09 521.91 408.21 522.09 422.33 522.00 C 451.26 522.00 480.19 522.00 509.12 522.00 C 523.78 522.13 538.45 521.73 553.10 522.15 C 560.32 522.22 566.53 528.75 566.24 535.97 C 566.26 582.13 566.25 628.30 566.24 674.47 C 566.27 693.25 566.21 712.04 566.28 730.83 C 566.27 734.78 566.20 738.74 566.13 742.70 C 560.12 741.98 554.05 742.30 548.01 742.27 C 493.01 742.25 438.01 742.28 383.01 742.26 C 377.05 742.29 371.06 741.98 365.14 742.77 C 365.15 739.12 365.14 735.49 365.13 731.85 C 365.11 694.97 365.13 658.08 365.12 621.19 C 365.07 596.12 365.21 571.05 365.11 545.97 C 365.23 540.78 364.40 535.31 366.34 530.36 M 386.22 547.47 C 384.26 548.96 384.23 551.75 385.37 553.77 C 387.41 554.82 389.78 554.70 392.01 554.80 C 439.31 554.74 486.61 554.77 533.91 554.77 C 537.64 554.65 541.51 555.27 545.16 554.24 C 548.36 552.43 546.94 546.55 543.00 547.10 C 492.68 546.86 442.35 547.14 392.02 546.94 C 390.08 546.98 388.11 547.00 386.22 547.47 M 386.21 563.22 C 384.70 564.24 384.42 566.30 384.74 567.97 C 385.70 570.52 388.79 570.23 391.01 570.35 C 441.32 570.26 491.64 570.42 541.95 570.29 C 545.03 570.85 547.82 568.27 546.67 565.17 C 546.21 562.42 543.03 562.94 540.97 562.68 C 493.33 562.59 445.68 562.72 398.03 562.65 C 394.09 562.72 390.07 562.25 386.21 563.22 M 387.41 578.53 C 382.76 578.94 384.26 587.17 388.97 585.96 C 439.65 586.08 490.35 585.93 541.03 586.03 C 543.32 586.11 546.42 585.76 546.86 582.96 C 547.70 580.01 544.71 577.78 541.99 578.21 C 491.65 578.22 441.29 578.31 390.94 578.20 C 389.75 578.20 388.57 578.31 387.41 578.53 M 384.71 604.11 C 384.48 609.70 384.48 615.29 384.73 620.88 C 390.21 620.86 395.70 620.86 401.19 620.88 C 401.31 615.30 401.32 609.72 401.18 604.14 C 395.69 604.14 390.20 604.14 384.71 604.11 M 410.17 604.17 C 410.14 609.72 410.13 615.27 410.15 620.83 C 415.71 620.88 421.27 620.88 426.84 620.84 C 426.88 615.27 426.89 609.70 426.84 604.13 C 421.28 604.12 415.72 604.11 410.17 604.17 M 435.86 604.14 C 435.66 609.71 435.63 615.29 435.86 620.87 C 441.33 620.86 446.79 620.86 452.26 620.87 C 452.51 615.29 452.52 609.71 452.28 604.14 C 446.80 604.13 441.33 604.12 435.86 604.14 M 476.33 604.47 C 472.49 605.29 470.37 609.32 470.65 613.04 C 470.61 628.00 470.70 642.96 470.59 657.92 C 470.68 660.99 470.50 664.66 473.10 666.85 C 475.15 668.97 478.28 668.90 481.01 668.94 C 499.69 668.81 518.37 668.89 537.05 668.92 C 539.70 668.86 542.79 668.92 544.71 666.73 C 546.89 664.78 547.01 661.71 547.04 659.01 C 546.96 644.00 546.97 628.98 547.03 613.97 C 547.00 611.30 546.86 608.28 544.74 606.36 C 542.52 603.95 539.01 604.15 536.03 604.07 C 521.36 604.17 506.70 604.05 492.04 604.14 C 486.80 604.23 481.52 603.66 476.33 604.47 M 384.44 627.36 C 384.45 632.91 384.44 638.47 384.36 644.02 C 389.97 644.38 395.59 644.33 401.20 644.20 C 401.29 638.63 401.28 633.06 401.26 627.50 C 395.66 627.29 390.04 627.33 384.44 627.36 M 410.20 627.35 C 410.12 632.95 410.14 638.55 410.12 644.16 C 415.70 644.35 421.29 644.34 426.88 644.12 C 426.87 638.52 426.88 632.93 426.78 627.33 C 421.25 627.35 415.73 627.36 410.20 627.35 M 435.71 627.52 C 435.71 633.08 435.70 638.64 435.83 644.21 C 441.43 644.32 447.04 644.39 452.64 644.01 C 452.52 638.46 452.53 632.91 452.61 627.36 C 446.97 627.36 441.34 627.30 435.71 627.52 M 384.64 651.73 C 384.52 657.23 384.52 662.75 384.66 668.26 C 390.16 668.40 395.67 668.41 401.18 668.27 C 401.31 662.76 401.32 657.24 401.19 651.73 C 395.67 651.59 390.15 651.58 384.64 651.73 M 410.15 651.74 C 410.14 657.24 410.13 662.74 410.12 668.24 C 415.70 668.43 421.29 668.42 426.88 668.26 C 426.88 662.75 426.87 657.25 426.87 651.75 C 421.30 651.57 415.72 651.58 410.15 651.74 M 435.76 651.66 C 435.74 657.22 435.74 662.78 435.77 668.34 C 441.34 668.39 446.91 668.39 452.48 668.34 C 452.51 662.77 452.51 657.21 452.47 651.65 C 446.90 651.61 441.33 651.61 435.76 651.66 M 393.28 684.37 C 386.84 686.36 382.66 693.36 383.79 699.99 C 384.78 708.87 395.67 714.68 403.60 710.56 C 410.08 707.69 413.44 699.65 410.93 693.03 C 408.61 686.00 400.25 682.06 393.28 684.37 M 433.17 684.36 C 427.45 686.19 423.19 691.91 423.52 697.99 C 423.36 705.25 429.70 711.76 436.94 711.85 C 445.27 712.49 452.88 704.43 451.46 696.11 C 450.93 687.48 441.20 681.49 433.17 684.36 Z" />
<path fill="#cfd1d6" opacity="1.00" d=" M 692.14 538.40 C 695.93 533.74 696.83 527.74 697.61 521.98 C 708.54 522.38 719.47 521.90 730.41 522.26 C 724.22 527.37 719.13 533.68 714.74 540.36 C 707.63 539.17 700.41 539.47 693.26 540.07 C 692.98 539.65 692.42 538.82 692.14 538.40 Z" />
</g>
<g id="#a2a8e6ff">
<path fill="#a2a8e6" opacity="1.00" d=" M 357.66 356.24 C 359.10 352.08 361.39 347.95 365.81 346.46 C 366.05 350.73 365.82 355.02 365.11 359.25 L 364.24 359.03 C 361.96 358.33 359.74 357.48 357.52 356.65 L 357.66 356.24 Z" />
</g>
<g id="#faaeb1ff">
<path fill="#faaeb1" opacity="1.00" d=" M 223.81 357.57 C 235.93 357.71 248.08 356.63 260.00 354.43 C 261.85 363.50 262.59 372.90 260.85 382.05 C 259.55 388.83 257.99 396.03 253.46 401.47 C 251.13 404.45 247.02 404.16 243.63 404.27 L 242.84 404.12 C 243.05 410.93 241.98 417.90 237.92 423.56 C 236.13 423.55 234.33 423.57 232.55 423.46 C 221.94 418.88 215.54 407.82 214.72 396.56 C 214.69 396.05 214.63 395.04 214.60 394.53 C 214.63 392.41 214.71 390.30 214.78 388.19 C 212.62 387.40 210.48 386.59 208.33 385.80 L 208.79 386.98 C 207.39 384.47 205.53 382.24 204.26 379.65 C 203.40 377.41 203.54 374.95 203.17 372.62 C 205.64 370.71 208.39 369.22 211.45 368.53 C 213.39 372.21 214.74 377.04 219.04 378.60 C 221.48 378.14 222.05 375.47 222.61 373.45 C 223.75 368.24 223.65 362.87 223.81 357.57 M 258.64 376.41 C 259.01 372.67 258.63 368.87 257.45 365.31 C 255.97 368.91 257.09 373.01 258.64 376.41 M 250.81 366.63 C 252.03 372.53 256.72 377.01 257.76 383.03 C 254.90 383.78 251.72 383.86 249.29 385.72 C 252.59 385.65 256.82 385.97 259.11 383.09 C 258.12 376.96 254.77 371.32 250.81 366.63 M 239.71 377.93 C 239.71 374.28 239.43 370.62 238.54 367.08 C 236.99 370.41 237.41 375.03 239.71 377.93 M 238.26 391.58 C 237.96 391.87 237.36 392.45 237.06 392.74 C 242.85 394.10 250.83 395.48 255.18 390.48 C 249.70 392.17 243.91 393.11 238.26 391.58 Z" />
<path fill="#faaeb1" opacity="1.00" d=" M 739.37 470.78 C 742.70 474.05 747.21 475.56 751.01 478.15 C 753.23 479.62 753.74 482.46 753.85 484.94 C 754.09 490.88 753.06 496.79 752.09 502.63 C 750.00 502.95 747.92 503.37 745.82 503.46 C 742.20 500.61 741.96 495.50 740.60 491.41 C 738.64 490.55 733.37 491.22 734.82 487.78 C 736.36 483.23 738.74 478.89 739.13 474.01 C 739.19 473.21 739.31 471.59 739.37 470.78 Z" />
<path fill="#faaeb1" opacity="1.00" d=" M 671.61 522.09 C 672.07 515.05 679.45 510.50 686.04 511.20 C 690.29 512.68 688.43 518.59 688.97 522.07 C 689.11 524.28 689.75 526.43 690.18 528.61 C 690.92 526.46 691.62 524.31 692.34 522.16 C 693.26 519.64 695.69 518.63 698.16 518.23 C 698.02 519.17 697.75 521.05 697.61 521.98 C 696.83 527.74 695.93 533.74 692.14 538.40 C 687.38 539.72 682.58 540.88 677.84 542.27 C 677.16 541.42 676.49 540.58 675.82 539.74 C 671.36 535.02 671.31 528.18 671.61 522.09 Z" />
<path fill="#faaeb1" opacity="1.00" d=" M 144.09 564.23 C 150.13 564.54 156.13 565.30 162.17 565.66 C 165.24 570.94 168.20 576.79 167.73 583.08 C 167.72 584.55 166.73 585.73 166.12 587.00 C 162.98 584.30 162.38 580.06 160.74 576.49 C 157.46 582.86 158.45 590.15 158.58 597.01 C 158.41 601.24 152.64 601.31 150.27 598.86 C 145.19 594.11 142.85 586.81 143.19 579.96 C 143.32 575.57 143.49 571.18 143.77 566.80 C 143.85 566.16 144.01 564.87 144.09 564.23 Z" />
</g>
<g id="#cabde0ff">
<path fill="#cabde0" opacity="1.00" d=" M 354.48 367.30 C 355.43 363.73 356.36 360.15 357.52 356.65 C 359.74 357.48 361.96 358.33 364.24 359.03 C 363.51 361.33 362.77 363.64 362.04 365.95 C 364.79 367.17 367.53 368.44 370.35 369.54 C 364.95 370.22 359.31 370.07 354.48 367.30 Z" />
</g>
<g id="#fdd7d8ff">
<path fill="#fdd7d8" opacity="1.00" d=" M 354.06 367.05 L 354.48 367.30 C 359.31 370.07 364.95 370.22 370.35 369.54 L 370.87 369.53 C 373.62 371.08 377.15 372.68 377.92 376.05 C 378.57 381.26 376.98 386.71 373.81 390.88 C 371.21 394.29 367.16 396.06 363.39 397.84 C 359.03 395.52 354.54 393.43 349.92 391.68 C 347.51 386.66 344.82 380.99 346.44 375.33 C 347.96 372.91 351.28 372.67 353.71 371.56 C 353.83 370.05 353.94 368.55 354.06 367.05 Z" />
</g>
<g id="#c3d0fcff">
<path fill="#c3d0fc" opacity="1.00" d=" M 322.38 417.34 C 333.30 410.91 342.40 401.81 349.92 391.68 C 354.54 393.43 359.03 395.52 363.39 397.84 C 362.30 407.74 360.10 417.60 355.64 426.56 C 352.37 433.67 347.50 439.84 342.60 445.88 C 335.85 445.87 329.09 445.91 322.34 445.82 C 322.40 436.32 322.34 426.83 322.38 417.34 Z" />
<path fill="#c3d0fc" opacity="1.00" d=" M 249.35 455.31 C 256.67 453.87 264.15 454.69 271.55 454.36 C 272.48 461.01 273.16 467.81 272.39 474.50 C 270.03 477.19 266.65 478.65 263.64 480.49 C 258.93 479.37 254.26 477.80 250.37 474.82 C 250.54 468.30 250.64 461.73 249.35 455.31 M 250.60 455.70 C 250.71 462.13 251.65 468.52 251.74 474.96 C 255.40 476.73 259.18 478.24 263.01 479.62 C 266.25 477.46 270.83 476.00 272.12 471.97 C 271.98 467.80 271.31 463.67 271.19 459.50 C 265.21 459.49 259.30 460.49 253.34 460.68 C 253.33 460.35 253.31 459.69 253.30 459.36 C 257.88 459.48 262.51 459.50 267.05 458.79 C 268.64 458.36 270.72 458.51 271.71 456.93 C 271.30 456.63 270.49 456.01 270.08 455.70 C 263.61 455.08 257.09 455.72 250.60 455.70 Z" />
</g>
<g id="#a1b3fdff">
<path fill="#a1b3fd" opacity="1.00" d=" M 202.81 410.54 C 202.98 410.28 203.32 409.76 203.49 409.50 C 205.11 415.80 205.94 422.40 208.89 428.28 C 210.70 431.74 213.11 435.28 216.85 436.85 C 221.76 432.01 226.73 427.23 232.55 423.46 C 234.33 423.57 236.13 423.55 237.92 423.56 C 242.12 425.99 246.05 428.84 249.83 431.87 C 251.79 425.05 250.75 418.01 250.41 411.06 C 254.61 418.10 253.81 427.41 250.03 434.47 C 247.64 432.95 245.53 431.06 243.47 429.13 C 240.84 427.07 237.67 424.76 234.13 425.43 C 230.59 426.36 227.77 428.89 225.21 431.37 C 222.56 433.99 220.16 436.95 216.96 438.94 C 212.06 437.19 208.94 432.58 206.83 428.06 C 204.25 422.60 202.72 416.60 202.81 410.54 Z" />
</g>
<g id="#bdcaf9ff">
<path fill="#bdcaf9" opacity="1.00" d=" M 713.50 437.56 C 716.59 436.67 719.85 436.79 723.04 436.80 C 731.18 437.00 739.34 436.64 747.48 437.15 C 745.33 438.91 743.36 440.89 741.63 443.06 C 732.79 442.25 723.89 443.28 715.07 442.51 C 712.46 442.59 712.14 439.17 713.50 437.56 Z" />
<path fill="#bdcaf9" opacity="1.00" d=" M 714.33 452.45 C 720.51 451.83 726.82 451.92 733.02 452.35 C 735.78 452.44 735.86 457.58 733.05 457.64 C 727.07 458.09 721.02 458.03 715.03 457.70 C 712.23 457.65 711.78 453.15 714.33 452.45 Z" />
<path fill="#bdcaf9" opacity="1.00" d=" M 715.01 473.80 C 711.96 473.72 711.99 468.44 715.03 468.41 C 722.44 467.83 729.90 468.59 737.33 468.05 C 737.96 468.99 738.65 469.89 739.37 470.78 C 739.31 471.59 739.19 473.21 739.13 474.01 C 731.09 473.76 723.03 474.46 715.01 473.80 Z" />
</g>
<g id="#f783a4ff">
<path fill="#f783a4" opacity="1.00" d=" M 228.24 440.40 C 232.84 440.70 237.45 440.80 242.07 440.78 C 242.03 441.22 241.97 442.10 241.94 442.54 C 237.52 442.29 233.10 442.22 228.68 442.27 C 228.57 441.80 228.35 440.87 228.24 440.40 Z" />
</g>
<g id="#626262ff">
<path fill="#626262" opacity="1.00" d=" M 761.40 465.47 C 763.13 466.33 765.19 466.87 766.53 468.40 C 770.36 472.96 772.67 478.98 772.01 484.99 C 771.15 494.99 767.19 504.82 768.87 514.96 C 769.95 521.38 774.82 526.13 778.99 530.77 C 777.82 531.11 776.66 531.49 775.54 531.93 C 771.68 526.71 766.77 521.65 765.82 514.95 C 764.77 506.88 766.67 498.83 768.20 490.94 C 769.08 486.15 770.00 480.90 767.81 476.33 C 765.81 472.63 763.19 469.29 761.40 465.47 Z" />
<path fill="#626262" opacity="1.00" d=" M 790.62 511.46 C 785.82 505.06 785.29 495.95 789.12 488.95 C 791.73 494.15 788.16 500.07 790.61 505.33 C 794.67 514.75 804.52 519.55 810.39 527.65 C 809.08 527.63 807.79 527.64 806.51 527.66 C 801.46 522.02 795.17 517.55 790.62 511.46 Z" />
</g>
<g id="#d0cdd5ff">
<path fill="#d0cdd5" opacity="1.00" d=" M 688.97 522.07 C 689.81 522.09 691.50 522.13 692.34 522.16 C 691.62 524.31 690.92 526.46 690.18 528.61 C 689.75 526.43 689.11 524.28 688.97 522.07 Z" />
</g>
<g id="#606060ff">
<path fill="#606060" opacity="1.00" d=" M 248.02 540.65 C 256.03 540.79 263.98 539.68 271.97 539.32 C 272.68 541.16 270.00 540.83 268.99 541.14 C 251.05 542.74 232.99 542.16 215.00 542.40 C 207.05 542.25 199.04 542.95 191.14 541.82 C 194.59 540.26 198.42 541.05 202.06 540.97 C 217.38 541.07 232.70 540.53 248.02 540.65 Z" />
</g>
<g id="#5b5b5bff">
<path fill="#5b5b5b" opacity="1.00" d=" M 261.95 545.42 C 265.06 549.59 266.02 554.87 268.86 559.20 C 271.25 563.69 275.06 567.14 278.15 571.12 C 273.94 570.74 271.74 566.59 269.40 563.60 C 265.95 558.05 262.23 552.14 261.95 545.42 Z" />
<path fill="#5b5b5b" opacity="1.00" d=" M 231.47 652.47 C 236.27 654.79 239.14 659.55 243.62 662.32 C 246.83 664.60 250.89 664.91 254.39 666.56 C 256.61 667.82 255.73 670.78 254.35 672.33 C 251.39 675.75 246.84 677.02 242.82 678.73 C 238.39 680.38 234.65 683.33 230.42 685.37 C 235.04 676.87 246.76 677.60 253.11 671.04 C 253.81 670.23 254.00 669.30 253.68 668.24 C 250.18 666.58 246.09 666.35 242.89 664.01 C 238.48 660.88 233.82 657.51 231.47 652.47 Z" />
<path fill="#5b5b5b" opacity="1.00" d=" M 177.01 672.04 C 188.08 667.59 199.11 662.98 209.48 657.05 C 208.31 660.65 204.49 661.87 201.47 663.48 C 192.45 667.68 183.27 671.52 174.05 675.26 C 176.46 676.50 178.83 677.85 181.04 679.45 C 177.51 679.22 173.22 678.35 171.38 675.03 C 172.98 673.57 175.03 672.82 177.01 672.04 Z" />
</g>
<g id="#b4b6baff">
<path fill="#b4b6ba" opacity="1.00" d=" M 386.22 547.47 C 388.11 547.00 390.08 546.98 392.02 546.94 C 442.35 547.14 492.68 546.86 543.00 547.10 C 546.94 546.55 548.36 552.43 545.16 554.24 C 541.51 555.27 537.64 554.65 533.91 554.77 C 486.61 554.77 439.31 554.74 392.01 554.80 C 389.78 554.70 387.41 554.82 385.37 553.77 C 384.23 551.75 384.26 548.96 386.22 547.47 Z" />
<path fill="#b4b6ba" opacity="1.00" d=" M 386.21 563.22 C 390.07 562.25 394.09 562.72 398.03 562.65 C 445.68 562.72 493.33 562.59 540.97 562.68 C 543.03 562.94 546.21 562.42 546.67 565.17 C 547.82 568.27 545.03 570.85 541.95 570.29 C 491.64 570.42 441.32 570.26 391.01 570.35 C 388.79 570.23 385.70 570.52 384.74 567.97 C 384.42 566.30 384.70 564.24 386.21 563.22 Z" />
<path fill="#b4b6ba" opacity="1.00" d=" M 387.41 578.53 C 388.57 578.31 389.75 578.20 390.94 578.20 C 441.29 578.31 491.65 578.22 541.99 578.21 C 544.71 577.78 547.70 580.01 546.86 582.96 C 546.42 585.76 543.32 586.11 541.03 586.03 C 490.35 585.93 439.65 586.08 388.97 585.96 C 384.26 587.17 382.76 578.94 387.41 578.53 Z" />
<path fill="#b4b6ba" opacity="1.00" d=" M 393.28 684.37 C 400.25 682.06 408.61 686.00 410.93 693.03 C 413.44 699.65 410.08 707.69 403.60 710.56 C 395.67 714.68 384.78 708.87 383.79 699.99 C 382.66 693.36 386.84 686.36 393.28 684.37 Z" />
</g>
<g id="#5a5a5aff">
<path fill="#5a5a5a" opacity="1.00" d=" M 207.50 547.53 C 208.51 552.01 206.13 556.17 204.18 560.02 C 199.92 568.09 191.14 573.58 181.99 573.65 C 180.68 573.59 179.53 572.90 178.34 572.47 C 182.80 571.66 187.53 571.65 191.68 569.62 C 196.92 567.21 201.00 562.69 203.41 557.50 C 204.85 554.21 205.91 550.76 207.50 547.53 Z" />
</g>
<g id="#666666ff">
<path fill="#666666" opacity="1.00" d=" M 236.64 563.99 C 236.90 558.46 236.56 552.53 239.65 547.66 C 239.35 552.12 238.34 556.51 238.08 560.99 C 237.38 568.82 238.95 576.72 237.39 584.49 C 240.97 583.08 244.11 580.85 247.29 578.74 C 245.13 584.11 239.02 585.40 234.13 587.14 C 231.88 593.37 229.70 599.63 227.73 605.96 C 227.20 607.71 226.23 609.29 225.19 610.80 C 226.25 602.81 229.74 595.44 232.22 587.84 C 226.42 588.73 220.62 590.36 214.70 589.59 C 220.53 587.42 227.00 588.10 232.78 585.75 C 235.09 584.89 236.62 582.49 236.65 580.06 C 236.95 574.70 236.42 569.35 236.64 563.99 Z" />
<path fill="#666666" opacity="1.00" d=" M 168.21 637.34 C 175.10 639.44 182.19 640.88 189.01 643.24 C 191.02 644.04 193.76 645.12 193.73 647.71 C 189.70 650.30 185.01 651.51 180.73 653.61 C 174.20 656.42 168.14 660.22 161.53 662.86 C 163.43 659.79 166.96 658.69 170.00 657.15 C 175.20 654.59 180.35 651.87 185.77 649.79 C 187.96 648.82 190.46 648.17 192.11 646.33 C 184.26 642.39 175.38 641.40 167.13 638.58 C 167.40 638.27 167.94 637.65 168.21 637.34 Z" />
<path fill="#666666" opacity="1.00" d=" M 749.02 754.10 C 749.20 751.82 749.37 749.55 749.60 747.29 C 749.41 751.28 750.37 755.16 752.17 758.71 C 753.63 761.62 754.19 765.90 751.00 767.90 C 744.68 771.80 737.28 773.43 730.19 775.37 C 729.80 775.47 729.02 775.66 728.63 775.76 C 729.22 771.40 729.43 766.85 727.74 762.70 C 729.87 760.57 731.97 758.40 734.12 756.28 C 739.23 757.60 744.35 756.23 749.02 754.10 Z" />
<path fill="#666666" opacity="1.00" d=" M 706.96 760.35 C 712.92 762.38 719.12 760.98 724.80 758.77 C 725.81 763.54 728.85 768.32 727.35 773.29 C 725.38 775.63 722.44 776.83 719.73 778.08 C 713.80 779.14 707.80 780.07 702.09 782.06 C 696.51 783.87 690.92 786.85 684.88 785.98 C 681.51 785.67 678.98 783.23 676.61 781.09 C 683.79 777.14 692.23 775.84 698.87 770.85 C 702.72 768.38 704.76 764.18 706.96 760.35 Z" />
<path fill="#666666" opacity="1.00" d=" M 236.51 776.17 C 245.88 775.63 255.07 773.15 263.42 768.86 C 271.24 772.63 278.87 776.89 287.07 779.81 C 290.58 781.09 294.33 781.70 297.74 783.26 C 299.58 784.12 301.59 785.77 301.29 788.04 C 299.94 791.19 296.18 792.12 293.11 792.67 C 279.98 794.20 267.11 789.35 253.98 790.06 C 249.63 790.22 245.36 791.22 241.01 791.32 C 238.96 791.31 236.11 791.08 235.50 788.68 C 234.43 784.51 235.82 780.28 236.51 776.17 Z" />
<path fill="#666666" opacity="1.00" d=" M 146.94 774.85 C 153.05 776.06 159.81 774.72 164.57 770.57 C 168.07 776.20 171.87 781.73 176.63 786.38 C 179.10 789.04 182.58 791.29 183.29 795.10 C 182.16 798.26 178.26 798.60 175.45 799.26 C 164.52 800.74 152.98 800.62 142.62 796.48 C 139.73 795.13 136.04 793.46 135.53 789.91 C 134.97 783.57 136.29 777.27 137.35 771.06 C 140.46 772.51 143.54 774.16 146.94 774.85 Z" />
</g>
<g id="#fe5d83ff">
<path fill="#fe5d83" opacity="1.00" d=" M 702.24 560.07 C 703.41 560.01 704.58 559.96 705.77 559.91 C 704.01 562.13 701.92 564.27 701.07 567.05 C 700.22 569.31 700.00 571.94 698.09 573.64 C 697.75 568.72 700.08 564.31 702.24 560.07 Z" />
</g>
<g id="#6182f9ff">
<path fill="#6182f9" opacity="1.00" d=" M 603.00 583.83 C 605.44 583.81 607.89 583.82 610.34 583.84 C 610.42 618.53 610.35 653.21 610.37 687.89 C 610.37 702.29 610.37 716.69 610.37 731.09 C 610.37 738.31 610.37 745.53 610.36 752.74 C 607.90 752.74 605.46 752.76 603.01 752.78 C 603.00 745.56 602.99 738.34 603.00 731.13 C 603.00 716.14 603.00 701.15 603.00 686.17 C 603.00 652.05 603.00 617.94 603.00 583.83 Z" />
<path fill="#6182f9" opacity="1.00" d=" M 844.66 583.85 C 847.10 583.82 849.54 583.81 851.99 583.83 C 852.00 587.57 852.01 591.31 852.02 595.05 C 851.98 641.29 852.01 687.52 852.00 733.75 C 852.00 740.09 851.99 746.43 851.99 752.77 C 849.53 752.74 847.08 752.73 844.64 752.73 C 844.63 746.36 844.62 740.00 844.63 733.63 C 844.60 692.89 844.66 652.15 844.59 611.41 C 844.70 602.22 844.56 593.03 844.66 583.85 Z" />
</g>
<g id="#fa5a7fff">
<path fill="#fa5a7f" opacity="1.00" d=" M 909.01 643.99 C 913.81 641.90 919.58 639.78 924.62 642.37 C 927.84 643.87 929.44 647.75 928.56 651.15 C 927.16 658.40 919.81 662.27 917.40 669.02 C 916.04 672.81 917.48 676.74 918.56 680.39 C 919.29 682.91 919.89 685.45 920.51 688.01 C 922.88 686.94 925.27 685.92 927.68 684.95 C 925.40 686.82 922.97 688.56 921.08 690.84 C 919.41 694.52 919.47 698.83 917.32 702.33 C 915.23 705.83 912.67 709.03 910.49 712.47 C 905.29 712.47 900.09 712.54 894.90 712.50 C 895.20 708.84 895.33 705.10 896.56 701.59 C 898.46 696.04 901.94 691.14 903.42 685.43 C 904.71 680.36 904.10 675.09 904.41 669.92 C 904.66 665.78 906.78 662.10 908.20 658.29 C 906.18 660.31 903.79 662.32 903.34 665.33 C 901.72 673.00 904.00 681.27 900.44 688.59 C 896.96 696.11 892.22 703.80 893.62 712.48 C 889.40 712.46 885.19 712.49 880.97 712.48 C 878.38 705.47 876.47 697.29 880.42 690.38 C 883.19 685.79 883.68 680.46 882.84 675.24 C 886.39 679.14 885.03 684.70 882.84 688.93 C 880.96 692.43 879.95 696.28 879.59 700.22 C 883.83 694.61 889.49 690.15 893.32 684.23 C 898.39 675.41 891.33 665.13 895.12 656.01 C 897.63 650.12 903.36 646.47 909.01 643.99 Z" />
</g>
<g id="#fa829eff">
<path fill="#fa829e" opacity="1.00" d=" M 903.34 665.33 C 903.79 662.32 906.18 660.31 908.20 658.29 C 906.78 662.10 904.66 665.78 904.41 669.92 C 904.10 675.09 904.71 680.36 903.42 685.43 C 901.94 691.14 898.46 696.04 896.56 701.59 C 895.33 705.10 895.20 708.84 894.90 712.50 L 893.62 712.48 C 892.22 703.80 896.96 696.11 900.44 688.59 C 904.00 681.27 901.72 673.00 903.34 665.33 Z" />
</g>
<g id="#5e5e5eff">
<path fill="#5e5e5e" opacity="1.00" d=" M 257.68 678.61 C 262.32 675.05 264.45 668.62 270.21 666.61 C 267.07 670.86 263.57 674.83 260.15 678.86 C 263.18 680.15 266.37 680.97 269.62 681.49 C 265.44 683.35 260.72 681.82 257.68 678.61 Z" />
</g>
<g id="#616161f9">
<path fill="#616161" opacity="0.98" d=" M 708.72 673.25 L 709.88 673.70 C 714.84 688.40 718.74 703.46 722.07 718.62 C 722.75 723.10 723.30 727.61 723.72 732.14 C 724.60 732.25 726.35 732.47 727.23 732.58 L 727.27 732.68 C 726.37 732.61 724.59 732.46 723.69 732.38 C 724.30 740.85 725.03 749.32 725.43 757.80 L 724.32 755.98 C 722.22 742.49 722.83 728.66 719.64 715.32 C 716.96 701.05 711.87 687.39 708.72 673.25 Z" />
</g>
<g id="#8c8c8cff">
<path fill="#8c8c8c" opacity="1.00" d=" M 724.32 755.98 L 725.43 757.80 C 726.23 759.41 727.02 761.03 727.74 762.70 C 729.43 766.85 729.22 771.40 728.63 775.76 C 729.02 775.66 729.80 775.47 730.19 775.37 C 726.76 776.47 723.31 777.57 719.73 778.08 C 722.44 776.83 725.38 775.63 727.35 773.29 C 728.85 768.32 725.81 763.54 724.80 758.77 C 724.68 758.07 724.44 756.67 724.32 755.98 Z" />
</g>
</svg>
