<?xml version="1.0" encoding="UTF-8" standalone="no"?>
<svg
   xmlns:dc="http://purl.org/dc/elements/1.1/"
   xmlns:cc="http://creativecommons.org/ns#"
   xmlns:rdf="http://www.w3.org/1999/02/22-rdf-syntax-ns#"
   xmlns:svg="http://www.w3.org/2000/svg"
   xmlns="http://www.w3.org/2000/svg"
   xmlns:sodipodi="http://sodipodi.sourceforge.net/DTD/sodipodi-0.dtd"
   xmlns:inkscape="http://www.inkscape.org/namespaces/inkscape"
   version="1.1"
   id="svg2"
   xml:space="preserve"
   width="577.37988"
   height="490.23987"
   viewBox="0 0 577.37988 490.23987"
   sodipodi:docname="3172740.svg"
   inkscape:version="1.0.2-2 (e86c870879, 2021-01-15)"><metadata
     id="metadata8"><rdf:RDF><cc:Work
         rdf:about=""><dc:format>image/svg+xml</dc:format><dc:type
           rdf:resource="http://purl.org/dc/dcmitype/StillImage" /><dc:title></dc:title></cc:Work></rdf:RDF></metadata><defs
     id="defs6"><clipPath
       clipPathUnits="userSpaceOnUse"
       id="clipPath22"><path
         d="M 7143.6,660.551 H 356.398 V 4339.45 H 7143.6 V 660.551 m -4618.33,2345.569 -365,-196.67 -18.34,-68.33 118.34,-146.67 70,-11.67 313.33,211.67 1.4,12.34 41.24,17.88 c 72.56,-116.23 201.62,-193.55 348.73,-193.55 226.9,0 410.84,183.93 410.84,410.83 0,226.9 -183.94,410.83 -410.84,410.83 -219.98,0 -399.59,-172.89 -410.32,-390.21 -4.83,1.08 -9.85,1.68 -14.98,1.76 -0.02,0 -0.03,0 -0.05,0 -0.21,0 -0.42,0 -0.64,0 -0.02,0 -0.04,0 -0.07,0.01 -0.1,0 -0.21,0 -0.31,0 -0.09,0 -0.18,0 -0.26,0 -0.03,0 -0.06,0 -0.08,-0.01 -0.06,0 -0.12,0 -0.19,0 -0.03,0 -0.05,0 -0.08,0 -0.06,0 -0.13,0 -0.19,0 -0.02,0 -0.05,0 -0.08,0 -0.07,0 -0.14,0 -0.22,0 -0.01,0 -0.02,0 -0.03,0 -35.85,-0.55 -65.44,-26.91 -71,-61.32 l -11.2,3.11"
         id="path20" /></clipPath><linearGradient
       x1="0"
       y1="0"
       x2="1"
       y2="0"
       gradientUnits="userSpaceOnUse"
       gradientTransform="matrix(6787.2,0,0,-6787.2,1896.4,2500)"
       spreadMethod="pad"
       id="linearGradient28"><stop
         style="stop-opacity:1;stop-color:#1f204b"
         offset="0"
         id="stop24" /><stop
         style="stop-opacity:1;stop-color:#3a3899"
         offset="1"
         id="stop26" /></linearGradient><clipPath
       clipPathUnits="userSpaceOnUse"
       id="clipPath38"><path
         d="m 356.398,660.551 h 6787.2 v 3678.9 h -6787.2 z"
         id="path36" /></clipPath><clipPath
       clipPathUnits="userSpaceOnUse"
       id="clipPath212"><path
         d="m 3034.97,2631.12 c -147.11,0 -276.17,77.32 -348.73,193.55 l 28.38,12.3 7.31,-5.85 66.11,22.02 c 56.8,-74.18 146.28,-122.02 246.93,-122.02 171.67,0 310.84,139.16 310.84,310.83 0,171.67 -139.17,310.83 -310.84,310.83 -163.92,0 -298.21,-126.88 -309.99,-287.8 l -63.05,-12.19 h 0.02 l -0.02,-0.01 -5.82,-6 c -8.89,7.62 -19.63,13.14 -31.46,15.79 10.73,217.32 190.34,390.21 410.32,390.21 226.9,0 410.84,-183.93 410.84,-410.83 0,-226.9 -183.94,-410.83 -410.84,-410.83"
         id="path210" /></clipPath><linearGradient
       x1="0"
       y1="0"
       x2="1"
       y2="0"
       gradientUnits="userSpaceOnUse"
       gradientTransform="matrix(6787.2,0,0,-6787.2,1896.4,2500)"
       spreadMethod="pad"
       id="linearGradient218"><stop
         style="stop-opacity:1;stop-color:#2c3480"
         offset="0"
         id="stop214" /><stop
         style="stop-opacity:1;stop-color:#4142a1"
         offset="1"
         id="stop216" /></linearGradient><clipPath
       clipPathUnits="userSpaceOnUse"
       id="clipPath244"><path
         d="m 3034.97,2731.12 c -100.65,0 -190.13,47.84 -246.93,122.02 l 103.34,34.43 c 37.64,-35.03 88.12,-56.45 143.59,-56.45 116.44,0 210.84,94.39 210.84,210.83 0,116.44 -94.4,210.83 -210.84,210.83 -101.68,0 -186.54,-71.98 -206.43,-167.76 l -103.56,-20.04 c 11.78,160.92 146.07,287.8 309.99,287.8 171.67,0 310.84,-139.16 310.84,-310.83 0,-171.67 -139.17,-310.83 -310.84,-310.83"
         id="path242" /></clipPath><linearGradient
       x1="0"
       y1="0"
       x2="1"
       y2="0"
       gradientUnits="userSpaceOnUse"
       gradientTransform="matrix(6787.2,0,0,-6787.2,1896.4,2500)"
       spreadMethod="pad"
       id="linearGradient250"><stop
         style="stop-opacity:1;stop-color:#364fa1"
         offset="0"
         id="stop246" /><stop
         style="stop-opacity:1;stop-color:#4751ac"
         offset="1"
         id="stop248" /></linearGradient><clipPath
       clipPathUnits="userSpaceOnUse"
       id="clipPath270"><path
         d="m 3034.97,2831.12 c -55.47,0 -105.95,21.42 -143.59,56.45 l 11.69,3.9 c 0.18,0.06 0.36,0.12 0.54,0.18 0.06,0.02 0.11,0.04 0.16,0.05 0.13,0.05 0.26,0.09 0.39,0.13 0.06,0.02 0.12,0.04 0.18,0.07 0.16,0.05 0.32,0.11 0.48,0.16 0.06,0.02 0.11,0.04 0.17,0.06 0.12,0.04 0.24,0.08 0.37,0.13 0.08,0.03 0.18,0.06 0.26,0.09 0.08,0.03 0.16,0.05 0.24,0.08 0.1,0.04 0.21,0.07 0.31,0.11 0.03,0.01 0.05,0.02 0.08,0.03 2.37,0.83 4.72,1.71 7.05,2.63 0.02,0 0.04,0.01 0.06,0.02 0.24,0.09 0.47,0.19 0.71,0.28 0.03,0.02 0.07,0.03 0.1,0.04 0.1,0.04 0.2,0.08 0.3,0.12 0.08,0.03 0.15,0.06 0.22,0.09 0.08,0.03 0.17,0.07 0.26,0.1 0.15,0.07 0.32,0.13 0.47,0.2 0.04,0.01 0.07,0.02 0.11,0.04 0.14,0.06 0.29,0.12 0.43,0.18 0.04,0.01 0.08,0.03 0.12,0.05 67,27.56 114.42,89.31 123.22,161.94 3.74,30.83 -20.61,56.88 -50.23,56.88 -2.06,0 -4.15,-0.13 -6.25,-0.39 -1.18,-0.14 -2.36,-0.33 -3.54,-0.56 l -150.74,-29.16 c 19.89,95.78 104.75,167.76 206.43,167.76 116.44,0 210.84,-94.39 210.84,-210.83 0,-116.44 -94.4,-210.83 -210.84,-210.83"
         id="path268" /></clipPath><linearGradient
       x1="0"
       y1="0"
       x2="1"
       y2="0"
       gradientUnits="userSpaceOnUse"
       gradientTransform="matrix(6787.2,0,0,-6787.2,1896.4,2500)"
       spreadMethod="pad"
       id="linearGradient276"><stop
         style="stop-opacity:1;stop-color:#4068b3"
         offset="0"
         id="stop272" /><stop
         style="stop-opacity:1;stop-color:#4d62b7"
         offset="1"
         id="stop274" /></linearGradient><clipPath
       clipPathUnits="userSpaceOnUse"
       id="clipPath838"><rect
         style="fill:#1c1d47;stroke-width:7.5"
         id="rect840"
         width="4330.3491"
         height="3676.7993"
         x="356.39801"
         y="-4339.4502"
         transform="scale(1,-1)" /></clipPath></defs><sodipodi:namedview
     pagecolor="#ffffff"
     bordercolor="#666666"
     borderopacity="1"
     objecttolerance="10"
     gridtolerance="10"
     guidetolerance="10"
     inkscape:pageopacity="0"
     inkscape:pageshadow="2"
     inkscape:window-width="1920"
     inkscape:window-height="1001"
     id="namedview4"
     inkscape:document-rotation="0"
     showgrid="false"
     fit-margin-top="0"
     fit-margin-left="0"
     fit-margin-right="0"
     fit-margin-bottom="0"
     inkscape:zoom="1.245"
     inkscape:cx="663.22348"
     inkscape:cy="249.87847"
     inkscape:window-x="-9"
     inkscape:window-y="-9"
     inkscape:window-maximized="1"
     inkscape:current-layer="g10" /><g
     id="g10"
     inkscape:groupmode="layer"
     inkscape:label="ink_ext_XXXXXX"
     transform="matrix(1.3333333,0,0,-1.3333333,-47.519734,578.59332)"><g
       id="g18"
       clip-path="url(#clipPath838)"
       transform="scale(0.1)"><path
         d="M 7143.6,660.551 H 356.398 V 4339.45 H 7143.6 V 660.551 m -4618.33,2345.569 -365,-196.67 -18.34,-68.33 118.34,-146.67 70,-11.67 313.33,211.67 1.4,12.34 41.24,17.88 c 72.56,-116.23 201.62,-193.55 348.73,-193.55 226.9,0 410.84,183.93 410.84,410.83 0,226.9 -183.94,410.83 -410.84,410.83 -219.98,0 -399.59,-172.89 -410.32,-390.21 -4.83,1.08 -9.85,1.68 -14.98,1.76 -0.02,0 -0.03,0 -0.05,0 -0.21,0 -0.42,0 -0.64,0 -0.02,0 -0.04,0 -0.07,0.01 -0.1,0 -0.21,0 -0.31,0 -0.09,0 -0.18,0 -0.26,0 -0.03,0 -0.06,0 -0.08,-0.01 -0.06,0 -0.12,0 -0.19,0 -0.03,0 -0.05,0 -0.08,0 -0.06,0 -0.13,0 -0.19,0 -0.02,0 -0.05,0 -0.08,0 -0.07,0 -0.14,0 -0.22,0 -0.01,0 -0.02,0 -0.03,0 -35.85,-0.55 -65.44,-26.91 -71,-61.32 l -11.2,3.11"
         style="fill:url(#linearGradient28);fill-opacity:1;fill-rule:nonzero;stroke:none"
         id="path30" /></g><g
       id="g32"
       transform="scale(0.1)"><g
         id="g34"
         clip-path="url(#clipPath38)"><path
           d="m 1780.84,2279.27 c 0,-82.69 -67.04,-149.74 -149.74,-149.74 -82.7,0 -149.74,67.05 -149.74,149.74 0,82.7 67.04,149.74 149.74,149.74 82.7,0 149.74,-67.04 149.74,-149.74"
           style="fill:#3a3899;fill-opacity:1;fill-rule:nonzero;stroke:none"
           id="path40" /><path
           d="m 2195.54,2740.01 c 0,-40.35 -32.72,-73.07 -73.07,-73.07 -40.36,0 -73.07,32.72 -73.07,73.07 0,40.36 32.71,73.08 73.07,73.08 40.35,0 73.07,-32.72 73.07,-73.08"
           style="fill:#3a3899;fill-opacity:1;fill-rule:nonzero;stroke:none"
           id="path42" /><path
           d="m 2681.67,2991.27 c 0,-40.36 -32.71,-73.08 -73.07,-73.08 -40.36,0 -73.07,32.72 -73.07,73.08 0,40.35 32.71,73.07 73.07,73.07 40.36,0 73.07,-32.72 73.07,-73.07"
           style="fill:#3a3899;fill-opacity:1;fill-rule:nonzero;stroke:none"
           id="path44" /><path
           d="m 2884.89,1877.08 c 0,-35.87 -29.07,-64.94 -64.94,-64.94 -35.87,0 -64.95,29.07 -64.95,64.94 0,35.87 29.08,64.95 64.95,64.95 35.87,0 64.94,-29.08 64.94,-64.95"
           style="fill:#3a3899;fill-opacity:1;fill-rule:nonzero;stroke:none"
           id="path46" /><path
           d="m 2848.93,1916.89 -15.18,-95.77 c 0,0 -113.25,48.33 -117.53,56.66 -4.29,8.34 0.71,86.67 0.71,86.67 l 132,-47.56"
           style="fill:#3a3899;fill-opacity:1;fill-rule:nonzero;stroke:none"
           id="path48" /><path
           d="m 2653.11,2339.41 63.11,-79.91 -79.91,-55.03 z"
           style="fill:#3a3899;fill-opacity:1;fill-rule:nonzero;stroke:none"
           id="path50" /><path
           d="m 2544.84,3000.68 107.09,41.79 62.69,-205.5 -69.62,-30.18 -100.16,193.89"
           style="fill:#3a3899;fill-opacity:1;fill-rule:nonzero;stroke:none"
           id="path52" /><path
           d="m 2064.58,2723.69 89.07,61.08 161.35,-199.44 -79.73,-63.38 -170.69,201.74"
           style="fill:#3a3899;fill-opacity:1;fill-rule:nonzero;stroke:none"
           id="path54" /><path
           d="m 1356.93,1089.45 16.04,9.26 -410.618,448.24 -62.18,-92.73 456.758,-364.77"
           style="fill:#3a3899;fill-opacity:1;fill-rule:nonzero;stroke:none"
           id="path56" /><path
           d="m 2448.6,1526.12 c 0,0 -165,-130 -203.33,-144.17 -38.34,-14.17 -51.67,55.83 -10,129.17 41.66,73.33 93.85,145 93.85,145 l -408.85,201.66 333.33,456.25 391.67,-557.91 -196.67,-230"
           style="fill:#ae95d1;fill-opacity:1;fill-rule:nonzero;stroke:none"
           id="path58" /><path
           d="m 2433.6,1546.95 -188.33,-165 c 33.38,12.34 162.76,112.47 195.65,138.15 l -7.32,26.85"
           style="fill:#60ccf0;fill-opacity:1;fill-rule:nonzero;stroke:none"
           id="path60" /><path
           d="m 2168.6,2183.2 92.5,42.92 -61.08,234.3 z"
           style="fill:#3a3899;fill-opacity:1;fill-rule:nonzero;stroke:none"
           id="path62" /><path
           d="m 2709.49,1916.89 97.44,-37.44 33.34,-72.5 c 0,0 -318.34,-299.17 -383.34,-319.17 -65,-20 -62.5,166.67 -31.25,233.34 31.25,66.66 283.81,195.77 283.81,195.77"
           style="fill:#d5c6e7;fill-opacity:1;fill-rule:nonzero;stroke:none"
           id="path64" /><path
           d="m 2727.6,2261.12 137.67,-333.34 -45,-30 -111.67,46.67 -110,298.33 129,18.34"
           style="fill:#d5c6e7;fill-opacity:1;fill-rule:nonzero;stroke:none"
           id="path66" /><path
           d="m 2741.63,2212.48 107.3,-295.59 16.34,10.89 -117.99,284.7 h -5.65"
           style="fill:#60ccf0;fill-opacity:1;fill-rule:nonzero;stroke:none"
           id="path68" /><path
           d="m 2751.21,2240.13 c 0,-54.83 -44.44,-99.28 -99.28,-99.28 -54.83,0 -99.28,44.45 -99.28,99.28 0,54.83 44.45,99.28 99.28,99.28 54.84,0 99.28,-44.45 99.28,-99.28"
           style="fill:#3a3899;fill-opacity:1;fill-rule:nonzero;stroke:none"
           id="path70" /><path
           d="m 2741.63,2212.48 c 0,-5.87 -0.51,-11.61 -1.25,-17.28 6.88,13.5 10.83,28.74 10.83,44.93 0,54.83 -44.44,99.28 -99.28,99.28 -1.02,0 -2.01,-0.12 -3.02,-0.15 53.76,-17.08 92.72,-67.36 92.72,-126.78"
           style="fill:#60ccf0;fill-opacity:1;fill-rule:nonzero;stroke:none"
           id="path72" /><path
           d="m 2755,2012.79 -30.13,-81.07 -102.54,87.73 29.6,60 103.07,-66.66"
           style="fill:#3a3899;fill-opacity:1;fill-rule:nonzero;stroke:none"
           id="path74" /><path
           d="m 2621.93,2036.95 95,-72.5 c 0,0 16.67,-60 8.34,-56.67 -8.34,3.34 -238.34,-158.33 -285,-198.33 -46.67,-40 -91.14,69.97 -59.74,151.65 31.4,81.68 241.4,175.85 241.4,175.85"
           style="fill:#e8def1;fill-opacity:1;fill-rule:nonzero;stroke:none"
           id="path76" /><path
           d="m 2218.6,2036.95 48.33,30 121.27,-236.94 -66.01,-38.11 -103.59,245.05"
           style="fill:#3a3899;fill-opacity:1;fill-rule:nonzero;stroke:none"
           id="path78" /><path
           d="m 2608.6,2177.78 65.2,48.34 71.64,-41.36 36.49,-147.81 -56.66,-50.83 -103.34,50.83 -13.33,140.83"
           style="fill:#e8def1;fill-opacity:1;fill-rule:nonzero;stroke:none"
           id="path80" /><path
           d="m 2191.1,2521.95 460.83,-167.5 8.34,-106.67 -145,-141.66 -280,111.21 -44.17,304.62"
           style="fill:#e8def1;fill-opacity:1;fill-rule:nonzero;stroke:none"
           id="path82" /><path
           d="m 2200.02,2460.42 422.31,-138.61 37.94,-74.03 -8.34,106.67 -460.83,167.5 8.92,-61.53"
           style="fill:#60ccf0;fill-opacity:1;fill-rule:nonzero;stroke:none"
           id="path84" /><path
           d="m 2220.12,2321.81 358.48,-157.36 -63.33,-58.33 -280,111.21 -15.15,104.48"
           style="fill:#d5c6e7;fill-opacity:1;fill-rule:nonzero;stroke:none"
           id="path86" /><path
           d="m 2201.1,2500 -1.08,-303.02 -213.92,-345.03 -130,-45 -92.5,285 437.5,408.05"
           style="fill:#e8def1;fill-opacity:1;fill-rule:nonzero;stroke:none"
           id="path88" /><path
           d="m 2200.33,2339.41 -364.93,-468.68 20.7,-63.78 130,45 213.92,345.03 0.31,142.43"
           style="fill:#d5c6e7;fill-opacity:1;fill-rule:nonzero;stroke:none"
           id="path90" /><path
           d="m 1606.1,2314.45 77.5,105 183.33,-290 -16.26,-18.18 -244.57,203.18"
           style="fill:#3a3899;fill-opacity:1;fill-rule:nonzero;stroke:none"
           id="path92" /><path
           d="M 190.266,432.781 876.934,1472.78 1356.93,1089.45 1120.27,92.7813 190.266,432.781"
           style="fill:#ffffff;fill-opacity:1;fill-rule:nonzero;stroke:none"
           id="path94" /><path
           d="m 1372.97,1098.71 -429.368,360.74 -12.5,117.5 c 0,0 386.668,470 425.828,520 39.17,50 44.17,120 66.67,145 12.07,13.41 63.69,33.29 108.97,48.84 39.13,13.45 143.78,-34.7 143.78,-34.7 l 200.58,-166.64 20,-196.67 167.65,-325.62 c 0,0 -20.98,-124.38 -110.98,-217.71 -90,-93.33 -580.63,-250.74 -580.63,-250.74"
           style="fill:#ffffff;fill-opacity:1;fill-rule:nonzero;stroke:none"
           id="path96" /><path
           d="m 2064.58,1567.16 -9.31,18.09 -213.34,-89.98 c 0,0 -213.33,107.51 -282.55,45.85 -69.21,-61.67 -157.45,-28.34 -195.78,29.66 -38.33,58 -78.78,0 -78.78,0 -45.46,-278.67 133.78,-424.66 159.99,-448.14 139.68,47.61 440.28,155.77 508.79,226.81 90,93.33 110.98,217.71 110.98,217.71"
           style="fill:#d5c6e7;fill-opacity:1;fill-rule:nonzero;stroke:none"
           id="path98" /><path
           d="m 1297.87,1940.32 c 0,0 -11.94,-49.73 -73.44,-120.04 -61.49,-70.3 -116.73,-93.58 -116.73,-93.58 0,0 90.04,14.36 140.9,81.08 50.86,66.73 49.27,132.54 49.27,132.54"
           style="fill:#60ccf0;fill-opacity:1;fill-rule:nonzero;stroke:none"
           id="path100" /><path
           d="m 1856.87,2106.12 10.06,-44.17 7.16,-153.75 21.67,-3.89 -18.83,185.14 -20.06,16.67"
           style="fill:#60ccf0;fill-opacity:1;fill-rule:nonzero;stroke:none"
           id="path102" /><path
           d="m 1701.93,1237.78 c -130,-48.33 -293.33,-78.09 -293.33,-78.09 l 36.21,-37.05 c 139.68,47.61 440.28,155.76 508.79,226.81 0,0 -121.67,-63.33 -251.67,-111.67"
           style="fill:#60ccf0;fill-opacity:1;fill-rule:nonzero;stroke:none"
           id="path104" /><path
           d="m 1040.03,1709.45 h 36.07 l 208.72,251.25 v 47.3 c -67.81,-83.02 -168.23,-205.37 -244.79,-298.55"
           style="fill:#60ccf0;fill-opacity:1;fill-rule:nonzero;stroke:none"
           id="path106" /><path
           d="m 1964.66,1361.52 c 80.64,91.62 99.92,205.64 99.92,205.64 l -40.64,78.95 -340.34,-295.18 c 0,0 144.53,-20.35 281.06,10.59"
           style="fill:#d5c6e7;fill-opacity:1;fill-rule:nonzero;stroke:none"
           id="path108" /><path
           d="m 1705.27,2284.45 -21.67,135 361.24,302.5 75.2,6.62 115.23,-149.12 V 2500 l -330,-370.55 h -38.34 l -161.66,155"
           style="fill:#ffffff;fill-opacity:1;fill-rule:nonzero;stroke:none"
           id="path110" /><path
           d="m 2330.27,2582.78 -70,11.67 -118.34,146.67 18.34,68.33 365,196.67 60,-16.67 66.66,-121.67 -8.33,-73.33 -313.33,-211.67"
           style="fill:#ffffff;fill-opacity:1;fill-rule:nonzero;stroke:none"
           id="path112" /><path
           d="m 2608.6,2997.78 53.33,55 317.35,61.4 c 33.8,6.54 64.16,-21.75 60.02,-55.93 -9.36,-77.25 -62.4,-142.18 -136.23,-166.78 l -181.14,-60.35 -50,40 -63.33,126.66"
           style="fill:#ffffff;fill-opacity:1;fill-rule:nonzero;stroke:none"
           id="path114" /><path
           d="m 1631.1,1739.45 567.5,297.5 h 36.67 l 105.83,-205 c 0,0 -8.54,-55.36 -8.54,-52.86 0,2.5 -498.96,-397.14 -498.96,-397.14 l -202.5,357.5"
           style="fill:#ffffff;fill-opacity:1;fill-rule:nonzero;stroke:none"
           id="path116" /><path
           d="m 2266.93,2036.95 v 44.17 c 0,0 288.34,165 365,113.33 76.67,-51.67 33.34,-150 -13.33,-200 -46.67,-50 -215,-173.33 -215,-173.33 l -46.16,26.65 -90.51,189.18"
           style="fill:#ffffff;fill-opacity:1;fill-rule:nonzero;stroke:none"
           id="path118" /><path
           d="m 1833.6,1381.95 c 0,0 498.96,399.64 498.96,397.14 0,-2.5 8.54,52.86 8.54,52.86 l -1.7,3.29 c 7.49,2.8 14.61,6.35 21.16,10.73 l 43.04,-24.85 c 0,0 168.33,123.33 215,173.33 28.84,30.9 56.38,80.27 55.13,125.67 -18.09,-35.26 -53.68,-91.52 -112.63,-134 -92.5,-66.67 -135.42,-88.34 -135.42,-88.34 l -21.29,54.63 -155.79,-107.88 43.33,-37.58 -355,-260 c 0,0 -19.54,48.87 -38.5,81.95 -9.08,15.84 -75.89,-47.97 -134.85,-123.33 l 70.02,-123.62"
           style="fill:#d5c6e7;fill-opacity:1;fill-rule:nonzero;stroke:none"
           id="path120" /><path
           d="m 2336.09,1799.92 -3.53,-20.83 -498.96,-397.14 -10,27.5 512.49,390.47"
           style="fill:#60ccf0;fill-opacity:1;fill-rule:nonzero;stroke:none"
           id="path122" /><path
           d="m 1916.1,1546.95 c 0,-109.85 -89.05,-198.9 -198.9,-198.9 -109.86,0 -198.91,89.05 -198.91,198.9 0,109.85 89.05,198.9 198.91,198.9 109.85,0 198.9,-89.05 198.9,-198.9"
           style="fill:#3a3899;fill-opacity:1;fill-rule:nonzero;stroke:none"
           id="path124" /><path
           d="m 2406.47,1931.72 c 0,-56.92 -46.15,-103.07 -103.07,-103.07 -56.92,0 -103.07,46.15 -103.07,103.07 0,56.92 46.15,103.07 103.07,103.07 56.92,0 103.07,-46.15 103.07,-103.07"
           style="fill:#3a3899;fill-opacity:1;fill-rule:nonzero;stroke:none"
           id="path126" /><path
           d="m 2296.56,2011.33 c 51.05,0 92.44,-41.38 92.44,-92.44 0,-12.97 -2.69,-25.3 -7.51,-36.5 9.04,14.29 14.35,31.17 14.35,49.33 0,51.06 -41.38,92.45 -92.44,92.45 -38.09,0 -70.77,-23.05 -84.93,-55.95 16.38,25.88 45.19,43.11 78.09,43.11"
           style="fill:#60ccf0;fill-opacity:1;fill-rule:nonzero;stroke:none"
           id="path128" /><path
           d="m 1704.97,1696.3 c 95.2,0 172.36,-77.17 172.36,-172.36 0,-24.18 -5.02,-47.17 -14,-68.05 16.86,26.64 26.76,58.12 26.76,91.97 0,95.2 -77.17,172.36 -172.36,172.36 -71.01,0 -131.95,-42.97 -158.35,-104.3 30.55,48.25 84.26,80.38 145.59,80.38"
           style="fill:#60ccf0;fill-opacity:1;fill-rule:nonzero;stroke:none"
           id="path130" /><path
           d="m 1288.98,1472.78 c 0,246.78 200.76,447.54 447.54,447.54 57.09,0 111.66,-10.86 161.91,-30.44 l -1.5,2.9 -2.02,19.87 c -49.49,17.87 -102.81,27.67 -158.39,27.67 -257.81,0 -467.54,-209.74 -467.54,-467.54 0,-141.62 63.37,-268.64 163.16,-354.45 6.88,2.33 14.25,4.84 22.05,7.51 -100.74,82.14 -165.21,207.13 -165.21,346.94"
           style="fill:#d5c6e7;fill-opacity:1;fill-rule:nonzero;stroke:none"
           id="path132" /><path
           d="m 1203.36,1208.77 -412.258,-945.321 18.332,-8 412.256,945.331"
           style="fill:#d5c6e7;fill-opacity:1;fill-rule:nonzero;stroke:none"
           id="path134" /><path
           d="m 1807.47,2186.87 395.48,437.29 -14.83,13.41 -395.48,-437.29"
           style="fill:#d5c6e7;fill-opacity:1;fill-rule:nonzero;stroke:none"
           id="path136" /><path
           d="m 2223.74,2637.51 417.71,250.21 -10.28,17.16 -417.71,-250.21"
           style="fill:#d5c6e7;fill-opacity:1;fill-rule:nonzero;stroke:none"
           id="path138" /><path
           d="m 2659.53,2895.92 370.02,120.29 c 2.62,7.51 4.7,15.25 6.42,23.12 l -385.48,-125.32 9.04,-18.09"
           style="fill:#d5c6e7;fill-opacity:1;fill-rule:nonzero;stroke:none"
           id="path140" /><path
           d="M 1268.98,1159.69 931.102,161.941 1120.27,92.7813 l 236.66,996.6687 -87.95,70.24"
           style="fill:#d5c6e7;fill-opacity:1;fill-rule:nonzero;stroke:none"
           id="path142" /><path
           d="m 2840.27,1806.95 -33.34,72.5 -333.96,-384.18 c 89.58,50.7 367.3,311.68 367.3,311.68"
           style="fill:#ae95d1;fill-opacity:1;fill-rule:nonzero;stroke:none"
           id="path144" /><path
           d="m 2713.69,1902.51 -335.97,-153.14 c 12.15,-38.74 37,-61.82 62.55,-39.92 41.17,35.3 225,165.25 273.42,193.06"
           style="fill:#ae95d1;fill-opacity:1;fill-rule:nonzero;stroke:none"
           id="path146" /><path
           d="m 2673.8,2226.12 48.55,-51.67 32.65,-116.25 -29.73,-72.08 56.66,50.83 -36.49,147.81 -71.64,41.36"
           style="fill:#60ccf0;fill-opacity:1;fill-rule:nonzero;stroke:none"
           id="path148" /><path
           d="m 2330.27,2582.78 313.33,211.67 8.33,73.33 -391.66,-273.33 70,-11.67"
           style="fill:#d5c6e7;fill-opacity:1;fill-rule:nonzero;stroke:none"
           id="path150" /><path
           d="m 2235.27,2500 v 79.45 l -368.34,-450 h 38.34 l 330,370.55"
           style="fill:#d5c6e7;fill-opacity:1;fill-rule:nonzero;stroke:none"
           id="path152" /><path
           d="m 2884.89,2934.45 c -76.29,-27.5 -212.96,-63.33 -212.96,-63.33 l 50,-40 181.14,60.35 c 51.1,17.03 92.21,53.4 115.81,99.78 -0.29,-0.14 -57.88,-29.37 -133.99,-56.8"
           style="fill:#d5c6e7;fill-opacity:1;fill-rule:nonzero;stroke:none"
           id="path154" /><path
           d="m 2840.27,1806.95 -6.52,14.17 L 2622.51,1611 c 105,90 217.76,195.95 217.76,195.95"
           style="fill:#60ccf0;fill-opacity:1;fill-rule:nonzero;stroke:none"
           id="path156" /><path
           d="m 2884.89,1877.08 c 0,16.39 -6.11,31.32 -16.12,42.74 l -7.88,-4.49 c 10.14,-13.34 16.3,-29.87 16.3,-47.93 0,-10.61 -2.12,-20.71 -5.88,-29.97 8.48,10.98 13.58,24.71 13.58,39.65"
           style="fill:#60ccf0;fill-opacity:1;fill-rule:nonzero;stroke:none"
           id="path158" /><path
           d="m 2979.28,3114.18 -317.35,-61.39 370.04,38.34 c -10.61,16.97 -30.91,27.27 -52.69,23.05"
           style="fill:#60ccf0;fill-opacity:1;fill-rule:nonzero;stroke:none"
           id="path160" /><path
           d="m 2141.93,2741.12 29.24,53.33 342.43,178.67 71.67,16.33 -60,16.67 -365,-196.67 -18.34,-68.33"
           style="fill:#60ccf0;fill-opacity:1;fill-rule:nonzero;stroke:none"
           id="path162" /><path
           d="m 1705.27,2284.45 13.33,121.67 330.8,286.66 70.64,35.79 -75.2,-6.62 -361.24,-302.5 21.67,-135"
           style="fill:#60ccf0;fill-opacity:1;fill-rule:nonzero;stroke:none"
           id="path164" /><path
           d="m 1532.57,2290.79 c -45.28,-15.55 -96.9,-35.43 -108.97,-48.84 -22.5,-25 -27.5,-95 -66.67,-145 -7.09,-9.05 -25.6,-31.91 -51.11,-63.2 l 15.94,-53.05 25.59,56.25 c 0,0 79.58,70.83 87.92,116.53 8.33,45.69 21.66,59.3 75,94.3 53.33,35 166.08,8.31 166.08,8.31 0,0 -104.65,48.15 -143.78,34.7"
           style="fill:#60ccf0;fill-opacity:1;fill-rule:nonzero;stroke:none"
           id="path166" /><path
           d="m 1321.76,1986.12 c 0,20.43 -2.14,40.36 -6.17,59.61 -5.2,-6.39 -10.8,-13.25 -16.69,-20.48 1.86,-12.78 2.86,-25.84 2.86,-39.13 0,-144.37 -113.72,-262.66 -256.28,-270.03 -5.69,-6.93 -11.26,-13.7 -16.68,-20.3 l 2.57,-0.07 c 160.13,0 290.39,130.27 290.39,290.4"
           style="fill:#d5c6e7;fill-opacity:1;fill-rule:nonzero;stroke:none"
           id="path168" /><path
           d="m 1356.93,1089.45 -28.88,23.07 -88.24,-516.301 z"
           style="fill:#60ccf0;fill-opacity:1;fill-rule:nonzero;stroke:none"
           id="path170" /><path
           d="m 1414.86,1112.52 -41.89,28.18 -28.48,-18.06 28.48,-23.93 41.89,13.81"
           style="fill:#60ccf0;fill-opacity:1;fill-rule:nonzero;stroke:none"
           id="path172" /><path
           d="m 1633.89,2402.99 5.83,25.64 c -2.86,0.16 -5.72,0.38 -8.62,0.38 -72.73,0 -133.31,-51.87 -146.86,-120.63 25.4,55.82 81.53,94.71 146.86,94.71 0.94,0 1.86,-0.09 2.79,-0.1"
           style="fill:#60ccf0;fill-opacity:1;fill-rule:nonzero;stroke:none"
           id="path174" /><path
           d="m 1017.56,1682.11 h 29.37 l -89.996,-117.66 -13.332,-105 -12.5,117.5 86.458,105.16"
           style="fill:#60ccf0;fill-opacity:1;fill-rule:nonzero;stroke:none"
           id="path176" /><path
           d="M 931.102,1429.53 190.266,432.781 876.934,1472.78 Z"
           style="fill:#60ccf0;fill-opacity:1;fill-rule:nonzero;stroke:none"
           id="path178" /><path
           d="m 2631.93,2194.45 c -76.66,51.67 -365,-113.33 -365,-113.33 v -44.17 c 0,0 11.67,30.83 15.84,36.23 4.16,5.4 120.83,49.6 210.83,89.6 90,40 151.66,21.13 151.67,21.12 -3.98,3.69 -8.4,7.22 -13.34,10.55"
           style="fill:#60ccf0;fill-opacity:1;fill-rule:nonzero;stroke:none"
           id="path180" /><path
           d="m 2241.87,2024.17 v 0 l -6.6,12.78 h -36.67 l -567.5,-297.5 c 49.17,-1.67 564.44,284.72 564.44,284.72 h 46.33"
           style="fill:#60ccf0;fill-opacity:1;fill-rule:nonzero;stroke:none"
           id="path182" /><path
           d="m 2330.27,2582.78 313.33,211.67 2.79,24.6 c -1.76,-0.54 -2.79,-0.85 -2.79,-0.85 l -328.6,-232.87 15.27,-2.55"
           style="fill:#60ccf0;fill-opacity:1;fill-rule:nonzero;stroke:none"
           id="path184" /><path
           d="m 2235.27,2532.23 -0.42,-0.28 -346.25,-402.5 h 16.67 l 330,370.55 v 32.23"
           style="fill:#60ccf0;fill-opacity:1;fill-rule:nonzero;stroke:none"
           id="path186" /><path
           d="m 2903.07,2891.47 c 38.01,12.66 70.45,36.08 94.31,66.31 -1.21,-0.79 -36.13,-23.39 -97.53,-51.86 -38.37,-17.78 -126.16,-46.78 -188.26,-66.53 l 10.34,-8.27 181.14,60.35"
           style="fill:#60ccf0;fill-opacity:1;fill-rule:nonzero;stroke:none"
           id="path188" /><path
           d="m 2148.31,2808.29 c -8.04,3.05 -16.73,4.8 -25.84,4.8 -38.82,0 -70.47,-30.29 -72.84,-68.51 8.47,30.98 36.74,53.77 70.41,53.77 8.09,0 15.84,-1.36 23.11,-3.79 l 5.16,13.73"
           style="fill:#60ccf0;fill-opacity:1;fill-rule:nonzero;stroke:none"
           id="path190" /><path
           d="m 2648.84,3052.23 c -11.55,7.63 -25.36,12.11 -40.24,12.11 -23.93,0 -45.11,-11.56 -58.44,-29.34 12.53,9.55 28.13,15.28 45.11,15.28 14.06,0 27.17,-3.96 38.4,-10.73 4.6,3.79 10.06,8.37 15.17,12.68"
           style="fill:#60ccf0;fill-opacity:1;fill-rule:nonzero;stroke:none"
           id="path192" /><path
           d="m 2618.6,1994.45 c 21.47,23 42.2,56.24 50.9,90.45 l 0.01,0.07 c 0,0 -45.91,-75.52 -100.91,-120.52 -55,-45 -180.4,-134.44 -180.4,-134.44 l 15.4,-8.89 c 0,0 168.33,123.33 215,173.33"
           style="fill:#60ccf0;fill-opacity:1;fill-rule:nonzero;stroke:none"
           id="path194" /><path
           d="m 2724.87,1931.72 c 0,0 -209.28,-148.28 -240.27,-187.77 l 0.01,0.01 c 82.53,61.53 233.92,166.52 240.66,163.82 3.86,-1.54 2.33,10.55 -0.4,23.94"
           style="fill:#60ccf0;fill-opacity:1;fill-rule:nonzero;stroke:none"
           id="path196" /><path
           d="m 1857.83,4462.27 -0.17,-0.66 c -3.93,-15.36 -79.09,-295.17 -277.99,-569.05 -99.42,-136.98 -229.58,-272.41 -396.81,-373.42 -167.29,-101.01 -371.547,-167.97 -621.462,-168.02 -87.593,0 -180.808,8.25 -280,26.26 l -8.929,-49.19 c 101.961,-18.52 198.191,-27.08 288.929,-27.07 263.032,-0.06 479.802,72.09 655.592,180.26 263.8,162.33 435.62,404.46 541.9,605.52 106.25,201.16 147.06,361.76 147.41,363.07 l -48.47,12.3 v 0"
           style="fill:#3a3899;fill-opacity:1;fill-rule:nonzero;stroke:none"
           id="path198" /><path
           d="m 292.734,4321.71 c 0.743,-0.96 157.926,-215.5 394.051,-431 118.113,-107.75 255.973,-215.8 404.635,-297.41 148.63,-81.53 308.4,-136.94 470.26,-137.01 69.51,-0.01 139.31,10.31 208.14,33.19 142.84,47.44 254.21,116.57 340.17,196.52 129.02,119.96 200.54,263.58 239.67,393.54 39.15,130.05 46.25,246.78 46.27,315.45 v 0 c 0,39.69 -2.4,63.33 -2.49,64.19 l -59.68,-6.13 5.49,0.56 -5.49,-0.55 v -0.01 l 5.49,0.56 -5.49,-0.55 c 0.05,-0.52 2.17,-21.96 2.17,-58.07 0.07,-86.02 -12.23,-255.03 -91.42,-423.03 -39.57,-84.06 -95.69,-167.92 -175.38,-242.02 -79.72,-74.07 -183.05,-138.57 -318.23,-183.52 -62.44,-20.75 -125.62,-30.12 -189.22,-30.13 -147.87,-0.07 -298.55,51.16 -441.39,129.6 -214.263,117.51 -409.849,295.62 -551.102,444.29 -70.665,74.32 -127.817,141.25 -167.231,189.51 -19.707,24.13 -34.98,43.6 -45.293,56.98 -5.156,6.69 -9.07,11.87 -11.684,15.35 -1.304,1.73 -2.285,3.05 -2.929,3.92 l -0.715,0.96 -0.207,0.28 -48.395,-35.47 v 0"
           style="fill:#3a3899;fill-opacity:1;fill-rule:nonzero;stroke:none"
           id="path200" /><path
           d="m 7187.19,2024.62 10.48,-1.38 -10.48,1.41 v -0.03 l 10.48,-1.38 -10.48,1.41 c -0.14,-1.22 -41.92,-308.59 -324.2,-646.91 C 6721.8,1208.52 6520.48,1031.27 6233.19,880.02 5945.9,728.781 5572.52,603.539 5087.23,539.191 l 7.89,-59.48 c 493.26,65.398 874.8,193.328 1169.48,349.039 442.07,233.5 688.13,529.57 822.87,767.55 134.82,238.01 158.82,417.7 159.21,420.48 l -59.49,7.84"
           style="fill:#475ab2;fill-opacity:1;fill-rule:nonzero;stroke:none"
           id="path202" /><path
           d="m 4548.4,495.07 0.16,0.149 c 4.59,4.383 99.03,93.191 282.01,184.39 183,91.2 454.46,184.86 813.83,199.18 336.33,13.43 659.43,12.813 935.8,61.422 138.19,24.348 264.82,61.059 375.44,118.599 110.6,57.51 205.12,136.1 277.83,243.1 l -33.08,22.49 C 7131.57,1223.25 7042.87,1149.33 6937.18,1094.3 6778.74,1011.78 6581.75,972.488 6360.94,951.82 6140.16,931.09 5895.81,928.82 5642.8,918.762 5271.46,903.98 4991.26,805.742 4803.87,710.961 4616.45,616.18 4521.74,524.922 4520.61,523.84 l 27.79,-28.77"
           style="fill:#475ab2;fill-opacity:1;fill-rule:nonzero;stroke:none"
           id="path204" /></g></g><g
       id="g206"
       transform="scale(0.1)"><g
         id="g208"
         clip-path="url(#clipPath212)"><path
           d="m 3034.97,2631.12 c -147.11,0 -276.17,77.32 -348.73,193.55 l 28.38,12.3 7.31,-5.85 66.11,22.02 c 56.8,-74.18 146.28,-122.02 246.93,-122.02 171.67,0 310.84,139.16 310.84,310.83 0,171.67 -139.17,310.83 -310.84,310.83 -163.92,0 -298.21,-126.88 -309.99,-287.8 l -63.05,-12.19 h 0.02 l -0.02,-0.01 -5.82,-6 c -8.89,7.62 -19.63,13.14 -31.46,15.79 10.73,217.32 190.34,390.21 410.32,390.21 226.9,0 410.84,-183.93 410.84,-410.83 0,-226.9 -183.94,-410.83 -410.84,-410.83"
           style="fill:url(#linearGradient218);fill-opacity:1;fill-rule:nonzero;stroke:none"
           id="path220" /></g></g><path
       d="m 262.427,303.167 c -0.009,0.342 -0.013,0.685 -0.013,1.028 0,0.082 0,0.164 0.001,0.246 0.33,-0.14 0.648,-0.303 0.952,-0.486 0.46,0.379 1.006,0.837 1.517,1.268 -0.727,0.48 -1.543,0.835 -2.419,1.033 v 0.001 c 1.183,-0.265 2.257,-0.817 3.146,-1.579 l -0.418,-0.431 v 0 l -2.766,-1.08"
       style="fill:#4143a1;fill-opacity:1;fill-rule:nonzero;stroke:none;stroke-width:0.1"
       id="path222" /><path
       d="m 268.624,282.467 c -2.243,3.592 -3.946,7.554 -4.996,11.776 l 3.565,-7.131 v 0 l 4.268,-3.415 -2.837,-1.23 m -6.121,19.005 c -0.037,0.563 -0.062,1.127 -0.076,1.695 l 2.766,1.08 -2.69,-2.775"
       style="fill:#4143a1;fill-opacity:1;fill-rule:nonzero;stroke:none;stroke-width:0.1"
       id="path224" /><path
       d="m 267.193,287.112 v 0 l -3.565,7.131 c -0.582,2.336 -0.963,4.754 -1.125,7.229 l 2.69,2.775 0.418,0.431 0.582,0.6 0.002,10e-4 6.266,0.649 c -0.031,-0.574 -0.047,-1.151 -0.047,-1.733 0,-3.453 0.563,-6.775 1.603,-9.878 l -8.968,-2.916 0.904,-1.809 8.761,2.848 c 0.403,-0.987 0.856,-1.949 1.355,-2.882 -4.878,-1.398 -8.876,-2.446 -8.876,-2.446"
       style="fill:#d7f2f9;fill-opacity:1;fill-rule:nonzero;stroke:none;stroke-width:0.1"
       id="path226" /><path
       d="m 265.953,289.592 -0.904,1.809 8.968,2.916 c 0.212,-0.635 0.445,-1.261 0.697,-1.877 l -8.761,-2.848"
       style="fill:#b6cbec;fill-opacity:1;fill-rule:nonzero;stroke:none;stroke-width:0.1"
       id="path228" /><path
       d="m 272.193,283.112 -0.732,0.585 -4.268,3.415 v 0 c 0,0 3.998,1.048 8.876,2.446 0.621,-1.162 1.314,-2.279 2.072,-3.346 -2.427,-0.811 -4.855,-1.596 -6.982,-2.273 l 1.034,-0.827"
       style="fill:#b6cbec;fill-opacity:1;fill-rule:nonzero;stroke:none;stroke-width:0.1"
       id="path230" /><path
       d="m 266.193,305.279 6.305,1.219 c -0.014,-0.189 -0.026,-0.38 -0.037,-0.57 l -6.266,-0.649 h -0.002"
       style="fill:#60ccf0;fill-opacity:1;fill-rule:nonzero;stroke:none;stroke-width:0.1"
       id="path232" /><path
       d="m 272.193,283.112 v 0 l -1.034,0.827 c 2.127,0.677 4.555,1.462 6.982,2.273 0.216,-0.304 0.437,-0.603 0.663,-0.898 l -6.611,-2.202"
       style="fill:#60ccf0;fill-opacity:1;fill-rule:nonzero;stroke:none;stroke-width:0.1"
       id="path234" /><path
       d="m 263.367,303.955 c -0.304,0.183 -0.622,0.346 -0.952,0.486 0.003,0.608 0.02,1.213 0.05,1.815 0.876,-0.198 1.692,-0.553 2.419,-1.033 -0.511,-0.431 -1.057,-0.889 -1.517,-1.268"
       style="fill:#60ccf0;fill-opacity:1;fill-rule:nonzero;stroke:none;stroke-width:0.1"
       id="path236" /><g
       id="g238"
       transform="scale(0.1)"><g
         id="g240"
         clip-path="url(#clipPath244)"><path
           d="m 3034.97,2731.12 c -100.65,0 -190.13,47.84 -246.93,122.02 l 103.34,34.43 c 37.64,-35.03 88.12,-56.45 143.59,-56.45 116.44,0 210.84,94.39 210.84,210.83 0,116.44 -94.4,210.83 -210.84,210.83 -101.68,0 -186.54,-71.98 -206.43,-167.76 l -103.56,-20.04 c 11.78,160.92 146.07,287.8 309.99,287.8 171.67,0 310.84,-139.16 310.84,-310.83 0,-171.67 -139.17,-310.83 -310.84,-310.83"
           style="fill:url(#linearGradient250);fill-opacity:1;fill-rule:nonzero;stroke:none"
           id="path252" /></g></g><path
       d="m 276.069,289.558 c -0.499,0.933 -0.952,1.895 -1.355,2.882 l 9.55,3.105 c 0.471,-1.044 1.023,-2.042 1.65,-2.987 -3.076,-1.019 -6.649,-2.085 -9.845,-3 m -2.052,4.759 c -1.04,3.103 -1.603,6.425 -1.603,9.878 0,0.582 0.016,1.159 0.047,1.733 l 10.135,1.05 c -0.12,-0.911 -0.182,-1.839 -0.182,-2.783 0,-2.374 0.393,-4.657 1.116,-6.786 l -9.513,-3.092"
       style="fill:#bbe9f6;fill-opacity:1;fill-rule:nonzero;stroke:none;stroke-width:0.1"
       id="path254" /><path
       d="m 274.714,292.44 c -0.252,0.616 -0.485,1.242 -0.697,1.877 l 9.513,3.092 c 0.216,-0.636 0.461,-1.257 0.734,-1.864 l -9.55,-3.105"
       style="fill:#a1d0f1;fill-opacity:1;fill-rule:nonzero;stroke:none;stroke-width:0.1"
       id="path256" /><path
       d="m 278.141,286.212 c -0.758,1.067 -1.451,2.184 -2.072,3.346 3.196,0.915 6.769,1.981 9.845,3 0.653,-0.985 1.387,-1.913 2.192,-2.772 -2.626,-1.062 -6.295,-2.348 -9.965,-3.574"
       style="fill:#a1d0f1;fill-opacity:1;fill-rule:nonzero;stroke:none;stroke-width:0.1"
       id="path258" /><path
       d="m 272.461,305.928 c 0.011,0.19 0.023,0.381 0.037,0.57 l 10.356,2.004 c -0.104,-0.501 -0.19,-1.01 -0.258,-1.524 l -10.135,-1.05"
       style="fill:#60ccf0;fill-opacity:1;fill-rule:nonzero;stroke:none;stroke-width:0.1"
       id="path260" /><path
       d="m 278.804,285.314 c -0.226,0.295 -0.447,0.594 -0.663,0.898 3.67,1.226 7.339,2.512 9.965,3.574 0.332,-0.355 0.676,-0.697 1.032,-1.029 l -10.334,-3.443"
       style="fill:#60ccf0;fill-opacity:1;fill-rule:nonzero;stroke:none;stroke-width:0.1"
       id="path262" /><g
       id="g264"
       transform="scale(0.1)"><g
         id="g266"
         clip-path="url(#clipPath270)"><path
           d="m 3034.97,2831.12 c -55.47,0 -105.95,21.42 -143.59,56.45 l 11.69,3.9 c 0.18,0.06 0.36,0.12 0.54,0.18 0.06,0.02 0.11,0.04 0.16,0.05 0.13,0.05 0.26,0.09 0.39,0.13 0.06,0.02 0.12,0.04 0.18,0.07 0.16,0.05 0.32,0.11 0.48,0.16 0.06,0.02 0.11,0.04 0.17,0.06 0.12,0.04 0.24,0.08 0.37,0.13 0.08,0.03 0.18,0.06 0.26,0.09 0.08,0.03 0.16,0.05 0.24,0.08 0.1,0.04 0.21,0.07 0.31,0.11 0.03,0.01 0.05,0.02 0.08,0.03 2.37,0.83 4.72,1.71 7.05,2.63 0.02,0 0.04,0.01 0.06,0.02 0.24,0.09 0.47,0.19 0.71,0.28 0.03,0.02 0.07,0.03 0.1,0.04 0.1,0.04 0.2,0.08 0.3,0.12 0.08,0.03 0.15,0.06 0.22,0.09 0.08,0.03 0.17,0.07 0.26,0.1 0.15,0.07 0.32,0.13 0.47,0.2 0.04,0.01 0.07,0.02 0.11,0.04 0.14,0.06 0.29,0.12 0.43,0.18 0.04,0.01 0.08,0.03 0.12,0.05 67,27.56 114.42,89.31 123.22,161.94 3.74,30.83 -20.61,56.88 -50.23,56.88 -2.06,0 -4.15,-0.13 -6.25,-0.39 -1.18,-0.14 -2.36,-0.33 -3.54,-0.56 l -150.74,-29.16 c 19.89,95.78 104.75,167.76 206.43,167.76 116.44,0 210.84,-94.39 210.84,-210.83 0,-116.44 -94.4,-210.83 -210.84,-210.83"
           style="fill:url(#linearGradient276);fill-opacity:1;fill-rule:nonzero;stroke:none"
           id="path278" /></g></g><path
       d="m 291.33,289.519 c 0.002,0 0.004,10e-4 0.006,0.002 -0.002,-0.001 -0.004,-0.002 -0.006,-0.002 m 0.077,0.03 c 0.003,0.002 0.007,0.003 0.01,0.004 -0.003,-10e-4 -0.007,-0.002 -0.01,-0.004 m 0.04,0.016 c 0.007,0.003 0.015,0.006 0.022,0.009 -0.007,-0.003 -0.014,-0.006 -0.022,-0.009 m 0.048,0.019 c 0.016,0.007 0.031,0.013 0.047,0.02 -0.015,-0.007 -0.032,-0.013 -0.047,-0.02 m 0.058,0.024 c 0.015,0.006 0.029,0.012 0.043,0.018 -0.014,-0.006 -0.029,-0.012 -0.043,-0.018 m 0.055,0.023 c 4.506,1.854 8.124,5.256 10.28,9.494 -0.029,-0.014 -5.788,-2.937 -13.399,-5.68 -0.799,-0.288 -1.666,-0.586 -2.575,-0.887 -0.627,0.945 -1.179,1.943 -1.65,2.987 l 18.691,6.076 c 0.262,0.751 0.47,1.525 0.642,2.312 l -20.067,-6.524 c -0.723,2.129 -1.116,4.412 -1.116,6.786 0,0.944 0.062,1.872 0.182,2.783 l 20.601,2.135 c -0.9,1.44 -2.498,2.4 -4.293,2.4 -0.205,0 -0.412,-0.013 -0.622,-0.039 0.21,0.026 0.419,0.039 0.625,0.039 2.962,0 5.397,-2.605 5.023,-5.688 -0.88,-7.263 -5.622,-13.438 -12.322,-16.194"
       style="fill:#a6e2f5;fill-opacity:1;fill-rule:nonzero;stroke:none;stroke-width:0.1"
       id="path280" /><path
       d="m 284.264,295.545 c -0.273,0.607 -0.518,1.228 -0.734,1.864 l 20.067,6.524 c -0.172,-0.787 -0.38,-1.561 -0.642,-2.312 l -18.691,-6.076"
       style="fill:#91d4f4;fill-opacity:1;fill-rule:nonzero;stroke:none;stroke-width:0.1"
       id="path282" /><path
       d="m 290.361,289.165 c 0.006,0.002 0.011,0.004 0.016,0.005 -0.005,-0.001 -0.01,-0.003 -0.016,-0.005 m 0.055,0.018 c 0.006,0.003 0.012,0.004 0.018,0.007 -0.006,-0.003 -0.012,-0.005 -0.018,-0.007 m 0.066,0.023 c 0.006,0.002 0.012,0.004 0.017,0.006 -0.006,-0.002 -0.011,-0.004 -0.017,-0.006 m 0.054,0.019 c 0.009,0.003 0.017,0.006 0.026,0.009 -0.008,-0.003 -0.018,-0.006 -0.026,-0.009 m 0.05,0.017 c 0.01,0.004 0.021,0.007 0.031,0.011 -0.01,-0.004 -0.021,-0.007 -0.031,-0.011 m 0.039,0.014 c 3.664,1.289 6.793,3.583 9.113,6.522 -0.121,-0.079 -3.613,-2.339 -9.753,-5.186 -0.537,-0.248 -1.17,-0.519 -1.879,-0.806 -0.805,0.859 -1.539,1.787 -2.192,2.772 0.909,0.301 1.776,0.599 2.575,0.887 7.611,2.743 13.37,5.666 13.399,5.68 -2.156,-4.238 -5.774,-7.64 -10.28,-9.494 -0.004,-0.002 -0.008,-0.004 -0.012,-0.005 -0.014,-0.006 -0.028,-0.012 -0.043,-0.018 -0.004,-0.002 -0.007,-0.003 -0.011,-0.004 -0.016,-0.007 -0.031,-0.013 -0.047,-0.02 -0.009,-0.003 -0.018,-0.007 -0.026,-0.01 -0.007,-0.003 -0.015,-0.006 -0.022,-0.009 -0.01,-0.004 -0.02,-0.008 -0.03,-0.012 -0.003,-10e-4 -0.007,-0.002 -0.01,-0.004 -0.024,-0.009 -0.047,-0.019 -0.071,-0.028 -0.002,-0.001 -0.004,-0.002 -0.006,-0.002 -0.233,-0.092 -0.468,-0.18 -0.705,-0.263"
       style="fill:#91d4f4;fill-opacity:1;fill-rule:nonzero;stroke:none;stroke-width:0.1"
       id="path284" /><path
       d="m 282.596,306.978 c 0.068,0.514 0.154,1.023 0.258,1.524 l 15.074,2.916 c 0.118,0.023 0.236,0.042 0.354,0.056 0.21,0.026 0.417,0.039 0.622,0.039 1.795,0 3.393,-0.96 4.293,-2.4 l -20.601,-2.135"
       style="fill:#60ccf0;fill-opacity:1;fill-rule:nonzero;stroke:none;stroke-width:0.1"
       id="path286" /><path
       d="m 289.138,288.757 c -0.356,0.332 -0.7,0.674 -1.032,1.029 0.709,0.287 1.342,0.558 1.879,0.806 6.14,2.847 9.632,5.107 9.753,5.186 -2.32,-2.939 -5.449,-5.233 -9.113,-6.522 -0.003,-10e-4 -0.005,-0.002 -0.008,-0.003 -0.01,-0.004 -0.021,-0.007 -0.031,-0.011 -0.008,-0.003 -0.016,-0.005 -0.024,-0.008 -0.009,-0.003 -0.017,-0.006 -0.026,-0.009 -0.013,-0.005 -0.025,-0.009 -0.037,-0.013 -0.005,-0.002 -0.011,-0.004 -0.017,-0.006 -0.016,-0.005 -0.032,-0.011 -0.048,-0.016 -0.006,-0.003 -0.012,-0.004 -0.018,-0.007 -0.013,-0.004 -0.026,-0.008 -0.039,-0.013 -0.005,-0.001 -0.01,-0.003 -0.016,-0.005 -0.018,-0.006 -0.036,-0.012 -0.054,-0.018 l -1.169,-0.39"
       style="fill:#60ccf0;fill-opacity:1;fill-rule:nonzero;stroke:none;stroke-width:0.1"
       id="path288" /><path
       d="m 255.058,338.938 -44.588,31.197 c -0.452,0.317 -1.076,0.207 -1.392,-0.246 -0.317,-0.453 -0.207,-1.076 0.246,-1.393 l 44.587,-31.197 c 0.453,-0.316 1.076,-0.206 1.393,0.246 0.316,0.453 0.206,1.076 -0.246,1.393"
       style="fill:#ffffff;fill-opacity:1;fill-rule:nonzero;stroke:none;stroke-width:0.1"
       id="path332" /><path
       d="m 228.277,300.126 h -80.141 c -0.552,0 -1,-0.447 -1,-1 0,-0.552 0.448,-1 1,-1 h 80.141 c 0.552,0 1,0.448 1,1 0,0.553 -0.448,1 -1,1"
       style="fill:#ffffff;fill-opacity:1;fill-rule:nonzero;stroke:none;stroke-width:0.1"
       id="path334" /><path
       d="m 356.86,299.612 h 49.5 c 0.552,0 1,0.447 1,1 0,0.552 -0.448,1 -1,1 h -49.5 c -0.552,0 -1,-0.448 -1,-1 0,-0.553 0.448,-1 1,-1"
       style="fill:#ffffff;fill-opacity:1;fill-rule:nonzero;stroke:none;stroke-width:0.1"
       id="path336" /><path
       d="m 349.442,272.894 45.86,-30.823 c 0.458,-0.308 1.08,-0.186 1.388,0.272 0.308,0.458 0.186,1.08 -0.272,1.388 l -45.86,30.823 c -0.459,0.308 -1.08,0.186 -1.388,-0.273 -0.308,-0.458 -0.186,-1.079 0.272,-1.387"
       style="fill:#ffffff;fill-opacity:1;fill-rule:nonzero;stroke:none;stroke-width:0.1"
       id="path338" /><path
       d="m 354.999,356.545 h -29.252 v 3.25 h 29.252 v -3.25"
       style="fill:#ffffff;fill-opacity:1;fill-rule:nonzero;stroke:none;stroke-width:0.1"
       id="path340" /><path
       d="m 335.435,348.545 h -9.688 v 3.25 h 9.688 v -3.25"
       style="fill:#ffffff;fill-opacity:1;fill-rule:nonzero;stroke:none;stroke-width:0.1"
       id="path342" /><path
       d="m 432.669,198.82 h -29.251 v 3.25 h 29.251 v -3.25"
       style="fill:#ffffff;fill-opacity:1;fill-rule:nonzero;stroke:none;stroke-width:0.1"
       id="path344" /><path
       d="m 423.7,309.445 v -10.001 h -9.82 v 10.001 h 9.82"
       style="fill:#f24eaf;fill-opacity:1;fill-rule:nonzero;stroke:none;stroke-width:0.1"
       id="path346" /><path
       d="m 438.575,315.695 v -16.251 h -9.82 v 16.251 h 9.82"
       style="fill:#60ccf0;fill-opacity:1;fill-rule:nonzero;stroke:none;stroke-width:0.1"
       id="path348" /><path
       d="m 453.45,319.445 v -20.001 h -9.82 v 20.001 h 9.82"
       style="fill:#2c90d6;fill-opacity:1;fill-rule:nonzero;stroke:none;stroke-width:0.1"
       id="path350" /><path
       d="m 413.106,190.82 h -9.688 v 3.25 h 9.688 v -3.25"
       style="fill:#ffffff;fill-opacity:1;fill-rule:nonzero;stroke:none;stroke-width:0.1"
       id="path352" /><path
       d="m 423.634,287.967 h -9.688 v 3.25 h 9.688 v -3.25"
       style="fill:#ffffff;fill-opacity:1;fill-rule:nonzero;stroke:none;stroke-width:0.1"
       id="path354" /><path
       d="m 202.832,356.092 h -29.251 v 3.25 h 29.251 v -3.25"
       style="fill:#ffffff;fill-opacity:1;fill-rule:nonzero;stroke:none;stroke-width:0.1"
       id="path356" /><path
       d="m 202.832,348.092 h -9.688 v 3.25 h 9.688 v -3.25"
       style="fill:#ffffff;fill-opacity:1;fill-rule:nonzero;stroke:none;stroke-width:0.1"
       id="path358" /><path
       d="m 100.073,271.444 h 29.251 v 3.25 h -29.251 v -3.25"
       style="fill:#ffffff;fill-opacity:1;fill-rule:nonzero;stroke:none;stroke-width:0.1"
       id="path360" /><path
       d="m 100.073,263.444 h 9.688 v 3.25 h -9.688 v -3.25"
       style="fill:#ffffff;fill-opacity:1;fill-rule:nonzero;stroke:none;stroke-width:0.1"
       id="path362" /><path
       d="m 154.474,373.318 c -3.97,0 -7.188,3.218 -7.188,7.187 0,3.97 3.218,7.188 7.188,7.188 3.969,0 7.187,-3.218 7.187,-7.188 0,-3.969 -3.218,-7.187 -7.187,-7.187 z m 0,21.625 c -7.974,0 -14.438,-6.464 -14.438,-14.438 0,-7.973 6.464,-14.437 14.438,-14.437 7.973,0 14.437,6.464 14.437,14.437 0,7.974 -6.464,14.438 -14.437,14.438"
       style="fill:#475ab2;fill-opacity:1;fill-rule:nonzero;stroke:none;stroke-width:0.1"
       id="path364" /><path
       d="m 190.474,373.318 c -3.97,0 -7.188,3.218 -7.188,7.187 0,3.97 3.218,7.188 7.188,7.188 3.969,0 7.187,-3.218 7.187,-7.188 0,-3.969 -3.218,-7.187 -7.187,-7.187 z m 0,21.625 c -7.974,0 -14.438,-6.464 -14.438,-14.438 0,-7.973 6.464,-14.437 14.438,-14.437 7.973,0 14.437,6.464 14.437,14.437 0,7.974 -6.464,14.438 -14.437,14.438"
       style="fill:#475ab2;fill-opacity:1;fill-rule:nonzero;stroke:none;stroke-width:0.1"
       id="path366" /><path
       d="m 154.474,394.943 v -7.25 c 3.969,0 7.187,-3.218 7.187,-7.188 h 7.25 c 0,7.974 -6.464,14.438 -14.437,14.438"
       style="fill:#f24eaf;fill-opacity:1;fill-rule:nonzero;stroke:none;stroke-width:0.1"
       id="path368" /><path
       d="m 197.661,380.505 c 0,-3.969 -3.218,-7.187 -7.187,-7.187 -1.985,0 -3.782,0.804 -5.083,2.105 l -5.126,-5.126 c 2.613,-2.613 6.222,-4.229 10.209,-4.229 7.973,0 14.437,6.464 14.437,14.437 0,7.974 -6.464,14.438 -14.437,14.438 v -7.25 c 3.969,0 7.187,-3.218 7.187,-7.188"
       style="fill:#60ccf0;fill-opacity:1;fill-rule:nonzero;stroke:none;stroke-width:0.1"
       id="path370" /><path
       d="m 128.224,285.732 h -21.658 c -1.416,0 -2.563,1.148 -2.563,2.564 v 21.658 c 0,1.416 1.147,2.564 2.563,2.564 h 21.658 c 1.416,0 2.564,-1.148 2.564,-2.564 v -21.658 c 0,-1.416 -1.148,-2.564 -2.564,-2.564"
       style="fill:#3a3899;fill-opacity:1;fill-rule:nonzero;stroke:none;stroke-width:0.1"
       id="path372" /><path
       d="m 125.088,289.912 h -15.385 c -0.84,0 -1.521,0.681 -1.521,1.521 v 15.385 c 0,0.84 0.681,1.521 1.521,1.521 h 15.385 c 0.84,0 1.521,-0.681 1.521,-1.521 v -15.385 c 0,-0.84 -0.681,-1.521 -1.521,-1.521"
       style="fill:#d5c6e7;fill-opacity:1;fill-rule:nonzero;stroke:none;stroke-width:0.1"
       id="path374" /><path
       d="m 109.304,310.229 v 0 c -0.624,0 -1.13,0.507 -1.13,1.131 v 3.814 c 0,0.624 0.506,1.13 1.13,1.13 0.624,0 1.13,-0.506 1.13,-1.13 v -3.814 c 0,-0.624 -0.506,-1.131 -1.13,-1.131"
       style="fill:#fab897;fill-opacity:1;fill-rule:nonzero;stroke:none;stroke-width:0.1"
       id="path376" /><path
       d="m 114.698,310.229 v 0 c -0.624,0 -1.13,0.507 -1.13,1.131 v 3.814 c 0,0.624 0.506,1.13 1.13,1.13 0.624,0 1.13,-0.506 1.13,-1.13 v -3.814 c 0,-0.624 -0.506,-1.131 -1.13,-1.131"
       style="fill:#fab897;fill-opacity:1;fill-rule:nonzero;stroke:none;stroke-width:0.1"
       id="path378" /><path
       d="m 120.092,310.229 v 0 c -0.624,0 -1.13,0.507 -1.13,1.131 v 3.814 c 0,0.624 0.506,1.13 1.13,1.13 0.625,0 1.131,-0.506 1.131,-1.13 v -3.814 c 0,-0.624 -0.506,-1.131 -1.131,-1.131"
       style="fill:#fab897;fill-opacity:1;fill-rule:nonzero;stroke:none;stroke-width:0.1"
       id="path380" /><path
       d="m 125.487,310.229 v 0 c -0.625,0 -1.131,0.507 -1.131,1.131 v 3.814 c 0,0.624 0.506,1.13 1.131,1.13 0.624,0 1.13,-0.506 1.13,-1.13 v -3.814 c 0,-0.624 -0.506,-1.131 -1.13,-1.131"
       style="fill:#fab897;fill-opacity:1;fill-rule:nonzero;stroke:none;stroke-width:0.1"
       id="path382" /><path
       d="m 109.304,281.946 v 0 c -0.624,0 -1.13,0.506 -1.13,1.131 v 3.814 c 0,0.624 0.506,1.13 1.13,1.13 0.624,0 1.13,-0.506 1.13,-1.13 v -3.814 c 0,-0.625 -0.506,-1.131 -1.13,-1.131"
       style="fill:#fab897;fill-opacity:1;fill-rule:nonzero;stroke:none;stroke-width:0.1"
       id="path384" /><path
       d="m 114.698,281.946 v 0 c -0.624,0 -1.13,0.506 -1.13,1.131 v 3.814 c 0,0.624 0.506,1.13 1.13,1.13 0.624,0 1.13,-0.506 1.13,-1.13 v -3.814 c 0,-0.625 -0.506,-1.131 -1.13,-1.131"
       style="fill:#fab897;fill-opacity:1;fill-rule:nonzero;stroke:none;stroke-width:0.1"
       id="path386" /><path
       d="m 120.092,281.946 v 0 c -0.624,0 -1.13,0.506 -1.13,1.131 v 3.814 c 0,0.624 0.506,1.13 1.13,1.13 0.625,0 1.131,-0.506 1.131,-1.13 v -3.814 c 0,-0.625 -0.506,-1.131 -1.131,-1.131"
       style="fill:#fab897;fill-opacity:1;fill-rule:nonzero;stroke:none;stroke-width:0.1"
       id="path388" /><path
       d="m 125.487,281.946 v 0 c -0.625,0 -1.131,0.506 -1.131,1.131 v 3.814 c 0,0.624 0.506,1.13 1.131,1.13 0.624,0 1.13,-0.506 1.13,-1.13 v -3.814 c 0,-0.625 -0.506,-1.131 -1.13,-1.131"
       style="fill:#fab897;fill-opacity:1;fill-rule:nonzero;stroke:none;stroke-width:0.1"
       id="path390" /><path
       d="m 128.5,307.216 v 0 c 0,0.625 0.506,1.131 1.13,1.131 h 3.814 c 0.624,0 1.13,-0.506 1.13,-1.131 0,-0.624 -0.506,-1.13 -1.13,-1.13 h -3.814 c -0.624,0 -1.13,0.506 -1.13,1.13"
       style="fill:#fab897;fill-opacity:1;fill-rule:nonzero;stroke:none;stroke-width:0.1"
       id="path392" /><path
       d="m 128.5,301.822 v 0 c 0,0.625 0.506,1.131 1.13,1.131 h 3.814 c 0.624,0 1.13,-0.506 1.13,-1.131 0,-0.624 -0.506,-1.13 -1.13,-1.13 h -3.814 c -0.624,0 -1.13,0.506 -1.13,1.13"
       style="fill:#fab897;fill-opacity:1;fill-rule:nonzero;stroke:none;stroke-width:0.1"
       id="path394" /><path
       d="m 128.5,296.428 v 0 c 0,0.624 0.506,1.13 1.13,1.13 h 3.814 c 0.624,0 1.13,-0.506 1.13,-1.13 0,-0.624 -0.506,-1.13 -1.13,-1.13 h -3.814 c -0.624,0 -1.13,0.506 -1.13,1.13"
       style="fill:#fab897;fill-opacity:1;fill-rule:nonzero;stroke:none;stroke-width:0.1"
       id="path396" /><path
       d="m 128.5,291.034 v 0 c 0,0.624 0.506,1.13 1.13,1.13 h 3.814 c 0.624,0 1.13,-0.506 1.13,-1.13 0,-0.624 -0.506,-1.13 -1.13,-1.13 h -3.814 c -0.624,0 -1.13,0.506 -1.13,1.13"
       style="fill:#fab897;fill-opacity:1;fill-rule:nonzero;stroke:none;stroke-width:0.1"
       id="path398" /><path
       d="m 100.216,307.216 v 0 c 0,0.625 0.506,1.131 1.131,1.131 h 3.814 c 0.624,0 1.13,-0.506 1.13,-1.131 0,-0.624 -0.506,-1.13 -1.13,-1.13 h -3.814 c -0.625,0 -1.131,0.506 -1.131,1.13"
       style="fill:#fab897;fill-opacity:1;fill-rule:nonzero;stroke:none;stroke-width:0.1"
       id="path400" /><path
       d="m 100.216,301.822 v 0 c 0,0.625 0.506,1.131 1.131,1.131 h 3.814 c 0.624,0 1.13,-0.506 1.13,-1.131 0,-0.624 -0.506,-1.13 -1.13,-1.13 h -3.814 c -0.625,0 -1.131,0.506 -1.131,1.13"
       style="fill:#fab897;fill-opacity:1;fill-rule:nonzero;stroke:none;stroke-width:0.1"
       id="path402" /><path
       d="m 100.216,296.428 v 0 c 0,0.624 0.506,1.13 1.131,1.13 h 3.814 c 0.624,0 1.13,-0.506 1.13,-1.13 0,-0.624 -0.506,-1.13 -1.13,-1.13 h -3.814 c -0.625,0 -1.131,0.506 -1.131,1.13"
       style="fill:#fab897;fill-opacity:1;fill-rule:nonzero;stroke:none;stroke-width:0.1"
       id="path404" /><path
       d="m 100.216,291.034 v 0 c 0,0.624 0.506,1.13 1.131,1.13 h 3.814 c 0.624,0 1.13,-0.506 1.13,-1.13 0,-0.624 -0.506,-1.13 -1.13,-1.13 h -3.814 c -0.625,0 -1.131,0.506 -1.131,1.13"
       style="fill:#fab897;fill-opacity:1;fill-rule:nonzero;stroke:none;stroke-width:0.1"
       id="path406" /><path
       d="m 71.6988,233.941 5.6614,9.806 5.6613,-9.806 z"
       style="fill:#ffffff;fill-opacity:1;fill-rule:nonzero;stroke:none;stroke-width:0.1"
       id="path408" /><path
       d="m 359.337,159.708 5.662,9.805 5.661,-9.805 z"
       style="fill:#ffffff;fill-opacity:1;fill-rule:nonzero;stroke:none;stroke-width:0.1"
       id="path410" /><path
       d="m 100.63,348.814 5.661,9.806 5.661,-9.806 z"
       style="fill:#ffffff;fill-opacity:1;fill-rule:nonzero;stroke:none;stroke-width:0.1"
       id="path414" /><path
       d="m 71.6988,224.136 5.6614,9.805 5.6613,-9.805 z"
       style="fill:#60ccf0;fill-opacity:1;fill-rule:nonzero;stroke:none;stroke-width:0.1"
       id="path416" /><path
       d="m 303.968,394.943 5.661,9.805 5.662,-9.805 z"
       style="fill:#ffffff;fill-opacity:1;fill-rule:nonzero;stroke:none;stroke-width:0.1"
       id="path418" /><path
       d="m 303.968,385.137 5.661,9.806 5.662,-9.806 z"
       style="fill:#60ccf0;fill-opacity:1;fill-rule:nonzero;stroke:none;stroke-width:0.1"
       id="path420" /><path
       d="m 424.048,241.808 h -5.259 c -0.526,0 -0.981,-0.367 -1.092,-0.881 l -1.123,-5.19 h 9.688 l -1.122,5.19 c -0.111,0.514 -0.566,0.881 -1.092,0.881"
       style="fill:#3a3899;fill-opacity:1;fill-rule:nonzero;stroke:none;stroke-width:0.1"
       id="path422" /><path
       d="m 409.139,236.237 -2.629,-4.555 c -0.263,-0.455 -0.173,-1.032 0.217,-1.386 l 3.934,-3.567 4.844,8.39 -5.056,1.623 c -0.501,0.161 -1.046,-0.049 -1.31,-0.505"
       style="fill:#3a3899;fill-opacity:1;fill-rule:nonzero;stroke:none;stroke-width:0.1"
       id="path424" /><path
       d="m 406.51,220.541 2.629,-4.555 c 0.264,-0.456 0.809,-0.666 1.31,-0.505 l 5.056,1.623 -4.844,8.39 -3.934,-3.567 c -0.39,-0.353 -0.48,-0.931 -0.217,-1.386"
       style="fill:#3a3899;fill-opacity:1;fill-rule:nonzero;stroke:none;stroke-width:0.1"
       id="path426" /><path
       d="m 418.789,210.415 h 5.259 c 0.526,0 0.981,0.367 1.092,0.881 l 1.122,5.191 h -9.688 l 1.123,-5.191 c 0.111,-0.514 0.566,-0.881 1.092,-0.881"
       style="fill:#3a3899;fill-opacity:1;fill-rule:nonzero;stroke:none;stroke-width:0.1"
       id="path428" /><path
       d="m 433.697,215.986 2.63,4.555 c 0.263,0.455 0.172,1.033 -0.217,1.386 l -3.934,3.567 -4.844,-8.39 5.056,-1.623 c 0.501,-0.161 1.046,0.049 1.309,0.505"
       style="fill:#3a3899;fill-opacity:1;fill-rule:nonzero;stroke:none;stroke-width:0.1"
       id="path430" /><path
       d="m 436.327,231.682 -2.63,4.555 c -0.263,0.456 -0.808,0.666 -1.309,0.505 l -5.056,-1.623 4.844,-8.39 3.934,3.567 c 0.389,0.354 0.48,0.931 0.217,1.386"
       style="fill:#3a3899;fill-opacity:1;fill-rule:nonzero;stroke:none;stroke-width:0.1"
       id="path432" /><path
       d="m 433.793,226.112 c 0,-6.835 -5.54,-12.375 -12.375,-12.375 -6.834,0 -12.375,5.54 -12.375,12.375 0,6.834 5.541,12.375 12.375,12.375 6.835,0 12.375,-5.541 12.375,-12.375"
       style="fill:#2c90d6;fill-opacity:1;fill-rule:nonzero;stroke:none;stroke-width:0.1"
       id="path434" /><path
       d="m 428.627,226.112 c 0,-3.981 -3.228,-7.209 -7.209,-7.209 -3.981,0 -7.208,3.228 -7.208,7.209 0,3.981 3.227,7.208 7.208,7.208 3.981,0 7.209,-3.227 7.209,-7.208"
       style="fill:#475ab2;fill-opacity:1;fill-rule:nonzero;stroke:none;stroke-width:0.1"
       id="path436" /><path
       d="m 424.793,226.112 c 0,-1.864 -1.511,-3.375 -3.375,-3.375 -1.864,0 -3.375,1.511 -3.375,3.375 0,1.864 1.511,3.375 3.375,3.375 1.864,0 3.375,-1.511 3.375,-3.375"
       style="fill:#3a3899;fill-opacity:1;fill-rule:nonzero;stroke:none;stroke-width:0.1"
       id="path438" /><path
       d="m 332.527,367.445 h -6.78 l 10,20 h 6.78 l -10,-20"
       style="fill:#60ccf0;fill-opacity:1;fill-rule:nonzero;stroke:none;stroke-width:0.1"
       id="path440" /><path
       d="M 297.617,138.195 H 259.86 l 2.546,-5.092 h 32.121 l 4.333,-8.667 h 46.667 l -6.879,13.759 h -41.031"
       style="fill:#60ccf0;fill-opacity:1;fill-rule:nonzero;stroke:none;stroke-width:0.1"
       id="path442" /><path
       d="m 351.147,138.195 h -7.667 l 6.88,-13.759 h 7.667 l -6.88,13.759"
       style="fill:#60ccf0;fill-opacity:1;fill-rule:nonzero;stroke:none;stroke-width:0.1"
       id="path444" /><path
       d="m 343.763,367.445 h -6.78 l 10,20 h 6.78 l -10,-20"
       style="fill:#60ccf0;fill-opacity:1;fill-rule:nonzero;stroke:none;stroke-width:0.1"
       id="path446" /><path
       d="m 354.999,367.445 h -6.78 l 10,20 h 6.78 l -10,-20"
       style="fill:#60ccf0;fill-opacity:1;fill-rule:nonzero;stroke:none;stroke-width:0.1"
       id="path448" /><path
       d="m 312.901,202.945 h -6.779 l 10,20 h 6.779 l -10,-20"
       style="fill:#f24eaf;fill-opacity:1;fill-rule:nonzero;stroke:none;stroke-width:0.1"
       id="path450" /><path
       d="m 324.137,202.945 h -6.779 l 10,20 h 6.779 l -10,-20"
       style="fill:#f24eaf;fill-opacity:1;fill-rule:nonzero;stroke:none;stroke-width:0.1"
       id="path452" /><path
       d="m 335.373,202.945 h -6.779 l 10,20 h 6.779 l -10,-20"
       style="fill:#f24eaf;fill-opacity:1;fill-rule:nonzero;stroke:none;stroke-width:0.1"
       id="path454" /><path
       d="m 366.234,367.445 h -6.779 l 10,20 h 6.779 l -10,-20"
       style="fill:#60ccf0;fill-opacity:1;fill-rule:nonzero;stroke:none;stroke-width:0.1"
       id="path456" /><path
       d="m 377.471,367.445 h -6.78 l 10,20 h 6.78 l -10,-20"
       style="fill:#2c90d6;fill-opacity:1;fill-rule:nonzero;stroke:none;stroke-width:0.1"
       id="path458" /><path
       d="m 224.38,98.634 -2.045,2.046 -3.356,-3.3562 -3.356,3.3562 -2.045,-2.046 3.356,-3.3559 -3.356,-3.3562 2.045,-2.0449 3.356,3.3562 3.356,-3.3562 2.045,2.0449 -3.356,3.3562 3.356,3.3559"
       style="fill:#f24eaf;fill-opacity:1;fill-rule:nonzero;stroke:none;stroke-width:0.1"
       id="path460" /><path
       d="m 66.9207,184.57 -2.0453,2.045 -3.3559,-3.356 -3.3558,3.356 -2.0453,-2.045 3.3558,-3.356 -3.3558,-3.356 2.0453,-2.046 3.3558,3.356 3.3559,-3.356 2.0453,2.046 -3.3559,3.356 3.3559,3.356"
       style="fill:#ffffff;fill-opacity:1;fill-rule:nonzero;stroke:none;stroke-width:0.1"
       id="path466" /><path
       d="m 408.819,348.634 -2.045,2.046 -3.356,-3.356 -3.356,3.356 -2.046,-2.046 3.356,-3.356 -3.356,-3.356 2.046,-2.045 3.356,3.356 3.356,-3.356 2.045,2.045 -3.356,3.356 3.356,3.356"
       style="fill:#ffffff;fill-opacity:1;fill-rule:nonzero;stroke:none;stroke-width:0.1"
       id="path468" /><path
       d="m 167.635,325.099 c 0,-1.94 -1.573,-3.512 -3.513,-3.512 -1.939,0 -3.512,1.572 -3.512,3.512 0,1.94 1.573,3.513 3.512,3.513 1.94,0 3.513,-1.573 3.513,-3.513"
       style="fill:#ffffff;fill-opacity:1;fill-rule:nonzero;stroke:none;stroke-width:0.1"
       id="path470" /><path
       d="m 389.981,95.2781 c 0,-1.3859 -1.124,-2.5101 -2.51,-2.5101 -1.387,0 -2.511,1.1242 -2.511,2.5101 0,1.3867 1.124,2.511 2.511,2.511 1.386,0 2.51,-1.1243 2.51,-2.511"
       style="fill:#ffffff;fill-opacity:1;fill-rule:nonzero;stroke:none;stroke-width:0.1"
       id="path472" /><path
       d="m 436.304,377.445 c 0,-1.386 -1.124,-2.51 -2.511,-2.51 -1.386,0 -2.51,1.124 -2.51,2.51 0,1.386 1.124,2.51 2.51,2.51 1.387,0 2.511,-1.124 2.511,-2.51"
       style="fill:#ffffff;fill-opacity:1;fill-rule:nonzero;stroke:none;stroke-width:0.1"
       id="path478" /><path
       d="m 255.396,385.137 c 0,-1.386 -1.124,-2.51 -2.511,-2.51 -1.386,0 -2.51,1.124 -2.51,2.51 0,1.387 1.124,2.511 2.51,2.511 1.387,0 2.511,-1.124 2.511,-2.511"
       style="fill:#f24eaf;fill-opacity:1;fill-rule:nonzero;stroke:none;stroke-width:0.1"
       id="path480" /><path
       d="m 74.209,315.695 c 0,-1.386 -1.1238,-2.51 -2.5102,-2.51 -1.3863,0 -2.5105,1.124 -2.5105,2.51 0,1.386 1.1242,2.51 2.5105,2.51 1.3864,0 2.5102,-1.124 2.5102,-2.51"
       style="fill:#f24eaf;fill-opacity:1;fill-rule:nonzero;stroke:none;stroke-width:0.1"
       id="path482" /></g></svg>
