<?xml version="1.0" encoding="UTF-8" standalone="no"?>
<svg
   xmlns:dc="http://purl.org/dc/elements/1.1/"
   xmlns:cc="http://creativecommons.org/ns#"
   xmlns:rdf="http://www.w3.org/1999/02/22-rdf-syntax-ns#"
   xmlns:svg="http://www.w3.org/2000/svg"
   xmlns="http://www.w3.org/2000/svg"
   xmlns:sodipodi="http://sodipodi.sourceforge.net/DTD/sodipodi-0.dtd"
   xmlns:inkscape="http://www.inkscape.org/namespaces/inkscape"
   version="1.1"
   id="svg2"
   xml:space="preserve"
   width="3287.3306"
   height="2289.7197"
   viewBox="0 0 3287.3306 2289.7197"
   sodipodi:docname="neuroscience-illustration.svg"
   inkscape:version="1.0.2-2 (e86c870879, 2021-01-15)"><metadata
     id="metadata8"><rdf:RDF><cc:Work
         rdf:about=""><dc:format>image/svg+xml</dc:format><dc:type
           rdf:resource="http://purl.org/dc/dcmitype/StillImage" /><dc:title></dc:title></cc:Work></rdf:RDF></metadata><defs
     id="defs6" /><sodipodi:namedview
     pagecolor="#ffffff"
     bordercolor="#666666"
     borderopacity="1"
     objecttolerance="10"
     gridtolerance="10"
     guidetolerance="10"
     inkscape:pageopacity="0"
     inkscape:pageshadow="2"
     inkscape:window-width="1920"
     inkscape:window-height="1001"
     id="namedview4"
     inkscape:document-rotation="0"
     showgrid="false"
     fit-margin-top="0"
     fit-margin-left="0"
     fit-margin-right="0"
     fit-margin-bottom="0"
     inkscape:zoom="0.31124999"
     inkscape:cx="1667.5573"
     inkscape:cy="1153.093"
     inkscape:window-x="-9"
     inkscape:window-y="-9"
     inkscape:window-maximized="1"
     inkscape:current-layer="g10" /><g
     id="g10"
     inkscape:groupmode="layer"
     inkscape:label="ink_ext_XXXXXX"
     transform="matrix(1.3333333,0,0,-1.3333333,-332.44266,2486.4263)"><g
       id="g595"><path
         d="m 2525.01,156.07 c -156.58,0 -2131.545,-1.06 -2131.545,-0.81 -0.873,2.04 -360.7951,405.2 67.52,743.61 207.404,163.87 -122.496,414.58 139.761,669.87 114.516,111.47 231.506,88.34 351.271,65.2 89.403,-17.28 180.363,-34.55 272.983,4.18 38.29,16 76.71,41.74 115.17,81.25 21.65,22.21 45.38,41.64 70.78,58.41 3.89,2.58 7.83,5.11 11.8,7.56 15.21,9.37 30.98,17.85 47.23,25.48 10.91,5.11 22.02,9.84 33.35,14.19 h 0.01 c 17.96,6.9 36.42,12.86 55.27,17.89 26.77,7.16 54.33,12.48 82.44,16.08 12.26,1.58 24.62,2.82 37.07,3.76 242.13,18.09 514.62,-83.7 655.24,-232.47 28.32,-29.96 157.05,-184.98 55.57,-398.04 -64.07,-134.52 191.18,-309.56 250.73,-482.21 149.91,-434.6 -112.45,-588.86 -114.65,-593.95"
         style="fill:#ebf3fa;fill-opacity:1;fill-rule:nonzero;stroke:none;stroke-width:0.1"
         id="path16" /><path
         d="m 1885.71,1328.43 c -6.34,10.03 -13.55,18.89 -21.04,26.66 17.01,42.9 41.7,88.94 77.05,125.52 65.13,67.4 129.43,98.89 162.95,98.89 14.06,0 22.7,-5.53 23.72,-16.28 3.46,-36.38 -144.88,-93.87 -203.66,-175.8 -14.44,-20.13 -27.51,-40.18 -39.02,-58.99"
         style="fill:#d9e8fa;fill-opacity:1;fill-rule:nonzero;stroke:none;stroke-width:0.1"
         id="path18" /><path
         d="m 1909.11,1268.01 c -1.78,5.13 -3.29,10.37 -4.54,15.67 -1.43,6.08 -3.21,11.88 -5.28,17.43 13.02,21.08 29.03,41.65 48.5,58.57 49,42.6 95.41,61.72 120.82,61.72 12.57,0 20,-4.68 20.07,-13.5 0.21,-26.65 -111.24,-59.05 -159.14,-114.87 -7.2,-8.39 -14.02,-16.8 -20.43,-25.02"
         style="fill:#d9e8fa;fill-opacity:1;fill-rule:nonzero;stroke:none;stroke-width:0.1"
         id="path20" /><path
         d="m 2058.45,954.86 c -11.88,0 -24.04,0.63 -35.94,1.96 -1.99,38.88 -12.74,68.1 -23.5,88.1 19.64,-10.3 84.96,-3.46 116.18,-30.03 31.31,-26.66 56.67,-43.09 -1.53,-54.99 -15.85,-3.24 -35.12,-5.04 -55.21,-5.04 m 113.61,60 c -1.54,0 -3.09,0.07 -4.65,0.22 -62.67,6.01 -82.04,44.81 -120.84,47.82 -4.61,0.36 -9.08,0.53 -13.34,0.53 -19.85,0 -35.13,-3.65 -39.45,-8.65 -9.94,20.08 -16,41.83 -17.84,64.15 -2.5,30.32 -11.8,55.5 -22.72,75.36 1.48,37.68 -0.52,77.58 -0.52,77.58 0,0 109.07,52.38 158.56,52.38 1.96,0 3.84,-0.08 5.61,-0.26 0,0 -71.47,-120.89 -50.13,-120.89 0.26,0 0.53,0.02 0.81,0.06 23.88,2.97 106.03,128.26 106.03,128.26 0,0 17.8,3.29 40.84,3.29 36.99,0 87.47,-8.48 99.39,-52.62 19.36,-71.64 -12,-107.43 -29.91,-111.9 -17.91,-4.46 -132.81,-2.9 -129.83,-17.82 2.36,-11.85 51.78,-29.38 93.7,-29.38 10.86,0 21.23,1.18 30.13,3.93 0,0 -45.47,-112.06 -105.84,-112.06 m -240.95,211.75 c -5.6,7.4 -10.45,15.3 -14.54,23.56 6.42,3.42 13.03,6.28 19.7,8.28 0,0 -2.55,-13.53 -5.16,-31.84"
         style="fill:#d9e8fa;fill-opacity:1;fill-rule:nonzero;stroke:none;stroke-width:0.1"
         id="path22" /><path
         d="m 1003.99,942.06 c -26.638,9.15 -57.037,18.51 -89.246,26.48 -20.78,5.14 -43.765,7.04 -67.437,7.04 -33.734,0 -68.859,-3.86 -100.967,-7.73 -32.113,-3.86 -61.202,-7.72 -82.872,-7.72 -17.951,0 -30.813,2.65 -36.068,10.15 -19.511,27.85 46.236,64.79 157.025,64.79 16.368,0 33.724,-0.81 51.928,-2.57 62.589,-6.06 122.334,-32.29 169.497,-59.66 -0.96,-8.04 -1.54,-16.55 -1.66,-25.54 -0.03,-1.75 -0.09,-3.5 -0.2,-5.24"
         style="fill:#d9e8fa;fill-opacity:1;fill-rule:nonzero;stroke:none;stroke-width:0.1"
         id="path24" /><path
         d="m 785.686,866.07 c -8.697,0 -15.081,1.57 -18.38,5.5 -18.06,21.53 42.659,58.46 143.898,58.46 1.333,0 2.677,0 4.024,-0.02 28.892,-0.27 57.469,-6.44 83.665,-15.19 -1.808,-5.68 -4.067,-11.22 -6.758,-16.58 -1.708,-3.41 -3.463,-7.24 -5.185,-11.52 -3.534,0.61 -7.107,1.2 -10.702,1.77 -8.49,1.33 -17.402,1.91 -26.568,1.91 -29.761,0 -62.195,-6.08 -91.47,-12.17 -29.278,-6.08 -55.394,-12.16 -72.524,-12.16"
         style="fill:#d9e8fa;fill-opacity:1;fill-rule:nonzero;stroke:none;stroke-width:0.1"
         id="path26" /><path
         d="m 983.216,640.32 c -7.998,0.29 -7.056,9.21 -4.568,21.75 1.027,-7 2.508,-14.28 4.568,-21.75 m -54.81,3 c -30.35,0 -67.347,20.99 -67.347,20.99 25.655,9.92 53.583,50.53 49.379,58.75 -0.357,0.7 -1.077,1.02 -2.099,1.02 -10.995,0 -57.09,-37.2 -66.431,-41.42 -1.913,-0.87 -4.468,-1.39 -7.47,-1.39 -13.016,0 -34.477,9.76 -48.912,43.4 -17.763,41.4 48.193,76.3 48.193,76.3 0,0 67.352,-22.42 91.663,-22.42 3.209,0 5.666,0.39 7.122,1.28 12.487,7.58 -68.989,38.96 -68.989,38.96 20.327,19.56 97.798,37.01 97.798,37.01 0,0 5.558,-7.81 13.389,-17.93 -3.373,-27.37 -2.579,-62 7.337,-104.38 0,0 -6.167,-20.29 -5.295,-49.67 -4.052,-9.87 -9.813,-20.46 -20.956,-31.15 -7.106,-6.82 -16.846,-9.35 -27.382,-9.35 m 48.698,209.69 c -1.839,1.65 -2.918,2.58 -2.918,2.58 1.213,0.48 2.457,0.93 3.721,1.33 -0.277,-1.28 -0.544,-2.58 -0.803,-3.91"
         style="fill:#d9e8fa;fill-opacity:1;fill-rule:nonzero;stroke:none;stroke-width:0.1"
         id="path28" /><path
         d="m 1540.34,1424.84 c 0,0 92.09,67.94 258.44,-24.65 0,0 86.06,-32.72 105.79,-116.51 5.21,-22.15 15.05,-42.97 29.42,-60.76 17.41,-21.54 38.03,-56.45 41.95,-103.99 2.07,-25.18 9.53,-49.64 21.85,-71.78 14.41,-25.87 29.39,-68.31 23.89,-128.3 0,0 53.23,-57.41 23.28,-185.36 0,0 24.37,-80.21 -30.62,-152.54 0,0 13.7,-92.3 -65.85,-123.24 0,0 -41.99,-95.99 -167.01,-101.82 -18.11,-0.85 -35.89,-4.96 -52.69,-11.7 -23.8,-9.56 -66.54,-18.88 -127.96,-2.73 -99.81,26.25 -89.79,86.81 -89.79,86.81 v 981.85 l 29.3,14.72"
         style="fill:#f78248;fill-opacity:1;fill-rule:nonzero;stroke:none;stroke-width:0.1"
         id="path30" /><path
         d="m 1486.66,1424.84 c 0,0 -92.09,67.94 -258.43,-24.65 0,0 -90.17,-34.28 -107.08,-122.51 -3.56,-18.61 -12.13,-35.97 -24.54,-50.44 -19.09,-22.26 -44.08,-61.73 -46.07,-117.33 -0.71,-19.72 -6.7,-38.86 -17.17,-55.69 -13.12,-21.1 -28.51,-56.47 -29.18,-106.92 -0.23,-17.04 -4.39,-33.79 -12.055,-49.06 -13.465,-26.83 -29.812,-80.5 -10.096,-164.75 0,0 -18.93,-62.3 14.233,-126.61 8.858,-17.17 14.398,-35.83 16.088,-55.02 2.2,-24.92 11.54,-60.24 44.21,-82.66 14.27,-9.79 26.63,-22.04 36.92,-35.86 20.84,-28.03 65.34,-70.99 144.91,-77.02 21.85,-1.65 43.35,-6.19 63.9,-13.7 24.45,-8.94 65.83,-16.42 123.88,-1.16 99.8,26.25 89.78,86.81 89.78,86.81 v 981.85 l -29.3,14.72"
         style="fill:#f78248;fill-opacity:1;fill-rule:nonzero;stroke:none;stroke-width:0.1"
         id="path32" /><path
         d="m 1430.08,772.8 c -44.44,5.41 -80.12,30.78 -106.05,75.41 -0.1,0.18 -0.21,0.36 -0.31,0.53 -12.21,21.17 -5.23,47.99 15.51,61.22 4.17,2.66 7.75,5.61 10.14,8.74 0,0 -44.82,-6.48 -98.97,15.78 -31.76,13.05 -53.27,40.25 -53.27,40.25 0.6,-0.87 2.93,-29.73 29.41,-53.85 7.7,-7.01 25.68,-16.01 38.62,-18.86 13.39,-2.94 19.07,-16.22 24.01,-28.84 4.14,-10.57 9.56,-22.46 16.55,-34.58 11.67,-20.2 25.47,-37.09 41.12,-50.47 -30.02,-13.39 -46.89,-34.16 -56.02,-50.29 -11.45,-20.24 -13.5,-37.69 -13.58,-38.42 0,0 11.14,21.53 34.72,42.51 20.84,18.53 48.35,27.83 76.38,26.62 19.62,-0.85 41.74,4.25 41.74,4.25"
         style="fill:#ea7147;fill-opacity:1;fill-rule:nonzero;stroke:none;stroke-width:0.1"
         id="path34" /><path
         d="m 1240.81,640.93 c -2.3,0 -4.61,0.07 -6.92,0.2 -31.17,1.82 -57.85,16.35 -77.13,42 -30.03,39.93 -23.19,76.26 -12.17,99.7 0.13,0.27 0.26,0.54 0.39,0.81 4.57,9.52 7.13,-8.29 6.58,-18.8 -1.18,-22.54 16.59,-57.35 38.7,-76.21 25.59,-21.82 67.04,-21.33 98.64,-22.39 11.83,-0.39 21.81,-1.18 11.25,-8.25 -15.11,-10.12 -38.32,-17.06 -59.34,-17.06"
         style="fill:#ea7147;fill-opacity:1;fill-rule:nonzero;stroke:none;stroke-width:0.1"
         id="path36" /><path
         d="m 1176.75,521.59 c -10.79,-5.7 -24.23,-2.14 -30.64,8.15 -37.79,60.65 -88.43,104.65 -89.08,104.95 3.17,-1.45 78.03,-36.34 119.72,-113.1"
         style="fill:#ea7147;fill-opacity:1;fill-rule:nonzero;stroke:none;stroke-width:0.1"
         id="path38" /><path
         d="m 1073.63,829.9 c 8.99,17.1 32.58,23.47 50.87,25.79 21.77,2.76 52.25,-1.07 52.25,-1.07 -2.86,0.34 -47.92,41.96 -99.01,9.55 -3.21,30.73 -41.01,44.15 -41.01,44.15 0.06,-0.08 6.25,-8.43 11.51,-20.53 4.78,-10.98 9.78,-27.38 6.43,-43.17 -3.13,-14.79 -13.3,-27.12 -30.21,-36.65 0,0 35.84,-7.01 49.17,21.93"
         style="fill:#ea7147;fill-opacity:1;fill-rule:nonzero;stroke:none;stroke-width:0.1"
         id="path40" /><path
         d="m 1337.13,1000.13 c 18.53,5.48 39.54,-6.99 53.95,-18.49 17.16,-13.68 35.67,-38.2 35.67,-38.2 -1.76,2.28 -3.33,63.6 -62.18,77.64 19.79,23.72 3.05,60.18 3.05,60.18 -0.01,-0.1 -1.68,-10.36 -6.68,-22.57 -4.54,-11.08 -12.82,-26.09 -26.47,-34.7 -12.79,-8.07 -28.71,-9.38 -47.34,-3.9 0,0 19.96,-30.58 50,-19.96"
         style="fill:#ea7147;fill-opacity:1;fill-rule:nonzero;stroke:none;stroke-width:0.1"
         id="path42" /><path
         d="m 1611.1,814.2 c 48.15,5.86 86.8,33.34 114.89,81.68 0.11,0.2 0.22,0.39 0.33,0.58 13.23,22.94 5.67,51.99 -16.8,66.32 -4.52,2.88 -8.39,6.07 -10.98,9.47 0,0 48.55,-7.02 107.21,17.09 34.41,14.14 57.71,43.6 57.71,43.6 -0.65,-0.94 -3.17,-32.2 -31.87,-58.33 -8.33,-7.59 -27.81,-17.35 -41.83,-20.43 -14.5,-3.19 -20.65,-17.57 -26.01,-31.25 -4.48,-11.45 -10.35,-24.32 -17.93,-37.46 -12.64,-21.88 -27.59,-40.18 -44.54,-54.67 32.52,-14.51 50.8,-37 60.68,-54.47 12.41,-21.93 14.62,-40.83 14.71,-41.63 0,0 -12.06,23.32 -37.61,46.05 -22.57,20.08 -52.37,30.15 -82.74,28.84 -21.25,-0.92 -45.22,4.61 -45.22,4.61"
         style="fill:#ea7147;fill-opacity:1;fill-rule:nonzero;stroke:none;stroke-width:0.1"
         id="path44" /><path
         d="m 1785.37,640.93 c 2.3,0 4.6,0.07 6.91,0.2 31.18,1.82 57.85,16.35 77.14,42 30.02,39.93 23.19,76.26 12.16,99.7 -0.13,0.27 -0.25,0.54 -0.38,0.81 -4.58,9.52 -7.13,-8.29 -6.58,-18.8 1.17,-22.54 -16.59,-57.35 -38.7,-76.21 -25.59,-21.82 -67.05,-21.33 -98.64,-22.39 -11.83,-0.39 -21.81,-1.18 -11.25,-8.25 15.1,-10.12 38.32,-17.06 59.34,-17.06"
         style="fill:#ea7147;fill-opacity:1;fill-rule:nonzero;stroke:none;stroke-width:0.1"
         id="path46" /><path
         d="m 1644.58,1017.18 c 1.68,0.59 3.35,1.23 5,1.92 22.28,9.3 37.94,26.73 45.28,50.4 11.42,36.84 -3.13,61.62 -17.35,75.92 -0.17,0.16 -0.33,0.33 -0.5,0.49 -5.84,5.78 -3.02,-7.87 0.15,-15.41 6.79,-16.16 2.97,-46.13 -8.21,-65.55 -12.95,-22.49 -43.35,-32.73 -66.14,-41.59 -8.54,-3.31 -15.62,-6.44 -6.05,-8.9 13.69,-3.52 32.47,-2.65 47.82,2.72"
         style="fill:#ea7147;fill-opacity:1;fill-rule:nonzero;stroke:none;stroke-width:0.1"
         id="path48" /><path
         d="m 1801.84,526.65 c 8.38,-8.81 22.27,-9.67 31.68,-1.94 55.47,45.55 117.72,71.28 118.43,71.36 -3.47,-0.38 -85.72,-9.83 -150.11,-69.42"
         style="fill:#ea7147;fill-opacity:1;fill-rule:nonzero;stroke:none;stroke-width:0.1"
         id="path50" /><path
         d="m 1824.69,1149.19 c -8.99,17.11 -32.58,23.47 -50.87,25.79 -21.77,2.77 -52.26,-1.06 -52.26,-1.06 2.87,0.33 47.93,41.95 99.02,9.54 3.21,30.73 41.01,44.15 41.01,44.15 -0.06,-0.08 -6.25,-8.42 -11.51,-20.52 -4.78,-10.98 -9.78,-27.38 -6.43,-43.17 3.13,-14.79 13.3,-27.12 30.21,-36.65 0,0 -35.84,-7.02 -49.17,21.92"
         style="fill:#ea7147;fill-opacity:1;fill-rule:nonzero;stroke:none;stroke-width:0.1"
         id="path52" /><path
         d="m 1952.54,829.9 c -8.98,17.1 -32.57,23.47 -50.86,25.79 -21.77,2.76 -52.26,-1.06 -52.26,-1.06 2.87,0.33 47.92,41.95 99.01,9.54 3.21,30.73 41.02,44.15 41.02,44.15 -0.06,-0.08 -6.25,-8.43 -11.52,-20.53 -4.78,-10.98 -9.77,-27.38 -6.42,-43.17 3.13,-14.79 13.29,-27.12 30.2,-36.65 0,0 -35.84,-7.01 -49.17,21.93"
         style="fill:#ea7147;fill-opacity:1;fill-rule:nonzero;stroke:none;stroke-width:0.1"
         id="path54" /><path
         d="m 1524.73,406.49 -22.46,0.05 2.47,1003.61 22.45,-0.06 -2.46,-1003.6"
         style="fill:#ea7147;fill-opacity:1;fill-rule:nonzero;stroke:none;stroke-width:0.1"
         id="path56" /><path
         d="m 2115.06,784.26 c 0,0 -2.82,6.36 -4.65,9.37 -1.83,3.01 -9.65,11.83 -10.99,9.83 -1.33,-2 -6.65,-15.43 -3.82,-19.2 2.83,-3.76 -0.18,-10.31 13.88,-14.27 l 5.58,14.27"
         style="fill:#ffb27d;fill-opacity:1;fill-rule:nonzero;stroke:none;stroke-width:0.1"
         id="path58" /><path
         d="m 2271.4,824.4 c 0,0 -72.02,-60.11 -100.1,-54.55 -21.95,4.35 -55.65,15.91 -55.65,15.91 l -6.74,-17.24 c 0,0 30.22,-40.99 61.73,-41.26 49.25,-0.42 85.63,21.32 85.63,21.32 l 15.13,75.82"
         style="fill:#6980e0;fill-opacity:1;fill-rule:nonzero;stroke:none;stroke-width:0.1"
         id="path60" /><path
         d="m 2397.69,190.34 c 0,0 -2.09,-33.72 -8.61,-34.21 -0.87,-0.06 -33.09,-0.06 -33.09,-0.06 l -41.14,0.24 c 0,0 0.27,9.91 12.3,12 12.02,2.1 32.14,10.55 39.43,26.44 7.66,16.72 31.11,-4.41 31.11,-4.41"
         style="fill:#20497a;fill-opacity:1;fill-rule:nonzero;stroke:none;stroke-width:0.1"
         id="path62" /><path
         d="m 2400.06,188 c 0,0 -12.5,-4.18 -22.26,-4.18 -10.89,0 -20.79,2.96 -20.79,2.96 0,0 -2.36,22.77 -15.31,72.93 -6.79,26.3 -16.49,60.1 -30.29,102.11 -38.16,116.1 -49.76,184.02 -50.82,190.45 -0.06,0.34 -0.08,0.51 -0.08,0.51 l 0.13,0.05 117.3,51.51 c 0,0 -14.5,-160.01 4,-221.43 2.59,-8.58 4.81,-18.59 6.71,-29.43 11.68,-66.71 11.41,-165.48 11.41,-165.48"
         style="fill:#f99746;fill-opacity:1;fill-rule:nonzero;stroke:none;stroke-width:0.1"
         id="path64" /><path
         d="m 2341.7,259.71 c -6.79,26.3 -16.49,60.1 -30.29,102.11 -38.16,116.1 -49.76,184.02 -50.82,190.45 0.01,0.19 0.02,0.37 0.05,0.56 l 117.3,51.51 c 0,0 -14.5,-160.01 4,-221.43 2.59,-8.58 -40.24,-123.2 -40.24,-123.2"
         style="fill:#ed7d2b;fill-opacity:1;fill-rule:nonzero;stroke:none;stroke-width:0.1"
         id="path66" /><path
         d="m 2306.07,190.34 c 0,0 -2.09,-33.72 -8.61,-34.21 -0.87,-0.06 -33.09,-0.06 -33.09,-0.06 l -41.14,0.24 c 0,0 0.27,9.91 12.3,12 12.02,2.1 32.14,10.55 39.43,26.44 7.66,16.72 31.11,-4.41 31.11,-4.41"
         style="fill:#20497a;fill-opacity:1;fill-rule:nonzero;stroke:none;stroke-width:0.1"
         id="path68" /><path
         d="m 2239.57,600.57 c 0,0 -1.53,-103.69 16.41,-231 17.94,-127.31 11.86,-181.36 11.86,-181.36 0,0 12.33,-3.99 17.3,-4.39 12.67,-1.04 25.67,2.97 25.67,2.97 0,0 25.68,127.35 18.31,191.08 -7.36,63.72 35.17,218.66 35.17,218.66 l -124.72,4.04"
         style="fill:#f99746;fill-opacity:1;fill-rule:nonzero;stroke:none;stroke-width:0.1"
         id="path70" /><path
         d="m 2323.55,850.99 -16.01,-20.65 -33.61,-1.82 c -0.18,2.7 -0.68,13.97 -1.11,24.19 -0.03,0.6 -0.05,1.2 -0.08,1.79 -0.36,8.69 -0.5,18.22 -0.5,18.22 l 26.64,18.49 10,7.66 c 0.01,-0.18 1.57,-9.39 1.57,-10.75 0.12,-26.53 13.1,-37.13 13.1,-37.13"
         style="fill:#ffb27d;fill-opacity:1;fill-rule:nonzero;stroke:none;stroke-width:0.1"
         id="path72" /><path
         d="m 2232.73,596.08 c 0.47,-54.73 4.12,-182.76 6.8,-185.37 28.51,-27.51 153.89,7.55 160.54,37.86 6.64,30.32 -25.26,388.69 -73.95,403 -10.1,2.97 -64.12,-14.49 -64.12,-14.49 0,0 -8.47,-22.16 -14.03,-50.4 -2.06,-10.46 -8.78,-85.11 -12.7,-134.99 -1.04,-13.29 -1.89,-24.83 -2.39,-32.91 -0.2,-3.35 -0.24,-11.49 -0.15,-22.7"
         style="fill:#8c9df4;fill-opacity:1;fill-rule:nonzero;stroke:none;stroke-width:0.1"
         id="path74" /><path
         d="m 2308.3,887.15 c -3.88,-12.77 -26.1,-28.4 -35.48,-34.44 -0.03,0.6 -0.05,1.2 -0.08,1.79 -0.36,8.69 -0.66,26.25 -0.66,26.25 l 26.8,10.46 c 6.62,1.71 11.02,1.2 9.42,-4.06"
         style="fill:#fca56b;fill-opacity:1;fill-rule:nonzero;stroke:none;stroke-width:0.1"
         id="path76" /><path
         d="m 2263.28,877.63 c 0,0 49.77,-15.52 58.97,15.62 9.19,31.15 21.8,50.12 -9.59,61.35 -31.39,11.23 -41.1,1.18 -46.7,-8.47 -5.59,-9.65 -15.39,-63.65 -2.68,-68.5"
         style="fill:#ffb27d;fill-opacity:1;fill-rule:nonzero;stroke:none;stroke-width:0.1"
         id="path78" /><path
         d="m 2267.92,949.13 c 0,0 3.17,-36.24 10.67,-34.67 7.49,1.57 17.38,1.83 16.28,-9.09 -1.09,-10.93 9.24,-29.47 16.12,-29.43 23.18,0.15 48.71,62.5 42.37,73.78 -18.32,32.55 -111.91,39.11 -85.44,-0.59"
         style="fill:#163560;fill-opacity:1;fill-rule:nonzero;stroke:none;stroke-width:0.1"
         id="path80" /><path
         d="m 2275.24,850.78 c 0.64,0.27 37.05,16.61 41.31,15.2 4.26,-1.4 9.57,-14.41 9.57,-14.41 L 2262,837.07 c 0,0 5.05,10.26 13.24,13.71"
         style="fill:#6980e0;fill-opacity:1;fill-rule:nonzero;stroke:none;stroke-width:0.1"
         id="path82" /><path
         d="m 2039.35,667.44 187.21,-198.82 c 3.61,-3.84 9.85,-3.9 13.85,-0.14 l 12.73,11.98 c 4,3.77 4.32,10 0.7,13.84 l -187.57,199.18 c -3.62,3.84 -6.76,0.82 -10.77,-2.94 l -12.73,-11.99 c -4,-3.76 -7.04,-7.27 -3.42,-11.11"
         style="fill:#1f4d84;fill-opacity:1;fill-rule:nonzero;stroke:none;stroke-width:0.1"
         id="path84" /><path
         d="m 2141.98,558.52 84.3,-89.61 c 3.77,-4 10.13,-4.19 14.13,-0.43 l 12.73,11.98 c 4,3.77 4.2,10.12 0.43,14.13 l -84.3,89.6 -27.29,-25.67"
         style="fill:#ed7d2b;fill-opacity:1;fill-rule:nonzero;stroke:none;stroke-width:0.1"
         id="path86" /><path
         d="m 1839.61,902.9 c 22.22,20.89 49.12,33.7 77.09,38.54 47.99,8.31 99.1,-6.89 134.98,-45.01 56.78,-60.35 53.88,-155.3 -6.47,-212.07 -38.13,-35.87 -90.08,-47.92 -137.48,-36.71 -27.61,6.55 -53.68,20.97 -74.58,43.18 -56.77,60.35 -53.87,155.29 6.46,212.07 m -13.72,-218.89 c 60.54,-64.36 161.8,-67.44 226.15,-6.9 21.07,19.83 35.58,44 43.42,69.84 16.13,53.05 4.19,113.03 -36.53,156.31 -60.54,64.35 -161.79,67.42 -226.14,6.89 -0.84,-0.81 -1.69,-1.61 -2.5,-2.43 -61.92,-60.78 -64.15,-160.21 -4.4,-223.71"
         style="fill:#163560;fill-opacity:1;fill-rule:nonzero;stroke:none;stroke-width:0.1"
         id="path88" /><path
         d="m 2050.34,689.43 c 0.02,26.32 -5.38,44.06 -5.38,44.06 29.95,127.95 -23.28,185.36 -23.28,185.36 0.06,0.7 0.12,1.39 0.18,2.08 2.96,-1.85 5.86,-3.81 8.71,-5.88 7.47,-5.44 14.54,-11.65 21.1,-18.62 30.64,-32.57 43.9,-75.18 40.14,-116.45 -2.99,-33 -16.88,-65.13 -41.47,-90.55"
         style="fill:#dae8fa;fill-opacity:1;fill-rule:nonzero;stroke:none;stroke-width:0.1"
         id="path90" /><path
         d="m 1942.45,643.61 c -11.67,0 -23.33,1.35 -34.72,4.05 -6.78,1.6 -13.47,3.68 -20.01,6.24 -10.45,4.08 -20.53,9.38 -30.02,15.88 4.16,4.04 8.07,8.5 11.72,13.35 30.02,39.93 23.19,76.26 12.16,99.7 -0.13,0.27 -0.25,0.54 -0.38,0.81 -0.92,1.9 -1.75,2.71 -2.49,2.71 -2.98,0 -4.53,-13.09 -4.09,-21.51 1.17,-22.54 -16.59,-57.35 -38.7,-76.21 -0.12,-0.1 -0.24,-0.2 -0.36,-0.3 -0.81,0.83 -1.61,1.66 -2.41,2.51 -56.38,59.93 -53.91,153.98 5.24,210.89 0.4,0.39 0.81,0.78 1.22,1.17 18.74,17.62 40.82,29.49 64.06,35.68 0.02,0.01 0.04,0.01 0.06,0.02 0.04,0.01 0.07,0.02 0.1,0.03 4.26,1.12 8.55,2.06 12.87,2.81 8.51,1.47 17.11,2.21 25.71,2.21 2.42,0 4.83,-0.06 7.24,-0.18 25.22,-1.21 50.15,-8.75 72.21,-22.54 -0.06,-0.69 -0.12,-1.38 -0.18,-2.08 0,0 53.23,-57.41 23.28,-185.36 0,0 5.4,-17.74 5.38,-44.06 -1.66,-1.72 -3.37,-3.41 -5.13,-5.06 -28.96,-27.26 -65.9,-40.76 -102.76,-40.76 m -59.2,213.08 c 6.27,0 12.66,-0.27 18.43,-1 18.29,-2.32 41.88,-8.69 50.86,-25.79 8.98,-19.49 28.17,-22.68 39.74,-22.68 5.61,0 9.43,0.75 9.43,0.75 -16.91,9.53 -27.07,21.86 -30.2,36.65 -3.35,15.79 1.64,32.19 6.42,43.17 5.27,12.1 11.46,20.45 11.52,20.53 0,0 -37.81,-13.42 -41.02,-44.15 -14.3,9.07 -28.12,12.34 -40.69,12.34 -32.31,0 -56.25,-21.64 -58.32,-21.88 v 0 0 c 0.09,0.01 16.51,2.06 33.83,2.06"
         style="fill:#e2997d;fill-opacity:1;fill-rule:nonzero;stroke:none;stroke-width:0.1"
         id="path92" /><path
         d="m 1857.7,669.78 c -6.43,4.41 -12.59,9.37 -18.4,14.89 -1.26,1.19 -2.51,2.41 -3.74,3.66 0.12,0.1 0.24,0.2 0.36,0.3 22.11,18.86 39.87,53.67 38.7,76.21 -0.44,8.42 1.11,21.51 4.09,21.51 0.74,0 1.57,-0.81 2.49,-2.71 0.13,-0.27 0.25,-0.54 0.38,-0.81 11.03,-23.44 17.86,-59.77 -12.16,-99.7 -3.65,-4.85 -7.56,-9.31 -11.72,-13.35"
         style="fill:#d98d7d;fill-opacity:1;fill-rule:nonzero;stroke:none;stroke-width:0.1"
         id="path94" /><path
         d="m 1992.28,807.22 c -11.57,0 -30.76,3.19 -39.74,22.68 -8.98,17.1 -32.57,23.47 -50.86,25.79 -5.77,0.73 -12.16,1 -18.43,1 -17.32,0 -33.74,-2.05 -33.83,-2.06 2.07,0.24 26.01,21.88 58.32,21.88 12.57,0 26.39,-3.27 40.69,-12.34 3.21,30.73 41.02,44.15 41.02,44.15 -0.06,-0.08 -6.25,-8.43 -11.52,-20.53 -4.78,-10.98 -9.77,-27.38 -6.42,-43.17 3.13,-14.79 13.29,-27.12 30.2,-36.65 0,0 -3.82,-0.75 -9.43,-0.75 m -142.86,47.41 v 0 0"
         style="fill:#d98d7d;fill-opacity:1;fill-rule:nonzero;stroke:none;stroke-width:0.1"
         id="path96" /><path
         d="m 1887.72,653.9 c -17.54,6.85 -34.03,17.12 -48.42,30.77 5.81,-5.52 11.97,-10.48 18.4,-14.89 9.49,-6.5 19.57,-11.8 30.02,-15.88 m -49.33,247.83 c 0.4,0.39 0.81,0.78 1.22,1.17 15.64,14.71 33.61,25.41 52.63,32.15 3.77,1.34 7.58,2.51 11.43,3.53 -23.24,-6.19 -45.32,-18.06 -64.06,-35.68 -0.41,-0.39 -0.82,-0.78 -1.22,-1.17 m 192.18,13.32 c -2.85,2.07 -5.75,4.03 -8.71,5.88 -22.06,13.79 -46.99,21.33 -72.21,22.54 28.6,-1.37 56.83,-10.89 80.92,-28.42 m -126.84,23.55 c 0.04,0.01 0.07,0.02 0.1,0.03 -0.03,-0.01 -0.06,-0.02 -0.1,-0.03"
         style="fill:#45648e;fill-opacity:1;fill-rule:nonzero;stroke:none;stroke-width:0.1"
         id="path98" /><path
         d="m 2232.73,596.08 c 118.96,80.56 109.27,191.37 109.27,191.37 -46.42,-26.19 -92.43,-88.18 -106.73,-135.76 -1.04,-13.29 -1.89,-24.83 -2.39,-32.91 -0.2,-3.35 -0.24,-11.49 -0.15,-22.7"
         style="fill:#6980e0;fill-opacity:1;fill-rule:nonzero;stroke:none;stroke-width:0.1"
         id="path100" /><path
         d="m 2127.88,636.85 c -7.93,1.83 -13.26,7.83 -14.37,8.88 0,0 -3.38,-0.23 0.56,-7.45 0.33,-0.6 1.06,-2.15 1.61,-3.25 0.22,-0.45 -0.09,-0.97 -0.59,-1 -4.58,-0.35 -9.18,1.46 -17.99,-0.38 -1.22,-0.25 -1.57,-3.17 -1.53,-4.41 0.08,-2.1 -0.07,-4.46 2.37,-7.68 1.42,-1.88 5.39,-3.89 14.21,-7.44 3.37,-1.36 12.98,-0.34 21.99,2.76 l 7.2,3.33 -2.23,13.38 -1.81,-0.38 c -2.87,-0.6 -6.43,2.91 -9.42,3.64"
         style="fill:#ffb27d;fill-opacity:1;fill-rule:nonzero;stroke:none;stroke-width:0.1"
         id="path102" /><path
         d="m 2307.1,837.07 c 0,0 101.05,-19.24 -29.74,-165.58 -20.91,-23.41 -133.93,-53.88 -133.93,-53.88 0,0 -11.46,9.75 -5.68,17.65 0,0 77.81,56.5 94.93,65.49 7.7,4.04 29.89,90.18 42.45,110.93 12.56,20.75 31.97,25.39 31.97,25.39"
         style="fill:#8c9df4;fill-opacity:1;fill-rule:nonzero;stroke:none;stroke-width:0.1"
         id="path104" /><path
         d="m 2112.32,782.49 c 0,0 -3.3,6.32 -3.95,9.65 -0.64,3.33 -4.8,13.05 -6.52,14.76 -0.69,0.68 -2.95,-0.2 -3.22,-3.15 -0.11,-1.28 0.52,-3.61 1.63,-6.39 1.8,-4.52 1.51,-10.65 2.14,-12.7 1.56,-5.09 9.92,-2.17 9.92,-2.17"
         style="fill:#ffb27d;fill-opacity:1;fill-rule:nonzero;stroke:none;stroke-width:0.1"
         id="path106" /><path
         d="m 1510.34,637.62 c -6.8,21.85 -36.39,25.95 -48.3,6.41 -2.14,-3.52 -3.5,-7.56 -3.62,-12.19 -0.65,-25.62 49.88,-124.79 56.58,-133.56 12.21,-15.97 85.92,-54.37 85.92,-54.37 l 15.66,2.28 c 0,0 -8.86,5.56 -18.03,14.72 -18.93,18.9 -46.54,49.64 -51.59,53.89 -8.68,7.31 -23.7,81.33 -36.62,122.82"
         style="fill:#ed985f;fill-opacity:1;fill-rule:nonzero;stroke:none;stroke-width:0.1"
         id="path108" /><path
         d="m 1531.74,762.97 c 0.4,1.65 -35.76,-16.34 -37.59,-18.38 -16.96,-18.81 -12.12,-43.36 -2.42,-43.59 6.22,-0.15 5.02,-10.5 5.02,-10.5 l 69.33,29.33 c 0,0 -8.35,48.68 -34.34,43.14"
         style="fill:#233862;fill-opacity:1;fill-rule:nonzero;stroke:none;stroke-width:0.1"
         id="path110" /><path
         d="m 1540.27,759.17 c 0,0 -23.17,23.89 -48.36,5.19 -21.84,-16.23 -2.88,-41.8 -30.26,-50.72 -13.64,-4.45 -35.91,-14.22 -27.58,-53.31 5.61,-26.32 88.46,-53.7 83.6,-75.82 0,0 28.2,44.11 7.45,65.7 -9.87,10.27 -22.33,36.11 -21.23,40.29 1.11,4.18 36.38,68.67 36.38,68.67"
         style="fill:#233862;fill-opacity:1;fill-rule:nonzero;stroke:none;stroke-width:0.1"
         id="path112" /><path
         d="m 1455.51,175.17 -15.01,2.2 c 0,0 -50.44,40.09 -57.96,114.9 -0.76,7.61 -0.92,15.34 -0.35,23.12 0.06,0.9 -0.04,1.8 -0.53,2.56 l -0.01,0.02 c -1.62,2.47 -5.64,8.67 -11.08,17.49 -5.36,8.69 -14.54,25.12 -24.64,43.55 -18.19,33.19 -39.37,72.89 -46.63,85.54 -23.15,40.29 -11.99,67.39 -11.99,67.39 0,0 64.57,6.39 82.26,21.86 l 6.38,-9.82 c 0,0 13.99,-61.93 13.32,-62.22 0.69,-2.11 1.39,-4.25 2.1,-6.43 11.05,-34.08 23.74,-76.67 30.67,-111.36 3.89,-19.52 5.95,-36.52 4.84,-48.11 -0.38,-3.97 0.09,-10.08 1.14,-17.62 6.25,-44.45 27.49,-123.07 27.49,-123.07"
         style="fill:#2b478b;fill-opacity:1;fill-rule:nonzero;stroke:none;stroke-width:0.1"
         id="path114" /><path
         d="m 1486.98,156.18 h -62.6 c 0,0 -1.5,9.54 1.77,16.78 3.14,6.95 7.6,7.17 0.57,18.05 3.98,-4.09 16.77,-5.79 25.82,-4.57 1.11,-1.8 7.14,-13.86 10.85,-16.52 4.09,-2.94 22.33,-1.89 23.59,-13.74"
         style="fill:#2b4570;fill-opacity:1;fill-rule:nonzero;stroke:none;stroke-width:0.1"
         id="path116" /><path
         d="m 1391.37,475.33 c -5.46,-30.16 -18.38,-80.35 -45.44,-96.32 -18.19,33.19 -39.37,72.89 -46.63,85.54 -23.15,40.29 -11.99,67.39 -11.99,67.39 0,0 64.57,6.39 82.26,21.86 l 6.38,-9.82 c 0,0 13.99,-61.93 13.32,-62.22 0.69,-2.11 1.39,-4.25 2.1,-6.43"
         style="fill:#233862;fill-opacity:1;fill-rule:nonzero;stroke:none;stroke-width:0.1"
         id="path118" /><path
         d="m 1347.47,527.29 0.22,11.7 c -23.33,-2.94 -80.43,27.88 -80.43,27.88 0,0 -24.4,-16.23 -27.74,-62.58 -1.63,-22.63 -11.95,-118.31 -13.09,-146.88 -0.42,-10.35 -0.55,-17.74 -0.6,-20.69 v -0.03 c -0.01,-0.9 -0.44,-1.7 -0.99,-2.41 -4.83,-6.14 -9.01,-12.64 -12.64,-19.38 -35.59,-66.22 -16.98,-156.2 -16.98,-156.2 l 8.27,2.1 c 0,0 30.09,93.28 49.76,133.63 3.34,6.84 6.37,12.17 8.91,15.25 7.4,8.98 15.19,24.24 22.88,42.59 14.53,34.71 28.64,80.51 38.7,115.98 0.71,-0.13 23.73,59.04 23.73,59.04"
         style="fill:#2b478b;fill-opacity:1;fill-rule:nonzero;stroke:none;stroke-width:0.1"
         id="path120" /><path
         d="m 1524.5,673.54 v -0.01 h -0.01 l -0.03,-0.06 -0.02,-0.03 -0.08,-0.12 -0.02,-0.03 c -0.32,-0.53 -1.17,-1.85 -2.42,-3.67 -0.11,-0.16 -0.23,-0.33 -0.34,-0.51 -1.98,-2.86 -4.83,-6.77 -8.14,-10.67 -4.49,-5.29 -9.84,-10.58 -15.03,-13.21 v -0.01 c -1.57,1.28 -30.16,25.44 -28.07,24.56 5.28,1.07 21.52,9.11 31.93,22.23 4.84,6.1 22.23,-18.47 22.23,-18.47"
         style="fill:#ffb27d;fill-opacity:1;fill-rule:nonzero;stroke:none;stroke-width:0.1"
         id="path122" /><path
         d="m 1508.05,645.22 c 0,0 6.7,-13.23 10.28,-24.69 3.58,-11.46 12.53,-47.91 12.53,-47.91 0,0 -18.46,-21.06 -44.14,-19.83 0,0 -13.8,21.61 -8.94,41.13 4.87,19.51 30.27,51.3 30.27,51.3"
         style="fill:#6980e0;fill-opacity:1;fill-rule:nonzero;stroke:none;stroke-width:0.1"
         id="path124" /><path
         d="m 1524.5,673.53 -0.04,-0.06 -0.02,-0.03 -0.08,-0.12 -0.02,-0.03 c -0.35,-0.51 -1.24,-1.83 -2.42,-3.67 -0.11,-0.16 -0.23,-0.33 -0.34,-0.51 -1.98,-2.86 -4.83,-6.77 -8.14,-10.67 -13.47,9.19 -13.45,26.53 -12.36,35.62 l 23.41,-20.53 h 0.01"
         style="fill:#ed985f;fill-opacity:1;fill-rule:nonzero;stroke:none;stroke-width:0.1"
         id="path126" /><path
         d="m 1525.15,663.24 c 0,0 -35.36,19.68 -22.77,41.51 12.6,21.83 16.51,39.07 39.62,27.43 23.1,-11.64 22.65,-22.48 20.21,-30.79 -2.42,-8.3 -27.54,-42.7 -37.06,-38.15"
         style="fill:#ffb27d;fill-opacity:1;fill-rule:nonzero;stroke:none;stroke-width:0.1"
         id="path128" /><path
         d="m 1568.19,714.13 c -1.62,9.69 -6.55,10.61 -9.98,9.97 -13.05,21.59 -34.39,13.16 -34.39,13.16 -11.39,-14.3 -27.86,-16.74 -27.86,-16.74 0,0 4.1,-7.63 21,-12.35 5.17,-1.45 11.03,-0.57 16.68,1.33 -11.73,-6.54 -23.99,-9.05 -23.99,-9.05 22.27,-2.03 43.47,18.33 45.67,20.51 1.03,-3.16 2.83,-9.76 1.75,-14.59 -1.47,-6.57 -7.29,-18.46 -3.74,-20 0,0 17.29,13.22 14.86,27.76"
         style="fill:#233862;fill-opacity:1;fill-rule:nonzero;stroke:none;stroke-width:0.1"
         id="path130" /><path
         d="m 1245,156.18 h -62.6 c 0,0 -1.5,9.54 1.77,16.78 3.13,6.95 8.04,10.1 6.87,18.51 3.97,-4.1 10.46,-8.69 19.51,-7.47 1.11,-1.8 7.15,-11.42 10.86,-14.08 4.09,-2.94 22.33,-1.89 23.59,-13.74"
         style="fill:#2b4570;fill-opacity:1;fill-rule:nonzero;stroke:none;stroke-width:0.1"
         id="path132" /><path
         d="m 1488.46,562.94 c -8.05,-2.81 -19.36,-4.35 -30.92,-5.61 -16.46,-1.79 -33.45,-3.02 -42.35,-6.57 -1.74,-0.69 -6.81,-2.81 -11.88,-6.48 v -0.01 c 0,0 -0.12,-0.08 -0.35,-0.27 -1.68,-1.22 -3.36,-2.64 -4.91,-4.23 -2.36,-2.43 -4.42,-5.27 -5.74,-8.52 -3.26,-8.07 1.06,-30.43 3.83,-42.65 1.12,-4.92 -1.2,-10 -5.68,-12.32 -6.26,-3.24 -12.41,-6.23 -18.46,-8.96 -0.32,-0.15 -0.63,-0.28 -0.95,-0.43 0.06,1.24 0.08,2.48 0.08,3.68 0.01,8.44 -1.06,15.45 -1.06,15.45 -1.49,-8.51 -7.09,-17.7 -12.32,-24.78 -84,-33.7 -142.69,-19.05 -141.73,-2.26 3.31,58.3 42.63,107.89 42.63,107.89 73.32,85.26 221.64,107.71 221.64,107.71 0,0 7.1,0.85 15.67,-9.45 12.33,-14.83 12.95,-18.7 12.95,-18.7 0,0 3.25,-75.22 -20.45,-83.49"
         style="fill:#8c9df4;fill-opacity:1;fill-rule:nonzero;stroke:none;stroke-width:0.1"
         id="path134" /><path
         d="m 1457.54,557.34 c -16.46,-1.8 -33.46,-3.03 -42.36,-6.58 -3.64,54.36 22.02,95.25 22.02,95.25 0,0 16.73,-68.1 20.34,-88.67"
         style="fill:#6980e0;fill-opacity:1;fill-rule:nonzero;stroke:none;stroke-width:0.1"
         id="path136" /><path
         d="m 1396.14,488.6 c 1.12,-4.92 -1.2,-10 -5.68,-12.32 -6.26,-3.24 -12.41,-6.23 -18.46,-8.96 -0.32,1.03 -0.61,2.11 -0.87,3.25 -0.95,4.26 -1.39,9.35 -1.06,15.45 1.4,25.81 18.98,45.35 27.98,53.75 -2.36,-2.43 -4.42,-5.27 -5.74,-8.52 -3.26,-8.07 1.06,-30.43 3.83,-42.65"
         style="fill:#6980e0;fill-opacity:1;fill-rule:nonzero;stroke:none;stroke-width:0.1"
         id="path138" /><path
         d="m 1480.29,674.58 c 0,0 6.46,8.16 10.82,7.9 0,0 17.65,-24.71 17.8,-36.05 0,0 -22.02,29.3 -28.62,28.15"
         style="fill:#6980e0;fill-opacity:1;fill-rule:nonzero;stroke:none;stroke-width:0.1"
         id="path140" /><path
         d="m 1649.63,435.46 c 0,0 -9.38,-0.17 -11.41,0.12 -1.99,0.29 -4.65,1.15 -7.32,1.25 -2.63,0.09 -5.04,-0.76 -7.51,-1.27 -0.37,-0.07 -0.74,-0.1 -1.12,-0.1 h -15.56 c 0,0 -1.57,0.74 -3.28,3.49 -0.73,1.19 -0.83,4.02 -2.51,4.96 -9.43,5.26 15.66,2.28 15.66,2.28 0,0 15.75,0.29 17.2,-0.8 2.59,-1.94 16.44,-9.19 15.85,-9.93"
         style="fill:#ed985f;fill-opacity:1;fill-rule:nonzero;stroke:none;stroke-width:0.1"
         id="path142" /><path
         d="m 1606.71,435.45 c 0,0 9.55,-2.76 12.15,-4.53 l 2.74,-1.73 c 0,0 1.59,1.77 -0.91,3.74 -1.32,1.04 -4.96,4.07 -5.08,7.55 -0.11,3.49 -10.9,0.44 -8.9,-5.03"
         style="fill:#ed985f;fill-opacity:1;fill-rule:nonzero;stroke:none;stroke-width:0.1"
         id="path144" /><path
         d="m 1755.23,170.32 v 0 c -22.5,0 -40.74,18.24 -40.74,40.74 v 257.33 h 81.49 V 211.06 c 0,-22.5 -18.24,-40.74 -40.75,-40.74"
         style="fill:#c7d8ff;fill-opacity:1;fill-rule:nonzero;stroke:none;stroke-width:0.1"
         id="path146" /><path
         d="m 1755.23,182.13 v 0 c -16.72,0 -30.27,13.56 -30.27,30.28 v 91.53 h 60.55 v -91.53 c 0,-16.72 -13.56,-30.28 -30.28,-30.28"
         style="fill:#d14842;fill-opacity:1;fill-rule:nonzero;stroke:none;stroke-width:0.1"
         id="path148" /><path
         d="m 1876.89,170.32 v 0 c -22.5,0 -40.74,18.24 -40.74,40.74 v 257.33 h 81.49 V 211.06 c 0,-22.5 -18.24,-40.74 -40.75,-40.74"
         style="fill:#c7d8ff;fill-opacity:1;fill-rule:nonzero;stroke:none;stroke-width:0.1"
         id="path150" /><path
         d="m 1876.89,182.13 v 0 c -16.72,0 -30.27,13.56 -30.27,30.28 v 116.92 h 60.55 V 212.41 c 0,-16.72 -13.56,-30.28 -30.28,-30.28"
         style="fill:#d14842;fill-opacity:1;fill-rule:nonzero;stroke:none;stroke-width:0.1"
         id="path152" /><path
         d="m 1572.71,359.92 v 0 c -20.74,8.75 -30.45,32.65 -21.7,53.38 l 100.06,237.08 75.07,-31.68 -100.05,-237.08 c -8.75,-20.74 -32.65,-30.45 -53.38,-21.7"
         style="fill:#c7d8ff;fill-opacity:1;fill-rule:nonzero;stroke:none;stroke-width:0.1"
         id="path154" /><path
         d="m 1580.17,369.6 -5.74,2.42 c -13.82,5.83 -20.29,21.76 -14.46,35.58 l 72.18,171.04 65.06,-1.57 -81.46,-193.01 c -5.83,-13.82 -21.76,-20.3 -35.58,-14.46"
         style="fill:#d14842;fill-opacity:1;fill-rule:nonzero;stroke:none;stroke-width:0.1"
         id="path156" /><path
         d="m 1565.05,407.44 c 0,0 6.83,-6.07 12.02,-7.35 5.19,-1.28 11.1,-16.15 12.04,-18.28 0.95,-2.12 -4.96,0.95 -7.32,4.57 -2.36,3.62 -3.97,5.03 -4.66,4.25 -0.69,-0.79 0.41,-10.71 4.35,-16.22 3.93,-5.5 6.29,-10.38 3.46,-10.07 -2.83,0.32 -19.68,4.41 -23.14,14.64 -3.46,10.23 -0.92,10.59 -8.88,21.11 -7.96,10.53 12.13,7.35 12.13,7.35"
         style="fill:#ffb27d;fill-opacity:1;fill-rule:nonzero;stroke:none;stroke-width:0.1"
         id="path158" /><path
         d="m 1474.82,656.53 c 0,0 -41.25,-4.08 -44.56,-30.88 -3.3,-26.81 39.55,-135.98 45.69,-145.87 11.17,-18 76.97,-79.69 76.97,-79.69 l 12.13,7.35 c 0,0 -46.67,79.01 -53.9,86.4 -11.34,11.61 -22.36,153.4 -36.33,162.69"
         style="fill:#ffb27d;fill-opacity:1;fill-rule:nonzero;stroke:none;stroke-width:0.1"
         id="path160" /><path
         d="m 1495.96,605.32 c 0,0 4.23,69.11 -48.66,52.4 -52.9,-16.71 8.21,-135.58 8.21,-135.58 0,0 31.04,1.53 42.05,28.62 l -1.6,54.56"
         style="fill:#8c9df4;fill-opacity:1;fill-rule:nonzero;stroke:none;stroke-width:0.1"
         id="path162" /><path
         d="m 1951.45,192.15 h -369.81 v 13.32 h 369.81 v -13.32"
         style="fill:#94b0ed;fill-opacity:1;fill-rule:nonzero;stroke:none;stroke-width:0.1"
         id="path164" /><path
         d="m 1598.95,195.43 h -17.31 v -42.79 h 17.31 v 42.79"
         style="fill:#94b0ed;fill-opacity:1;fill-rule:nonzero;stroke:none;stroke-width:0.1"
         id="path166" /><path
         d="m 1951.45,205.47 h -19.73 v -52.83 h 19.73 v 52.83"
         style="fill:#94b0ed;fill-opacity:1;fill-rule:nonzero;stroke:none;stroke-width:0.1"
         id="path168" /><path
         d="m 1795.04,465.82 h -81.73 c -1.98,0 -3.61,1.63 -3.61,3.61 0,1.99 1.63,3.62 3.61,3.62 h 81.73 c 1.98,0 3.61,-1.63 3.61,-3.62 0,-1.98 -1.63,-3.61 -3.61,-3.61"
         style="fill:#abc1ef;fill-opacity:1;fill-rule:nonzero;stroke:none;stroke-width:0.1"
         id="path170" /><path
         d="m 1917.75,465.82 h -81.72 c -1.99,0 -3.61,1.63 -3.61,3.61 0,1.99 1.62,3.62 3.61,3.62 h 81.72 c 1.99,0 3.62,-1.63 3.62,-3.62 0,-1.98 -1.63,-3.61 -3.62,-3.61"
         style="fill:#abc1ef;fill-opacity:1;fill-rule:nonzero;stroke:none;stroke-width:0.1"
         id="path172" /><path
         d="m 1724.56,617.13 -76.78,27.97 c -1.87,0.68 -2.84,2.76 -2.16,4.63 0.68,1.87 2.76,2.84 4.63,2.16 l 76.79,-27.97 c 1.86,-0.68 2.84,-2.77 2.16,-4.64 -0.68,-1.86 -2.77,-2.83 -4.64,-2.15"
         style="fill:#abc1ef;fill-opacity:1;fill-rule:nonzero;stroke:none;stroke-width:0.1"
         id="path174" /><path
         d="m 908.819,161.07 c -0.905,-2.43 -73.458,-5.17 -73.799,2.52 -0.011,0.12 -0.011,0.25 -0.011,0.39 0,0.2 0.006,0.41 0.015,0.65 0.013,0.8 0.063,1.59 0.166,2.38 l 0.011,0.05 c 0.2,1.51 0.532,3.01 0.864,4.48 0.443,1.94 1.358,4.18 2.273,6.52 1.318,3.4 2.636,7.03 2.464,10.31 -0.523,10.56 -4.324,32.78 -4.324,32.78 l 20.878,2.32 c 0,0 3.299,-30.66 7.262,-37.53 5.37,-9.33 14.754,-14.46 24.66,-17.28 1.117,-0.32 2.223,-0.64 3.329,-0.94 8.79,-2.41 17.017,-4.49 16.212,-6.65"
         style="fill:#f4a36c;fill-opacity:1;fill-rule:nonzero;stroke:none;stroke-width:0.1"
         id="path176" /><path
         d="m 909.523,160.98 c -0.905,-2.43 -7.704,-7.85 -24.881,-7.11 -17.188,0.75 -13.829,3.76 -26.149,2.7 -12.32,-1.07 -23.132,-0.67 -23.473,7.02 -0.011,0.12 -0.011,0.25 -0.011,0.39 0,0.74 0.071,1.8 0.181,3.03 l 0.011,0.05 c 0.2,1.51 0.532,3.01 0.864,4.48 0.443,1.94 1.358,4.18 2.273,6.52 7.785,-2.06 18.114,-11.3 28.895,-12.7 14.11,-1.84 25.264,2.21 25.264,2.21 l 0.11,0.15 c 10.47,-1.89 17.731,-4.57 16.916,-6.74"
         style="fill:#0f2549;fill-opacity:1;fill-rule:nonzero;stroke:none;stroke-width:0.1"
         id="path178" /><path
         d="m 919.389,477.79 v 0 c -6.54,0 -11.842,5.31 -11.842,11.85 v 74.79 h 23.684 v -74.79 c 0,-6.54 -5.301,-11.85 -11.842,-11.85"
         style="fill:#cde3fd;fill-opacity:1;fill-rule:nonzero;stroke:none;stroke-width:0.1"
         id="path180" /><path
         d="m 919.389,481.23 v 0 c -4.859,0 -8.799,3.94 -8.799,8.8 v 26.6 h 17.598 v -26.6 c 0,-4.86 -3.939,-8.8 -8.799,-8.8"
         style="fill:#94b7ea;fill-opacity:1;fill-rule:nonzero;stroke:none;stroke-width:0.1"
         id="path182" /><path
         d="m 954.748,477.79 v 0 c -6.54,0 -11.842,5.31 -11.842,11.85 v 74.79 h 23.684 v -74.79 c 0,-6.54 -5.301,-11.85 -11.842,-11.85"
         style="fill:#cde3fd;fill-opacity:1;fill-rule:nonzero;stroke:none;stroke-width:0.1"
         id="path184" /><path
         d="m 954.748,481.23 v 0 c -4.859,0 -8.799,3.94 -8.799,8.8 v 33.98 h 17.598 v -33.98 c 0,-4.86 -3.94,-8.8 -8.799,-8.8"
         style="fill:#94b7ea;fill-opacity:1;fill-rule:nonzero;stroke:none;stroke-width:0.1"
         id="path186" /><path
         d="m 887.396,477.79 v 0 c -6.541,0 -11.842,5.31 -11.842,11.85 v 74.79 h 23.684 v -74.79 c 0,-6.54 -5.301,-11.85 -11.842,-11.85"
         style="fill:#cde3fd;fill-opacity:1;fill-rule:nonzero;stroke:none;stroke-width:0.1"
         id="path188" /><path
         d="m 887.396,481.23 v 0 c -4.859,0 -8.799,3.94 -8.799,8.8 v 33.98 h 17.598 v -33.98 c 0,-4.86 -3.94,-8.8 -8.799,-8.8"
         style="fill:#94b7ea;fill-opacity:1;fill-rule:nonzero;stroke:none;stroke-width:0.1"
         id="path190" /><path
         d="m 867.454,470.49 h -6.66 v 19.78 h 6.66 v -19.78"
         style="fill:#77a4e5;fill-opacity:1;fill-rule:nonzero;stroke:none;stroke-width:0.1"
         id="path192" /><path
         d="m 981.35,470.49 h -6.66 v 19.78 h 6.66 v -19.78"
         style="fill:#77a4e5;fill-opacity:1;fill-rule:nonzero;stroke:none;stroke-width:0.1"
         id="path194" /><path
         d="M 981.35,484.49 H 860.794 v 5.78 H 981.35 v -5.78"
         style="fill:#77a4e5;fill-opacity:1;fill-rule:nonzero;stroke:none;stroke-width:0.1"
         id="path196" /><path
         d="m 704.779,740.48 c 0,0 -13.047,7.14 -27.718,2.63 -29.64,-9.11 -15.356,-33.46 -30.372,-43.22 -15.015,-9.76 -28.749,-39.6 -19.277,-54.87 9.47,-15.28 23.346,-28.29 31.759,-17.87 8.414,10.42 16.86,24.86 16.933,44.59 0.066,17.81 7.22,54.03 19.472,51.25 12.253,-2.78 9.203,17.49 9.203,17.49"
         style="fill:#233862;fill-opacity:1;fill-rule:nonzero;stroke:none;stroke-width:0.1"
         id="path198" /><path
         d="m 748.689,714.18 c 0,0 -14.301,31.93 -43.91,26.3 -29.608,-5.63 -33.683,-61.15 -14.169,-68.31 13.576,-4.97 58.079,42.01 58.079,42.01"
         style="fill:#233862;fill-opacity:1;fill-rule:nonzero;stroke:none;stroke-width:0.1"
         id="path200" /><path
         d="m 735.426,153.26 c -1.37,0 -2.56,0.84 -2.979,2.03 2.459,0 4.871,0 7.35,0 -0.861,-1.19 -2.301,-1.99 -3.96,-2.02 l -0.349,-0.01 c -0.02,0 -0.041,0 -0.062,0 m -183.025,0 c -0.021,0 -0.041,0 -0.062,0 l -0.349,0.01 c -1.632,0.03 -3.052,0.8 -3.917,1.96 2.415,0 4.826,0.01 7.288,0.01 -0.436,-1.17 -1.611,-1.98 -2.96,-1.98"
         style="fill:#c9d7f6;fill-opacity:1;fill-rule:nonzero;stroke:none;stroke-width:0.1"
         id="path202" /><path
         d="m 548.073,155.23 c -0.646,0.87 -0.982,1.95 -0.867,3.1 l -22.965,384.32 c -4.277,22.28 13.883,42.67 37.704,42.67 0.317,0 0.637,0 0.956,-0.01 l 85.54,-1.49 c 22.462,-0.51 41.992,-15.54 48.235,-37.13 l 49.396,-170.77 h 78.957 2.393 c 3.86,0 7.018,-3.16 7.018,-7.02 v -2.39 -11.59 -2.39 c 0,-3.86 -3.158,-7.02 -7.018,-7.02 h -2.393 -103.15 l 18.743,-187.18 c 0.112,-1.12 -0.207,-2.18 -0.825,-3.04 -2.479,0 -4.891,0 -7.35,0 -0.061,0.17 -0.105,0.35 -0.132,0.54 l -27.126,189.68 h -146.3 l -3.377,-189.68 c -0.029,-0.21 -0.081,-0.41 -0.151,-0.59 -2.462,0 -4.873,-0.01 -7.288,-0.01"
         style="fill:#bfd1f3;fill-opacity:1;fill-rule:nonzero;stroke:none;stroke-width:0.1"
         id="path204" /><path
         d="m 653.333,547.22 27.364,-69.24 c 0,0 26.366,-31.07 47.558,-21.06 l -67.057,130.22 -7.865,-39.92"
         style="fill:#abddda;fill-opacity:1;fill-rule:nonzero;stroke:none;stroke-width:0.1"
         id="path206" /><path
         d="m 855.362,407.36 c -19.874,19.76 -143.31,71.96 -184.988,76.43 l -47.638,17.42 c 0,0 -19.414,-46.5 -19.724,-90.94 -0.145,-20.71 25.421,-34.35 6.079,-34.35 0,0 168.609,0.67 175.083,0 10.596,-1.09 4.631,-26.06 8.124,-50.1 3.493,-24.05 47.604,-125.02 47.604,-125.02 0,0 12.843,-4.11 18.782,-3.77 6.387,0.38 9.343,2.52 9.343,2.52 0,0 11.463,183.83 -12.665,207.81"
         style="fill:#233862;fill-opacity:1;fill-rule:nonzero;stroke:none;stroke-width:0.1"
         id="path208" /><path
         d="m 799.873,161.23 c 0.338,-7.69 72.898,-4.95 73.802,-2.52 0.806,2.16 -7.42,4.23 -16.214,6.65 -1.107,0.3 -2.216,0.62 -3.326,0.93 -9.912,2.83 -19.288,7.96 -24.659,17.28 -3.963,6.88 -7.269,37.53 -7.269,37.53 l -20.88,-2.32 c 0,0 3.811,-22.22 4.333,-32.78 0.274,-5.53 -3.648,-12.05 -4.739,-16.82 -0.585,-2.59 -1.171,-5.25 -1.048,-7.95"
         style="fill:#ffb27d;fill-opacity:1;fill-rule:nonzero;stroke:none;stroke-width:0.1"
         id="path210" /><path
         d="m 823.347,154.21 c 12.319,1.06 8.965,-1.95 26.148,-2.7 17.183,-0.74 23.983,4.68 24.886,7.11 0.807,2.16 -6.449,4.84 -16.92,6.74 l -0.11,-0.16 c 0,0 -11.244,-5.61 -25.358,-3.78 -11.505,1.5 -23.137,6.66 -31.072,7.76 -0.585,-2.59 -1.171,-5.25 -1.048,-7.95 0.338,-7.69 11.155,-8.09 23.474,-7.02"
         style="fill:#304f7f;fill-opacity:1;fill-rule:nonzero;stroke:none;stroke-width:0.1"
         id="path212" /><path
         d="m 826.276,407.09 c -11.675,12.2 -89.035,37.22 -128.265,50 -9.448,3.08 -101.294,48.6 -101.294,48.6 0,0 -14.518,-129.76 2.998,-129.93 32.817,-0.33 159.884,-6.11 164.857,-6.47 15.042,-1.08 7.138,-35.9 13.093,-63.5 6.089,-28.24 23.702,-104.99 23.702,-104.99 0,0 12.842,-4.11 18.781,-3.77 6.387,0.38 9.344,2.52 9.344,2.52 0,0 20.304,182.96 -3.216,207.54"
         style="fill:#2b478b;fill-opacity:1;fill-rule:nonzero;stroke:none;stroke-width:0.1"
         id="path214" /><path
         d="m 719.17,666.24 c 0,0 -0.745,-5.24 -1.936,-11.74 -0.71,-3.89 -1.58,-8.24 -2.542,-12.17 -0.79,-3.24 -1.638,-6.2 -2.52,-8.38 -3.126,-7.74 -5.589,-15.29 -4.146,-16.83 0.115,-0.11 -16.4,-1.75 -25.562,5.17 -8.624,6.5 -12.208,23.99 -12.06,24.01 4.671,0.86 10.124,1.88 19.699,26.12 l 1.706,-1.1 27.361,-5.08"
         style="fill:#ffb27d;fill-opacity:1;fill-rule:nonzero;stroke:none;stroke-width:0.1"
         id="path216" /><path
         d="m 717.234,654.5 c -0.71,-3.89 -1.58,-8.24 -2.542,-12.17 -15.633,10.26 -21.22,19.4 -24.393,27.87 l 26.935,-15.7"
         style="fill:#ed975d;fill-opacity:1;fill-rule:nonzero;stroke:none;stroke-width:0.1"
         id="path218" /><path
         d="m 724.684,650.57 c 0,0 -40.709,6.84 -36.057,32.13 4.652,25.28 2.531,43.2 28.719,39.9 26.188,-3.3 29.448,-13.88 29.948,-22.7 0.5,-8.81 -11.901,-50.46 -22.61,-49.33"
         style="fill:#ffb27d;fill-opacity:1;fill-rule:nonzero;stroke:none;stroke-width:0.1"
         id="path220" /><path
         d="m 746.266,713.88 c 0,0 -26.924,-21.69 -44.788,-22.92 -17.866,-1.22 -19.591,7.03 -19.591,7.03 0,0 5.958,6.05 12.739,19.9 1.999,4.09 6.025,6.8 10.565,7.04 12.75,0.68 36.868,0.38 41.075,-11.05"
         style="fill:#233862;fill-opacity:1;fill-rule:nonzero;stroke:none;stroke-width:0.1"
         id="path222" /><path
         d="m 729.97,716.45 c 0,0 8.476,-8.76 11.026,-15.13 2.461,-6.15 2.778,-20.67 0.468,-26.36 0,0 14.523,26.08 7.225,39.22 -7.737,13.94 -18.719,2.27 -18.719,2.27"
         style="fill:#233862;fill-opacity:1;fill-rule:nonzero;stroke:none;stroke-width:0.1"
         id="path224" /><path
         d="m 737.836,601.34 c 0.039,17.1 -25.43,33.21 -25.43,33.21 0,0 -6.183,-16.98 -36.209,14.2 -1.063,1.1 -70.857,-45.01 -70.857,-45.01 0,0 -11.699,-59.78 -14.271,-87.11 -7.746,-82.3 2.025,-147.34 2.025,-147.34 0,0 100.748,-17.94 167.275,86.4 0,0 -23.518,53.84 -23.518,68.83 0,9.69 0.968,69.17 0.985,76.82"
         style="fill:#8c9df4;fill-opacity:1;fill-rule:nonzero;stroke:none;stroke-width:0.1"
         id="path226" /><path
         d="m 603.012,497.88 c 0,0 28.462,-38.02 110.43,-31.36 l -38.181,36.16 -72.249,-4.8"
         style="fill:#6980e0;fill-opacity:1;fill-rule:nonzero;stroke:none;stroke-width:0.1"
         id="path228" /><path
         d="m 705.979,508.33 -9.274,-11.97 c -3.203,-0.54 -33.513,12.68 -48.063,18.42 -20.021,7.9 -10.591,57.84 -4.25,40.93 8.444,-22.52 36.566,-34.68 61.587,-47.38"
         style="fill:#6980e0;fill-opacity:1;fill-rule:nonzero;stroke:none;stroke-width:0.1"
         id="path230" /><path
         d="m 790.612,542.95 25.79,11.88 -43.159,93.68 -25.79,-11.88 43.159,-93.68"
         style="fill:#314387;fill-opacity:1;fill-rule:nonzero;stroke:none;stroke-width:0.1"
         id="path232" /><path
         d="m 769.354,609.32 12.323,5.68 -20.622,44.76 -12.323,-5.68 20.622,-44.76"
         style="fill:#314387;fill-opacity:1;fill-rule:nonzero;stroke:none;stroke-width:0.1"
         id="path234" /><path
         d="m 699.988,485.42 22.534,3.47 c -0.063,0.42 -6.311,42.54 4.618,75.42 10.974,33.02 48.324,39.1 48.701,39.15 L 772.393,626 c -2.099,-0.32 -51.565,-8.39 -66.888,-54.49 -12.696,-38.2 -5.816,-84.16 -5.517,-86.09"
         style="fill:#314387;fill-opacity:1;fill-rule:nonzero;stroke:none;stroke-width:0.1"
         id="path236" /><path
         d="m 664.704,468.91 h 97.476 v 5.52 c 0,11.27 -9.14,20.41 -20.415,20.41 h -52.512 c -13.558,0 -24.549,-10.99 -24.549,-24.55 v -1.38"
         style="fill:#314387;fill-opacity:1;fill-rule:nonzero;stroke:none;stroke-width:0.1"
         id="path238" /><path
         d="m 713.442,516.92 h 105.484 v 7.6 H 713.442 v -7.6"
         style="fill:#314387;fill-opacity:1;fill-rule:nonzero;stroke:none;stroke-width:0.1"
         id="path240" /><path
         d="m 745.773,468.91 h 73.153 v 12.97 h -73.153 v -12.97"
         style="fill:#314387;fill-opacity:1;fill-rule:nonzero;stroke:none;stroke-width:0.1"
         id="path242" /><path
         d="m 774.274,481.88 h 23.118 v 5.27 h -23.118 v -5.27"
         style="fill:#314387;fill-opacity:1;fill-rule:nonzero;stroke:none;stroke-width:0.1"
         id="path244" /><path
         d="m 746.585,491.78 c 0,0 5.649,-7.29 7.501,-8.16 1.852,-0.87 3.049,-0.65 3.049,-0.65 l -3.807,6.85 -6.743,1.96"
         style="fill:#ffb27d;fill-opacity:1;fill-rule:nonzero;stroke:none;stroke-width:0.1"
         id="path246" /><path
         d="m 745.28,499.29 16.425,-7.98 c 0,0 -0.699,-1.14 -2.722,-1.05 -2.022,0.09 -7.123,1.96 -7.123,1.96 l -6.58,7.07"
         style="fill:#ffb27d;fill-opacity:1;fill-rule:nonzero;stroke:none;stroke-width:0.1"
         id="path248" /><path
         d="m 713.968,495.67 c 0,0 26.962,6.01 31.312,3.62 4.35,-2.4 14.982,-11.11 16.314,-14.14 1.331,-3.03 -9.686,2.3 -13.269,3.26 -2.32,0.62 -8.429,-1.5 -11.452,-2.51 -12.725,-4.24 -20.522,-2.06 -20.522,-2.06 l -2.383,11.83"
         style="fill:#ffb27d;fill-opacity:1;fill-rule:nonzero;stroke:none;stroke-width:0.1"
         id="path250" /><path
         d="M 1006.65,459.86 H 624.83 v 10.78 h 381.82 v -10.78"
         style="fill:#2557a0;fill-opacity:1;fill-rule:nonzero;stroke:none;stroke-width:0.1"
         id="path252" /><path
         d="m 1005,147.53 c -0.79,1.12 -2.43,3.45 -12.744,159.92 -5.079,77.06 -9.807,154.53 -9.854,155.31 l 4.036,0.24 c 5.148,-84.45 19.142,-305.38 22.022,-313.43 0,0.01 -0.05,0.13 -0.16,0.28 l -3.3,-2.32"
         style="fill:#2557a0;fill-opacity:1;fill-rule:nonzero;stroke:none;stroke-width:0.1"
         id="path254" /><path
         d="m 621.55,149.23 -3.305,2.33 c -0.11,-0.16 -0.153,-0.28 -0.155,-0.28 2.891,8.01 17.39,227.74 22.733,311.73 l 4.034,-0.26 C 644.808,461.98 639.902,384.94 634.648,308.29 623.981,152.68 622.339,150.35 621.55,149.23"
         style="fill:#2557a0;fill-opacity:1;fill-rule:nonzero;stroke:none;stroke-width:0.1"
         id="path256" /><path
         d="m 676.197,648.75 c 0,0 -41.146,0 -54.795,-13.66 -21.401,-21.42 -37.735,-115.08 -22.107,-133.88 17.599,-21.18 117.629,-22.29 117.629,-22.29 0,0 2.4,4.36 -2.956,16.75 -1.124,2.61 -65.327,28.42 -67.274,31.85 -1.947,3.42 -3.695,51.66 -1.478,59.72 2.217,8.05 30.981,61.51 30.981,61.51"
         style="fill:#8c9df4;fill-opacity:1;fill-rule:nonzero;stroke:none;stroke-width:0.1"
         id="path258" /><path
         d="m 1695.11,1262.79 c 1.66,-1.89 1.87,-4.01 1.05,-6.28 l -0.02,-0.03 c -1.51,-4.18 -6.52,-8.86 -12.33,-13.53 -0.74,-0.6 -1.4,-1.14 -1.98,-1.65 -0.15,-0.13 -0.3,-0.26 -0.44,-0.4 -0.12,-0.1 -0.23,-0.21 -0.35,-0.3 -5.42,-5 -3.38,-6.15 -13.12,-16.29 -11.1,-11.55 -18.75,-11.76 -20.93,-10.71 -1.84,0.9 1.9,7.03 6.05,13.92 0.2,0.33 0.39,0.66 0.6,1 0.55,0.92 1.1,1.85 1.65,2.77 4.85,8.29 3.61,12.18 2.46,24.51 -0.94,10.03 -15.6,56.01 -15.6,56.01 l 21.28,3.67 c 0,0 6.41,-36.62 13.47,-42.26 3.78,-3 8,-3.04 11.63,-5.27 0.26,-0.15 0.51,-0.31 0.76,-0.47 2.06,-1.37 4.16,-2.78 5.82,-4.69"
         style="fill:#ffb27d;fill-opacity:1;fill-rule:nonzero;stroke:none;stroke-width:0.1"
         id="path260" /><path
         d="m 1695.11,1262.79 c 1.66,-1.89 1.87,-4.01 1.05,-6.28 l -0.02,-0.03 c -1.85,-4.18 -6.73,-8.83 -12.35,-13.48 -0.74,-0.61 -1.38,-1.17 -1.96,-1.7 -0.15,-0.13 -0.3,-0.26 -0.44,-0.4 -0.12,-0.1 -0.23,-0.21 -0.35,-0.3 -5.42,-5 -3.38,-6.15 -13.12,-16.29 -11.1,-11.55 -18.75,-11.76 -20.93,-10.71 -1.84,0.9 1.9,7.03 6.05,13.92 2.16,0.79 12.2,4.87 19.79,14.58 6.45,8.23 10.82,18.71 15.21,25.14 0.48,0.09 0.77,0.15 1.25,0.24 2.06,-1.37 4.16,-2.78 5.82,-4.69"
         style="fill:#233862;fill-opacity:1;fill-rule:nonzero;stroke:none;stroke-width:0.1"
         id="path262" /><path
         d="m 1523.5,1276.09 c -1.32,-6.57 -10.68,-5.48 -21.14,-2.92 -10.46,2.56 -7.98,-0.48 -22.87,1.17 -14.89,1.64 -19.4,7.2 -19.85,9.41 -0.41,1.97 6.95,2.66 14.84,3.57 0.99,0.11 1.99,0.23 2.99,0.35 8.91,1.12 15.43,6.87 23.52,11.59 7.67,4.48 19.11,22.7 19.11,22.7 l 20.42,-1.62 c 0,0 -10.72,-16.27 -14.86,-23.35 -2.44,-4.16 -2.31,-9.67 -2,-13.92 0.15,-2.31 0.3,-4.67 -0.16,-6.98"
         style="fill:#ffb27d;fill-opacity:1;fill-rule:nonzero;stroke:none;stroke-width:0.1"
         id="path264" /><path
         d="m 1502.36,1273.17 c -10.46,2.56 -7.98,-0.48 -22.87,1.17 -14.89,1.64 -19.4,7.2 -19.85,9.41 -0.41,1.97 6.95,2.66 14.84,3.57 l 0.07,-0.15 c 0,0 8.93,-6.34 21.33,-6.63 10.1,-0.25 20.8,2.65 27.78,2.53 0.15,-2.31 0.3,-4.67 -0.16,-6.98 -1.32,-6.57 -10.68,-5.48 -21.14,-2.92"
         style="fill:#233862;fill-opacity:1;fill-rule:nonzero;stroke:none;stroke-width:0.1"
         id="path266" /><path
         d="m 1601.75,1406.66 19.09,-51.37 24.93,-67.07 c 0,0 6.76,-0.65 13.24,1.21 5.96,1.73 12.8,6.24 12.8,6.24 0,0 -6.92,72.01 -19.83,113.35 -3.31,10.61 -7.02,19.19 -11.11,24.02 -20.01,23.66 -39.12,-26.38 -39.12,-26.38"
         style="fill:#233862;fill-opacity:1;fill-rule:nonzero;stroke:none;stroke-width:0.1"
         id="path268" /><path
         d="m 1621.16,1488.24 c 10.87,3.5 39.22,0.05 69.97,-5.51 8.5,-1.54 17.07,2.34 21.54,9.72 l 77.4,6.05 c 0,0 30.83,-61.29 7.83,-92.42 -13.43,-18.19 -58.7,-15.58 -72.42,-12.77 -37.7,7.73 -80.56,30.13 -86.12,31.24 -9.1,1.82 -12.74,-16.37 -21.84,-35.48 -9.09,-19.1 -85.52,-84.61 -85.52,-84.61 0,0 -11.74,-0.11 -16.59,1.71 -5.22,1.95 -7.13,4.5 -7.13,4.5 0,0 84.68,168.47 112.88,177.57"
         style="fill:#2b478b;fill-opacity:1;fill-rule:nonzero;stroke:none;stroke-width:0.1"
         id="path270" /><path
         d="m 1809.52,1445.22 c -0.34,-44.47 -11.81,-64.91 -11.81,-64.91 -99.64,13.37 -121.69,105 -121.69,105 20.62,0.39 29.16,13.18 29.16,13.18 l 83.87,53.51 5.1,3.26 5.24,3.34 c 0,0 1.57,-8.48 3.48,-22.14 2.52,-18.19 5.66,-45.56 6.46,-74.32 0.16,-5.61 0.23,-11.26 0.19,-16.92"
         style="fill:#8c9df4;fill-opacity:1;fill-rule:nonzero;stroke:none;stroke-width:0.1"
         id="path272" /><path
         d="m 1713.13,1599.04 c 27.56,-15.18 83.47,-46.64 83.76,-46.43 0,0 20.55,-7.75 32.2,-0.01 19.43,12.91 29.86,47.64 -5.68,77.53 -17.72,14.9 -30.31,18.53 -32.23,42.33 -1.04,12.97 -18.83,55.87 -48.36,51.54 -2.37,-0.35 -4.75,-0.5 -7.14,-0.43 -3.44,0.09 -9.04,-0.43 -14.79,-3.85 -16.59,-9.88 -49.08,-114.81 -7.76,-120.68"
         style="fill:#152949;fill-opacity:1;fill-rule:nonzero;stroke:none;stroke-width:0.1"
         id="path274" /><path
         d="m 1736.23,1611.95 c -0.13,-0.08 13.56,-4.75 22.7,-0.7 8.61,3.81 15.13,17.97 15,17.97 -3.91,0.18 -8.38,6.45 -11.52,26.07 l -1.67,-0.6 -28.03,-10.09 c 0,0 2.03,-8.99 3.35,-17.56 1.1,-7.18 1.7,-14.07 0.17,-15.09"
         style="fill:#ffb27d;fill-opacity:1;fill-rule:nonzero;stroke:none;stroke-width:0.1"
         id="path276" /><path
         d="m 1732.71,1644.6 c 0,0 1.12,-4.85 2.75,-13.92 16.1,2.9 23.01,15.3 25.28,24.01 l -28.03,-10.09"
         style="fill:#ed975d;fill-opacity:1;fill-rule:nonzero;stroke:none;stroke-width:0.1"
         id="path278" /><path
         d="m 1728.54,1635.68 c 0,0 38.35,5.14 34.77,28.98 -3.57,23.83 -1.02,40.54 -25.66,38.26 -24.64,-2.27 -28.02,-12.08 -28.76,-20.33 -0.75,-8.24 9.58,-47.64 19.65,-46.91"
         style="fill:#ffb27d;fill-opacity:1;fill-rule:nonzero;stroke:none;stroke-width:0.1"
         id="path280" /><path
         d="m 1710.28,1695.66 c 0,0 24.55,-21.16 41.25,-22.86 16.7,-1.71 23.02,3.65 23.02,3.65 0,0 -9.84,8.17 -15.76,21.36 -1.75,3.89 -5.44,6.56 -9.68,6.92 -11.93,1.03 -34.53,1.5 -38.83,-9.07"
         style="fill:#152949;fill-opacity:1;fill-rule:nonzero;stroke:none;stroke-width:0.1"
         id="path282" /><path
         d="m 1725.63,1697.55 c 0,0 -8.21,-7.94 -10.8,-13.83 -2.49,-5.68 -3.24,-19.28 -1.26,-24.67 0,0 -12.79,24.88 -5.55,36.97 7.69,12.81 17.61,1.53 17.61,1.53"
         style="fill:#152949;fill-opacity:1;fill-rule:nonzero;stroke:none;stroke-width:0.1"
         id="path284" /><path
         d="m 1703.93,1555.46 c 1.16,-77.63 0.32,-61.41 8.81,-68.77 2.05,-1.78 7.8,-2.83 15.37,-3.33 23.81,-1.58 65.65,2.34 67.24,6.74 5.49,15.22 1.61,19.94 6.2,43.25 0.47,2.48 1.07,5.16 1.76,8.08 3.82,16.01 7.53,21.45 -6.02,47.16 -12.28,23.3 -24.81,42.36 -25.96,41.68 -32.42,-19.25 -35.27,-3.23 -35.27,-3.23 0,0 -32.69,-33.72 -32.13,-71.58"
         style="fill:#8c9df4;fill-opacity:1;fill-rule:nonzero;stroke:none;stroke-width:0.1"
         id="path286" /><path
         d="m 1620.84,1355.29 24.93,-67.07 c 0,0 6.76,-0.65 13.24,1.21 5.96,1.73 12.8,6.24 12.8,6.24 0,0 -6.92,72.01 -19.83,113.35 l -31.14,-53.73"
         style="fill:#2b478b;fill-opacity:1;fill-rule:nonzero;stroke:none;stroke-width:0.1"
         id="path288" /><path
         d="m 1736.06,1627.04 c 0,0 -29.41,-4.3 -33.61,-20.52 -3.73,-14.42 -17.09,-96.09 -17.09,-96.09 0,0 6.02,-14.13 13.85,-6.3 7.83,7.84 24.65,81.57 24.65,81.57 l 12.2,41.34"
         style="fill:#8c9df4;fill-opacity:1;fill-rule:nonzero;stroke:none;stroke-width:0.1"
         id="path290" /><path
         d="m 1726.98,1495.11 c 0,0 -4.93,-6.35 -6.54,-7.11 -1.61,-0.76 -2.65,-0.57 -2.65,-0.57 l 3.31,5.97 5.88,1.71"
         style="fill:#ffb27d;fill-opacity:1;fill-rule:nonzero;stroke:none;stroke-width:0.1"
         id="path292" /><path
         d="m 1728.11,1501.64 -14.3,-6.95 c 0,0 0.61,-0.99 2.37,-0.91 1.76,0.08 6.2,1.7 6.2,1.7 l 5.73,6.16"
         style="fill:#ffb27d;fill-opacity:1;fill-rule:nonzero;stroke:none;stroke-width:0.1"
         id="path294" /><path
         d="m 1809.33,1462.14 c -22.12,1.76 -77.95,20.57 -68.4,33.85 4.41,6.14 33.98,8.87 49.24,28.34 4.12,5.25 -0.51,19.56 -1.12,27.67 -0.25,3.5 -0.08,6.03 1.12,6.6 1.11,0.53 2.52,-0.94 3.98,-3.34 3.82,-6.28 7.99,-18.97 7.99,-18.97 l 0.73,0.17 c 2.52,-18.19 5.66,-45.56 6.46,-74.32"
         style="fill:#6980e0;fill-opacity:1;fill-rule:nonzero;stroke:none;stroke-width:0.1"
         id="path296" /><path
         d="m 1755.38,1498.5 c 0,0 -23.48,5.23 -27.27,3.14 -3.79,-2.08 -13.05,-9.67 -14.21,-12.31 -1.16,-2.64 8.44,2 11.56,2.84 2.02,0.54 7.34,-1.31 9.98,-2.19 11.08,-3.69 17.87,-1.79 17.87,-1.79 l 2.07,10.31"
         style="fill:#ffb27d;fill-opacity:1;fill-rule:nonzero;stroke:none;stroke-width:0.1"
         id="path298" /><path
         d="m 1771.33,1630.27 c 0,0 31.32,-2.09 42.23,-17.31 15.37,-21.43 31.86,-113.08 14.39,-125.26 -19.67,-13.72 -75.55,-3.28 -75.55,-3.28 0,0 -5.23,15.54 0.91,16.12 16.65,1.59 49.18,8.52 48.87,15.78 -0.46,11.05 -20.97,47.71 -20.97,54.99 0,7.28 -9.88,58.96 -9.88,58.96"
         style="fill:#8c9df4;fill-opacity:1;fill-rule:nonzero;stroke:none;stroke-width:0.1"
         id="path300" /><path
         d="m 1605.95,1485.31 h 149.43 v -3.3 h -148.1 l -1.33,3.3"
         style="fill:#f99746;fill-opacity:1;fill-rule:nonzero;stroke:none;stroke-width:0.1"
         id="path302" /><path
         d="m 1720.44,1482.01 h -113.16 l -34.04,84.66 h 112.99 l 34.21,-84.66"
         style="fill:#f99746;fill-opacity:1;fill-rule:nonzero;stroke:none;stroke-width:0.1"
         id="path304" /><path
         d="m 1635.84,1524.34 c -0.85,2.97 0.87,5.39 3.85,5.39 2.97,0 6.08,-2.42 6.93,-5.39 0.85,-2.98 -0.87,-5.39 -3.84,-5.39 -2.98,0 -6.08,2.41 -6.94,5.39"
         style="fill:#ffffff;fill-opacity:1;fill-rule:nonzero;stroke:none;stroke-width:0.1"
         id="path306" /><path
         d="M 1047.56,1088.11 H 807.302 c -27.82,0 -50.373,22.55 -50.373,50.37 v 323.87 c 0,27.82 22.553,50.37 50.373,50.37 h 533.378 c 27.82,0 50.37,-22.55 50.37,-50.37 v -13.48 c -41.64,-0.29 -96.29,-11.65 -162.82,-48.68 0,0 -90.17,-34.28 -107.08,-122.51 -3.56,-18.61 -12.13,-35.97 -24.54,-50.44 -19.09,-22.26 -44.08,-61.73 -46.07,-117.33 -0.27,-7.38 -1.27,-14.67 -2.98,-21.8 m -127.752,171.93 c 1.254,-4.06 5.241,-9.93 17.469,-13.2 4.84,-1.29 9.101,-1.77 12.779,-1.77 5.657,0 9.934,1.15 12.82,2.33 3.359,1.37 6.917,2.2 10.54,2.37 25.008,1.18 33.404,20.66 33.404,20.66 15.92,6.27 13.18,25 13.18,25 11,14.67 6.12,30.94 6.12,30.94 5.99,25.96 -4.66,37.6 -4.66,37.6 1.1,12.17 -1.89,20.78 -4.77,26.03 -2.47,4.49 -3.96,9.46 -4.38,14.56 -0.78,9.65 -4.9,16.73 -8.39,21.1 -2.87,3.61 -4.839,7.83 -5.882,12.33 -3.945,16.99 -21.163,23.63 -21.163,23.63 -13.486,7.61 -24.53,9.87 -32.899,9.87 -12.281,0 -18.798,-4.87 -18.798,-4.87 l -5.37,-2.73 -5.37,2.73 c 0,0 -6.517,4.87 -18.798,4.87 -8.368,0 -19.413,-2.26 -32.898,-9.87 0,0 -18.038,-6.95 -21.419,-24.85 -0.714,-3.78 -2.428,-7.3 -4.91,-10.23 -3.818,-4.52 -8.817,-12.53 -9.217,-23.81 -0.142,-4 -1.34,-7.88 -3.434,-11.29 -2.624,-4.28 -5.704,-11.46 -5.838,-21.7 -0.046,-3.45 -0.877,-6.85 -2.41,-9.95 -2.694,-5.44 -5.964,-16.33 -2.02,-33.42 0,0 -3.787,-12.64 2.847,-25.68 1.771,-3.49 2.88,-7.27 3.219,-11.16 0.44,-5.06 2.307,-12.22 8.844,-16.77 2.854,-1.99 5.327,-4.47 7.384,-7.28 4.17,-5.68 13.07,-14.4 28.988,-15.62 4.371,-0.34 8.671,-1.26 12.783,-2.78 2.853,-1.06 6.857,-2.01 12.003,-2.01 3.677,0 7.937,0.48 12.777,1.77 12.228,3.27 16.215,9.14 17.469,13.2"
         style="fill:#bacdfe;fill-opacity:1;fill-rule:nonzero;stroke:none;stroke-width:0.1"
         id="path308" /><path
         d="m 1340.68,1088.11 h -293.12 c 1.71,7.13 2.71,14.42 2.98,21.8 1.99,55.6 26.98,95.07 46.07,117.33 12.41,14.47 20.98,31.83 24.54,50.44 16.91,88.23 107.08,122.51 107.08,122.51 66.53,37.03 121.18,48.39 162.82,48.68 v -310.39 c 0,-27.82 -22.55,-50.37 -50.37,-50.37"
         style="fill:#bdb6da;fill-opacity:1;fill-rule:nonzero;stroke:none;stroke-width:0.1"
         id="path310" /><path
         d="m 925.178,1466.62 c 0,0 18.421,13.78 51.697,-5 0,0 17.218,-6.64 21.163,-23.63 1.043,-4.5 3.012,-8.72 5.882,-12.33 3.49,-4.37 7.61,-11.45 8.39,-21.1 0.42,-5.1 1.91,-10.07 4.38,-14.56 2.88,-5.25 5.87,-13.86 4.77,-26.03 0,0 10.65,-11.64 4.66,-37.6 0,0 4.88,-16.27 -6.12,-30.94 0,0 2.74,-18.73 -13.18,-25 0,0 -8.396,-19.48 -33.404,-20.66 -3.623,-0.17 -7.181,-1 -10.54,-2.37 -4.762,-1.94 -13.313,-3.83 -25.599,-0.56 -19.966,5.33 -17.962,17.62 -17.962,17.62 v 199.18 l 5.863,2.98"
         style="fill:#9db0f4;fill-opacity:1;fill-rule:nonzero;stroke:none;stroke-width:0.1"
         id="path312" /><path
         d="m 914.438,1466.62 c 0,0 -18.421,13.78 -51.696,-5 0,0 -18.038,-6.95 -21.419,-24.85 -0.714,-3.78 -2.428,-7.3 -4.91,-10.23 -3.818,-4.52 -8.817,-12.53 -9.217,-23.81 -0.142,-4 -1.34,-7.88 -3.434,-11.29 -2.624,-4.28 -5.704,-11.46 -5.838,-21.7 -0.046,-3.45 -0.877,-6.85 -2.41,-9.95 -2.694,-5.44 -5.964,-16.33 -2.02,-33.42 0,0 -3.787,-12.64 2.847,-25.68 1.771,-3.49 2.88,-7.27 3.219,-11.16 0.44,-5.06 2.307,-12.22 8.844,-16.77 2.854,-1.99 5.327,-4.47 7.384,-7.28 4.17,-5.68 13.07,-14.4 28.988,-15.62 4.371,-0.34 8.671,-1.26 12.783,-2.78 4.892,-1.81 13.168,-3.33 24.78,-0.24 19.966,5.33 17.962,17.62 17.962,17.62 v 199.18 l -5.863,2.98"
         style="fill:#9db0f4;fill-opacity:1;fill-rule:nonzero;stroke:none;stroke-width:0.1"
         id="path314" /><path
         d="m 866.998,1326.62 c 0.017,0.16 0.46,3.99 2.942,8.44 1.978,3.55 5.634,8.11 12.139,11.05 -3.39,2.94 -6.381,6.65 -8.909,11.09 -1.516,2.67 -2.691,5.28 -3.588,7.6 -1.071,2.78 -2.301,5.69 -5.203,6.34 -2.804,0.63 -6.701,2.61 -8.367,4.15 -5.74,5.3 -6.246,11.64 -6.376,11.83 0,0 4.662,-5.98 11.544,-8.85 7.415,-3.09 14.021,-3.66 17.881,-3.65 2.249,0 3.567,0.19 3.567,0.19 -0.518,-0.69 -1.293,-1.34 -2.198,-1.92 -4.494,-2.91 -6.007,-8.8 -3.36,-13.46 l 0.067,-0.11 c 5.619,-9.81 13.35,-15.39 22.982,-16.58 0,0 -4.088,-0.95 -8.06,-0.95 -0.33,0 -0.659,0 -0.985,0.02 -0.352,0.02 -0.703,0.02 -1.054,0.02 -5.707,0 -11.244,-2.03 -15.498,-5.87 -5.111,-4.61 -7.524,-9.34 -7.524,-9.34"
         style="fill:#5a79bb;fill-opacity:1;fill-rule:nonzero;stroke:none;stroke-width:0.1"
         id="path316" /><path
         d="m 865.258,1307.59 c -0.46,0 -0.921,0.02 -1.382,0.05 -6.237,0.37 -11.573,3.31 -15.431,8.52 -6.006,8.1 -4.639,15.47 -2.433,20.22 l 0.077,0.17 c 0.182,0.38 0.348,0.54 0.497,0.54 0.597,0 0.907,-2.65 0.819,-4.36 -0.235,-4.57 3.319,-11.63 7.742,-15.46 5.119,-4.43 13.411,-4.33 19.731,-4.54 2.367,-0.08 4.363,-0.24 2.251,-1.67 -3.022,-2.06 -7.666,-3.47 -11.871,-3.47"
         style="fill:#5a79bb;fill-opacity:1;fill-rule:nonzero;stroke:none;stroke-width:0.1"
         id="path318" /><path
         d="m 899.331,1382.94 c -1.971,0 -4.065,0.33 -5.91,0.98 -0.336,0.12 -0.669,0.25 -0.999,0.39 -4.458,1.89 -7.591,5.42 -9.058,10.23 -2.285,7.47 0.626,12.5 3.47,15.4 l 0.1,0.1 c 0.195,0.19 0.342,0.28 0.448,0.28 0.531,0 0.051,-2.14 -0.477,-3.41 -1.358,-3.28 -0.595,-9.36 1.642,-13.3 2.59,-4.56 8.671,-6.64 13.231,-8.43 1.707,-0.68 3.124,-1.31 1.21,-1.81 -1.093,-0.28 -2.348,-0.43 -3.657,-0.43"
         style="fill:#5a79bb;fill-opacity:1;fill-rule:nonzero;stroke:none;stroke-width:0.1"
         id="path320" /><path
         d="m 850.259,1282.84 c -1.56,0 -3.076,0.78 -3.945,2.2 -7.559,12.3 -17.689,21.23 -17.818,21.29 0.633,-0.29 15.608,-7.37 23.949,-22.94 -0.695,-0.38 -1.446,-0.55 -2.186,-0.55"
         style="fill:#5a79bb;fill-opacity:1;fill-rule:nonzero;stroke:none;stroke-width:0.1"
         id="path322" /><path
         d="m 906.697,1282.84 c -1.496,3.59 -3.724,5.92 -6.622,6.92 -1.238,0.43 -2.528,0.59 -3.781,0.59 -1.878,0 -3.671,-0.37 -5.068,-0.77 -2.567,-0.74 -4.402,-1.75 -4.419,-1.77 0,0 3.574,7.03 9.727,7.03 0.061,0 0.123,0 0.185,0 -5.246,10.96 4.258,18.84 4.397,19.4 0,0 -1.534,-5.95 -1.522,-10.34 0.01,-3.69 0.702,-8.53 3.92,-10.75 5.491,-3.38 3.183,-10.31 3.183,-10.31"
         style="fill:#5a79bb;fill-opacity:1;fill-rule:nonzero;stroke:none;stroke-width:0.1"
         id="path324" /><path
         d="m 849.444,1406.1 c -1.122,0 -1.887,0.15 -1.887,0.15 3.383,1.94 5.415,4.44 6.043,7.44 0.669,3.2 -0.33,6.53 -1.286,8.76 -1.053,2.45 -2.291,4.14 -2.304,4.16 0,0 7.563,-2.72 8.205,-8.95 2.86,1.83 5.626,2.5 8.139,2.5 6.465,0 11.255,-4.39 11.667,-4.44 0,0 -3.293,0.42 -6.768,0.42 -1.253,0 -2.531,-0.06 -3.685,-0.21 -3.659,-0.47 -8.378,-1.76 -10.175,-5.23 -1.796,-3.95 -5.634,-4.6 -7.949,-4.6"
         style="fill:#5a79bb;fill-opacity:1;fill-rule:nonzero;stroke:none;stroke-width:0.1"
         id="path326" /><path
         d="m 823.867,1341.33 c -1.122,0 -1.887,0.15 -1.887,0.15 3.384,1.94 5.416,4.44 6.043,7.44 0.669,3.2 -0.33,6.53 -1.286,8.75 -1.053,2.46 -2.29,4.15 -2.303,4.17 0,0 7.563,-2.72 8.204,-8.96 2.861,1.84 5.626,2.51 8.14,2.51 6.464,0 11.254,-4.4 11.667,-4.44 0,0 -3.294,0.42 -6.769,0.42 -1.253,0 -2.53,-0.06 -3.685,-0.21 -3.658,-0.47 -8.378,-1.76 -10.175,-5.23 -1.796,-3.95 -5.634,-4.6 -7.949,-4.6"
         style="fill:#5a79bb;fill-opacity:1;fill-rule:nonzero;stroke:none;stroke-width:0.1"
         id="path328" /><path
         d="m 884.875,1424.42 c 0,0 -2.883,8.65 3.974,12.87 4.018,2.77 4.882,8.82 4.894,13.43 0.015,5.48 -1.899,12.92 -1.899,12.92 0.172,-0.7 12.04,-10.55 5.49,-24.24 0.078,0 0.155,0 0.232,0 7.681,0 12.145,-8.77 12.145,-8.77 -0.022,0.01 -2.312,1.28 -5.518,2.21 -1.745,0.5 -3.983,0.96 -6.329,0.96 -1.564,0 -3.175,-0.21 -4.721,-0.74 -3.619,-1.24 -6.401,-4.15 -8.268,-8.64"
         style="fill:#5a79bb;fill-opacity:1;fill-rule:nonzero;stroke:none;stroke-width:0.1"
         id="path330" /><path
         d="m 859.935,1259.52 c 0,0 -2.691,8.09 3.71,12.03 3.752,2.58 4.558,8.23 4.57,12.53 0.014,5.12 -1.774,12.06 -1.774,12.06 0.162,-0.66 11.241,-9.85 5.127,-22.63 0.071,0 0.143,0 0.214,0 7.173,0 11.341,-8.18 11.341,-8.18 -0.021,0.01 -2.159,1.19 -5.152,2.05 -1.63,0.47 -3.719,0.9 -5.909,0.9 -1.46,0 -2.965,-0.19 -4.408,-0.69 -3.378,-1.16 -5.975,-3.87 -7.719,-8.07"
         style="fill:#5a79bb;fill-opacity:1;fill-rule:nonzero;stroke:none;stroke-width:0.1"
         id="path332" /><path
         d="m 972.453,1326.62 c 0,0 -2.413,4.73 -7.525,9.34 -4.253,3.84 -9.79,5.87 -15.497,5.87 -0.351,0 -0.702,0 -1.054,-0.02 -0.326,-0.02 -0.656,-0.02 -0.985,-0.02 -3.973,0 -8.06,0.95 -8.06,0.95 9.631,1.19 17.364,6.77 22.981,16.58 l 0.067,0.11 c 2.647,4.66 1.135,10.55 -3.359,13.46 -0.905,0.58 -1.681,1.23 -2.198,1.92 0,0 1.318,-0.19 3.567,-0.19 3.86,0 10.466,0.56 17.88,3.65 6.882,2.87 11.544,8.85 11.544,8.85 -0.13,-0.19 -0.635,-6.53 -6.375,-11.83 -1.667,-1.54 -5.564,-3.52 -8.367,-4.15 -2.902,-0.65 -4.133,-3.56 -5.203,-6.34 -0.897,-2.32 -2.072,-4.93 -3.588,-7.6 -2.527,-4.44 -5.519,-8.15 -8.909,-11.09 6.504,-2.94 10.161,-7.5 12.138,-11.05 2.482,-4.45 2.925,-8.28 2.943,-8.44"
         style="fill:#5a79bb;fill-opacity:1;fill-rule:nonzero;stroke:none;stroke-width:0.1"
         id="path334" /><path
         d="m 974.193,1307.59 c -4.205,0 -8.849,1.41 -11.871,3.47 -2.112,1.43 -0.116,1.59 2.251,1.67 6.32,0.21 14.612,0.11 19.731,4.54 4.423,3.83 7.977,10.89 7.742,15.46 -0.088,1.71 0.222,4.36 0.819,4.36 0.149,0 0.315,-0.16 0.498,-0.54 l 0.076,-0.17 c 2.205,-4.75 3.573,-12.12 -2.432,-20.22 -3.859,-5.21 -9.195,-8.15 -15.431,-8.52 -0.462,-0.03 -0.923,-0.05 -1.383,-0.05"
         style="fill:#5a79bb;fill-opacity:1;fill-rule:nonzero;stroke:none;stroke-width:0.1"
         id="path336" /><path
         d="m 940.12,1382.94 c -1.309,0 -2.564,0.15 -3.657,0.43 -1.914,0.5 -0.498,1.13 1.21,1.81 4.56,1.79 10.641,3.87 13.23,8.43 2.237,3.94 3.001,10.02 1.643,13.3 -0.528,1.27 -1.007,3.41 -0.477,3.41 0.106,0 0.253,-0.09 0.448,-0.28 l 0.099,-0.1 c 2.844,-2.9 5.755,-7.93 3.471,-15.4 -1.468,-4.81 -4.6,-8.34 -9.058,-10.23 -0.33,-0.14 -0.664,-0.27 -0.999,-0.39 -1.846,-0.65 -3.939,-0.98 -5.91,-0.98"
         style="fill:#5a79bb;fill-opacity:1;fill-rule:nonzero;stroke:none;stroke-width:0.1"
         id="path338" /><path
         d="m 987.687,1289.4 c -1.239,0 -2.473,0.49 -3.382,1.46 12.882,12.09 29.335,14.01 30.025,14.09 -0.14,-0.02 -12.59,-5.24 -23.687,-14.48 -0.862,-0.72 -1.911,-1.07 -2.956,-1.07"
         style="fill:#5a79bb;fill-opacity:1;fill-rule:nonzero;stroke:none;stroke-width:0.1"
         id="path340" /><path
         d="m 932.755,1282.84 c 0,0 -2.309,6.93 3.182,10.31 3.219,2.22 3.91,7.06 3.919,10.75 0.012,4.39 -1.52,10.34 -1.52,10.34 0.138,-0.56 9.642,-8.44 4.397,-19.4 0.061,0 0.123,0 0.184,0 6.153,0 9.728,-7.03 9.728,-7.03 -0.018,0.02 -1.853,1.03 -4.42,1.77 -1.397,0.4 -3.19,0.77 -5.069,0.77 -1.252,0 -2.543,-0.16 -3.78,-0.59 -2.899,-1 -5.126,-3.33 -6.621,-6.92"
         style="fill:#5a79bb;fill-opacity:1;fill-rule:nonzero;stroke:none;stroke-width:0.1"
         id="path342" /><path
         d="m 990.007,1406.1 c -2.315,0 -6.153,0.65 -7.949,4.6 -1.798,3.47 -6.516,4.76 -10.175,5.23 -1.154,0.15 -2.432,0.21 -3.685,0.21 -3.475,0 -6.769,-0.42 -6.769,-0.42 0.413,0.05 5.202,4.44 11.667,4.44 2.513,0 5.279,-0.67 8.14,-2.5 0.641,6.23 8.204,8.95 8.204,8.95 -0.012,-0.02 -1.25,-1.71 -2.303,-4.16 -0.956,-2.23 -1.955,-5.56 -1.286,-8.76 0.627,-3 2.66,-5.5 6.043,-7.44 0,0 -0.765,-0.15 -1.887,-0.15"
         style="fill:#5a79bb;fill-opacity:1;fill-rule:nonzero;stroke:none;stroke-width:0.1"
         id="path344" /><path
         d="m 1015.58,1341.33 c -2.31,0 -6.15,0.65 -7.95,4.6 -1.79,3.47 -6.51,4.76 -10.171,5.23 -1.154,0.15 -2.431,0.21 -3.684,0.21 -3.475,0 -6.769,-0.42 -6.769,-0.42 0.413,0.04 5.202,4.44 11.667,4.44 2.517,0 5.277,-0.67 8.137,-2.51 0.64,6.24 8.21,8.96 8.21,8.96 -0.02,-0.02 -1.25,-1.71 -2.31,-4.17 -0.95,-2.22 -1.95,-5.55 -1.28,-8.75 0.62,-3 2.66,-5.5 6.04,-7.44 0,0 -0.76,-0.15 -1.89,-0.15"
         style="fill:#5a79bb;fill-opacity:1;fill-rule:nonzero;stroke:none;stroke-width:0.1"
         id="path346" /><path
         d="m 954.576,1424.42 c -1.867,4.49 -4.649,7.4 -8.268,8.64 -1.546,0.53 -3.158,0.74 -4.722,0.74 -2.345,0 -4.583,-0.46 -6.327,-0.96 -3.207,-0.93 -5.497,-2.2 -5.519,-2.21 0,0 4.464,8.77 12.145,8.77 0.077,0 0.154,0 0.231,0 -6.549,13.69 5.319,23.54 5.492,24.24 0,0 -1.915,-7.44 -1.9,-12.92 0.011,-4.61 0.875,-10.66 4.894,-13.43 6.857,-4.22 3.974,-12.87 3.974,-12.87"
         style="fill:#5a79bb;fill-opacity:1;fill-rule:nonzero;stroke:none;stroke-width:0.1"
         id="path348" /><path
         d="m 979.515,1259.52 c -1.743,4.2 -4.341,6.91 -7.719,8.07 -1.442,0.5 -2.947,0.69 -4.407,0.69 -2.19,0 -4.28,-0.43 -5.909,-0.9 -2.992,-0.86 -5.131,-2.04 -5.152,-2.05 0,0 4.168,8.18 11.34,8.18 0.071,0 0.143,0 0.215,0 -6.114,12.78 4.965,21.97 5.126,22.63 0,0 -1.786,-6.94 -1.773,-12.06 0.011,-4.3 0.818,-9.95 4.569,-12.53 6.401,-3.94 3.71,-12.03 3.71,-12.03"
         style="fill:#5a79bb;fill-opacity:1;fill-rule:nonzero;stroke:none;stroke-width:0.1"
         id="path350" /><path
         d="m 922.054,1260.04 h -2.245 c 0.792,2.57 0.492,4.42 0.492,4.42 v 199.18 l 2.246,-0.01 -0.493,-203.59"
         style="fill:#5a79bb;fill-opacity:1;fill-rule:nonzero;stroke:none;stroke-width:0.1"
         id="path352" /><path
         d="m 919.809,1260.04 -2.247,0.01 0.493,203.59 h 2.246 v -199.18 c 0,0 0.3,-1.85 -0.492,-4.42"
         style="fill:#5a79bb;fill-opacity:1;fill-rule:nonzero;stroke:none;stroke-width:0.1"
         id="path354" /><path
         d="M 1215.18,1463.64 H 1047 v 17.13 h 168.18 v -17.13"
         style="fill:#2b478b;fill-opacity:1;fill-rule:nonzero;stroke:none;stroke-width:0.1"
         id="path356" /><path
         d="M 1181.62,1430.86 H 1047 v 8.56 h 134.62 v -8.56"
         style="fill:#9db0f4;fill-opacity:1;fill-rule:nonzero;stroke:none;stroke-width:0.1"
         id="path358" /><path
         d="M 1134.89,1407.79 H 1047 v 8.57 h 87.89 v -8.57"
         style="fill:#2b478b;fill-opacity:1;fill-rule:nonzero;stroke:none;stroke-width:0.1"
         id="path360" /><path
         d="m 1235.93,1407.79 h -87.89 v 8.57 h 87.89 v -8.57"
         style="fill:#9db0f4;fill-opacity:1;fill-rule:nonzero;stroke:none;stroke-width:0.1"
         id="path362" /><path
         d="m 1276.53,1430.86 h -81.2 v 8.56 h 81.2 v -8.56"
         style="fill:#2b478b;fill-opacity:1;fill-rule:nonzero;stroke:none;stroke-width:0.1"
         id="path364" /><path
         d="m 1303.3,1463.64 h -78.06 v 17.13 h 78.06 v -17.13"
         style="fill:#f78248;fill-opacity:1;fill-rule:nonzero;stroke:none;stroke-width:0.1"
         id="path366" /><path
         d="M 942.323,1189.56 H 807.998 v 13.68 h 134.325 v -13.68"
         style="fill:#2b478b;fill-opacity:1;fill-rule:nonzero;stroke:none;stroke-width:0.1"
         id="path368" /><path
         d="M 915.516,1163.38 H 807.998 v 6.84 h 107.518 v -6.84"
         style="fill:#9db0f4;fill-opacity:1;fill-rule:nonzero;stroke:none;stroke-width:0.1"
         id="path370" /><path
         d="m 878.193,1144.95 h -70.195 v 6.84 h 70.195 v -6.84"
         style="fill:#9db0f4;fill-opacity:1;fill-rule:nonzero;stroke:none;stroke-width:0.1"
         id="path372" /><path
         d="m 958.896,1144.95 h -70.195 v 6.84 h 70.195 v -6.84"
         style="fill:#2b478b;fill-opacity:1;fill-rule:nonzero;stroke:none;stroke-width:0.1"
         id="path374" /><path
         d="m 991.319,1163.38 h -64.846 v 6.84 h 64.846 v -6.84"
         style="fill:#9db0f4;fill-opacity:1;fill-rule:nonzero;stroke:none;stroke-width:0.1"
         id="path376" /><path
         d="m 1012.7,1189.56 h -62.339 v 13.68 h 62.339 v -13.68"
         style="fill:#f78248;fill-opacity:1;fill-rule:nonzero;stroke:none;stroke-width:0.1"
         id="path378" /><path
         d="m 1216.07,1359.66 c 3.98,-3.94 4.02,-10.37 0.08,-14.35 -3.93,-3.98 -10.36,-4.02 -14.34,-0.09 -3.99,3.94 -4.02,10.36 -0.09,14.35 3.94,3.98 10.36,4.02 14.35,0.09"
         style="fill:#ffffff;fill-opacity:1;fill-rule:nonzero;stroke:none;stroke-width:0.1"
         id="path380" /><path
         d="m 1175.47,1316.94 c 4.43,-4.38 4.47,-11.53 0.09,-15.96 -4.38,-4.44 -11.52,-4.48 -15.96,-0.1 -4.43,4.38 -4.47,11.53 -0.09,15.96 4.38,4.44 11.52,4.48 15.96,0.1"
         style="fill:#ffffff;fill-opacity:1;fill-rule:nonzero;stroke:none;stroke-width:0.1"
         id="path382" /><path
         d="m 1125.33,1339.39 c 3.79,-3.74 3.82,-9.84 0.08,-13.62 -3.74,-3.79 -9.83,-3.82 -13.62,-0.08 -3.78,3.74 -3.82,9.83 -0.08,13.62 3.74,3.78 9.84,3.82 13.62,0.08"
         style="fill:#ffffff;fill-opacity:1;fill-rule:nonzero;stroke:none;stroke-width:0.1"
         id="path384" /><path
         d="m 1079.76,1313.27 c 3.78,-3.74 3.82,-9.84 0.08,-13.62 -3.74,-3.79 -9.84,-3.82 -13.62,-0.08 -3.79,3.73 -3.82,9.83 -0.08,13.62 3.74,3.78 9.84,3.82 13.62,0.08"
         style="fill:#ffffff;fill-opacity:1;fill-rule:nonzero;stroke:none;stroke-width:0.1"
         id="path386" /><path
         d="m 1072.56,1307.16 45.97,26.35 48.81,-23.56 40.98,43.08 1.24,-1.18 -41.84,-43.98 -49.12,23.7 -45.18,-25.9 -0.86,1.49"
         style="fill:#ffffff;fill-opacity:1;fill-rule:nonzero;stroke:none;stroke-width:0.1"
         id="path388" /><path
         d="m 1240.22,1292.41 c -3.79,2.67 -4.7,7.92 -2.03,11.71 2.68,3.8 7.92,4.71 11.72,2.04 3.79,-2.68 4.7,-7.92 2.03,-11.72 -2.67,-3.8 -7.92,-4.71 -11.72,-2.03"
         style="fill:#ffffff;fill-opacity:1;fill-rule:nonzero;stroke:none;stroke-width:0.1"
         id="path390" /><path
         d="m 1267.58,1332.88 c -4.23,2.98 -5.24,8.81 -2.26,13.04 2.97,4.22 8.81,5.23 13.03,2.26 4.22,-2.98 5.24,-8.81 2.26,-13.04 -2.97,-4.22 -8.81,-5.23 -13.03,-2.26"
         style="fill:#ffffff;fill-opacity:1;fill-rule:nonzero;stroke:none;stroke-width:0.1"
         id="path392" /><path
         d="m 1311.63,1321.38 c -3.6,2.54 -4.47,7.52 -1.93,11.13 2.54,3.6 7.52,4.47 11.13,1.93 3.6,-2.54 4.47,-7.52 1.93,-11.13 -2.54,-3.6 -7.52,-4.47 -11.13,-1.93"
         style="fill:#ffffff;fill-opacity:1;fill-rule:nonzero;stroke:none;stroke-width:0.1"
         id="path394" /><path
         d="m 1345.32,1348.97 c -3.61,2.54 -4.47,7.52 -1.93,11.12 2.54,3.61 7.52,4.47 11.13,1.93 3.6,-2.53 4.46,-7.52 1.92,-11.12 -2.53,-3.61 -7.52,-4.47 -11.12,-1.93"
         style="fill:#ffffff;fill-opacity:1;fill-rule:nonzero;stroke:none;stroke-width:0.1"
         id="path396" /><path
         d="m 1350.37,1354.95 -33.98,-27.82 -43.13,12.57 -27.61,-40.82 -1.17,0.8 28.19,41.68 43.4,-12.66 33.4,27.35 0.9,-1.1"
         style="fill:#ffffff;fill-opacity:1;fill-rule:nonzero;stroke:none;stroke-width:0.1"
         id="path398" /><path
         d="m 1151.56,1154.31 -9.8,51.46 -4.28,-21.98 h -57.75 v 3.47 h 54.89 l 7.18,36.9 10.24,-53.81 4.61,18.16 h 9.98 l 6.8,31.68 8.71,-48.3 4.58,18.49 h 20.59 l 7.58,24.86 6.64,-43.52 5.33,18.66 h 17.04 l 5.01,27.3 10.76,-42.94 3.89,15.64 h 22.04 l 1.16,-13.03 12.14,47.46 7.97,-34.55 h 35.85 v -3.48 h -38.61 l -5.39,23.32 -13.63,-53.31 -2.67,30.12 h -16.14 l -6.61,-26.51 -10.24,40.87 -2.63,-14.36 h -17.32 l -8.99,-31.48 -6.73,44.18 -3.87,-12.7 h -20.45 l -7.84,-31.65 -8.47,46.99 -3.7,-17.21 h -10.07 l -7.8,-30.73"
         style="fill:#ffffff;fill-opacity:1;fill-rule:nonzero;stroke:none;stroke-width:0.1"
         id="path400" /><path
         d="m 1064.31,1122.39 h 292.63 v 121.72 h -292.63 z m 294.55,-1.92 H 1062.4 v 125.55 h 296.46 v -125.55"
         style="fill:#ffffff;fill-opacity:1;fill-rule:nonzero;stroke:none;stroke-width:0.1"
         id="path402" /><path
         d="M 2711.76,148.69 H 252.4 c -1.687,0 -3.068,1.38 -3.068,3.07 v 1.75 c 0,1.69 1.381,3.07 3.068,3.07 h 2459.36 c 1.69,0 3.07,-1.38 3.07,-3.07 v -1.75 c 0,-1.69 -1.38,-3.07 -3.07,-3.07"
         style="fill:#233862;fill-opacity:1;fill-rule:nonzero;stroke:none;stroke-width:0.1"
         id="path404" /></g></g></svg>
