<?xml version="1.0" standalone="no"?>
<!DOCTYPE svg PUBLIC "-//W3C//DTD SVG 20010904//EN"
 "http://www.w3.org/TR/2001/REC-SVG-20010904/DTD/svg10.dtd">
<svg version="1.0" xmlns="http://www.w3.org/2000/svg"
 width="768.000000pt" height="768.000000pt" viewBox="0 0 768.000000 768.000000"
 preserveAspectRatio="xMidYMid meet">
<metadata>
Created by potrace 1.10, written by Peter Selinger 2001-2011
</metadata>
<g transform="translate(0.000000,768.000000) scale(0.100000,-0.100000)"
fill="#000000" stroke="none">
<path d="M4400 7110 c-110 -31 -188 -77 -271 -159 -239 -239 -239 -603 0 -842
239 -239 603 -239 842 0 190 191 231 455 108 701 -44 87 -162 205 -249 249
-139 70 -296 88 -430 51z m241 -359 c86 -38 149 -132 149 -221 0 -124 -115
-240 -239 -240 -167 0 -288 181 -222 331 54 122 196 181 312 130z"/>
<path d="M2810 6805 c-123 -20 -219 -61 -318 -137 -59 -46 -149 -141 -163
-172 -12 -26 -62 -112 -70 -121 -4 -3 -55 2 -114 11 -94 15 -122 15 -204 5
-114 -15 -196 -40 -271 -83 -8 -4 -22 -11 -30 -15 -57 -25 -184 -138 -236
-208 -86 -118 -154 -301 -154 -417 0 -47 -13 -68 -42 -68 -39 0 -209 -84 -283
-139 -134 -102 -214 -208 -288 -381 -31 -72 -40 -129 -44 -274 -4 -117 -1
-159 11 -197 9 -26 16 -56 16 -66 0 -11 7 -28 15 -39 23 -31 17 -58 -21 -95
-57 -55 -167 -208 -203 -284 -19 -38 -38 -78 -42 -87 -16 -31 -47 -141 -63
-221 -34 -168 -9 -414 59 -572 52 -121 95 -194 166 -283 l59 -73 0 -278 c0
-234 3 -292 19 -368 30 -143 65 -235 138 -363 72 -125 228 -281 368 -367 111
-68 320 -143 401 -143 67 0 82 -9 121 -74 112 -187 257 -323 446 -419 93 -47
121 -58 233 -89 67 -18 106 -21 254 -21 112 0 189 4 215 12 22 7 56 16 75 21
65 16 199 73 265 113 50 30 145 105 193 151 54 51 143 158 155 186 4 8 16 29
27 45 54 83 103 214 131 350 18 86 19 185 19 2316 0 1943 -2 2232 -15 2275 -8
27 -15 57 -15 66 0 24 -56 140 -94 197 -82 124 -221 230 -366 281 -47 16 -186
40 -230 39 -19 -1 -73 -7 -120 -14z m205 -359 c52 -13 127 -55 157 -86 42 -44
86 -130 102 -200 16 -70 16 -225 13 -2235 -3 -1909 -5 -2167 -19 -2221 -21
-83 -39 -132 -65 -179 -13 -22 -27 -49 -32 -60 -18 -40 -108 -141 -166 -188
-65 -52 -167 -104 -256 -130 -83 -25 -293 -23 -377 3 -140 44 -244 109 -340
215 -47 51 -122 164 -122 184 0 13 -50 104 -68 124 -32 36 -84 51 -207 58 -66
4 -143 14 -171 22 -148 44 -278 135 -378 267 -41 54 -106 177 -106 202 0 7 -7
31 -15 53 -16 46 -21 350 -6 360 5 3 29 -2 53 -11 24 -8 63 -20 88 -24 25 -5
61 -14 80 -19 45 -14 325 -14 370 0 19 5 55 14 80 18 86 17 226 79 335 150 85
55 238 206 293 289 45 68 132 243 132 265 0 8 7 32 16 53 23 54 23 161 0 200
-21 35 -70 71 -115 84 -35 10 -107 -9 -153 -42 -28 -20 -78 -113 -78 -147 0
-19 -10 -47 -49 -131 -59 -129 -195 -263 -331 -327 -129 -60 -164 -67 -310
-67 -138 1 -204 14 -300 59 -37 17 -49 24 -120 69 -79 49 -202 194 -235 276
-4 8 -12 29 -20 45 -47 106 -62 328 -29 436 44 147 107 252 209 347 l65 62
141 0 c151 0 188 10 235 62 55 59 66 119 36 185 -40 90 -87 113 -236 113 -81
0 -117 4 -123 13 -26 40 -37 93 -40 190 -4 89 -1 116 16 160 34 91 53 121 120
188 64 64 113 93 198 119 40 12 43 12 62 -11 11 -13 20 -28 21 -32 0 -17 89
-123 136 -165 71 -61 79 -68 95 -75 8 -4 28 -16 44 -27 17 -11 37 -22 45 -26
153 -61 269 -82 361 -68 60 10 118 58 141 119 19 48 19 52 3 102 -31 91 -84
124 -225 139 -59 6 -95 19 -173 61 -34 18 -116 100 -128 128 -5 11 -13 27 -18
35 -31 54 -41 96 -41 183 0 133 36 222 123 304 99 93 233 136 358 113 68 -13
158 -52 200 -87 22 -18 102 -26 145 -14 75 20 134 113 134 210 0 72 37 148
107 217 89 89 216 123 338 90z"/>
<path d="M5945 6274 c-133 -51 -185 -83 -256 -153 -174 -175 -227 -430 -133
-649 8 -18 14 -39 14 -46 0 -8 -111 -127 -246 -265 l-247 -251 -434 0 c-462 0
-461 0 -517 -49 -30 -26 -56 -87 -56 -131 0 -44 26 -105 56 -131 57 -50 51
-49 574 -49 465 0 493 1 528 19 20 11 163 146 317 300 289 291 297 297 347
270 26 -14 113 -34 185 -44 114 -15 309 51 412 140 141 121 208 257 218 442 9
164 -54 321 -176 444 -71 71 -128 105 -259 153 -58 22 -270 21 -327 0z m256
-363 c86 -38 149 -132 149 -221 0 -124 -115 -240 -239 -240 -126 0 -241 114
-241 240 0 168 180 288 331 221z"/>
<path d="M6499 4410 c-60 -16 -83 -26 -129 -52 -8 -4 -22 -11 -30 -15 -19 -8
-89 -61 -115 -88 -43 -42 -83 -103 -115 -172 l-34 -73 -933 0 c-1005 0 -959 2
-1017 -49 -30 -26 -56 -87 -56 -131 0 -44 26 -105 56 -131 58 -51 12 -49 1016
-49 l933 0 19 -37 c39 -81 51 -100 94 -156 24 -32 67 -76 97 -98 59 -44 160
-99 184 -99 9 0 34 -7 56 -15 96 -34 274 -10 405 56 87 44 205 162 249 249
123 246 82 510 -108 701 -154 154 -371 214 -572 159z m238 -357 c129 -58 188
-205 129 -321 -79 -155 -255 -188 -379 -72 -125 116 -90 316 70 391 49 23 132
24 180 2z"/>
<path d="M4175 3093 c-44 -23 -65 -44 -86 -85 -45 -87 -8 -193 83 -239 35 -18
65 -19 470 -19 l433 0 248 -247 c255 -255 263 -265 236 -315 -15 -27 -35 -116
-44 -190 -8 -65 13 -181 47 -263 50 -120 158 -238 270 -295 242 -122 509 -81
699 109 239 239 239 603 0 842 -117 117 -263 179 -421 179 -74 0 -214 -30
-234 -50 -27 -27 -59 -1 -330 271 -154 154 -297 289 -318 300 -35 18 -64 19
-530 19 -430 -1 -497 -3 -523 -17z m2026 -902 c86 -38 149 -132 149 -221 0
-166 -189 -291 -333 -219 -160 80 -196 269 -73 388 72 70 171 90 257 52z"/>
<path d="M4400 1710 c-110 -31 -188 -77 -271 -159 -239 -239 -239 -603 0 -842
239 -239 603 -239 842 0 190 191 231 455 108 701 -44 87 -162 205 -249 249
-139 70 -296 88 -430 51z m237 -357 c129 -58 188 -205 129 -321 -79 -155 -255
-188 -379 -72 -125 116 -90 316 70 391 49 23 132 24 180 2z"/>
</g>
</svg>
