<?xml version="1.0"?>
<svg width="320" height="64" xmlns="http://www.w3.org/2000/svg" xmlns:svg="http://www.w3.org/2000/svg" xmlns:xlink="http://www.w3.org/1999/xlink">
 <style>.heavy { font: bold 30px sans-serif; }</style>
 <defs>
  <symbol height="768.000000pt" id="svg_2" preserveAspectRatio="xMidYMid meet" viewBox="0 0 768.000000 768.000000" width="768.000000pt" xmlns="http://www.w3.org/2000/svg">
   <metadata>Created by potrace 1.10, written by Peter Selinger 2001-2011</metadata>
   <g fill="#000000" transform="translate(0.000000,768.000000) scale(0.100000,-0.100000)">
    <path d="m4400,7110c-110,-31 -188,-77 -271,-159c-239,-239 -239,-603 0,-842c239,-239 603,-239 842,0c190,191 231,455 108,701c-44,87 -162,205 -249,249c-139,70 -296,88 -430,51zm241,-359c86,-38 149,-132 149,-221c0,-124 -115,-240 -239,-240c-167,0 -288,181 -222,331c54,122 196,181 312,130z"/>
    <path d="m2810,6805c-123,-20 -219,-61 -318,-137c-59,-46 -149,-141 -163,-172c-12,-26 -62,-112 -70,-121c-4,-3 -55,2 -114,11c-94,15 -122,15 -204,5c-114,-15 -196,-40 -271,-83c-8,-4 -22,-11 -30,-15c-57,-25 -184,-138 -236,-208c-86,-118 -154,-301 -154,-417c0,-47 -13,-68 -42,-68c-39,0 -209,-84 -283,-139c-134,-102 -214,-208 -288,-381c-31,-72 -40,-129 -44,-274c-4,-117 -1,-159 11,-197c9,-26 16,-56 16,-66c0,-11 7,-28 15,-39c23,-31 17,-58 -21,-95c-57,-55 -167,-208 -203,-284c-19,-38 -38,-78 -42,-87c-16,-31 -47,-141 -63,-221c-34,-168 -9,-414 59,-572c52,-121 95,-194 166,-283l59,-73l0,-278c0,-234 3,-292 19,-368c30,-143 65,-235 138,-363c72,-125 228,-281 368,-367c111,-68 320,-143 401,-143c67,0 82,-9 121,-74c112,-187 257,-323 446,-419c93,-47 121,-58 233,-89c67,-18 106,-21 254,-21c112,0 189,4 215,12c22,7 56,16 75,21c65,16 199,73 265,113c50,30 145,105 193,151c54,51 143,158 155,186c4,8 16,29 27,45c54,83 103,214 131,350c18,86 19,185 19,2316c0,1943 -2,2232 -15,2275c-8,27 -15,57 -15,66c0,24 -56,140 -94,197c-82,124 -221,230 -366,281c-47,16 -186,40 -230,39c-19,-1 -73,-7 -120,-14zm205,-359c52,-13 127,-55 157,-86c42,-44 86,-130 102,-200c16,-70 16,-225 13,-2235c-3,-1909 -5,-2167 -19,-2221c-21,-83 -39,-132 -65,-179c-13,-22 -27,-49 -32,-60c-18,-40 -108,-141 -166,-188c-65,-52 -167,-104 -256,-130c-83,-25 -293,-23 -377,3c-140,44 -244,109 -340,215c-47,51 -122,164 -122,184c0,13 -50,104 -68,124c-32,36 -84,51 -207,58c-66,4 -143,14 -171,22c-148,44 -278,135 -378,267c-41,54 -106,177 -106,202c0,7 -7,31 -15,53c-16,46 -21,350 -6,360c5,3 29,-2 53,-11c24,-8 63,-20 88,-24c25,-5 61,-14 80,-19c45,-14 325,-14 370,0c19,5 55,14 80,18c86,17 226,79 335,150c85,55 238,206 293,289c45,68 132,243 132,265c0,8 7,32 16,53c23,54 23,161 0,200c-21,35 -70,71 -115,84c-35,10 -107,-9 -153,-42c-28,-20 -78,-113 -78,-147c0,-19 -10,-47 -49,-131c-59,-129 -195,-263 -331,-327c-129,-60 -164,-67 -310,-67c-138,1 -204,14 -300,59c-37,17 -49,24 -120,69c-79,49 -202,194 -235,276c-4,8 -12,29 -20,45c-47,106 -62,328 -29,436c44,147 107,252 209,347l65,62l141,0c151,0 188,10 235,62c55,59 66,119 36,185c-40,90 -87,113 -236,113c-81,0 -117,4 -123,13c-26,40 -37,93 -40,190c-4,89 -1,116 16,160c34,91 53,121 120,188c64,64 113,93 198,119c40,12 43,12 62,-11c11,-13 20,-28 21,-32c0,-17 89,-123 136,-165c71,-61 79,-68 95,-75c8,-4 28,-16 44,-27c17,-11 37,-22 45,-26c153,-61 269,-82 361,-68c60,10 118,58 141,119c19,48 19,52 3,102c-31,91 -84,124 -225,139c-59,6 -95,19 -173,61c-34,18 -116,100 -128,128c-5,11 -13,27 -18,35c-31,54 -41,96 -41,183c0,133 36,222 123,304c99,93 233,136 358,113c68,-13 158,-52 200,-87c22,-18 102,-26 145,-14c75,20 134,113 134,210c0,72 37,148 107,217c89,89 216,123 338,90z"/>
    <path d="m5945,6274c-133,-51 -185,-83 -256,-153c-174,-175 -227,-430 -133,-649c8,-18 14,-39 14,-46c0,-8 -111,-127 -246,-265l-247,-251l-434,0c-462,0 -461,0 -517,-49c-30,-26 -56,-87 -56,-131c0,-44 26,-105 56,-131c57,-50 51,-49 574,-49c465,0 493,1 528,19c20,11 163,146 317,300c289,291 297,297 347,270c26,-14 113,-34 185,-44c114,-15 309,51 412,140c141,121 208,257 218,442c9,164 -54,321 -176,444c-71,71 -128,105 -259,153c-58,22 -270,21 -327,0zm256,-363c86,-38 149,-132 149,-221c0,-124 -115,-240 -239,-240c-126,0 -241,114 -241,240c0,168 180,288 331,221z"/>
    <path d="m6499,4410c-60,-16 -83,-26 -129,-52c-8,-4 -22,-11 -30,-15c-19,-8 -89,-61 -115,-88c-43,-42 -83,-103 -115,-172l-34,-73l-933,0c-1005,0 -959,2 -1017,-49c-30,-26 -56,-87 -56,-131c0,-44 26,-105 56,-131c58,-51 12,-49 1016,-49l933,0l19,-37c39,-81 51,-100 94,-156c24,-32 67,-76 97,-98c59,-44 160,-99 184,-99c9,0 34,-7 56,-15c96,-34 274,-10 405,56c87,44 205,162 249,249c123,246 82,510 -108,701c-154,154 -371,214 -572,159zm238,-357c129,-58 188,-205 129,-321c-79,-155 -255,-188 -379,-72c-125,116 -90,316 70,391c49,23 132,24 180,2z"/>
    <path d="m4175,3093c-44,-23 -65,-44 -86,-85c-45,-87 -8,-193 83,-239c35,-18 65,-19 470,-19l433,0l248,-247c255,-255 263,-265 236,-315c-15,-27 -35,-116 -44,-190c-8,-65 13,-181 47,-263c50,-120 158,-238 270,-295c242,-122 509,-81 699,109c239,239 239,603 0,842c-117,117 -263,179 -421,179c-74,0 -214,-30 -234,-50c-27,-27 -59,-1 -330,271c-154,154 -297,289 -318,300c-35,18 -64,19 -530,19c-430,-1 -497,-3 -523,-17zm2026,-902c86,-38 149,-132 149,-221c0,-166 -189,-291 -333,-219c-160,80 -196,269 -73,388c72,70 171,90 257,52z"/>
    <path d="m4400,1710c-110,-31 -188,-77 -271,-159c-239,-239 -239,-603 0,-842c239,-239 603,-239 842,0c190,191 231,455 108,701c-44,87 -162,205 -249,249c-139,70 -296,88 -430,51zm237,-357c129,-58 188,-205 129,-321c-79,-155 -255,-188 -379,-72c-125,116 -90,316 70,391c49,23 132,24 180,2z"/>
   </g>
  </symbol>
 </defs>
 <g class="layer">
  <title>Layer 1</title>
  <text class="heavy" fill="black" id="svg_1" x="68" y="43">Neuroinformatics</text>
  <use id="svg_3" transform="matrix(0.0647984 0 0 0.0655111 -0.108778 -1.37344)" x="0" xlink:href="#svg_2" y="0"/>
  <g id="svg_4"/>
 </g>
</svg>