<?xml version="1.0" standalone="no"?>
<!DOCTYPE svg PUBLIC "-//W3C//DTD SVG 20010904//EN"
 "http://www.w3.org/TR/2001/REC-SVG-20010904/DTD/svg10.dtd">
<svg version="1.0" xmlns="http://www.w3.org/2000/svg"
 width="700.000000pt" height="700.000000pt" viewBox="0 0 700.000000 700.000000"
 preserveAspectRatio="xMidYMid meet">
<metadata>
Created by potrace 1.11, written by Peter Selinger 2001-2013
</metadata>
<g transform="translate(0.000000,700.000000) scale(0.100000,-0.100000)"
fill="#000000" stroke="none">
<path d="M4068 6494 c-2 -1 -19 -6 -38 -9 -100 -18 -237 -106 -307 -197 -170
-219 -160 -500 25 -699 218 -237 560 -244 783 -17 107 108 160 235 160 378 -1
154 -50 268 -164 383 -79 80 -146 120 -246 147 -40 11 -206 22 -213 14z m149
-337 c103 -38 167 -155 141 -256 -12 -49 -74 -122 -122 -145 -151 -72 -326 61
-302 230 17 127 163 215 283 171z"/>
<path d="M2658 6214 c-2 -1 -31 -5 -65 -8 -71 -7 -187 -41 -223 -65 -14 -9
-38 -23 -54 -31 -51 -26 -180 -162 -217 -230 l-36 -65 -44 3 c-148 10 -288 6
-349 -11 -201 -54 -371 -196 -459 -382 -38 -80 -71 -196 -71 -250 0 -22 -4
-45 -8 -51 -4 -5 -34 -20 -67 -32 -207 -74 -358 -206 -453 -397 -56 -112 -62
-141 -68 -305 -5 -128 -3 -154 16 -220 12 -41 24 -84 26 -95 4 -14 -7 -34 -35
-65 -55 -60 -151 -201 -189 -276 -25 -50 -67 -167 -62 -176 1 -2 -4 -16 -10
-33 -28 -74 -31 -275 -5 -410 23 -120 94 -270 187 -398 l65 -87 1 -230 c1
-288 8 -348 54 -490 61 -189 197 -370 375 -496 107 -77 283 -148 404 -163 37
-5 73 -12 79 -16 6 -4 28 -33 47 -64 141 -221 346 -376 588 -445 76 -21 108
-24 254 -24 166 -1 201 4 316 43 214 73 410 230 524 420 87 144 129 274 139
430 6 100 9 3854 2 3995 -4 102 -23 177 -65 259 -86 171 -241 297 -423 341
-70 17 -168 31 -174 24z m82 -338 c138 -32 232 -148 249 -311 8 -73 5 -3764
-3 -3920 -14 -261 -180 -485 -432 -581 -94 -36 -261 -45 -367 -19 -207 50
-351 174 -462 399 -35 71 -45 84 -85 103 -26 12 -75 24 -115 28 -177 15 -213
23 -310 74 -47 24 -97 62 -151 116 -124 123 -187 252 -194 400 -4 91 -2 226 4
232 2 2 53 -8 113 -23 93 -24 128 -28 253 -28 196 0 317 29 470 112 110 60
242 174 329 285 39 50 117 203 143 280 24 71 32 165 18 203 -13 34 -58 71
-103 85 -40 13 -98 2 -144 -28 -25 -16 -69 -101 -77 -147 -17 -95 -135 -263
-243 -345 -51 -39 -195 -106 -244 -115 -70 -12 -252 -7 -314 9 -211 56 -405
246 -461 452 -23 84 -27 270 -7 335 36 123 94 220 187 313 l61 61 116 1 c149
1 188 12 232 64 56 65 56 131 1 206 -31 41 -71 53 -189 57 -54 2 -102 9 -108
15 -21 21 -34 89 -36 184 -3 129 26 204 115 294 61 63 166 123 213 123 14 0
32 -18 54 -53 41 -64 138 -163 204 -208 100 -70 270 -120 379 -113 72 5 125
37 154 94 25 49 25 80 0 129 -34 67 -79 92 -195 106 -123 16 -242 104 -297
221 -29 63 -30 70 -26 167 6 121 28 178 98 247 136 137 329 157 493 53 61 -39
145 -44 192 -12 44 30 82 106 88 174 5 69 36 134 91 188 89 90 188 119 306 93z"/>
<path d="M5517 5734 c-1 -1 -23 -4 -50 -7 -26 -3 -75 -18 -110 -33 -263 -115
-395 -410 -303 -679 l23 -70 -26 -30 c-29 -33 -134 -143 -306 -320 l-116 -119
-377 -2 c-207 0 -395 -4 -418 -8 -94 -17 -149 -125 -109 -219 14 -35 66 -86
88 -88 7 0 21 -2 32 -5 34 -7 841 -6 885 1 37 6 65 30 280 241 131 129 255
248 276 265 42 33 46 33 149 3 128 -36 283 -13 412 62 67 38 173 149 205 214
140 278 29 607 -251 742 -76 37 -94 42 -183 47 -55 3 -100 5 -101 5z m135
-348 c69 -33 120 -100 133 -174 8 -49 -13 -116 -53 -163 -86 -100 -223 -106
-316 -13 -41 42 -59 82 -62 144 -8 153 162 270 298 206z"/>
<path d="M5985 4033 c-103 -19 -211 -68 -284 -130 -49 -42 -107 -124 -140
-198 l-22 -50 -787 -1 c-906 -1 -909 -1 -960 -24 -44 -20 -82 -84 -82 -137 0
-68 62 -152 113 -154 12 0 31 -2 42 -5 11 -2 391 -4 845 -5 l825 -1 40 -76
c96 -183 291 -307 479 -305 154 1 278 53 387 162 78 77 103 117 134 206 30 89
39 189 23 278 -31 178 -196 360 -378 418 -60 19 -186 31 -235 22z m172 -346
c36 -19 90 -79 104 -116 30 -78 13 -168 -44 -229 -59 -63 -161 -84 -237 -49
-86 40 -133 110 -133 197 0 92 66 185 148 209 42 13 126 6 162 -12z"/>
<path d="M3890 2829 c-41 -3 -85 -11 -97 -17 -32 -17 -72 -73 -79 -110 -15
-75 32 -159 102 -182 23 -8 162 -12 423 -13 l389 -1 211 -212 c117 -117 217
-226 225 -244 12 -29 12 -38 0 -67 -17 -41 -41 -158 -39 -193 10 -161 59 -275
164 -380 190 -190 488 -212 701 -52 128 96 214 252 223 405 19 303 -236 577
-537 577 -68 0 -161 -16 -208 -37 -36 -15 -38 -15 -70 9 -18 14 -123 114 -233
223 -110 108 -226 219 -258 246 -57 48 -59 49 -130 50 -250 4 -724 3 -787 -2z
m1767 -836 c38 -18 100 -83 114 -121 28 -73 15 -150 -37 -211 -92 -107 -231
-108 -326 -3 -46 51 -62 100 -54 165 19 143 175 231 303 170z"/>
<path d="M4040 1564 c-262 -54 -457 -308 -436 -569 7 -87 20 -134 57 -205 97
-190 296 -312 494 -304 103 4 131 11 224 55 141 69 251 198 295 348 20 68 20
186 1 269 -66 278 -355 463 -635 406z m200 -339 c90 -46 142 -155 117 -244
-38 -140 -199 -211 -313 -138 -131 83 -152 227 -51 334 67 70 167 89 247 48z"/>
</g>
</svg>
