<?xml version="1.0" encoding="UTF-8" ?>
<!DOCTYPE svg PUBLIC "-//W3C//DTD SVG 1.1//EN" "http://www.w3.org/Graphics/SVG/1.1/DTD/svg11.dtd">
<svg width="1280pt" height="458pt" viewBox="0 0 1280 458" version="1.1" xmlns="http://www.w3.org/2000/svg">
<g id="#00467fff">
<path fill="#00467f" opacity="1.00" d=" M 93.32 24.46 C 481.16 24.48 869.00 24.46 1256.84 24.47 C 1256.87 139.01 1256.81 253.55 1256.87 368.09 C 1236.20 388.83 1215.47 409.51 1194.82 430.26 C 807.00 430.27 419.19 430.26 31.37 430.27 C 31.36 315.64 31.35 201.01 31.37 86.38 C 52.02 65.74 72.63 45.06 93.32 24.46 M 465.30 86.08 C 465.29 88.82 465.29 91.57 465.30 94.32 C 470.38 94.32 475.46 94.32 480.54 94.32 C 480.53 108.65 480.53 122.98 480.54 137.30 C 483.27 137.30 486.01 137.31 488.75 137.30 C 488.75 122.98 488.75 108.65 488.75 94.32 C 493.83 94.31 498.91 94.32 503.99 94.32 C 503.99 91.57 503.99 88.83 503.99 86.08 C 491.09 86.08 478.19 86.08 465.30 86.08 M 510.71 86.08 C 510.70 103.15 510.70 120.23 510.70 137.30 C 513.40 137.31 516.10 137.30 518.80 137.31 C 518.81 130.14 518.80 122.98 518.81 115.81 C 526.55 115.81 534.29 115.81 542.04 115.81 C 542.04 122.98 542.03 130.14 542.04 137.30 C 544.77 137.31 547.51 137.31 550.25 137.31 C 550.25 120.23 550.25 103.15 550.25 86.08 C 547.51 86.08 544.77 86.08 542.04 86.08 C 542.03 93.24 542.04 100.41 542.04 107.57 C 534.29 107.57 526.55 107.58 518.81 107.57 C 518.81 100.40 518.80 93.24 518.81 86.08 C 516.10 86.08 513.40 86.08 510.71 86.08 M 564.00 86.08 C 564.00 103.15 564.00 120.23 564.00 137.31 C 573.16 137.31 582.33 137.31 591.50 137.31 C 591.50 134.56 591.49 131.82 591.51 129.07 C 585.04 129.06 578.57 129.07 572.10 129.07 C 572.10 124.58 572.10 120.09 572.10 115.60 C 578.25 115.60 584.40 115.60 590.55 115.60 C 590.54 112.85 590.54 110.11 590.55 107.37 C 584.40 107.36 578.25 107.36 572.11 107.37 C 572.10 103.01 572.10 98.66 572.10 94.31 C 578.39 94.32 584.68 94.32 590.97 94.32 C 590.97 91.57 590.97 88.83 590.97 86.08 C 581.98 86.08 572.99 86.08 564.00 86.08 M 621.24 86.14 C 621.26 96.77 621.21 107.40 621.25 118.03 C 621.25 122.80 622.45 127.72 625.53 131.46 C 632.24 138.98 644.54 140.03 652.97 134.87 C 658.71 131.38 661.28 124.44 661.39 117.98 C 661.49 107.34 661.39 96.70 661.42 86.07 C 658.68 86.07 655.95 86.07 653.22 86.07 C 653.21 96.03 653.25 106.00 653.21 115.97 C 653.07 119.53 652.99 123.60 650.35 126.34 C 645.29 131.01 636.04 131.03 631.67 125.39 C 629.55 122.78 629.52 119.25 629.45 116.06 C 629.44 106.08 629.46 96.11 629.45 86.13 C 626.70 86.13 623.97 86.13 621.24 86.14 M 673.15 86.06 C 673.15 103.13 673.15 120.20 673.15 137.27 C 675.70 137.26 678.26 137.26 680.82 137.27 C 680.83 125.16 680.81 113.05 680.83 100.94 C 690.27 113.04 699.74 125.12 709.14 137.25 C 711.42 137.26 713.71 137.27 716.00 137.27 C 716.00 120.20 716.00 103.13 716.00 86.06 C 713.43 86.07 710.87 86.07 708.32 86.07 C 708.33 98.24 708.32 110.42 708.32 122.59 C 698.74 110.42 689.15 98.26 679.57 86.08 C 677.42 86.07 675.28 86.06 673.15 86.06 M 729.32 86.08 C 729.33 103.16 729.29 120.24 729.34 137.32 C 732.06 137.31 734.79 137.31 737.53 137.30 C 737.54 120.23 737.53 103.16 737.53 86.08 C 734.79 86.08 732.05 86.08 729.32 86.08 M 747.65 86.06 C 754.30 103.26 760.95 120.47 767.58 137.67 C 768.43 137.66 769.29 137.66 770.16 137.65 C 776.57 120.45 783.01 103.26 789.44 86.06 C 786.70 86.07 783.97 86.06 781.23 86.07 C 777.01 97.17 772.77 108.26 768.44 119.32 C 764.24 108.21 760.00 97.13 755.66 86.08 C 752.98 86.06 750.31 86.07 747.65 86.06 M 799.46 86.09 C 799.46 103.16 799.45 120.23 799.46 137.31 C 808.63 137.30 817.79 137.31 826.96 137.30 C 826.96 134.56 826.96 131.81 826.96 129.07 C 820.49 129.06 814.03 129.07 807.57 129.06 C 807.56 124.58 807.56 120.09 807.56 115.60 C 813.71 115.60 819.85 115.60 826.00 115.60 C 826.00 112.85 826.00 110.11 826.00 107.36 C 819.85 107.36 813.71 107.36 807.57 107.36 C 807.56 103.01 807.56 98.67 807.56 94.32 C 813.88 94.31 820.21 94.32 826.54 94.32 C 826.53 91.57 826.53 88.82 826.53 86.08 C 817.51 86.08 808.48 86.07 799.46 86.09 M 841.89 86.27 C 841.88 103.33 841.88 120.40 841.89 137.47 C 844.62 137.47 847.35 137.47 850.09 137.47 C 850.10 130.25 850.07 123.03 850.11 115.81 C 852.75 115.96 855.60 116.42 857.26 118.74 C 861.93 124.36 865.02 131.08 868.85 137.27 C 872.08 137.27 875.31 137.27 878.54 137.26 C 872.78 129.56 869.48 120.18 862.70 113.26 C 870.96 107.98 871.23 94.28 863.19 88.74 C 856.77 84.96 848.96 86.65 841.89 86.27 M 891.78 87.77 C 883.84 91.82 882.69 104.02 889.06 109.99 C 893.39 114.76 900.67 116.34 903.78 122.24 C 905.86 126.09 902.07 130.42 898.06 130.14 C 892.11 130.28 888.18 125.19 885.18 120.75 C 885.25 124.54 885.17 128.33 885.40 132.12 C 885.15 133.75 886.91 134.35 887.97 135.17 C 893.35 138.54 901.02 139.36 906.30 135.36 C 912.93 130.15 913.37 119.36 907.91 113.16 C 904.00 108.52 897.99 106.49 893.70 102.32 C 891.46 100.13 892.10 96.14 895.15 95.08 C 900.72 92.57 906.28 96.61 909.93 100.56 C 909.87 96.96 909.88 93.37 909.90 89.77 C 904.68 86.18 897.59 84.72 891.78 87.77 M 925.99 86.08 C 925.98 103.15 925.98 120.23 925.99 137.31 C 928.71 137.31 931.45 137.31 934.19 137.31 C 934.19 120.23 934.20 103.15 934.19 86.08 C 931.45 86.08 928.72 86.08 925.99 86.08 M 944.32 86.08 C 944.31 88.83 944.31 91.58 944.33 94.32 C 949.44 94.32 954.55 94.32 959.67 94.32 C 959.66 108.65 959.66 122.98 959.67 137.30 C 962.36 137.30 965.06 137.31 967.77 137.31 C 967.77 122.97 967.77 108.64 967.78 94.31 C 972.89 94.32 978.00 94.32 983.12 94.32 C 983.11 91.57 983.11 88.82 983.12 86.08 C 970.18 86.08 957.25 86.07 944.32 86.08 M 986.19 86.06 C 991.08 92.80 995.87 99.61 1000.67 106.42 C 1001.97 108.42 1003.96 110.34 1003.59 112.95 C 1003.60 121.06 1003.57 129.16 1003.59 137.26 C 1006.28 137.27 1008.97 137.26 1011.68 137.27 C 1011.68 128.42 1011.69 119.57 1011.68 110.72 C 1017.43 102.47 1023.27 94.28 1029.07 86.06 C 1025.76 86.07 1022.46 86.07 1019.17 86.06 C 1015.29 91.48 1011.49 96.96 1007.64 102.40 C 1003.83 96.93 1000.04 91.44 996.10 86.06 C 992.79 86.07 989.49 86.07 986.19 86.06 M 1064.46 86.61 C 1059.87 87.59 1055.57 89.87 1052.25 93.19 C 1042.01 103.66 1042.84 122.53 1053.74 132.25 C 1062.32 140.02 1076.66 139.92 1085.29 132.28 C 1096.23 122.56 1097.12 103.65 1086.86 93.13 C 1081.21 87.18 1072.39 84.96 1064.46 86.61 M 1103.57 86.08 C 1103.57 102.98 1103.56 119.88 1103.57 136.78 C 1106.19 136.77 1108.82 136.77 1111.45 136.77 C 1111.46 129.18 1111.46 121.60 1111.45 114.01 C 1117.14 113.99 1122.82 114.00 1128.51 113.99 C 1128.50 111.35 1128.50 108.71 1128.51 106.08 C 1122.82 106.07 1117.14 106.08 1111.46 106.07 C 1111.45 102.08 1111.45 98.09 1111.46 94.10 C 1117.14 94.10 1122.83 94.10 1128.51 94.10 C 1128.50 91.43 1128.50 88.75 1128.51 86.08 C 1120.20 86.08 1111.88 86.08 1103.57 86.08 M 156.82 86.60 C 156.82 126.05 156.83 165.50 156.82 204.96 C 156.72 211.06 156.92 217.18 157.90 223.21 C 164.18 263.07 184.89 300.24 214.51 327.49 C 233.54 345.17 256.18 358.58 280.04 368.65 C 290.15 364.14 300.25 359.54 309.74 353.79 C 335.57 338.59 358.25 317.82 374.82 292.78 C 388.48 272.03 398.43 248.58 402.19 223.93 C 403.61 215.04 403.20 206.01 403.26 197.04 C 403.26 160.23 403.26 123.41 403.26 86.60 C 321.11 86.60 238.97 86.60 156.82 86.60 M 498.34 157.40 C 487.18 186.58 476.02 215.75 464.88 244.93 C 469.64 244.94 474.40 244.93 479.16 244.93 C 482.43 236.73 485.70 228.52 488.67 220.20 C 498.71 220.05 508.75 220.17 518.80 220.14 C 522.13 228.40 525.40 236.69 528.74 244.95 C 533.49 244.92 538.24 244.94 542.99 244.93 C 531.33 215.75 519.72 186.54 508.00 157.39 C 504.77 157.40 501.55 157.40 498.34 157.40 M 655.83 163.77 C 644.99 170.84 638.47 183.31 637.10 195.99 C 635.48 208.14 638.93 220.82 646.32 230.57 C 651.72 237.77 659.80 242.85 668.58 244.75 C 681.82 247.56 695.95 245.10 707.57 238.20 C 707.58 232.58 707.56 226.95 707.59 221.33 C 700.40 226.81 692.04 231.22 682.91 232.07 C 674.76 232.89 666.00 230.81 660.03 224.96 C 650.61 215.99 648.89 201.13 653.19 189.28 C 657.05 178.77 667.67 171.00 678.97 171.13 C 689.26 170.70 698.72 175.53 707.14 180.94 C 706.92 175.33 706.63 169.73 706.45 164.12 C 700.25 161.22 693.83 158.67 687.07 157.46 C 676.37 155.59 664.88 157.65 655.83 163.77 M 904.25 157.47 C 893.08 186.66 881.92 215.86 870.78 245.06 C 875.57 245.07 880.36 245.07 885.16 245.07 C 888.38 236.83 891.55 228.57 894.64 220.28 C 904.66 220.26 914.68 220.26 924.70 220.27 C 928.04 228.54 931.27 236.86 934.68 245.10 C 939.42 245.04 944.15 245.07 948.90 245.07 C 937.24 215.86 925.61 186.65 913.92 157.46 C 910.69 157.47 907.46 157.47 904.25 157.47 M 553.02 157.60 C 553.02 175.04 553.03 192.49 553.01 209.93 C 553.02 214.01 553.27 218.13 554.32 222.09 C 556.45 230.79 562.40 238.50 570.34 242.66 C 577.29 246.08 585.35 246.59 592.93 245.51 C 600.78 244.36 608.59 240.85 613.51 234.43 C 619.31 226.97 620.79 217.16 620.61 207.95 C 620.59 191.28 620.60 174.61 620.60 157.94 C 616.02 157.93 611.43 157.93 606.85 157.93 C 606.82 174.96 606.90 191.98 606.82 209.01 C 606.72 215.14 606.31 222.12 601.60 226.64 C 596.56 231.11 589.39 232.25 582.88 231.63 C 575.87 230.96 569.23 225.82 567.60 218.85 C 566.67 214.64 566.83 210.29 566.76 206.00 C 566.77 189.87 566.76 173.74 566.77 157.60 C 562.18 157.60 557.60 157.60 553.02 157.60 M 728.47 158.01 C 728.48 187.03 728.47 216.04 728.47 245.06 C 733.09 245.07 737.71 245.07 742.33 245.07 C 742.33 232.02 742.33 218.97 742.33 205.92 C 754.36 218.95 766.46 231.92 778.46 244.99 C 784.78 245.15 791.11 245.04 797.45 245.06 C 783.29 229.77 769.16 214.46 755.00 199.19 C 766.33 185.48 777.58 171.70 788.93 158.00 C 783.56 158.05 778.19 157.91 772.82 158.02 C 771.41 157.73 770.69 159.13 769.88 159.95 C 760.65 171.26 751.25 182.42 742.21 193.88 C 742.23 181.92 742.22 169.96 742.22 158.00 C 737.63 158.00 733.05 157.99 728.47 158.01 M 810.98 158.05 C 810.97 187.06 810.97 216.08 810.97 245.09 C 826.93 245.09 842.88 245.10 858.84 245.09 C 858.83 240.46 858.83 235.82 858.83 231.19 C 847.46 231.19 836.09 231.19 824.73 231.19 C 824.72 206.81 824.72 182.43 824.73 158.05 C 820.14 158.04 815.56 158.05 810.98 158.05 M 965.43 157.94 C 965.42 186.93 965.43 215.93 965.42 244.93 C 969.75 244.93 974.09 244.93 978.43 244.93 C 978.44 224.39 978.41 203.85 978.44 183.32 C 994.48 203.83 1010.58 224.29 1026.50 244.88 C 1030.36 244.96 1034.24 244.94 1038.12 244.93 C 1038.12 215.93 1038.12 186.93 1038.12 157.94 C 1033.71 157.93 1029.30 157.93 1024.90 157.93 C 1024.90 178.67 1024.89 199.40 1024.91 220.13 C 1008.67 199.40 992.43 178.67 976.20 157.93 C 972.60 157.93 969.01 157.93 965.43 157.94 M 1060.61 158.00 C 1060.61 187.02 1060.61 216.04 1060.61 245.07 C 1071.42 245.04 1082.22 245.12 1093.03 245.03 C 1104.14 244.83 1115.15 239.84 1122.31 231.27 C 1136.85 214.15 1136.26 186.40 1121.13 169.84 C 1113.97 162.10 1103.40 158.29 1093.01 158.10 C 1082.21 157.86 1071.41 158.07 1060.61 158.00 M 464.23 264.23 C 464.22 265.44 464.22 266.65 464.23 267.87 C 467.21 267.88 470.19 267.87 473.18 267.88 C 473.18 276.15 473.17 284.41 473.18 292.68 C 474.35 292.68 475.52 292.68 476.70 292.68 C 476.70 284.41 476.70 276.15 476.70 267.88 C 479.62 267.87 482.53 267.88 485.45 267.87 C 485.44 266.65 485.44 265.44 485.44 264.24 C 478.37 264.23 471.30 264.23 464.23 264.23 M 509.85 264.19 C 513.52 273.94 516.89 283.80 520.77 293.46 C 523.97 285.60 526.59 277.51 529.55 269.56 C 532.44 277.53 535.00 285.62 538.02 293.54 C 541.83 283.86 545.07 273.96 548.66 264.20 C 547.47 264.20 546.30 264.20 545.13 264.20 C 542.82 270.68 540.51 277.17 538.20 283.66 C 535.81 277.17 533.44 270.67 531.05 264.18 C 529.93 264.20 528.82 264.22 527.72 264.24 C 525.38 270.73 522.97 277.19 520.61 283.67 C 518.32 277.18 515.99 270.70 513.69 264.21 C 512.41 264.20 511.12 264.20 509.85 264.19 M 632.86 264.19 C 636.47 273.92 639.56 283.86 643.55 293.45 C 646.59 285.54 649.30 277.51 652.26 269.57 C 655.17 277.48 657.92 285.45 660.91 293.34 C 664.70 283.71 668.04 273.90 671.66 264.20 C 670.45 264.20 669.24 264.20 668.04 264.20 C 665.64 270.67 663.29 277.16 660.88 283.63 C 658.60 277.16 656.34 270.67 654.06 264.19 C 652.84 264.20 651.63 264.21 650.43 264.22 C 648.17 270.70 645.89 277.18 643.63 283.67 C 641.21 277.18 638.79 270.71 636.39 264.22 C 635.20 264.21 634.02 264.19 632.86 264.19 M 827.28 264.23 C 827.27 265.44 827.27 266.65 827.28 267.87 C 830.22 267.88 833.17 267.87 836.12 267.88 C 836.13 276.15 836.12 284.41 836.13 292.68 C 837.33 292.68 838.54 292.68 839.76 292.68 C 839.76 284.41 839.75 276.14 839.76 267.88 C 842.74 267.87 845.72 267.88 848.71 267.87 C 848.70 266.65 848.70 265.44 848.71 264.23 C 841.56 264.23 834.42 264.23 827.28 264.23 M 919.07 264.21 C 919.04 273.70 919.05 283.20 919.07 292.69 C 920.15 292.68 921.26 292.67 922.37 292.67 C 922.36 283.20 922.35 273.74 922.38 264.28 C 921.26 264.25 920.16 264.23 919.07 264.21 M 965.53 264.20 C 965.52 273.69 965.53 283.17 965.53 292.66 C 966.79 292.66 968.08 292.66 969.37 292.66 C 969.37 285.31 969.36 277.96 969.37 270.62 C 972.10 274.29 974.77 278.00 977.55 281.63 C 980.27 277.97 982.95 274.28 985.67 270.61 C 985.67 277.96 985.67 285.32 985.67 292.67 C 986.84 292.67 988.02 292.65 989.21 292.63 C 989.17 283.15 989.20 273.68 989.19 264.21 C 988.38 264.20 986.74 264.19 985.92 264.19 C 983.07 268.09 980.26 272.02 977.47 275.96 C 974.67 272.02 971.86 268.10 969.03 264.19 C 968.15 264.20 966.41 264.20 965.53 264.20 M 553.02 264.20 C 553.02 273.69 553.02 283.18 553.02 292.67 C 553.84 292.67 555.50 292.66 556.32 292.66 C 556.32 288.15 556.34 283.64 556.30 279.13 C 557.69 278.03 558.98 276.35 560.98 276.63 C 562.89 277.11 563.56 279.21 563.61 280.96 C 563.81 284.88 563.63 288.81 563.67 292.73 C 564.53 292.73 566.23 292.73 567.09 292.73 C 566.99 288.13 567.35 283.50 566.86 278.91 C 566.56 276.36 564.77 273.69 562.02 273.48 C 559.77 273.16 557.98 274.77 556.22 275.89 C 556.38 271.99 556.32 268.10 556.32 264.20 C 555.50 264.20 553.84 264.20 553.02 264.20 M 1016.80 264.23 C 1016.80 273.72 1016.79 283.20 1016.80 292.68 C 1017.63 292.68 1019.28 292.68 1020.11 292.68 C 1020.10 283.20 1020.11 273.72 1020.10 264.23 C 1019.28 264.23 1017.63 264.23 1016.80 264.23 M 941.23 266.19 C 938.72 267.45 940.79 272.17 943.13 270.31 C 945.20 269.14 943.50 265.22 941.23 266.19 M 672.94 269.35 C 672.96 269.81 673.01 270.74 673.04 271.20 C 676.22 271.18 679.41 271.19 682.61 271.19 C 682.63 270.74 682.66 269.83 682.68 269.38 C 679.43 269.36 676.18 269.36 672.94 269.35 M 848.34 269.38 C 848.36 269.83 848.40 270.74 848.41 271.19 C 851.58 271.18 854.75 271.18 857.93 271.21 C 857.98 270.75 858.08 269.82 858.13 269.35 C 854.86 269.36 851.60 269.36 848.34 269.38 M 485.22 277.29 C 482.78 281.91 483.47 288.82 488.12 291.82 C 491.42 293.88 495.49 292.63 498.60 290.83 C 498.64 289.68 498.69 288.54 498.75 287.40 C 496.13 288.77 493.00 290.54 490.08 288.95 C 488.09 288.05 487.78 285.64 486.91 283.89 C 490.95 283.85 494.99 283.89 499.03 283.82 C 498.69 280.93 498.72 277.65 496.58 275.40 C 493.42 272.03 487.22 273.24 485.22 277.29 M 572.71 275.65 C 572.70 276.66 572.68 278.69 572.67 279.71 C 574.51 278.40 576.51 276.51 578.99 277.08 C 581.03 277.31 580.81 279.74 581.48 281.18 C 578.85 282.20 575.96 282.88 573.78 284.76 C 571.45 286.84 571.94 291.50 575.00 292.63 C 576.91 293.39 578.80 292.18 580.56 291.57 C 582.33 293.11 584.50 292.89 586.54 292.06 C 586.67 291.35 586.92 289.93 587.05 289.23 C 586.19 289.55 585.34 289.87 584.49 290.19 C 584.18 285.56 585.16 280.73 583.76 276.24 C 581.51 272.23 575.74 272.97 572.71 275.65 M 591.81 274.13 C 591.83 280.31 591.81 286.49 591.82 292.66 C 592.65 292.66 594.31 292.66 595.13 292.66 C 595.62 288.02 593.85 282.63 596.59 278.52 C 598.18 276.28 600.67 277.86 602.45 278.89 C 603.03 277.81 603.62 276.74 604.21 275.67 C 602.62 274.95 600.96 273.46 599.11 274.18 C 597.27 274.98 596.30 276.90 595.07 278.38 C 595.14 276.96 595.22 275.55 595.29 274.14 C 594.42 274.14 592.68 274.13 591.81 274.13 M 607.92 277.86 C 605.89 282.46 606.64 289.00 611.18 291.85 C 614.47 293.87 618.51 292.62 621.61 290.83 C 621.65 289.68 621.69 288.54 621.75 287.40 C 619.15 288.76 616.05 290.51 613.14 288.98 C 611.12 288.08 610.78 285.65 609.88 283.90 C 613.93 283.85 617.97 283.89 622.02 283.82 C 621.57 280.58 621.36 276.70 618.45 274.60 C 614.94 272.03 609.54 273.96 607.92 277.86 M 672.80 275.64 C 672.79 276.66 672.78 278.70 672.78 279.72 C 674.58 278.44 676.49 276.60 678.92 277.05 C 681.05 277.16 680.89 279.70 681.58 281.17 C 679.13 282.10 676.53 282.79 674.37 284.33 C 671.51 286.19 671.79 291.42 675.10 292.63 C 677.01 293.38 678.91 292.17 680.70 291.58 C 682.44 293.13 684.66 292.88 686.67 292.04 C 686.77 291.32 686.97 289.89 687.07 289.17 C 686.45 289.44 685.21 289.97 684.59 290.23 C 684.34 285.78 685.04 281.23 684.10 276.86 C 682.33 272.27 675.91 272.74 672.80 275.64 M 691.48 273.94 C 691.49 280.18 691.49 286.42 691.48 292.66 C 692.58 292.66 693.68 292.66 694.79 292.67 C 694.82 288.75 694.70 284.82 694.81 280.90 C 694.32 277.54 699.86 274.76 701.47 278.34 C 702.84 282.97 701.87 287.96 702.14 292.74 C 703.27 292.73 704.41 292.73 705.55 292.73 C 705.47 288.29 705.75 283.85 705.40 279.42 C 705.18 276.96 703.69 274.29 701.06 273.85 C 698.62 273.31 696.60 274.95 694.71 276.18 C 694.74 275.62 694.79 274.50 694.81 273.93 C 693.98 273.93 692.32 273.94 691.48 273.94 M 711.05 279.82 C 713.08 278.46 715.24 276.32 717.92 277.17 C 719.63 277.70 719.45 279.80 720.01 281.18 C 717.46 282.17 714.72 282.89 712.56 284.63 C 710.06 286.59 710.39 291.22 713.37 292.56 C 715.48 293.49 717.63 292.08 719.61 291.40 C 720.03 291.96 720.47 292.53 720.92 293.10 C 723.25 292.92 725.47 291.98 725.94 289.40 C 725.21 289.56 723.74 289.88 723.01 290.04 C 722.92 285.73 723.41 281.35 722.65 277.08 C 720.77 271.00 709.29 272.79 711.05 279.82 M 729.96 273.93 C 729.96 280.18 729.96 286.42 729.96 292.67 C 730.79 292.66 732.44 292.66 733.27 292.66 C 733.26 288.15 733.29 283.65 733.24 279.14 C 734.64 278.05 735.94 276.30 737.96 276.65 C 739.81 277.13 740.49 279.16 740.55 280.88 C 740.75 284.83 740.57 288.78 740.62 292.73 C 741.47 292.73 743.18 292.73 744.03 292.73 C 743.97 288.44 744.20 284.15 743.92 279.87 C 743.81 277.38 742.50 274.61 739.91 273.93 C 737.35 273.18 735.11 274.87 733.11 276.19 C 733.16 275.63 733.27 274.50 733.32 273.94 C 732.48 273.94 730.80 273.93 729.96 273.93 M 752.87 274.89 C 748.50 277.08 748.77 283.89 752.72 286.40 C 751.89 287.22 751.05 288.05 750.26 288.90 C 750.86 289.65 751.48 290.41 752.11 291.16 C 750.28 292.25 747.99 293.53 748.09 296.01 C 748.12 304.23 763.63 304.21 763.61 295.98 C 763.32 290.48 756.52 291.31 753.03 288.93 C 755.48 286.50 760.11 287.29 761.53 283.70 C 762.81 281.42 761.74 278.94 760.62 276.87 C 761.37 276.89 762.88 276.93 763.63 276.96 C 763.65 276.20 763.68 274.68 763.70 273.92 C 760.10 274.07 756.26 273.42 752.87 274.89 M 767.67 275.65 C 767.66 276.66 767.63 278.69 767.61 279.71 C 769.47 278.42 771.46 276.51 773.95 277.08 C 775.98 277.31 775.77 279.75 776.44 281.18 C 774.04 282.09 771.50 282.77 769.38 284.23 C 766.57 285.96 766.57 290.70 769.40 292.38 C 771.41 293.58 773.63 292.27 775.57 291.56 C 777.29 293.09 779.48 292.91 781.49 292.03 C 781.63 291.34 781.89 289.94 782.03 289.25 C 781.16 289.56 780.30 289.87 779.45 290.18 C 779.14 285.57 780.09 280.77 778.74 276.30 C 776.53 272.23 770.71 272.95 767.67 275.65 M 802.41 274.47 C 794.62 278.36 797.00 292.40 805.94 292.84 C 812.72 293.70 817.12 285.94 815.15 280.00 C 814.02 274.50 807.18 271.82 802.41 274.47 M 848.04 275.70 C 848.03 276.71 848.00 278.74 847.99 279.75 C 849.91 278.32 852.14 276.29 854.75 277.20 C 856.34 277.74 856.16 279.87 856.82 281.16 C 854.30 282.12 851.61 282.84 849.42 284.47 C 846.76 286.44 847.12 291.38 850.29 292.63 C 852.23 293.35 854.15 292.16 856.00 291.66 C 858.38 293.90 862.52 292.74 862.50 289.18 C 861.83 289.43 860.49 289.94 859.82 290.20 C 859.56 285.71 860.34 281.08 859.27 276.68 C 857.38 272.26 851.06 272.75 848.04 275.70 M 867.78 273.73 C 867.78 279.95 867.78 286.18 867.79 292.40 C 868.61 292.40 870.27 292.40 871.09 292.40 C 871.18 287.92 870.87 283.42 871.22 278.95 C 872.20 276.41 876.43 275.44 877.71 278.27 C 878.81 282.87 877.99 287.71 878.24 292.41 C 879.32 292.40 880.42 292.40 881.54 292.40 C 881.53 287.83 881.56 283.27 881.50 278.71 C 882.62 277.93 883.73 277.10 884.98 276.50 C 886.99 276.36 888.87 277.94 888.88 280.00 C 889.18 284.12 888.93 288.27 889.00 292.40 C 889.82 292.40 891.47 292.40 892.30 292.40 C 892.22 287.94 892.54 283.47 892.12 279.03 C 891.92 276.34 889.92 273.63 887.05 273.59 C 884.63 273.28 882.85 275.15 881.11 276.46 C 879.84 275.44 878.80 273.81 877.06 273.64 C 874.66 273.07 872.84 274.96 870.97 276.07 C 871.00 275.49 871.08 274.32 871.12 273.74 C 870.28 273.74 868.62 273.74 867.78 273.73 M 898.97 275.69 C 898.97 276.71 898.97 278.74 898.97 279.76 C 900.73 278.47 902.60 276.64 905.00 277.03 C 907.17 277.08 907.11 279.67 907.77 281.16 C 905.25 282.12 902.57 282.86 900.40 284.51 C 897.70 286.45 898.08 291.45 901.30 292.65 C 903.22 293.33 905.11 292.16 906.94 291.66 C 909.33 293.89 913.51 292.76 913.43 289.16 C 912.77 289.42 911.43 289.95 910.77 290.22 C 910.50 285.71 911.29 281.08 910.22 276.66 C 908.29 272.23 902.05 272.84 898.97 275.69 M 922.70 283.13 C 925.41 286.18 927.83 289.50 930.70 292.41 C 932.20 292.80 933.80 292.63 935.37 292.76 C 932.56 289.48 929.61 286.32 926.71 283.13 C 929.10 280.07 931.47 277.00 933.86 273.93 C 932.90 273.93 930.99 273.94 930.03 273.94 C 927.57 276.99 925.12 280.05 922.70 283.13 M 940.26 273.93 C 940.27 280.18 940.26 286.43 940.27 292.69 C 941.36 292.68 942.46 292.68 943.58 292.68 C 943.59 286.47 943.53 280.27 943.62 274.07 C 942.49 274.01 941.37 273.96 940.26 273.93 M 996.73 275.65 C 996.72 276.66 996.70 278.70 996.69 279.72 C 998.51 278.42 1000.46 276.57 1002.92 277.06 C 1005.01 277.22 1004.82 279.71 1005.51 281.16 C 1002.88 282.19 1000.00 282.91 997.82 284.80 C 995.45 286.85 995.96 291.51 999.02 292.62 C 1000.92 293.39 1002.81 292.18 1004.59 291.58 C 1006.37 293.11 1008.54 292.92 1010.59 292.02 C 1010.70 291.32 1010.94 289.92 1011.05 289.22 C 1010.20 289.54 1009.35 289.87 1008.52 290.20 C 1008.32 285.82 1008.90 281.38 1008.10 277.05 C 1006.49 272.29 999.87 272.67 996.73 275.65 M 1027.31 274.04 C 1024.95 277.09 1022.50 280.08 1020.14 283.14 C 1022.90 286.32 1025.72 289.47 1028.49 292.66 C 1030.01 292.66 1031.54 292.66 1033.09 292.65 C 1030.23 289.46 1027.35 286.29 1024.46 283.13 C 1026.85 280.06 1029.24 276.99 1031.61 273.91 C 1030.16 273.92 1028.73 273.97 1027.31 274.04 M 1036.73 275.65 C 1036.71 276.66 1036.67 278.70 1036.65 279.71 C 1038.51 278.40 1040.53 276.49 1043.03 277.09 C 1045.03 277.36 1044.80 279.77 1045.48 281.19 C 1043.10 282.23 1040.58 283.04 1038.43 284.51 C 1035.52 286.36 1035.79 291.48 1039.03 292.84 C 1040.95 293.62 1042.87 292.44 1044.69 291.87 C 1047.06 294.08 1051.41 293.00 1051.33 289.36 C 1050.65 289.62 1049.28 290.15 1048.60 290.42 C 1048.32 285.94 1049.11 281.33 1048.05 276.94 C 1046.14 272.49 1039.96 273.00 1036.73 275.65 M 1056.89 273.93 C 1056.95 278.32 1056.68 282.71 1057.02 287.09 C 1057.12 289.82 1059.07 292.65 1061.98 292.84 C 1064.24 293.22 1065.97 291.48 1067.70 290.32 C 1067.65 290.84 1067.54 291.87 1067.48 292.38 C 1068.32 292.39 1070.00 292.40 1070.84 292.41 C 1070.84 286.25 1070.84 280.09 1070.84 273.94 C 1070.02 273.93 1068.36 273.93 1067.54 273.93 C 1067.49 277.97 1067.62 282.00 1067.51 286.04 C 1067.91 289.65 1061.40 291.46 1060.47 287.61 C 1059.83 283.08 1060.32 278.49 1060.19 273.93 C 1059.36 273.93 1057.71 273.93 1056.89 273.93 M 1079.05 274.12 C 1079.05 280.30 1079.05 286.48 1079.05 292.66 C 1079.88 292.66 1081.53 292.66 1082.36 292.66 C 1082.81 288.08 1081.18 282.89 1083.65 278.73 C 1085.15 276.29 1087.88 277.75 1089.71 278.90 C 1090.27 277.81 1090.84 276.72 1091.43 275.64 C 1089.79 274.93 1088.05 273.38 1086.19 274.24 C 1084.45 275.11 1083.51 276.93 1082.34 278.39 C 1082.39 276.97 1082.45 275.55 1082.51 274.14 C 1081.64 274.14 1079.91 274.13 1079.05 274.12 M 1095.77 275.63 C 1095.75 276.65 1095.73 278.69 1095.72 279.71 C 1097.54 278.45 1099.46 276.57 1101.90 277.06 C 1104.00 277.19 1103.86 279.71 1104.53 281.17 C 1102.09 282.15 1099.51 282.89 1097.38 284.45 C 1094.80 286.34 1095.00 290.97 1097.87 292.47 C 1099.85 293.49 1101.98 292.21 1103.91 291.66 C 1105.59 293.13 1107.72 292.88 1109.64 292.07 C 1109.75 291.36 1109.96 289.94 1110.07 289.23 C 1109.20 289.54 1108.35 289.85 1107.50 290.16 C 1107.25 285.53 1108.17 280.72 1106.84 276.24 C 1104.63 272.19 1098.80 272.98 1095.77 275.63 M 1116.15 273.93 C 1116.21 278.32 1115.96 282.71 1116.28 287.09 C 1116.41 289.72 1118.17 292.49 1120.97 292.80 C 1123.09 293.32 1124.83 291.85 1126.40 290.66 C 1127.09 292.13 1128.32 292.78 1130.09 292.63 C 1130.12 286.39 1130.10 280.16 1130.11 273.93 C 1129.28 273.93 1127.63 273.93 1126.80 273.93 C 1126.75 277.98 1126.91 282.04 1126.77 286.08 C 1127.17 289.74 1120.49 291.44 1119.71 287.49 C 1119.13 283.00 1119.57 278.45 1119.45 273.93 C 1118.63 273.93 1116.97 273.93 1116.15 273.93 M 465.51 314.92 C 465.51 315.88 465.50 317.80 465.50 318.76 C 687.78 318.79 910.06 318.77 1132.34 318.77 C 1132.33 317.49 1132.33 316.20 1132.35 314.92 C 910.07 314.92 687.79 314.92 465.51 314.92 M 466.04 332.86 C 466.04 344.62 466.04 356.38 466.04 368.14 C 468.24 368.13 470.44 368.13 472.65 368.13 C 472.65 359.77 472.63 351.40 472.66 343.04 C 479.77 351.37 486.79 359.78 493.88 368.14 C 495.82 368.13 497.77 368.13 499.73 368.13 C 499.72 356.38 499.72 344.62 499.73 332.87 C 497.41 332.86 495.10 332.86 492.80 332.87 C 492.79 341.14 492.79 349.41 492.80 357.68 C 485.85 349.40 478.88 341.13 471.91 332.87 C 469.95 332.86 467.99 332.86 466.04 332.86 M 535.44 368.18 C 543.18 368.17 550.93 368.18 558.68 368.17 C 558.67 366.46 558.67 364.75 558.67 363.04 C 553.13 363.03 547.59 363.04 542.04 363.04 C 542.04 359.62 542.04 356.20 542.04 352.78 C 547.23 352.78 552.42 352.78 557.61 352.78 C 557.60 350.99 557.60 349.21 557.61 347.43 C 552.42 347.43 547.23 347.43 542.04 347.43 C 542.04 344.36 542.04 341.30 542.04 338.23 C 547.41 338.24 552.77 338.24 558.14 338.23 C 558.13 336.45 558.13 334.67 558.14 332.89 C 550.58 332.87 543.02 332.92 535.47 332.86 C 535.39 344.63 535.44 356.41 535.44 368.18 M 589.26 332.87 C 594.08 344.81 598.96 356.73 603.75 368.69 C 604.55 368.65 605.36 368.62 606.18 368.59 C 609.82 359.80 613.57 351.05 617.30 342.30 C 620.99 351.09 624.61 359.91 628.30 368.70 C 628.85 368.69 629.97 368.66 630.53 368.65 C 635.37 356.71 640.26 344.80 645.11 332.87 C 642.80 332.86 640.49 332.86 638.18 332.87 C 635.31 340.19 632.42 347.50 629.55 354.81 C 626.40 347.49 623.22 340.18 620.06 332.87 C 618.10 332.86 616.15 332.86 614.20 332.87 C 611.16 340.04 608.14 347.23 605.08 354.39 C 602.02 347.27 599.32 340.01 596.38 332.86 C 594.00 332.86 591.63 332.86 589.26 332.87 M 717.60 332.87 C 717.59 334.64 717.58 336.42 717.60 338.20 C 724.03 338.20 730.47 338.20 736.90 338.20 C 730.02 348.16 723.18 358.14 716.33 368.13 C 727.20 368.14 738.06 368.13 748.93 368.13 C 748.93 366.42 748.93 364.71 748.94 363.00 C 741.97 363.00 735.01 363.00 728.05 363.00 C 734.91 352.94 741.84 342.93 748.70 332.87 C 738.33 332.86 727.96 332.87 717.60 332.87 M 782.08 332.89 C 782.08 344.65 782.08 356.41 782.08 368.18 C 789.83 368.18 797.57 368.18 805.32 368.18 C 805.31 366.46 805.32 364.75 805.32 363.04 C 799.78 363.04 794.24 363.04 788.70 363.04 C 788.69 359.62 788.69 356.20 788.70 352.78 C 793.88 352.78 799.07 352.78 804.26 352.78 C 804.25 350.99 804.25 349.21 804.26 347.43 C 799.07 347.42 793.88 347.43 788.70 347.43 C 788.69 344.36 788.69 341.29 788.70 338.23 C 794.06 338.24 799.43 338.24 804.79 338.23 C 804.78 336.45 804.79 334.67 804.79 332.89 C 797.22 332.88 789.65 332.88 782.08 332.89 M 850.34 332.92 C 845.62 344.81 840.70 356.61 835.92 368.46 C 838.29 368.46 840.67 368.46 843.06 368.47 C 844.15 365.58 845.25 362.69 846.35 359.81 C 851.61 359.79 856.87 359.80 862.13 359.80 C 863.34 362.69 864.55 365.58 865.76 368.47 C 868.13 368.46 870.50 368.46 872.89 368.46 C 867.71 356.58 862.52 344.71 857.33 332.85 C 854.99 332.87 852.66 332.87 850.34 332.92 M 905.31 332.89 C 905.30 344.65 905.31 356.41 905.30 368.17 C 913.30 368.18 921.29 368.18 929.29 368.18 C 929.28 366.46 929.28 364.75 929.29 363.04 C 923.60 363.04 917.92 363.04 912.24 363.04 C 912.23 352.99 912.24 342.94 912.23 332.89 C 909.91 332.88 907.61 332.88 905.31 332.89 M 972.89 332.86 C 968.05 344.73 963.22 356.59 958.39 368.45 C 960.75 368.46 963.12 368.47 965.50 368.48 C 966.62 365.59 967.72 362.70 968.83 359.80 C 974.06 359.79 979.28 359.84 984.52 359.75 C 985.81 362.63 987.03 365.54 988.23 368.47 C 990.60 368.47 992.98 368.46 995.37 368.46 C 990.19 356.59 985.00 344.74 979.82 332.87 C 977.50 332.86 975.19 332.86 972.89 332.86 M 1027.53 367.91 C 1029.71 368.29 1031.95 368.12 1034.18 368.16 C 1034.18 359.79 1034.16 351.42 1034.19 343.05 C 1041.25 351.38 1048.25 359.77 1055.28 368.13 C 1057.22 368.13 1059.18 368.13 1061.14 368.13 C 1061.14 356.38 1061.14 344.62 1061.14 332.87 C 1058.93 332.86 1056.72 332.86 1054.53 332.87 C 1054.53 341.14 1054.53 349.41 1054.54 357.68 C 1047.63 349.40 1040.60 341.22 1033.73 332.90 C 1031.64 332.87 1029.55 332.86 1027.47 332.85 C 1027.51 344.53 1027.36 356.22 1027.53 367.91 M 1097.17 332.74 C 1097.17 344.60 1097.17 356.47 1097.17 368.33 C 1106.03 367.79 1116.01 370.26 1123.79 364.74 C 1133.32 358.78 1133.26 343.10 1124.16 336.76 C 1116.49 330.75 1106.15 333.28 1097.17 332.74 Z" />
<path fill="#00467f" opacity="1.00" d=" M 162.47 91.94 C 240.96 91.93 319.44 91.94 397.93 91.93 C 397.94 114.87 397.91 137.81 397.95 160.75 C 390.71 160.87 383.46 162.52 377.18 166.20 C 365.84 172.72 351.00 173.04 339.64 166.40 C 328.72 159.85 314.68 158.98 303.01 164.03 C 300.28 165.18 297.82 166.88 295.11 168.07 C 284.23 172.81 271.02 172.38 260.82 166.13 C 248.83 158.97 233.07 159.07 221.00 166.02 C 211.13 171.67 198.79 172.70 188.13 168.74 C 184.12 167.38 180.75 164.69 176.79 163.23 C 172.24 161.38 167.34 160.63 162.46 160.42 C 162.48 137.59 162.47 114.76 162.47 91.94 M 195.87 108.36 C 192.78 105.51 188.23 104.34 184.39 106.44 C 179.33 108.28 176.70 113.75 177.58 118.93 C 173.76 124.48 169.78 130.02 167.22 136.30 C 166.07 138.51 167.18 140.91 167.72 143.11 C 171.80 135.56 176.88 128.36 183.82 123.17 C 185.36 125.25 186.86 127.50 189.13 128.88 C 191.40 130.33 194.28 130.74 196.19 132.76 C 198.32 134.90 200.94 136.41 203.83 137.29 C 204.00 140.45 204.81 143.54 206.36 146.31 C 203.43 148.76 200.73 151.77 196.87 152.69 C 194.64 151.72 192.25 151.37 189.86 151.74 C 191.36 152.45 192.87 153.16 194.36 153.90 C 191.38 154.51 188.41 155.41 186.29 157.74 C 189.59 157.37 192.90 157.05 196.22 156.86 C 195.01 158.68 194.21 160.72 193.74 162.84 C 196.58 158.65 201.18 156.33 204.67 152.78 C 207.48 150.16 213.31 150.99 213.65 146.17 C 215.56 145.25 217.56 144.55 219.62 144.03 C 220.57 145.99 221.42 147.99 222.16 150.05 C 221.62 151.10 221.08 152.15 220.55 153.20 C 218.12 153.82 215.84 154.90 214.03 156.66 C 215.76 156.21 217.48 155.72 219.21 155.26 C 217.67 157.59 216.46 160.13 216.26 162.95 C 218.04 160.53 219.86 158.11 222.20 156.20 C 223.19 157.97 224.19 159.74 225.26 161.47 C 224.95 157.56 225.75 153.73 226.66 149.96 C 225.59 147.77 224.74 145.48 224.26 143.08 C 227.79 141.62 231.20 139.46 233.10 136.04 C 237.30 128.83 235.79 119.43 230.88 112.97 C 224.95 104.71 213.75 101.15 204.00 103.46 C 200.84 104.20 198.24 106.24 195.87 108.36 M 281.61 103.37 C 278.36 104.07 275.64 106.08 273.25 108.30 C 269.74 104.94 264.32 104.46 260.30 107.20 C 255.96 109.37 254.33 114.42 254.93 118.99 C 251.06 124.58 247.06 130.19 244.51 136.53 C 243.51 138.68 244.56 140.97 245.09 143.09 C 249.21 135.54 254.30 128.35 261.23 123.13 C 262.43 124.79 263.58 126.53 265.16 127.89 C 267.73 130.20 271.54 130.48 273.91 133.07 C 275.94 135.09 278.49 136.42 281.18 137.33 C 281.40 140.49 282.21 143.58 283.76 146.35 C 280.77 148.77 278.07 151.88 274.12 152.68 C 272.09 151.76 269.89 151.36 267.69 151.76 C 268.89 152.48 270.11 153.20 271.30 153.97 C 268.35 154.51 265.44 155.46 263.34 157.74 C 266.65 157.37 269.97 157.05 273.29 156.86 C 272.09 158.71 271.26 160.76 270.69 162.90 C 273.47 158.89 277.84 156.61 281.22 153.22 C 283.74 151.04 287.11 150.35 290.11 149.07 C 290.19 148.37 290.35 146.98 290.43 146.28 C 292.43 145.34 294.52 144.58 296.67 144.02 C 298.23 146.85 299.93 150.22 297.73 153.22 C 295.25 153.77 292.95 154.88 291.10 156.63 C 292.79 156.19 294.47 155.71 296.16 155.25 C 294.77 157.65 293.45 160.15 293.42 163.01 C 295.26 160.62 297.12 158.23 299.33 156.17 C 300.41 157.94 301.44 159.74 302.59 161.47 C 302.20 157.56 303.06 153.74 303.93 149.96 C 302.90 147.79 302.07 145.52 301.48 143.19 C 305.12 141.56 308.73 139.31 310.61 135.63 C 314.66 128.22 312.86 118.74 307.68 112.35 C 301.72 104.60 291.03 101.31 281.61 103.37 M 350.26 108.35 C 347.66 106.35 344.37 104.36 341.01 105.81 C 335.19 107.13 331.33 113.00 332.46 118.89 C 328.46 124.55 324.25 130.22 321.73 136.74 C 320.86 138.81 321.87 141.02 322.22 143.09 C 326.60 135.68 331.48 128.35 338.47 123.15 C 340.08 125.30 341.63 127.65 344.02 129.02 C 346.31 130.40 349.16 130.87 351.03 132.92 C 353.10 135.01 355.70 136.42 358.49 137.31 C 358.71 140.45 359.43 143.56 361.06 146.29 C 358.07 148.73 355.38 151.88 351.41 152.67 C 349.26 151.70 346.94 151.37 344.63 151.75 C 346.18 152.47 347.73 153.20 349.29 153.94 C 346.15 154.31 343.14 155.42 341.00 157.80 C 344.29 157.34 347.59 157.02 350.92 156.90 C 349.71 158.70 348.89 160.72 348.47 162.86 C 351.15 158.69 355.69 156.48 359.06 152.99 C 361.69 150.30 366.96 151.12 368.21 147.08 C 369.13 144.71 372.22 144.88 374.24 144.01 C 375.04 146.02 375.80 148.05 376.45 150.11 C 375.92 151.14 375.41 152.18 374.88 153.21 C 372.47 153.80 370.26 154.93 368.45 156.63 C 370.20 156.16 371.95 155.68 373.71 155.20 C 371.99 157.47 370.77 160.04 370.62 162.93 C 372.35 160.48 374.21 158.09 376.63 156.27 C 377.58 158.03 378.53 159.78 379.61 161.46 C 379.31 157.55 380.15 153.74 380.98 149.96 C 379.96 147.78 379.13 145.52 378.55 143.19 C 382.20 141.56 385.80 139.31 387.68 135.64 C 391.73 128.21 389.92 118.70 384.72 112.31 C 378.79 104.64 368.24 101.36 358.88 103.33 C 355.52 103.99 352.72 106.08 350.26 108.35 Z" />
<path fill="#00467f" opacity="1.00" d=" M 849.78 93.62 C 852.97 93.87 856.67 93.56 859.24 95.86 C 861.42 98.19 861.50 102.15 859.86 104.79 C 857.49 107.87 853.24 107.51 849.78 107.61 C 849.77 102.94 849.76 98.28 849.78 93.62 Z" />
<path fill="#00467f" opacity="1.00" d=" M 1063.39 95.51 C 1070.11 92.56 1078.72 95.11 1082.66 101.33 C 1087.64 109.17 1086.48 121.07 1078.82 126.81 C 1073.33 131.05 1064.91 130.94 1059.66 126.36 C 1050.19 118.49 1051.50 100.42 1063.39 95.51 Z" />
<path fill="#00467f" opacity="1.00" d=" M 203.19 108.74 C 205.64 107.27 208.32 106.26 211.13 105.77 C 210.45 106.50 209.08 107.95 208.40 108.67 C 211.34 107.76 214.41 107.64 217.45 108.02 C 216.39 108.59 215.33 109.15 214.27 109.71 C 221.83 109.94 227.87 117.60 226.69 124.95 C 225.80 129.81 221.56 133.04 217.10 134.50 C 216.45 136.08 215.83 137.68 215.22 139.27 C 212.58 140.45 210.10 141.94 207.71 143.54 C 207.05 140.76 206.67 137.93 206.52 135.08 C 202.09 134.92 198.60 132.12 195.81 128.94 C 190.58 128.27 187.07 124.09 184.70 119.74 C 178.87 123.68 174.67 129.37 170.38 134.82 C 173.17 129.42 177.05 124.73 180.62 119.86 C 178.09 113.65 184.71 107.10 190.86 108.53 C 193.22 108.94 194.26 111.33 195.47 113.10 C 198.00 109.73 201.24 106.86 205.38 105.66 C 204.83 106.43 203.74 107.97 203.19 108.74 M 182.41 115.49 C 180.89 116.51 182.63 119.05 184.00 117.92 C 186.00 117.30 184.06 114.00 182.41 115.49 Z" />
<path fill="#00467f" opacity="1.00" d=" M 280.50 108.73 C 282.93 107.27 285.58 106.26 288.37 105.75 C 287.69 106.49 286.33 107.96 285.66 108.69 C 288.62 107.78 291.70 107.62 294.76 108.01 C 293.66 108.60 292.57 109.20 291.48 109.80 C 298.82 109.83 304.54 116.92 304.36 123.97 C 303.84 129.28 299.35 132.97 294.57 134.53 C 293.92 136.12 293.30 137.71 292.68 139.31 C 290.02 140.47 287.54 141.97 285.11 143.55 C 284.53 140.75 284.20 137.90 284.00 135.05 C 279.55 134.93 276.09 132.07 273.25 128.94 C 268.09 128.24 264.56 124.14 262.26 119.79 C 256.28 123.68 252.00 129.48 247.78 135.10 C 250.39 129.55 254.30 124.78 257.90 119.85 C 255.44 113.73 261.80 107.27 267.91 108.48 C 270.38 108.79 271.50 111.25 272.73 113.09 C 275.31 109.75 278.52 106.82 282.70 105.68 C 282.15 106.44 281.05 107.97 280.50 108.73 M 260.19 115.27 C 258.34 116.16 260.53 119.59 261.77 117.71 C 263.44 116.75 261.73 114.61 260.19 115.27 Z" />
<path fill="#00467f" opacity="1.00" d=" M 357.56 108.74 C 359.99 107.27 362.65 106.24 365.46 105.77 C 364.77 106.49 363.39 107.92 362.70 108.63 C 365.66 107.74 368.75 107.65 371.81 108.01 C 370.71 108.60 369.62 109.19 368.54 109.80 C 377.18 109.71 383.80 120.09 379.82 127.79 C 378.20 131.30 374.65 133.21 371.21 134.52 C 370.57 136.10 369.95 137.69 369.34 139.29 C 366.70 140.45 364.24 141.93 361.86 143.54 C 361.17 140.75 360.82 137.90 360.66 135.04 C 356.21 134.92 352.72 132.12 349.93 128.93 C 344.72 128.27 341.19 124.09 338.85 119.74 C 333.06 123.59 328.96 129.27 324.63 134.59 C 327.25 129.19 331.15 124.61 334.75 119.87 C 332.13 113.47 339.25 106.76 345.50 108.65 C 347.65 109.21 348.61 111.42 349.81 113.06 C 352.40 109.75 355.59 106.81 359.77 105.68 C 359.22 106.44 358.11 107.97 357.56 108.74 M 337.23 115.16 C 334.89 115.88 337.21 119.66 338.64 117.67 C 340.36 116.93 338.46 114.85 337.23 115.16 Z" />
<path fill="#00467f" opacity="1.00" d=" M 232.81 169.03 C 234.72 174.84 236.58 180.66 238.48 186.47 C 244.59 186.45 250.71 186.50 256.83 186.44 C 251.81 190.08 246.77 193.72 241.77 197.39 C 243.54 203.20 245.33 209.01 247.11 214.83 C 242.34 211.10 237.45 207.53 232.68 203.79 C 227.83 207.38 223.09 211.11 218.32 214.80 C 220.20 209.00 222.10 203.20 223.96 197.38 C 218.93 193.72 213.88 190.07 208.81 186.45 C 214.97 186.48 221.12 186.46 227.27 186.47 C 229.12 180.66 230.96 174.84 232.81 169.03 Z" />
<path fill="#00467f" opacity="1.00" d=" M 327.47 168.50 C 329.38 174.37 331.23 180.26 333.12 186.13 C 339.24 186.12 345.37 186.17 351.49 186.10 C 346.44 189.74 341.44 193.43 336.42 197.11 C 338.12 202.94 339.84 208.77 341.54 214.60 C 336.79 210.93 332.05 207.23 327.25 203.61 C 322.47 207.25 317.71 210.91 312.97 214.61 C 314.82 208.78 316.67 202.95 318.52 197.12 C 313.49 193.45 308.50 189.75 303.46 186.11 C 309.61 186.16 315.77 186.12 321.93 186.13 C 323.77 180.26 325.60 174.37 327.47 168.50 Z" />
<path fill="#00467f" opacity="1.00" d=" M 1074.47 231.13 C 1074.48 211.35 1074.46 191.57 1074.47 171.80 C 1085.91 172.10 1098.77 170.03 1108.56 177.42 C 1120.55 186.64 1121.80 205.04 1114.76 217.66 C 1110.73 225.29 1102.57 230.31 1094.02 230.95 C 1087.51 231.35 1080.98 231.04 1074.47 231.13 Z" />
<path fill="#00467f" opacity="1.00" d=" M 503.24 181.56 C 506.56 189.81 509.84 198.07 513.15 206.33 C 506.79 206.34 500.43 206.33 494.08 206.33 C 497.15 198.08 500.19 189.82 503.24 181.56 Z" />
<path fill="#00467f" opacity="1.00" d=" M 909.14 181.56 C 912.56 189.77 915.86 198.03 919.05 206.33 C 912.69 206.33 906.33 206.34 899.98 206.33 C 902.98 198.06 906.03 189.80 909.14 181.56 Z" />
<path fill="#00467f" opacity="1.00" d=" M 234.89 224.53 C 241.17 223.45 246.70 219.87 253.04 219.05 C 262.07 217.60 271.10 220.89 278.45 226.01 C 278.45 244.17 278.42 262.33 278.46 280.49 C 269.57 273.24 256.89 270.77 246.11 274.97 C 240.78 276.93 235.93 280.63 230.05 280.78 C 226.11 281.11 222.38 279.63 218.85 278.10 C 218.87 260.08 218.83 242.06 218.87 224.04 C 224.14 225.00 229.59 225.68 234.89 224.53 Z" />
<path fill="#00467f" opacity="1.00" d=" M 281.32 226.33 C 288.27 221.69 296.57 218.47 305.06 219.34 C 312.78 219.79 319.46 224.38 327.11 225.17 C 331.72 225.80 336.36 225.18 340.91 224.39 C 340.90 242.29 340.90 260.19 340.91 278.09 C 335.29 281.30 328.39 281.94 322.40 279.36 C 316.16 276.76 310.04 273.10 303.05 273.25 C 295.15 272.96 287.46 276.02 281.30 280.85 C 281.34 262.68 281.31 244.51 281.32 226.33 Z" />
<path fill="#00467f" opacity="1.00" d=" M 213.74 227.04 C 214.66 226.62 215.58 226.21 216.51 225.80 C 216.52 243.75 216.50 261.69 216.51 279.64 C 221.53 282.24 227.19 284.37 232.92 283.15 C 240.05 282.15 245.82 277.15 252.92 276.10 C 262.24 274.36 271.86 277.93 278.76 284.18 C 278.77 285.50 278.78 286.83 278.80 288.16 C 272.95 280.80 263.25 276.86 253.93 278.57 C 246.09 279.22 239.96 285.24 232.09 285.73 C 225.61 286.50 219.26 284.15 213.73 280.96 C 213.75 262.98 213.72 245.01 213.74 227.04 Z" />
<path fill="#00467f" opacity="1.00" d=" M 343.89 225.79 C 344.81 226.21 345.73 226.62 346.66 227.04 C 346.66 245.00 346.65 262.96 346.67 280.92 C 338.43 284.92 328.44 287.18 319.74 283.26 C 313.57 280.26 306.86 277.73 299.87 278.40 C 292.67 278.72 286.13 282.66 281.59 288.12 C 281.61 287.10 281.64 285.07 281.65 284.05 C 288.36 277.76 297.91 274.44 307.06 276.08 C 314.53 277.11 320.52 282.57 328.08 283.30 C 333.66 284.22 338.98 281.96 343.88 279.57 C 343.90 261.64 343.87 243.72 343.89 225.79 Z" />
<path fill="#00467f" opacity="1.00" d=" M 348.77 228.20 C 351.03 229.38 353.46 230.26 356.06 230.11 C 357.45 229.32 359.25 227.68 360.84 229.05 C 362.79 229.93 362.74 232.90 360.74 233.69 C 359.16 234.80 357.57 233.30 356.22 232.58 C 354.78 232.50 353.35 232.44 351.93 232.38 C 351.89 234.38 351.88 236.38 351.86 238.38 C 353.22 238.33 354.58 238.28 355.94 238.21 C 357.46 237.17 359.79 235.95 361.28 237.76 C 362.90 239.05 361.88 241.72 360.03 242.18 C 358.46 242.68 357.19 241.44 355.93 240.77 C 354.51 240.71 353.09 240.66 351.67 240.63 C 351.66 242.61 351.66 244.59 351.67 246.58 C 353.11 246.53 354.55 246.48 356.00 246.43 C 357.31 245.65 358.95 244.34 360.50 245.43 C 362.35 246.19 362.69 249.06 360.79 250.00 C 359.18 251.34 357.37 249.78 355.92 249.05 C 354.50 248.98 353.08 248.93 351.67 248.89 C 351.66 250.86 351.66 252.84 351.66 254.83 C 353.10 254.79 354.53 254.76 355.98 254.71 C 357.87 252.82 361.79 252.74 362.14 256.02 C 361.85 259.35 357.84 259.17 356.00 257.25 C 354.56 257.17 353.13 257.09 351.70 257.03 C 351.67 259.03 351.67 261.04 351.66 263.05 C 353.09 263.00 354.53 262.95 355.97 262.90 C 357.91 261.09 361.52 260.97 362.15 264.08 C 362.01 267.44 357.85 267.57 355.98 265.50 C 354.54 265.44 353.10 265.39 351.67 265.36 C 351.66 267.34 351.66 269.33 351.67 271.31 C 353.08 271.27 354.50 271.21 355.92 271.15 C 357.33 270.40 359.20 268.93 360.75 270.25 C 362.53 271.18 362.48 273.86 360.72 274.78 C 359.08 275.93 357.33 274.57 355.95 273.70 C 354.52 273.64 353.09 273.59 351.67 273.56 C 351.66 275.54 351.66 277.52 351.67 279.51 C 353.11 279.47 354.55 279.42 356.00 279.36 C 357.33 278.48 359.11 277.27 360.67 278.46 C 362.43 279.32 362.59 282.08 360.75 282.96 C 359.08 284.29 357.26 282.67 355.83 281.83 C 353.26 281.45 351.12 282.73 349.22 284.28 C 342.07 289.70 332.64 291.17 323.93 289.84 C 317.49 289.13 312.56 284.01 306.08 283.40 C 299.61 282.21 293.26 284.75 288.01 288.36 C 289.16 289.34 290.52 290.14 291.42 291.39 C 292.60 293.70 290.64 296.77 288.08 296.74 C 282.69 296.87 277.30 296.84 271.91 296.76 C 269.26 296.94 267.02 293.73 268.41 291.37 C 269.35 290.18 270.61 289.31 271.74 288.31 C 266.28 284.63 259.57 282.53 253.00 283.90 C 247.81 284.61 243.77 288.24 238.95 289.92 C 228.00 292.98 215.53 290.54 207.10 282.72 C 206.28 282.75 204.65 282.80 203.83 282.83 C 202.42 283.45 200.78 285.13 199.23 283.92 C 197.05 283.18 197.03 279.96 199.16 279.15 C 200.79 278.16 202.35 279.58 203.77 280.26 C 205.17 280.30 206.57 280.33 207.98 280.36 C 207.98 278.45 207.98 276.54 207.98 274.63 C 206.59 274.66 205.19 274.71 203.80 274.76 C 202.40 275.41 200.77 277.05 199.18 275.91 C 197.09 275.11 197.09 272.10 199.01 271.13 C 200.72 270.14 202.30 271.49 203.75 272.26 C 205.16 272.29 206.57 272.33 207.99 272.36 C 207.98 270.38 207.98 268.41 207.98 266.43 C 206.56 266.46 205.14 266.49 203.73 266.54 C 201.66 269.18 196.39 267.84 197.82 264.07 C 200.46 260.61 204.45 265.15 207.98 264.21 C 207.98 262.19 207.98 260.18 207.98 258.17 C 206.55 258.19 205.12 258.23 203.70 258.27 C 201.94 260.33 197.71 260.33 197.61 257.05 C 197.67 253.68 201.91 253.87 203.68 255.80 C 205.11 255.84 206.54 255.86 207.98 255.89 C 207.98 253.91 207.98 251.94 207.99 249.96 C 206.55 249.99 205.11 250.03 203.68 250.09 C 202.32 250.74 200.66 252.48 199.12 251.14 C 196.94 250.28 197.14 246.99 199.35 246.33 C 200.92 245.45 202.35 246.91 203.69 247.53 C 205.12 247.57 206.55 247.60 207.98 247.64 C 207.98 245.83 207.98 244.03 207.98 242.23 C 206.55 242.26 205.12 242.30 203.69 242.34 C 202.40 243.04 200.97 244.51 199.38 243.62 C 197.20 242.90 196.88 239.56 199.13 238.68 C 200.80 237.75 202.27 239.11 203.67 239.86 C 205.10 239.90 206.54 239.93 207.98 239.96 C 207.98 237.98 207.98 236.01 207.98 234.04 C 206.55 234.06 205.13 234.09 203.70 234.14 C 202.34 235.01 200.54 236.42 198.95 235.12 C 196.89 234.15 197.25 230.99 199.39 230.38 C 201.01 229.50 202.41 231.02 203.74 231.72 C 206.36 231.90 208.80 230.99 211.09 229.81 C 211.17 247.12 210.86 264.46 211.23 281.76 C 216.88 286.35 224.64 288.45 231.90 288.13 C 240.29 287.91 246.75 281.30 255.08 280.76 C 263.79 279.41 272.62 283.60 277.71 290.66 C 275.47 291.03 271.98 289.91 271.65 293.15 C 276.84 293.50 282.07 293.57 287.25 293.22 C 288.74 289.90 284.10 291.02 282.26 290.67 C 286.98 284.18 294.82 280.03 302.94 280.82 C 311.85 280.92 319.12 287.46 328.04 287.41 C 335.20 287.56 342.56 285.67 348.60 281.82 C 349.04 263.96 348.68 246.07 348.77 228.20 Z" />
<path fill="#00467f" opacity="1.00" d=" M 487.22 281.28 C 488.09 279.21 489.21 276.46 491.98 276.75 C 494.66 276.48 495.51 279.29 496.21 281.28 C 493.21 281.34 490.21 281.35 487.22 281.28 Z" />
<path fill="#00467f" opacity="1.00" d=" M 609.88 281.27 C 610.76 279.07 612.14 276.24 615.05 276.78 C 617.55 276.70 618.16 279.45 618.89 281.27 C 615.88 281.35 612.88 281.35 609.88 281.27 Z" />
<path fill="#00467f" opacity="1.00" d=" M 804.27 277.35 C 807.66 275.41 812.06 278.26 812.20 282.02 C 812.89 285.71 809.94 289.96 805.90 289.21 C 800.45 288.46 799.63 279.79 804.27 277.35 Z" />
<path fill="#00467f" opacity="1.00" d=" M 754.17 277.91 C 756.35 276.25 759.82 278.28 759.35 281.01 C 759.22 283.63 755.74 284.71 753.86 283.19 C 752.34 281.83 752.42 279.05 754.17 277.91 Z" />
<path fill="#00467f" opacity="1.00" d=" M 714.47 288.01 C 714.46 285.09 717.81 284.43 719.84 283.22 C 719.83 285.06 719.91 286.92 719.70 288.75 C 718.47 290.90 714.67 290.82 714.47 288.01 Z" />
<path fill="#00467f" opacity="1.00" d=" M 576.16 288.79 C 574.97 285.54 579.14 284.41 581.23 283.21 C 581.25 285.15 581.27 287.10 581.28 289.04 C 579.68 289.83 577.00 291.28 576.16 288.79 Z" />
<path fill="#00467f" opacity="1.00" d=" M 676.14 288.86 C 674.92 285.57 679.08 284.42 681.21 283.21 C 681.22 285.15 681.24 287.09 681.26 289.03 C 679.69 289.82 677.07 291.27 676.14 288.86 Z" />
<path fill="#00467f" opacity="1.00" d=" M 771.13 288.93 C 769.85 285.60 774.02 284.42 776.19 283.21 C 776.20 285.20 776.21 287.19 776.23 289.18 C 774.57 289.85 772.16 291.19 771.13 288.93 Z" />
<path fill="#00467f" opacity="1.00" d=" M 851.17 288.78 C 849.99 285.53 854.16 284.41 856.24 283.21 C 856.25 285.21 856.26 287.22 856.27 289.24 C 854.62 289.88 851.95 291.21 851.17 288.78 Z" />
<path fill="#00467f" opacity="1.00" d=" M 902.35 288.59 C 901.47 285.41 905.48 284.41 907.49 283.20 C 907.51 285.17 907.53 287.15 907.54 289.13 C 905.89 289.90 903.02 291.23 902.35 288.59 Z" />
<path fill="#00467f" opacity="1.00" d=" M 999.92 288.89 C 998.55 285.63 1002.79 284.41 1004.91 283.22 C 1004.93 285.18 1004.96 287.15 1004.98 289.12 C 1003.42 289.93 1000.76 291.23 999.92 288.89 Z" />
<path fill="#00467f" opacity="1.00" d=" M 1040.83 285.81 C 1042.15 284.67 1043.79 284.03 1045.32 283.20 C 1045.34 285.15 1045.36 287.10 1045.38 289.04 C 1044.29 289.55 1043.18 289.98 1042.06 290.34 C 1040.01 289.96 1039.37 287.17 1040.83 285.81 Z" />
<path fill="#00467f" opacity="1.00" d=" M 1099.10 288.98 C 1097.84 285.62 1101.96 284.43 1104.17 283.22 C 1104.18 285.14 1104.20 287.07 1104.23 289.00 C 1102.64 289.85 1100.22 291.19 1099.10 288.98 Z" />
<path fill="#00467f" opacity="1.00" d=" M 752.43 294.45 C 754.75 292.69 759.17 293.13 760.65 295.86 C 761.21 301.53 748.07 299.83 752.43 294.45 Z" />
<path fill="#00467f" opacity="1.00" d=" M 274.37 323.14 C 276.28 317.33 278.12 311.51 280.04 305.71 C 281.94 311.51 283.80 317.33 285.69 323.14 C 291.82 323.12 297.95 323.16 304.07 323.11 C 299.01 326.69 294.01 330.36 288.98 333.99 C 290.87 339.84 292.66 345.72 294.60 351.56 C 289.86 347.82 285.07 344.13 280.26 340.49 C 275.32 344.09 270.44 347.78 265.54 351.45 C 267.39 345.63 269.24 339.81 271.09 334.00 C 266.07 330.36 261.08 326.69 256.00 323.13 C 262.13 323.14 268.25 323.12 274.37 323.14 Z" />
<path fill="#00467f" opacity="1.00" d=" M 1103.78 337.86 C 1108.79 338.04 1114.46 337.05 1118.81 340.19 C 1125.44 344.82 1125.33 356.18 1118.55 360.63 C 1114.22 363.59 1108.69 362.45 1103.78 362.65 C 1103.78 354.39 1103.77 346.13 1103.78 337.86 Z" />
<path fill="#00467f" opacity="1.00" d=" M 853.82 340.97 C 856.70 344.78 857.71 349.99 859.89 354.33 C 856.16 354.33 852.43 354.33 848.71 354.33 C 850.44 349.89 851.94 345.36 853.82 340.97 Z" />
<path fill="#00467f" opacity="1.00" d=" M 970.86 354.33 C 972.63 349.63 974.38 344.93 976.19 340.25 C 978.16 344.93 980.11 349.63 982.05 354.33 C 978.31 354.33 974.58 354.33 970.86 354.33 Z" />
</g>
<g id="#ffffffff">
<path fill="#ffffff" opacity="1.00" d=" M 465.30 86.08 C 478.19 86.08 491.09 86.08 503.99 86.08 C 503.99 88.83 503.99 91.57 503.99 94.32 C 498.91 94.32 493.83 94.31 488.75 94.32 C 488.75 108.65 488.75 122.98 488.75 137.30 C 486.01 137.31 483.27 137.30 480.54 137.30 C 480.53 122.98 480.53 108.65 480.54 94.32 C 475.46 94.32 470.38 94.32 465.30 94.32 C 465.29 91.57 465.29 88.82 465.30 86.08 Z" />
<path fill="#ffffff" opacity="1.00" d=" M 510.71 86.08 C 513.40 86.08 516.10 86.08 518.81 86.08 C 518.80 93.24 518.81 100.40 518.81 107.57 C 526.55 107.58 534.29 107.57 542.04 107.57 C 542.04 100.41 542.03 93.24 542.04 86.08 C 544.77 86.08 547.51 86.08 550.25 86.08 C 550.25 103.15 550.25 120.23 550.25 137.31 C 547.51 137.31 544.77 137.31 542.04 137.30 C 542.03 130.14 542.04 122.98 542.04 115.81 C 534.29 115.81 526.55 115.81 518.81 115.81 C 518.80 122.98 518.81 130.14 518.80 137.31 C 516.10 137.30 513.40 137.31 510.70 137.30 C 510.70 120.23 510.70 103.15 510.71 86.08 Z" />
<path fill="#ffffff" opacity="1.00" d=" M 564.00 86.08 C 572.99 86.08 581.98 86.08 590.97 86.08 C 590.97 88.83 590.97 91.57 590.97 94.32 C 584.68 94.32 578.39 94.32 572.10 94.31 C 572.10 98.66 572.10 103.01 572.11 107.37 C 578.25 107.36 584.40 107.36 590.55 107.37 C 590.54 110.11 590.54 112.85 590.55 115.60 C 584.40 115.60 578.25 115.60 572.10 115.60 C 572.10 120.09 572.10 124.58 572.10 129.07 C 578.57 129.07 585.04 129.06 591.51 129.07 C 591.49 131.82 591.50 134.56 591.50 137.31 C 582.33 137.31 573.16 137.31 564.00 137.31 C 564.00 120.23 564.00 103.15 564.00 86.08 Z" />
<path fill="#ffffff" opacity="1.00" d=" M 621.24 86.14 C 623.97 86.13 626.70 86.13 629.45 86.13 C 629.46 96.11 629.44 106.08 629.45 116.06 C 629.52 119.25 629.55 122.78 631.67 125.39 C 636.04 131.03 645.29 131.01 650.35 126.34 C 652.99 123.60 653.07 119.53 653.21 115.97 C 653.25 106.00 653.21 96.03 653.22 86.07 C 655.95 86.07 658.68 86.07 661.42 86.07 C 661.39 96.70 661.49 107.34 661.39 117.98 C 661.28 124.44 658.71 131.38 652.97 134.87 C 644.54 140.03 632.24 138.98 625.53 131.46 C 622.45 127.72 621.25 122.80 621.25 118.03 C 621.21 107.40 621.26 96.77 621.24 86.14 Z" />
<path fill="#ffffff" opacity="1.00" d=" M 673.15 86.06 C 675.28 86.06 677.42 86.07 679.57 86.08 C 689.15 98.26 698.74 110.42 708.32 122.59 C 708.32 110.42 708.33 98.24 708.32 86.07 C 710.87 86.07 713.43 86.07 716.00 86.06 C 716.00 103.13 716.00 120.20 716.00 137.27 C 713.71 137.27 711.42 137.26 709.14 137.25 C 699.74 125.12 690.27 113.04 680.83 100.94 C 680.81 113.05 680.83 125.16 680.82 137.27 C 678.26 137.26 675.70 137.26 673.15 137.27 C 673.15 120.20 673.15 103.13 673.15 86.06 Z" />
<path fill="#ffffff" opacity="1.00" d=" M 729.32 86.08 C 732.05 86.08 734.79 86.08 737.53 86.08 C 737.53 103.16 737.54 120.23 737.53 137.30 C 734.79 137.31 732.06 137.31 729.34 137.32 C 729.29 120.24 729.33 103.16 729.32 86.08 Z" />
<path fill="#ffffff" opacity="1.00" d=" M 747.65 86.06 C 750.31 86.07 752.98 86.06 755.66 86.08 C 760.00 97.13 764.24 108.21 768.44 119.32 C 772.77 108.26 777.01 97.17 781.23 86.07 C 783.97 86.06 786.70 86.07 789.44 86.06 C 783.01 103.26 776.57 120.45 770.16 137.65 C 769.29 137.66 768.43 137.66 767.58 137.67 C 760.95 120.47 754.30 103.26 747.65 86.06 Z" />
<path fill="#ffffff" opacity="1.00" d=" M 799.46 86.09 C 808.48 86.07 817.51 86.08 826.53 86.08 C 826.53 88.82 826.53 91.57 826.54 94.32 C 820.21 94.32 813.88 94.31 807.56 94.32 C 807.56 98.67 807.56 103.01 807.57 107.36 C 813.71 107.36 819.85 107.36 826.00 107.36 C 826.00 110.11 826.00 112.85 826.00 115.60 C 819.85 115.60 813.71 115.60 807.56 115.60 C 807.56 120.09 807.56 124.58 807.57 129.06 C 814.03 129.07 820.49 129.06 826.96 129.07 C 826.96 131.81 826.96 134.56 826.96 137.30 C 817.79 137.31 808.63 137.30 799.46 137.31 C 799.45 120.23 799.46 103.16 799.46 86.09 Z" />
<path fill="#ffffff" opacity="1.00" d=" M 841.89 86.27 C 848.96 86.65 856.77 84.96 863.19 88.74 C 871.23 94.28 870.96 107.98 862.70 113.26 C 869.48 120.18 872.78 129.56 878.54 137.26 C 875.31 137.27 872.08 137.27 868.85 137.27 C 865.02 131.08 861.93 124.36 857.26 118.74 C 855.60 116.42 852.75 115.96 850.11 115.81 C 850.07 123.03 850.10 130.25 850.09 137.47 C 847.35 137.47 844.62 137.47 841.89 137.47 C 841.88 120.40 841.88 103.33 841.89 86.27 M 849.78 93.62 C 849.76 98.28 849.77 102.94 849.78 107.61 C 853.24 107.51 857.49 107.87 859.86 104.79 C 861.50 102.15 861.42 98.19 859.24 95.86 C 856.67 93.56 852.97 93.87 849.78 93.62 Z" />
<path fill="#ffffff" opacity="1.00" d=" M 891.78 87.77 C 897.59 84.72 904.68 86.18 909.90 89.77 C 909.88 93.37 909.87 96.96 909.93 100.56 C 906.28 96.61 900.72 92.57 895.15 95.08 C 892.10 96.14 891.46 100.13 893.70 102.32 C 897.99 106.49 904.00 108.52 907.91 113.16 C 913.37 119.36 912.93 130.15 906.30 135.36 C 901.02 139.36 893.35 138.54 887.97 135.17 C 886.91 134.35 885.15 133.75 885.40 132.12 C 885.17 128.33 885.25 124.54 885.18 120.75 C 888.18 125.19 892.11 130.28 898.06 130.14 C 902.07 130.42 905.86 126.09 903.78 122.24 C 900.67 116.34 893.39 114.76 889.06 109.99 C 882.69 104.02 883.84 91.82 891.78 87.77 Z" />
<path fill="#ffffff" opacity="1.00" d=" M 925.99 86.08 C 928.72 86.08 931.45 86.08 934.19 86.08 C 934.20 103.15 934.19 120.23 934.19 137.31 C 931.45 137.31 928.71 137.31 925.99 137.31 C 925.98 120.23 925.98 103.15 925.99 86.08 Z" />
<path fill="#ffffff" opacity="1.00" d=" M 944.32 86.08 C 957.25 86.07 970.18 86.08 983.12 86.08 C 983.11 88.82 983.11 91.57 983.12 94.32 C 978.00 94.32 972.89 94.32 967.78 94.31 C 967.77 108.64 967.77 122.97 967.77 137.31 C 965.06 137.31 962.36 137.30 959.67 137.30 C 959.66 122.98 959.66 108.65 959.67 94.32 C 954.55 94.32 949.44 94.32 944.33 94.32 C 944.31 91.58 944.31 88.83 944.32 86.08 Z" />
<path fill="#ffffff" opacity="1.00" d=" M 986.19 86.06 C 989.49 86.07 992.79 86.07 996.10 86.06 C 1000.04 91.44 1003.83 96.93 1007.64 102.40 C 1011.49 96.96 1015.29 91.48 1019.17 86.06 C 1022.46 86.07 1025.76 86.07 1029.07 86.06 C 1023.27 94.28 1017.43 102.47 1011.68 110.72 C 1011.69 119.57 1011.68 128.42 1011.68 137.27 C 1008.97 137.26 1006.28 137.27 1003.59 137.26 C 1003.57 129.16 1003.60 121.06 1003.59 112.95 C 1003.96 110.34 1001.97 108.42 1000.67 106.42 C 995.87 99.61 991.08 92.80 986.19 86.06 Z" />
<path fill="#ffffff" opacity="1.00" d=" M 1064.46 86.61 C 1072.39 84.96 1081.21 87.18 1086.86 93.13 C 1097.12 103.65 1096.23 122.56 1085.29 132.28 C 1076.66 139.92 1062.32 140.02 1053.74 132.25 C 1042.84 122.53 1042.01 103.66 1052.25 93.19 C 1055.57 89.87 1059.87 87.59 1064.46 86.61 M 1063.39 95.51 C 1051.50 100.42 1050.19 118.49 1059.66 126.36 C 1064.91 130.94 1073.33 131.05 1078.82 126.81 C 1086.48 121.07 1087.64 109.17 1082.66 101.33 C 1078.72 95.11 1070.11 92.56 1063.39 95.51 Z" />
<path fill="#ffffff" opacity="1.00" d=" M 1103.57 86.08 C 1111.88 86.08 1120.20 86.08 1128.51 86.08 C 1128.50 88.75 1128.50 91.43 1128.51 94.10 C 1122.83 94.10 1117.14 94.10 1111.46 94.10 C 1111.45 98.09 1111.45 102.08 1111.46 106.07 C 1117.14 106.08 1122.82 106.07 1128.51 106.08 C 1128.50 108.71 1128.50 111.35 1128.51 113.99 C 1122.82 114.00 1117.14 113.99 1111.45 114.01 C 1111.46 121.60 1111.46 129.18 1111.45 136.77 C 1108.82 136.77 1106.19 136.77 1103.57 136.78 C 1103.56 119.88 1103.57 102.98 1103.57 86.08 Z" />
<path fill="#ffffff" opacity="1.00" d=" M 156.82 86.60 C 238.97 86.60 321.11 86.60 403.26 86.60 C 403.26 123.41 403.26 160.23 403.26 197.04 C 403.20 206.01 403.61 215.04 402.19 223.93 C 398.43 248.58 388.48 272.03 374.82 292.78 C 358.25 317.82 335.57 338.59 309.74 353.79 C 300.25 359.54 290.15 364.14 280.04 368.65 C 256.18 358.58 233.54 345.17 214.51 327.49 C 184.89 300.24 164.18 263.07 157.90 223.21 C 156.92 217.18 156.72 211.06 156.82 204.96 C 156.83 165.50 156.82 126.05 156.82 86.60 M 162.47 91.94 C 162.47 114.76 162.48 137.59 162.46 160.42 C 167.34 160.63 172.24 161.38 176.79 163.23 C 180.75 164.69 184.12 167.38 188.13 168.74 C 198.79 172.70 211.13 171.67 221.00 166.02 C 233.07 159.07 248.83 158.97 260.82 166.13 C 271.02 172.38 284.23 172.81 295.11 168.07 C 297.82 166.88 300.28 165.18 303.01 164.03 C 314.68 158.98 328.72 159.85 339.64 166.40 C 351.00 173.04 365.84 172.72 377.18 166.20 C 383.46 162.52 390.71 160.87 397.95 160.75 C 397.91 137.81 397.94 114.87 397.93 91.93 C 319.44 91.94 240.96 91.93 162.47 91.94 M 232.81 169.03 C 230.96 174.84 229.12 180.66 227.27 186.47 C 221.12 186.46 214.97 186.48 208.81 186.45 C 213.88 190.07 218.93 193.72 223.96 197.38 C 222.10 203.20 220.20 209.00 218.32 214.80 C 223.09 211.11 227.83 207.38 232.68 203.79 C 237.45 207.53 242.34 211.10 247.11 214.83 C 245.33 209.01 243.54 203.20 241.77 197.39 C 246.77 193.72 251.81 190.08 256.83 186.44 C 250.71 186.50 244.59 186.45 238.48 186.47 C 236.58 180.66 234.72 174.84 232.81 169.03 M 327.47 168.50 C 325.60 174.37 323.77 180.26 321.93 186.13 C 315.77 186.12 309.61 186.16 303.46 186.11 C 308.50 189.75 313.49 193.45 318.52 197.12 C 316.67 202.95 314.82 208.78 312.97 214.61 C 317.71 210.91 322.47 207.25 327.25 203.61 C 332.05 207.23 336.79 210.93 341.54 214.60 C 339.84 208.77 338.12 202.94 336.42 197.11 C 341.44 193.43 346.44 189.74 351.49 186.10 C 345.37 186.17 339.24 186.12 333.12 186.13 C 331.23 180.26 329.38 174.37 327.47 168.50 M 234.89 224.53 C 229.59 225.68 224.14 225.00 218.87 224.04 C 218.83 242.06 218.87 260.08 218.85 278.10 C 222.38 279.63 226.11 281.11 230.05 280.78 C 235.93 280.63 240.78 276.93 246.11 274.97 C 256.89 270.77 269.57 273.24 278.46 280.49 C 278.42 262.33 278.45 244.17 278.45 226.01 C 271.10 220.89 262.07 217.60 253.04 219.05 C 246.70 219.87 241.17 223.45 234.89 224.53 M 281.32 226.33 C 281.31 244.51 281.34 262.68 281.30 280.85 C 287.46 276.02 295.15 272.96 303.05 273.25 C 310.04 273.10 316.16 276.76 322.40 279.36 C 328.39 281.94 335.29 281.30 340.91 278.09 C 340.90 260.19 340.90 242.29 340.91 224.39 C 336.36 225.18 331.72 225.80 327.11 225.17 C 319.46 224.38 312.78 219.79 305.06 219.34 C 296.57 218.47 288.27 221.69 281.32 226.33 M 213.74 227.04 C 213.72 245.01 213.75 262.98 213.73 280.96 C 219.26 284.15 225.61 286.50 232.09 285.73 C 239.96 285.24 246.09 279.22 253.93 278.57 C 263.25 276.86 272.95 280.80 278.80 288.16 C 278.78 286.83 278.77 285.50 278.76 284.18 C 271.86 277.93 262.24 274.36 252.92 276.10 C 245.82 277.15 240.05 282.15 232.92 283.15 C 227.19 284.37 221.53 282.24 216.51 279.64 C 216.50 261.69 216.52 243.75 216.51 225.80 C 215.58 226.21 214.66 226.62 213.74 227.04 M 343.89 225.79 C 343.87 243.72 343.90 261.64 343.88 279.57 C 338.98 281.96 333.66 284.22 328.08 283.30 C 320.52 282.57 314.53 277.11 307.06 276.08 C 297.91 274.44 288.36 277.76 281.65 284.05 C 281.64 285.07 281.61 287.10 281.59 288.12 C 286.13 282.66 292.67 278.72 299.87 278.40 C 306.86 277.73 313.57 280.26 319.74 283.26 C 328.44 287.18 338.43 284.92 346.67 280.92 C 346.65 262.96 346.66 245.00 346.66 227.04 C 345.73 226.62 344.81 226.21 343.89 225.79 M 348.77 228.20 C 348.68 246.07 349.04 263.96 348.60 281.82 C 342.56 285.67 335.20 287.56 328.04 287.41 C 319.12 287.46 311.85 280.92 302.94 280.82 C 294.82 280.03 286.98 284.18 282.26 290.67 C 284.10 291.02 288.74 289.90 287.25 293.22 C 282.07 293.57 276.84 293.50 271.65 293.15 C 271.98 289.91 275.47 291.03 277.71 290.66 C 272.62 283.60 263.79 279.41 255.08 280.76 C 246.75 281.30 240.29 287.91 231.90 288.13 C 224.64 288.45 216.88 286.35 211.23 281.76 C 210.86 264.46 211.17 247.12 211.09 229.81 C 208.80 230.99 206.36 231.90 203.74 231.72 C 202.41 231.02 201.01 229.50 199.39 230.38 C 197.25 230.99 196.89 234.15 198.95 235.12 C 200.54 236.42 202.34 235.01 203.70 234.14 C 205.13 234.09 206.55 234.06 207.98 234.04 C 207.98 236.01 207.98 237.98 207.98 239.96 C 206.54 239.93 205.10 239.90 203.67 239.86 C 202.27 239.11 200.80 237.75 199.13 238.68 C 196.88 239.56 197.20 242.90 199.38 243.62 C 200.97 244.51 202.40 243.04 203.69 242.34 C 205.12 242.30 206.55 242.26 207.98 242.23 C 207.98 244.03 207.98 245.83 207.98 247.64 C 206.55 247.60 205.12 247.57 203.69 247.53 C 202.35 246.91 200.92 245.45 199.35 246.33 C 197.14 246.99 196.94 250.28 199.12 251.14 C 200.66 252.48 202.32 250.74 203.68 250.09 C 205.11 250.03 206.55 249.99 207.99 249.96 C 207.98 251.94 207.98 253.91 207.98 255.89 C 206.54 255.86 205.11 255.84 203.68 255.80 C 201.91 253.87 197.67 253.68 197.61 257.05 C 197.71 260.33 201.94 260.33 203.70 258.27 C 205.12 258.23 206.55 258.19 207.98 258.17 C 207.98 260.18 207.98 262.19 207.98 264.21 C 204.45 265.15 200.46 260.61 197.82 264.07 C 196.39 267.84 201.66 269.18 203.73 266.54 C 205.14 266.49 206.56 266.46 207.98 266.43 C 207.98 268.41 207.98 270.38 207.99 272.36 C 206.57 272.33 205.16 272.29 203.75 272.26 C 202.30 271.49 200.72 270.14 199.01 271.13 C 197.09 272.10 197.09 275.11 199.18 275.91 C 200.77 277.05 202.40 275.41 203.80 274.76 C 205.19 274.71 206.59 274.66 207.98 274.63 C 207.98 276.54 207.98 278.45 207.98 280.36 C 206.57 280.33 205.17 280.30 203.77 280.26 C 202.35 279.58 200.79 278.16 199.16 279.15 C 197.03 279.96 197.05 283.18 199.23 283.92 C 200.78 285.13 202.42 283.45 203.83 282.83 C 204.65 282.80 206.28 282.75 207.10 282.72 C 215.53 290.54 228.00 292.98 238.95 289.92 C 243.77 288.24 247.81 284.61 253.00 283.90 C 259.57 282.53 266.28 284.63 271.74 288.31 C 270.61 289.31 269.35 290.18 268.41 291.37 C 267.02 293.73 269.26 296.94 271.91 296.76 C 277.30 296.84 282.69 296.87 288.08 296.74 C 290.64 296.77 292.60 293.70 291.42 291.39 C 290.52 290.14 289.16 289.34 288.01 288.36 C 293.26 284.75 299.61 282.21 306.08 283.40 C 312.56 284.01 317.49 289.13 323.93 289.84 C 332.64 291.17 342.07 289.70 349.22 284.28 C 351.12 282.73 353.26 281.45 355.83 281.83 C 357.26 282.67 359.08 284.29 360.75 282.96 C 362.59 282.08 362.43 279.32 360.67 278.46 C 359.11 277.27 357.33 278.48 356.00 279.36 C 354.55 279.42 353.11 279.47 351.67 279.51 C 351.66 277.52 351.66 275.54 351.67 273.56 C 353.09 273.59 354.52 273.64 355.95 273.70 C 357.33 274.57 359.08 275.93 360.72 274.78 C 362.48 273.86 362.53 271.18 360.75 270.25 C 359.20 268.93 357.33 270.40 355.92 271.15 C 354.50 271.21 353.08 271.27 351.67 271.31 C 351.66 269.33 351.66 267.34 351.67 265.36 C 353.10 265.39 354.54 265.44 355.98 265.50 C 357.85 267.57 362.01 267.44 362.15 264.08 C 361.52 260.97 357.91 261.09 355.97 262.90 C 354.53 262.95 353.09 263.00 351.66 263.05 C 351.67 261.04 351.67 259.03 351.70 257.03 C 353.13 257.09 354.56 257.17 356.00 257.25 C 357.84 259.17 361.85 259.35 362.14 256.02 C 361.79 252.74 357.87 252.82 355.98 254.71 C 354.53 254.76 353.10 254.79 351.66 254.83 C 351.66 252.84 351.66 250.86 351.67 248.89 C 353.08 248.93 354.50 248.98 355.92 249.05 C 357.37 249.78 359.18 251.34 360.79 250.00 C 362.69 249.06 362.35 246.19 360.50 245.43 C 358.95 244.34 357.31 245.65 356.00 246.43 C 354.55 246.48 353.11 246.53 351.67 246.58 C 351.66 244.59 351.66 242.61 351.67 240.63 C 353.09 240.66 354.51 240.71 355.93 240.77 C 357.19 241.44 358.46 242.68 360.03 242.18 C 361.88 241.72 362.90 239.05 361.28 237.76 C 359.79 235.95 357.46 237.17 355.94 238.21 C 354.58 238.28 353.22 238.33 351.86 238.38 C 351.88 236.38 351.89 234.38 351.93 232.38 C 353.35 232.44 354.78 232.50 356.22 232.58 C 357.57 233.30 359.16 234.80 360.74 233.69 C 362.74 232.90 362.79 229.93 360.84 229.05 C 359.25 227.68 357.45 229.32 356.06 230.11 C 353.46 230.26 351.03 229.38 348.77 228.20 M 274.37 323.14 C 268.25 323.12 262.13 323.14 256.00 323.13 C 261.08 326.69 266.07 330.36 271.09 334.00 C 269.24 339.81 267.39 345.63 265.54 351.45 C 270.44 347.78 275.32 344.09 280.26 340.49 C 285.07 344.13 289.86 347.82 294.60 351.56 C 292.66 345.72 290.87 339.84 288.98 333.99 C 294.01 330.36 299.01 326.69 304.07 323.11 C 297.95 323.16 291.82 323.12 285.69 323.14 C 283.80 317.33 281.94 311.51 280.04 305.71 C 278.12 311.51 276.28 317.33 274.37 323.14 Z" />
<path fill="#ffffff" opacity="1.00" d=" M 195.87 108.36 C 198.24 106.24 200.84 104.20 204.00 103.46 C 213.75 101.15 224.95 104.71 230.88 112.97 C 235.79 119.43 237.30 128.83 233.10 136.04 C 231.20 139.46 227.79 141.62 224.26 143.08 C 224.74 145.48 225.59 147.77 226.66 149.96 C 225.75 153.73 224.95 157.56 225.26 161.47 C 224.19 159.74 223.19 157.97 222.20 156.20 C 219.86 158.11 218.04 160.53 216.26 162.95 C 216.46 160.13 217.67 157.59 219.21 155.26 C 217.48 155.72 215.76 156.21 214.03 156.66 C 215.84 154.90 218.12 153.82 220.55 153.20 C 221.08 152.15 221.62 151.10 222.16 150.05 C 221.42 147.99 220.57 145.99 219.62 144.03 C 217.56 144.55 215.56 145.25 213.65 146.17 C 213.31 150.99 207.48 150.16 204.67 152.78 C 201.18 156.33 196.58 158.65 193.74 162.84 C 194.21 160.72 195.01 158.68 196.22 156.86 C 192.90 157.05 189.59 157.37 186.29 157.74 C 188.41 155.41 191.38 154.51 194.36 153.90 C 192.87 153.16 191.36 152.45 189.86 151.74 C 192.25 151.37 194.64 151.72 196.87 152.69 C 200.73 151.77 203.43 148.76 206.36 146.31 C 204.81 143.54 204.00 140.45 203.83 137.29 C 200.94 136.41 198.32 134.90 196.19 132.76 C 194.28 130.74 191.40 130.33 189.13 128.88 C 186.86 127.50 185.36 125.25 183.82 123.17 C 176.88 128.36 171.80 135.56 167.72 143.11 C 167.18 140.91 166.07 138.51 167.22 136.30 C 169.78 130.02 173.76 124.48 177.58 118.93 C 176.70 113.75 179.33 108.28 184.39 106.44 C 188.23 104.34 192.78 105.51 195.87 108.36 M 203.19 108.74 C 203.74 107.97 204.83 106.43 205.38 105.66 C 201.24 106.86 198.00 109.73 195.47 113.10 C 194.26 111.33 193.22 108.94 190.86 108.53 C 184.71 107.10 178.09 113.65 180.62 119.86 C 177.05 124.73 173.17 129.42 170.38 134.82 C 174.67 129.37 178.87 123.68 184.70 119.74 C 187.07 124.09 190.58 128.27 195.81 128.94 C 198.60 132.12 202.09 134.92 206.52 135.08 C 206.67 137.93 207.05 140.76 207.71 143.54 C 210.10 141.94 212.58 140.45 215.22 139.27 C 215.83 137.68 216.45 136.08 217.10 134.50 C 221.56 133.04 225.80 129.81 226.69 124.95 C 227.87 117.60 221.83 109.94 214.27 109.71 C 215.33 109.15 216.39 108.59 217.45 108.02 C 214.41 107.64 211.34 107.76 208.40 108.67 C 209.08 107.95 210.45 106.50 211.13 105.77 C 208.32 106.26 205.64 107.27 203.19 108.74 Z" />
<path fill="#ffffff" opacity="1.00" d=" M 281.61 103.37 C 291.03 101.31 301.72 104.60 307.68 112.35 C 312.86 118.74 314.66 128.22 310.61 135.63 C 308.73 139.31 305.12 141.56 301.48 143.19 C 302.07 145.52 302.90 147.79 303.93 149.96 C 303.06 153.74 302.20 157.56 302.59 161.47 C 301.44 159.74 300.41 157.94 299.33 156.17 C 297.12 158.23 295.26 160.62 293.42 163.01 C 293.45 160.15 294.77 157.65 296.16 155.25 C 294.47 155.71 292.79 156.19 291.10 156.63 C 292.95 154.88 295.25 153.77 297.73 153.22 C 299.93 150.22 298.23 146.85 296.67 144.02 C 294.52 144.58 292.43 145.34 290.43 146.28 C 290.35 146.98 290.19 148.37 290.11 149.07 C 287.11 150.35 283.74 151.04 281.22 153.22 C 277.84 156.61 273.47 158.89 270.69 162.90 C 271.26 160.76 272.09 158.71 273.29 156.86 C 269.97 157.05 266.65 157.37 263.34 157.74 C 265.44 155.46 268.35 154.51 271.30 153.97 C 270.11 153.20 268.89 152.48 267.69 151.76 C 269.89 151.36 272.09 151.76 274.12 152.68 C 278.07 151.88 280.77 148.77 283.76 146.35 C 282.21 143.58 281.40 140.49 281.18 137.33 C 278.49 136.42 275.94 135.09 273.91 133.07 C 271.54 130.48 267.73 130.20 265.16 127.89 C 263.58 126.53 262.43 124.79 261.23 123.13 C 254.30 128.35 249.21 135.54 245.09 143.09 C 244.56 140.97 243.51 138.68 244.51 136.53 C 247.06 130.19 251.06 124.58 254.93 118.99 C 254.33 114.42 255.96 109.37 260.30 107.20 C 264.32 104.46 269.74 104.94 273.25 108.30 C 275.64 106.08 278.36 104.07 281.61 103.37 M 280.50 108.73 C 281.05 107.97 282.15 106.44 282.70 105.68 C 278.52 106.82 275.31 109.75 272.73 113.09 C 271.50 111.25 270.38 108.79 267.91 108.48 C 261.80 107.27 255.44 113.73 257.90 119.85 C 254.30 124.78 250.39 129.55 247.78 135.10 C 252.00 129.48 256.28 123.68 262.26 119.79 C 264.56 124.14 268.09 128.24 273.25 128.94 C 276.09 132.07 279.55 134.93 284.00 135.05 C 284.20 137.90 284.53 140.75 285.11 143.55 C 287.54 141.97 290.02 140.47 292.68 139.31 C 293.30 137.71 293.92 136.12 294.57 134.53 C 299.35 132.97 303.84 129.28 304.36 123.97 C 304.54 116.92 298.82 109.83 291.48 109.80 C 292.57 109.20 293.66 108.60 294.76 108.01 C 291.70 107.62 288.62 107.78 285.66 108.69 C 286.33 107.96 287.69 106.49 288.37 105.75 C 285.58 106.26 282.93 107.27 280.50 108.73 Z" />
<path fill="#ffffff" opacity="1.00" d=" M 350.26 108.35 C 352.72 106.08 355.52 103.99 358.88 103.33 C 368.24 101.36 378.79 104.64 384.72 112.31 C 389.92 118.70 391.73 128.21 387.68 135.64 C 385.80 139.31 382.20 141.56 378.55 143.19 C 379.13 145.52 379.96 147.78 380.98 149.96 C 380.15 153.74 379.31 157.55 379.61 161.46 C 378.53 159.78 377.58 158.03 376.63 156.27 C 374.21 158.09 372.35 160.48 370.62 162.93 C 370.77 160.04 371.99 157.47 373.71 155.20 C 371.95 155.68 370.20 156.16 368.45 156.63 C 370.26 154.93 372.47 153.80 374.88 153.21 C 375.41 152.18 375.92 151.14 376.45 150.11 C 375.80 148.05 375.04 146.02 374.24 144.01 C 372.22 144.88 369.13 144.71 368.21 147.08 C 366.96 151.12 361.69 150.30 359.06 152.99 C 355.69 156.48 351.15 158.69 348.47 162.86 C 348.89 160.72 349.71 158.70 350.92 156.90 C 347.59 157.02 344.29 157.34 341.00 157.80 C 343.14 155.42 346.15 154.31 349.29 153.94 C 347.73 153.20 346.18 152.47 344.63 151.75 C 346.94 151.37 349.26 151.70 351.41 152.67 C 355.38 151.88 358.07 148.73 361.06 146.29 C 359.43 143.56 358.71 140.45 358.49 137.31 C 355.70 136.42 353.10 135.01 351.03 132.92 C 349.16 130.87 346.31 130.40 344.02 129.02 C 341.63 127.65 340.08 125.30 338.47 123.15 C 331.48 128.35 326.60 135.68 322.22 143.09 C 321.87 141.02 320.86 138.81 321.73 136.74 C 324.25 130.22 328.46 124.55 332.46 118.89 C 331.33 113.00 335.19 107.13 341.01 105.81 C 344.37 104.36 347.66 106.35 350.26 108.35 M 357.56 108.74 C 358.11 107.97 359.22 106.44 359.77 105.68 C 355.59 106.81 352.40 109.75 349.81 113.06 C 348.61 111.42 347.65 109.21 345.50 108.65 C 339.25 106.76 332.13 113.47 334.75 119.87 C 331.15 124.61 327.25 129.19 324.63 134.59 C 328.96 129.27 333.06 123.59 338.85 119.74 C 341.19 124.09 344.72 128.27 349.93 128.93 C 352.72 132.12 356.21 134.92 360.66 135.04 C 360.82 137.90 361.17 140.75 361.86 143.54 C 364.24 141.93 366.70 140.45 369.34 139.29 C 369.95 137.69 370.57 136.10 371.21 134.52 C 374.65 133.21 378.20 131.30 379.82 127.79 C 383.80 120.09 377.18 109.71 368.54 109.80 C 369.62 109.19 370.71 108.60 371.81 108.01 C 368.75 107.65 365.66 107.74 362.70 108.63 C 363.39 107.92 364.77 106.49 365.46 105.77 C 362.65 106.24 359.99 107.27 357.56 108.74 Z" />
<path fill="#ffffff" opacity="1.00" d=" M 182.41 115.49 C 184.06 114.00 186.00 117.30 184.00 117.92 C 182.63 119.05 180.89 116.51 182.41 115.49 Z" />
<path fill="#ffffff" opacity="1.00" d=" M 260.19 115.27 C 261.73 114.61 263.44 116.75 261.77 117.71 C 260.53 119.59 258.34 116.16 260.19 115.27 Z" />
<path fill="#ffffff" opacity="1.00" d=" M 337.23 115.16 C 338.46 114.85 340.36 116.93 338.64 117.67 C 337.21 119.66 334.89 115.88 337.23 115.16 Z" />
<path fill="#ffffff" opacity="1.00" d=" M 498.34 157.40 C 501.55 157.40 504.77 157.40 508.00 157.39 C 519.72 186.54 531.33 215.75 542.99 244.93 C 538.24 244.94 533.49 244.92 528.74 244.95 C 525.40 236.69 522.13 228.40 518.80 220.14 C 508.75 220.17 498.71 220.05 488.67 220.20 C 485.70 228.52 482.43 236.73 479.16 244.93 C 474.40 244.93 469.64 244.94 464.88 244.93 C 476.02 215.75 487.18 186.58 498.34 157.40 M 503.24 181.56 C 500.19 189.82 497.15 198.08 494.08 206.33 C 500.43 206.33 506.79 206.34 513.15 206.33 C 509.84 198.07 506.56 189.81 503.24 181.56 Z" />
<path fill="#ffffff" opacity="1.00" d=" M 655.83 163.77 C 664.88 157.65 676.37 155.59 687.07 157.46 C 693.83 158.67 700.25 161.22 706.45 164.12 C 706.63 169.73 706.92 175.33 707.14 180.94 C 698.72 175.53 689.26 170.70 678.97 171.13 C 667.67 171.00 657.05 178.77 653.19 189.28 C 648.89 201.13 650.61 215.99 660.03 224.96 C 666.00 230.81 674.76 232.89 682.91 232.07 C 692.04 231.22 700.40 226.81 707.59 221.33 C 707.56 226.95 707.58 232.58 707.57 238.20 C 695.95 245.10 681.82 247.56 668.58 244.75 C 659.80 242.85 651.72 237.77 646.32 230.57 C 638.93 220.82 635.48 208.14 637.10 195.99 C 638.47 183.31 644.99 170.84 655.83 163.77 Z" />
<path fill="#ffffff" opacity="1.00" d=" M 904.25 157.47 C 907.46 157.47 910.69 157.47 913.92 157.46 C 925.61 186.65 937.24 215.86 948.90 245.07 C 944.15 245.07 939.42 245.04 934.68 245.10 C 931.27 236.86 928.04 228.54 924.70 220.27 C 914.68 220.26 904.66 220.26 894.64 220.28 C 891.55 228.57 888.38 236.83 885.16 245.07 C 880.36 245.07 875.57 245.07 870.78 245.06 C 881.92 215.86 893.08 186.66 904.25 157.47 M 909.14 181.56 C 906.03 189.80 902.98 198.06 899.98 206.33 C 906.33 206.34 912.69 206.33 919.05 206.33 C 915.86 198.03 912.56 189.77 909.14 181.56 Z" />
<path fill="#ffffff" opacity="1.00" d=" M 553.02 157.60 C 557.60 157.60 562.18 157.60 566.77 157.60 C 566.76 173.74 566.77 189.87 566.76 206.00 C 566.83 210.29 566.67 214.64 567.60 218.85 C 569.23 225.82 575.87 230.96 582.88 231.63 C 589.39 232.25 596.56 231.11 601.60 226.64 C 606.31 222.12 606.72 215.14 606.82 209.01 C 606.90 191.98 606.82 174.96 606.85 157.93 C 611.43 157.93 616.02 157.93 620.60 157.94 C 620.60 174.61 620.59 191.28 620.61 207.95 C 620.79 217.16 619.31 226.97 613.51 234.43 C 608.59 240.85 600.78 244.36 592.93 245.51 C 585.35 246.59 577.29 246.08 570.34 242.66 C 562.40 238.50 556.45 230.79 554.32 222.09 C 553.27 218.13 553.02 214.01 553.01 209.93 C 553.03 192.49 553.02 175.04 553.02 157.60 Z" />
<path fill="#ffffff" opacity="1.00" d=" M 728.47 158.01 C 733.05 157.99 737.63 158.00 742.22 158.00 C 742.22 169.96 742.23 181.92 742.21 193.88 C 751.25 182.42 760.65 171.26 769.88 159.95 C 770.69 159.13 771.41 157.73 772.82 158.02 C 778.19 157.91 783.56 158.05 788.93 158.00 C 777.58 171.70 766.33 185.48 755.00 199.19 C 769.16 214.46 783.29 229.77 797.45 245.06 C 791.11 245.04 784.78 245.15 778.46 244.99 C 766.46 231.92 754.36 218.95 742.33 205.92 C 742.33 218.97 742.33 232.02 742.33 245.07 C 737.71 245.07 733.09 245.07 728.47 245.06 C 728.47 216.04 728.48 187.03 728.47 158.01 Z" />
<path fill="#ffffff" opacity="1.00" d=" M 810.98 158.05 C 815.56 158.05 820.14 158.04 824.73 158.05 C 824.72 182.43 824.72 206.81 824.73 231.19 C 836.09 231.19 847.46 231.19 858.83 231.19 C 858.83 235.82 858.83 240.46 858.84 245.09 C 842.88 245.10 826.93 245.09 810.97 245.09 C 810.97 216.08 810.97 187.06 810.98 158.05 Z" />
<path fill="#ffffff" opacity="1.00" d=" M 965.43 157.94 C 969.01 157.93 972.60 157.93 976.20 157.93 C 992.43 178.67 1008.67 199.40 1024.91 220.13 C 1024.89 199.40 1024.90 178.67 1024.90 157.93 C 1029.30 157.93 1033.71 157.93 1038.12 157.94 C 1038.12 186.93 1038.12 215.93 1038.12 244.93 C 1034.24 244.94 1030.36 244.96 1026.50 244.88 C 1010.58 224.29 994.48 203.83 978.44 183.32 C 978.41 203.85 978.44 224.39 978.43 244.93 C 974.09 244.93 969.75 244.93 965.42 244.93 C 965.43 215.93 965.42 186.93 965.43 157.94 Z" />
<path fill="#ffffff" opacity="1.00" d=" M 1060.61 158.00 C 1071.41 158.07 1082.21 157.86 1093.01 158.10 C 1103.40 158.29 1113.97 162.10 1121.13 169.84 C 1136.26 186.40 1136.85 214.15 1122.31 231.27 C 1115.15 239.84 1104.14 244.83 1093.03 245.03 C 1082.22 245.12 1071.42 245.04 1060.61 245.07 C 1060.61 216.04 1060.61 187.02 1060.61 158.00 M 1074.47 231.13 C 1080.98 231.04 1087.51 231.35 1094.02 230.95 C 1102.57 230.31 1110.73 225.29 1114.76 217.66 C 1121.80 205.04 1120.55 186.64 1108.56 177.42 C 1098.77 170.03 1085.91 172.10 1074.47 171.80 C 1074.46 191.57 1074.48 211.35 1074.47 231.13 Z" />
<path fill="#ffffff" opacity="1.00" d=" M 464.23 264.23 C 471.30 264.23 478.37 264.23 485.44 264.24 C 485.44 265.44 485.44 266.65 485.45 267.87 C 482.53 267.88 479.62 267.87 476.70 267.88 C 476.70 276.15 476.70 284.41 476.70 292.68 C 475.52 292.68 474.35 292.68 473.18 292.68 C 473.17 284.41 473.18 276.15 473.18 267.88 C 470.19 267.87 467.21 267.88 464.23 267.87 C 464.22 266.65 464.22 265.44 464.23 264.23 Z" />
<path fill="#ffffff" opacity="1.00" d=" M 509.85 264.19 C 511.12 264.20 512.41 264.20 513.69 264.21 C 515.99 270.70 518.32 277.18 520.61 283.67 C 522.97 277.19 525.38 270.73 527.72 264.24 C 528.82 264.22 529.93 264.20 531.05 264.18 C 533.44 270.67 535.81 277.17 538.20 283.66 C 540.51 277.17 542.82 270.68 545.13 264.20 C 546.30 264.20 547.47 264.20 548.66 264.20 C 545.07 273.96 541.83 283.86 538.02 293.54 C 535.00 285.62 532.44 277.53 529.55 269.56 C 526.59 277.51 523.97 285.60 520.77 293.46 C 516.89 283.80 513.52 273.94 509.85 264.19 Z" />
<path fill="#ffffff" opacity="1.00" d=" M 632.86 264.19 C 634.02 264.19 635.20 264.21 636.39 264.22 C 638.79 270.71 641.21 277.18 643.63 283.67 C 645.89 277.18 648.17 270.70 650.43 264.22 C 651.63 264.21 652.84 264.20 654.06 264.19 C 656.34 270.67 658.60 277.16 660.88 283.63 C 663.29 277.16 665.64 270.67 668.04 264.20 C 669.24 264.20 670.45 264.20 671.66 264.20 C 668.04 273.90 664.70 283.71 660.91 293.34 C 657.92 285.45 655.17 277.48 652.26 269.57 C 649.30 277.51 646.59 285.54 643.55 293.45 C 639.56 283.86 636.47 273.92 632.86 264.19 Z" />
<path fill="#ffffff" opacity="1.00" d=" M 827.28 264.23 C 834.42 264.23 841.56 264.23 848.71 264.23 C 848.70 265.44 848.70 266.65 848.71 267.87 C 845.72 267.88 842.74 267.87 839.76 267.88 C 839.75 276.14 839.76 284.41 839.76 292.68 C 838.54 292.68 837.33 292.68 836.13 292.68 C 836.12 284.41 836.13 276.15 836.12 267.88 C 833.17 267.87 830.22 267.88 827.28 267.87 C 827.27 266.65 827.27 265.44 827.28 264.23 Z" />
<path fill="#ffffff" opacity="1.00" d=" M 919.07 264.21 C 920.16 264.23 921.26 264.25 922.38 264.28 C 922.35 273.74 922.36 283.20 922.37 292.67 C 921.26 292.67 920.15 292.68 919.07 292.69 C 919.05 283.20 919.04 273.70 919.07 264.21 Z" />
<path fill="#ffffff" opacity="1.00" d=" M 965.53 264.20 C 966.41 264.20 968.15 264.20 969.03 264.19 C 971.86 268.10 974.67 272.02 977.47 275.96 C 980.26 272.02 983.07 268.09 985.92 264.19 C 986.74 264.19 988.38 264.20 989.19 264.21 C 989.20 273.68 989.17 283.15 989.21 292.63 C 988.02 292.65 986.84 292.67 985.67 292.67 C 985.67 285.32 985.67 277.96 985.67 270.61 C 982.95 274.28 980.27 277.97 977.55 281.63 C 974.77 278.00 972.10 274.29 969.37 270.62 C 969.36 277.96 969.37 285.31 969.37 292.66 C 968.08 292.66 966.79 292.66 965.53 292.66 C 965.53 283.17 965.52 273.69 965.53 264.20 Z" />
<path fill="#ffffff" opacity="1.00" d=" M 553.02 264.20 C 553.84 264.20 555.50 264.20 556.32 264.20 C 556.32 268.10 556.38 271.99 556.22 275.89 C 557.98 274.77 559.77 273.16 562.02 273.48 C 564.77 273.69 566.56 276.36 566.86 278.91 C 567.35 283.50 566.99 288.13 567.09 292.73 C 566.23 292.73 564.53 292.73 563.67 292.73 C 563.63 288.81 563.81 284.88 563.61 280.96 C 563.56 279.21 562.89 277.11 560.98 276.63 C 558.98 276.35 557.69 278.03 556.30 279.13 C 556.34 283.64 556.32 288.15 556.32 292.66 C 555.50 292.66 553.84 292.67 553.02 292.67 C 553.02 283.18 553.02 273.69 553.02 264.20 Z" />
<path fill="#ffffff" opacity="1.00" d=" M 1016.80 264.23 C 1017.63 264.23 1019.28 264.23 1020.10 264.23 C 1020.11 273.72 1020.10 283.20 1020.11 292.68 C 1019.28 292.68 1017.63 292.68 1016.80 292.68 C 1016.79 283.20 1016.80 273.72 1016.80 264.23 Z" />
<path fill="#ffffff" opacity="1.00" d=" M 941.23 266.19 C 943.50 265.22 945.20 269.14 943.13 270.31 C 940.79 272.17 938.72 267.45 941.23 266.19 Z" />
<path fill="#ffffff" opacity="1.00" d=" M 672.94 269.35 C 676.18 269.36 679.43 269.36 682.68 269.38 C 682.66 269.83 682.63 270.74 682.61 271.19 C 679.41 271.19 676.22 271.18 673.04 271.20 C 673.01 270.74 672.96 269.81 672.94 269.35 Z" />
<path fill="#ffffff" opacity="1.00" d=" M 848.34 269.38 C 851.60 269.36 854.86 269.36 858.13 269.35 C 858.08 269.82 857.98 270.75 857.93 271.21 C 854.75 271.18 851.58 271.18 848.41 271.19 C 848.40 270.74 848.36 269.83 848.34 269.38 Z" />
<path fill="#ffffff" opacity="1.00" d=" M 485.22 277.29 C 487.22 273.24 493.42 272.03 496.58 275.40 C 498.72 277.65 498.69 280.93 499.03 283.82 C 494.99 283.89 490.95 283.85 486.91 283.89 C 487.78 285.64 488.09 288.05 490.08 288.95 C 493.00 290.54 496.13 288.77 498.75 287.40 C 498.69 288.54 498.64 289.68 498.60 290.83 C 495.49 292.63 491.42 293.88 488.12 291.82 C 483.47 288.82 482.78 281.91 485.22 277.29 M 487.22 281.28 C 490.21 281.35 493.21 281.34 496.21 281.28 C 495.51 279.29 494.66 276.48 491.98 276.75 C 489.21 276.46 488.09 279.21 487.22 281.28 Z" />
<path fill="#ffffff" opacity="1.00" d=" M 572.71 275.65 C 575.74 272.97 581.51 272.23 583.76 276.24 C 585.16 280.73 584.18 285.56 584.49 290.19 C 585.34 289.87 586.19 289.55 587.05 289.23 C 586.92 289.93 586.67 291.35 586.54 292.06 C 584.50 292.89 582.33 293.11 580.56 291.57 C 578.80 292.18 576.91 293.39 575.00 292.63 C 571.94 291.50 571.45 286.84 573.78 284.76 C 575.96 282.88 578.85 282.20 581.48 281.18 C 580.81 279.74 581.03 277.31 578.99 277.08 C 576.51 276.51 574.51 278.40 572.67 279.71 C 572.68 278.69 572.70 276.66 572.71 275.65 M 576.16 288.79 C 577.00 291.28 579.68 289.83 581.28 289.04 C 581.27 287.10 581.25 285.15 581.23 283.21 C 579.14 284.41 574.97 285.54 576.16 288.79 Z" />
<path fill="#ffffff" opacity="1.00" d=" M 591.81 274.13 C 592.68 274.13 594.42 274.14 595.29 274.14 C 595.22 275.55 595.14 276.96 595.07 278.38 C 596.30 276.90 597.27 274.98 599.11 274.18 C 600.96 273.46 602.62 274.95 604.21 275.67 C 603.62 276.74 603.03 277.81 602.45 278.89 C 600.67 277.86 598.18 276.28 596.59 278.52 C 593.85 282.63 595.62 288.02 595.13 292.66 C 594.31 292.66 592.65 292.66 591.82 292.66 C 591.81 286.49 591.83 280.31 591.81 274.13 Z" />
<path fill="#ffffff" opacity="1.00" d=" M 607.92 277.86 C 609.54 273.96 614.94 272.03 618.45 274.60 C 621.36 276.70 621.57 280.58 622.02 283.82 C 617.97 283.89 613.93 283.85 609.88 283.90 C 610.78 285.65 611.12 288.08 613.14 288.98 C 616.05 290.51 619.15 288.76 621.75 287.40 C 621.69 288.54 621.65 289.68 621.61 290.83 C 618.51 292.62 614.47 293.87 611.18 291.85 C 606.64 289.00 605.89 282.46 607.92 277.86 M 609.88 281.27 C 612.88 281.35 615.88 281.35 618.89 281.27 C 618.16 279.45 617.55 276.70 615.05 276.78 C 612.14 276.24 610.76 279.07 609.88 281.27 Z" />
<path fill="#ffffff" opacity="1.00" d=" M 672.80 275.64 C 675.91 272.74 682.33 272.27 684.10 276.86 C 685.04 281.23 684.34 285.78 684.59 290.23 C 685.21 289.97 686.45 289.44 687.07 289.17 C 686.97 289.89 686.77 291.32 686.67 292.04 C 684.66 292.88 682.44 293.13 680.70 291.58 C 678.91 292.17 677.01 293.38 675.10 292.63 C 671.79 291.42 671.51 286.19 674.37 284.33 C 676.53 282.79 679.13 282.10 681.58 281.17 C 680.89 279.70 681.05 277.16 678.92 277.05 C 676.49 276.60 674.58 278.44 672.78 279.72 C 672.78 278.70 672.79 276.66 672.80 275.64 M 676.14 288.86 C 677.07 291.27 679.69 289.82 681.26 289.03 C 681.24 287.09 681.22 285.15 681.21 283.21 C 679.08 284.42 674.92 285.57 676.14 288.86 Z" />
<path fill="#ffffff" opacity="1.00" d=" M 691.48 273.94 C 692.32 273.94 693.98 273.93 694.81 273.93 C 694.79 274.50 694.74 275.62 694.71 276.18 C 696.60 274.95 698.62 273.31 701.06 273.85 C 703.69 274.29 705.18 276.96 705.40 279.42 C 705.75 283.85 705.47 288.29 705.55 292.73 C 704.41 292.73 703.27 292.73 702.14 292.74 C 701.87 287.96 702.84 282.97 701.47 278.34 C 699.86 274.76 694.32 277.54 694.81 280.90 C 694.70 284.82 694.82 288.75 694.79 292.67 C 693.68 292.66 692.58 292.66 691.48 292.66 C 691.49 286.42 691.49 280.18 691.48 273.94 Z" />
<path fill="#ffffff" opacity="1.00" d=" M 711.05 279.82 C 709.29 272.79 720.77 271.00 722.65 277.08 C 723.41 281.35 722.92 285.73 723.01 290.04 C 723.74 289.88 725.21 289.56 725.94 289.40 C 725.47 291.98 723.25 292.92 720.92 293.10 C 720.47 292.53 720.03 291.96 719.61 291.40 C 717.63 292.08 715.48 293.49 713.37 292.56 C 710.39 291.22 710.06 286.59 712.56 284.63 C 714.72 282.89 717.46 282.17 720.01 281.18 C 719.45 279.80 719.63 277.70 717.92 277.17 C 715.24 276.32 713.08 278.46 711.05 279.82 M 714.47 288.01 C 714.67 290.82 718.47 290.90 719.70 288.75 C 719.91 286.92 719.83 285.06 719.84 283.22 C 717.81 284.43 714.46 285.09 714.47 288.01 Z" />
<path fill="#ffffff" opacity="1.00" d=" M 729.96 273.93 C 730.80 273.93 732.48 273.94 733.32 273.94 C 733.27 274.50 733.16 275.63 733.11 276.19 C 735.11 274.87 737.35 273.18 739.91 273.93 C 742.50 274.61 743.81 277.38 743.92 279.87 C 744.20 284.15 743.97 288.44 744.03 292.73 C 743.18 292.73 741.47 292.73 740.62 292.73 C 740.57 288.78 740.75 284.83 740.55 280.88 C 740.49 279.16 739.81 277.13 737.96 276.65 C 735.94 276.30 734.64 278.05 733.24 279.14 C 733.29 283.65 733.26 288.15 733.27 292.66 C 732.44 292.66 730.79 292.66 729.96 292.67 C 729.96 286.42 729.96 280.18 729.96 273.93 Z" />
<path fill="#ffffff" opacity="1.00" d=" M 752.87 274.89 C 756.26 273.42 760.10 274.07 763.70 273.92 C 763.68 274.68 763.65 276.20 763.63 276.96 C 762.88 276.93 761.37 276.89 760.62 276.87 C 761.74 278.94 762.81 281.42 761.53 283.70 C 760.11 287.29 755.48 286.50 753.03 288.93 C 756.52 291.31 763.32 290.48 763.61 295.98 C 763.63 304.21 748.12 304.23 748.09 296.01 C 747.99 293.53 750.28 292.25 752.11 291.16 C 751.48 290.41 750.86 289.65 750.26 288.90 C 751.05 288.05 751.89 287.22 752.72 286.40 C 748.77 283.89 748.50 277.08 752.87 274.89 M 754.17 277.91 C 752.42 279.05 752.34 281.83 753.86 283.19 C 755.74 284.71 759.22 283.63 759.35 281.01 C 759.82 278.28 756.35 276.25 754.17 277.91 M 752.43 294.45 C 748.07 299.83 761.21 301.53 760.65 295.86 C 759.17 293.13 754.75 292.69 752.43 294.45 Z" />
<path fill="#ffffff" opacity="1.00" d=" M 767.67 275.65 C 770.71 272.95 776.53 272.23 778.74 276.30 C 780.09 280.77 779.14 285.57 779.45 290.18 C 780.30 289.87 781.16 289.56 782.03 289.25 C 781.89 289.94 781.63 291.34 781.49 292.03 C 779.48 292.91 777.29 293.09 775.57 291.56 C 773.63 292.27 771.41 293.58 769.40 292.38 C 766.57 290.70 766.57 285.96 769.38 284.23 C 771.50 282.77 774.04 282.09 776.44 281.18 C 775.77 279.75 775.98 277.31 773.95 277.08 C 771.46 276.51 769.47 278.42 767.61 279.71 C 767.63 278.69 767.66 276.66 767.67 275.65 M 771.13 288.93 C 772.16 291.19 774.57 289.85 776.23 289.18 C 776.21 287.19 776.20 285.20 776.19 283.21 C 774.02 284.42 769.85 285.60 771.13 288.93 Z" />
<path fill="#ffffff" opacity="1.00" d=" M 802.41 274.47 C 807.18 271.82 814.02 274.50 815.15 280.00 C 817.12 285.94 812.72 293.70 805.94 292.84 C 797.00 292.40 794.62 278.36 802.41 274.47 M 804.27 277.35 C 799.63 279.79 800.45 288.46 805.90 289.21 C 809.94 289.96 812.89 285.71 812.20 282.02 C 812.06 278.26 807.66 275.41 804.27 277.35 Z" />
<path fill="#ffffff" opacity="1.00" d=" M 848.04 275.70 C 851.06 272.75 857.38 272.26 859.27 276.68 C 860.34 281.08 859.56 285.71 859.82 290.20 C 860.49 289.94 861.83 289.43 862.50 289.18 C 862.52 292.74 858.38 293.90 856.00 291.66 C 854.15 292.16 852.23 293.35 850.29 292.63 C 847.12 291.38 846.76 286.44 849.42 284.47 C 851.61 282.84 854.30 282.12 856.82 281.16 C 856.16 279.87 856.34 277.74 854.75 277.20 C 852.14 276.29 849.91 278.32 847.99 279.75 C 848.00 278.74 848.03 276.71 848.04 275.70 M 851.17 288.78 C 851.95 291.21 854.62 289.88 856.27 289.24 C 856.26 287.22 856.25 285.21 856.24 283.21 C 854.16 284.41 849.99 285.53 851.17 288.78 Z" />
<path fill="#ffffff" opacity="1.00" d=" M 867.78 273.73 C 868.62 273.74 870.28 273.74 871.12 273.74 C 871.08 274.32 871.00 275.49 870.97 276.07 C 872.84 274.96 874.66 273.07 877.06 273.64 C 878.80 273.81 879.84 275.44 881.11 276.46 C 882.85 275.15 884.63 273.28 887.05 273.59 C 889.92 273.63 891.92 276.34 892.12 279.03 C 892.54 283.47 892.22 287.94 892.30 292.40 C 891.47 292.40 889.82 292.40 889.00 292.40 C 888.93 288.27 889.18 284.12 888.88 280.00 C 888.87 277.94 886.99 276.36 884.98 276.50 C 883.73 277.10 882.62 277.93 881.50 278.71 C 881.56 283.27 881.53 287.83 881.54 292.40 C 880.42 292.40 879.32 292.40 878.24 292.41 C 877.99 287.71 878.81 282.87 877.71 278.27 C 876.43 275.44 872.20 276.41 871.22 278.95 C 870.87 283.42 871.18 287.92 871.09 292.40 C 870.27 292.40 868.61 292.40 867.79 292.40 C 867.78 286.18 867.78 279.95 867.78 273.73 Z" />
<path fill="#ffffff" opacity="1.00" d=" M 898.97 275.69 C 902.05 272.84 908.29 272.23 910.22 276.66 C 911.29 281.08 910.50 285.71 910.77 290.22 C 911.43 289.95 912.77 289.42 913.43 289.16 C 913.51 292.76 909.33 293.89 906.94 291.66 C 905.11 292.16 903.22 293.33 901.30 292.65 C 898.08 291.45 897.70 286.45 900.40 284.51 C 902.57 282.86 905.25 282.12 907.77 281.16 C 907.11 279.67 907.17 277.08 905.00 277.03 C 902.60 276.64 900.73 278.47 898.97 279.76 C 898.97 278.74 898.97 276.71 898.97 275.69 M 902.35 288.59 C 903.02 291.23 905.89 289.90 907.54 289.13 C 907.53 287.15 907.51 285.17 907.49 283.20 C 905.48 284.41 901.47 285.41 902.35 288.59 Z" />
<path fill="#ffffff" opacity="1.00" d=" M 922.70 283.13 C 925.12 280.05 927.57 276.99 930.03 273.94 C 930.99 273.94 932.90 273.93 933.86 273.93 C 931.47 277.00 929.10 280.07 926.71 283.13 C 929.61 286.32 932.56 289.48 935.37 292.76 C 933.80 292.63 932.20 292.80 930.70 292.41 C 927.83 289.50 925.41 286.18 922.70 283.13 Z" />
<path fill="#ffffff" opacity="1.00" d=" M 940.26 273.93 C 941.37 273.96 942.49 274.01 943.62 274.07 C 943.53 280.27 943.59 286.47 943.58 292.68 C 942.46 292.68 941.36 292.68 940.27 292.69 C 940.26 286.43 940.27 280.18 940.26 273.93 Z" />
<path fill="#ffffff" opacity="1.00" d=" M 996.73 275.65 C 999.87 272.67 1006.49 272.29 1008.10 277.05 C 1008.90 281.38 1008.32 285.82 1008.52 290.20 C 1009.35 289.87 1010.20 289.54 1011.05 289.22 C 1010.94 289.92 1010.70 291.32 1010.59 292.02 C 1008.54 292.92 1006.37 293.11 1004.59 291.58 C 1002.81 292.18 1000.92 293.39 999.02 292.62 C 995.96 291.51 995.45 286.85 997.82 284.80 C 1000.00 282.91 1002.88 282.19 1005.51 281.16 C 1004.82 279.71 1005.01 277.22 1002.92 277.06 C 1000.46 276.57 998.51 278.42 996.69 279.72 C 996.70 278.70 996.72 276.66 996.73 275.65 M 999.92 288.89 C 1000.76 291.23 1003.42 289.93 1004.98 289.12 C 1004.96 287.15 1004.93 285.18 1004.91 283.22 C 1002.79 284.41 998.55 285.63 999.92 288.89 Z" />
<path fill="#ffffff" opacity="1.00" d=" M 1027.31 274.04 C 1028.73 273.97 1030.16 273.92 1031.61 273.91 C 1029.24 276.99 1026.85 280.06 1024.46 283.13 C 1027.35 286.29 1030.23 289.46 1033.09 292.65 C 1031.54 292.66 1030.01 292.66 1028.49 292.66 C 1025.72 289.47 1022.90 286.32 1020.14 283.14 C 1022.50 280.08 1024.95 277.09 1027.31 274.04 Z" />
<path fill="#ffffff" opacity="1.00" d=" M 1036.73 275.65 C 1039.96 273.00 1046.14 272.49 1048.05 276.94 C 1049.11 281.33 1048.32 285.94 1048.60 290.42 C 1049.28 290.15 1050.65 289.62 1051.33 289.36 C 1051.41 293.00 1047.06 294.08 1044.69 291.87 C 1042.87 292.44 1040.95 293.62 1039.03 292.84 C 1035.79 291.48 1035.52 286.36 1038.43 284.51 C 1040.58 283.04 1043.10 282.23 1045.48 281.19 C 1044.80 279.77 1045.03 277.36 1043.03 277.09 C 1040.53 276.49 1038.51 278.40 1036.65 279.71 C 1036.67 278.70 1036.71 276.66 1036.73 275.65 M 1040.83 285.81 C 1039.37 287.17 1040.01 289.96 1042.06 290.34 C 1043.18 289.98 1044.29 289.55 1045.38 289.04 C 1045.36 287.10 1045.34 285.15 1045.32 283.20 C 1043.79 284.03 1042.15 284.67 1040.83 285.81 Z" />
<path fill="#ffffff" opacity="1.00" d=" M 1056.89 273.93 C 1057.71 273.93 1059.36 273.93 1060.19 273.93 C 1060.32 278.49 1059.83 283.08 1060.47 287.61 C 1061.40 291.46 1067.91 289.65 1067.51 286.04 C 1067.62 282.00 1067.49 277.97 1067.54 273.93 C 1068.36 273.93 1070.02 273.93 1070.84 273.94 C 1070.84 280.09 1070.84 286.25 1070.84 292.41 C 1070.00 292.40 1068.32 292.39 1067.48 292.38 C 1067.54 291.87 1067.65 290.84 1067.70 290.32 C 1065.97 291.48 1064.24 293.22 1061.98 292.84 C 1059.07 292.65 1057.12 289.82 1057.02 287.09 C 1056.68 282.71 1056.95 278.32 1056.89 273.93 Z" />
<path fill="#ffffff" opacity="1.00" d=" M 1079.05 274.12 C 1079.91 274.13 1081.64 274.14 1082.51 274.14 C 1082.45 275.55 1082.39 276.97 1082.34 278.39 C 1083.51 276.93 1084.45 275.11 1086.19 274.24 C 1088.05 273.38 1089.79 274.93 1091.43 275.64 C 1090.84 276.72 1090.27 277.81 1089.71 278.90 C 1087.88 277.75 1085.15 276.29 1083.65 278.73 C 1081.18 282.89 1082.81 288.08 1082.36 292.66 C 1081.53 292.66 1079.88 292.66 1079.05 292.66 C 1079.05 286.48 1079.05 280.30 1079.05 274.12 Z" />
<path fill="#ffffff" opacity="1.00" d=" M 1095.77 275.63 C 1098.80 272.98 1104.63 272.19 1106.84 276.24 C 1108.17 280.72 1107.25 285.53 1107.50 290.16 C 1108.35 289.85 1109.20 289.54 1110.07 289.23 C 1109.96 289.94 1109.75 291.36 1109.64 292.07 C 1107.72 292.88 1105.59 293.13 1103.91 291.66 C 1101.98 292.21 1099.85 293.49 1097.87 292.47 C 1095.00 290.97 1094.80 286.34 1097.38 284.45 C 1099.51 282.89 1102.09 282.15 1104.53 281.17 C 1103.86 279.71 1104.00 277.19 1101.90 277.06 C 1099.46 276.57 1097.54 278.45 1095.72 279.71 C 1095.73 278.69 1095.75 276.65 1095.77 275.63 M 1099.10 288.98 C 1100.22 291.19 1102.64 289.85 1104.23 289.00 C 1104.20 287.07 1104.18 285.14 1104.17 283.22 C 1101.96 284.43 1097.84 285.62 1099.10 288.98 Z" />
<path fill="#ffffff" opacity="1.00" d=" M 1116.15 273.93 C 1116.97 273.93 1118.63 273.93 1119.45 273.93 C 1119.57 278.45 1119.13 283.00 1119.71 287.49 C 1120.49 291.44 1127.17 289.74 1126.77 286.08 C 1126.91 282.04 1126.75 277.98 1126.80 273.93 C 1127.63 273.93 1129.28 273.93 1130.11 273.93 C 1130.10 280.16 1130.12 286.39 1130.09 292.63 C 1128.32 292.78 1127.09 292.13 1126.40 290.66 C 1124.83 291.85 1123.09 293.32 1120.97 292.80 C 1118.17 292.49 1116.41 289.72 1116.28 287.09 C 1115.96 282.71 1116.21 278.32 1116.15 273.93 Z" />
<path fill="#ffffff" opacity="1.00" d=" M 465.51 314.92 C 687.79 314.92 910.07 314.92 1132.35 314.92 C 1132.33 316.20 1132.33 317.49 1132.34 318.77 C 910.06 318.77 687.78 318.79 465.50 318.76 C 465.50 317.80 465.51 315.88 465.51 314.92 Z" />
<path fill="#ffffff" opacity="1.00" d=" M 466.04 332.86 C 467.99 332.86 469.95 332.86 471.91 332.87 C 478.88 341.13 485.85 349.40 492.80 357.68 C 492.79 349.41 492.79 341.14 492.80 332.87 C 495.10 332.86 497.41 332.86 499.73 332.87 C 499.72 344.62 499.72 356.38 499.73 368.13 C 497.77 368.13 495.82 368.13 493.88 368.14 C 486.79 359.78 479.77 351.37 472.66 343.04 C 472.63 351.40 472.65 359.77 472.65 368.13 C 470.44 368.13 468.24 368.13 466.04 368.14 C 466.04 356.38 466.04 344.62 466.04 332.86 Z" />
<path fill="#ffffff" opacity="1.00" d=" M 535.44 368.18 C 535.44 356.41 535.39 344.63 535.47 332.86 C 543.02 332.92 550.58 332.87 558.14 332.89 C 558.13 334.67 558.13 336.45 558.14 338.23 C 552.77 338.24 547.41 338.24 542.04 338.23 C 542.04 341.30 542.04 344.36 542.04 347.43 C 547.23 347.43 552.42 347.43 557.61 347.43 C 557.60 349.21 557.60 350.99 557.61 352.78 C 552.42 352.78 547.23 352.78 542.04 352.78 C 542.04 356.20 542.04 359.62 542.04 363.04 C 547.59 363.04 553.13 363.03 558.67 363.04 C 558.67 364.75 558.67 366.46 558.68 368.17 C 550.93 368.18 543.18 368.17 535.44 368.18 Z" />
<path fill="#ffffff" opacity="1.00" d=" M 589.26 332.87 C 591.63 332.86 594.00 332.86 596.38 332.86 C 599.32 340.01 602.02 347.27 605.08 354.39 C 608.14 347.23 611.16 340.04 614.20 332.87 C 616.15 332.86 618.10 332.86 620.06 332.87 C 623.22 340.18 626.40 347.49 629.55 354.81 C 632.42 347.50 635.31 340.19 638.18 332.87 C 640.49 332.86 642.80 332.86 645.11 332.87 C 640.26 344.80 635.37 356.71 630.53 368.65 C 629.97 368.66 628.85 368.69 628.30 368.70 C 624.61 359.91 620.99 351.09 617.30 342.30 C 613.57 351.05 609.82 359.80 606.18 368.59 C 605.36 368.62 604.55 368.65 603.75 368.69 C 598.96 356.73 594.08 344.81 589.26 332.87 Z" />
<path fill="#ffffff" opacity="1.00" d=" M 717.60 332.87 C 727.96 332.87 738.33 332.86 748.70 332.87 C 741.84 342.93 734.91 352.94 728.05 363.00 C 735.01 363.00 741.97 363.00 748.94 363.00 C 748.93 364.71 748.93 366.42 748.93 368.13 C 738.06 368.13 727.20 368.14 716.33 368.13 C 723.18 358.14 730.02 348.16 736.90 338.20 C 730.47 338.20 724.03 338.20 717.60 338.20 C 717.58 336.42 717.59 334.64 717.60 332.87 Z" />
<path fill="#ffffff" opacity="1.00" d=" M 782.08 332.89 C 789.65 332.88 797.22 332.88 804.79 332.89 C 804.79 334.67 804.78 336.45 804.79 338.23 C 799.43 338.24 794.06 338.24 788.70 338.23 C 788.69 341.29 788.69 344.36 788.70 347.43 C 793.88 347.43 799.07 347.42 804.26 347.43 C 804.25 349.21 804.25 350.99 804.26 352.78 C 799.07 352.78 793.88 352.78 788.70 352.78 C 788.69 356.20 788.69 359.62 788.70 363.04 C 794.24 363.04 799.78 363.04 805.32 363.04 C 805.32 364.75 805.31 366.46 805.32 368.18 C 797.57 368.18 789.83 368.18 782.08 368.18 C 782.08 356.41 782.08 344.65 782.08 332.89 Z" />
<path fill="#ffffff" opacity="1.00" d=" M 850.34 332.92 C 852.66 332.87 854.99 332.87 857.33 332.85 C 862.52 344.71 867.71 356.58 872.89 368.46 C 870.50 368.46 868.13 368.46 865.76 368.47 C 864.55 365.58 863.34 362.69 862.13 359.80 C 856.87 359.80 851.61 359.79 846.35 359.81 C 845.25 362.69 844.15 365.58 843.06 368.47 C 840.67 368.46 838.29 368.46 835.92 368.46 C 840.70 356.61 845.62 344.81 850.34 332.92 M 853.82 340.97 C 851.94 345.36 850.44 349.89 848.71 354.33 C 852.43 354.33 856.16 354.33 859.89 354.33 C 857.71 349.99 856.70 344.78 853.82 340.97 Z" />
<path fill="#ffffff" opacity="1.00" d=" M 905.31 332.89 C 907.61 332.88 909.91 332.88 912.23 332.89 C 912.24 342.94 912.23 352.99 912.24 363.04 C 917.92 363.04 923.60 363.04 929.29 363.04 C 929.28 364.75 929.28 366.46 929.29 368.18 C 921.29 368.18 913.30 368.18 905.30 368.17 C 905.31 356.41 905.30 344.65 905.31 332.89 Z" />
<path fill="#ffffff" opacity="1.00" d=" M 972.89 332.86 C 975.19 332.86 977.50 332.86 979.82 332.87 C 985.00 344.74 990.19 356.59 995.37 368.46 C 992.98 368.46 990.60 368.47 988.23 368.47 C 987.03 365.54 985.81 362.63 984.52 359.75 C 979.28 359.84 974.06 359.79 968.83 359.80 C 967.72 362.70 966.62 365.59 965.50 368.48 C 963.12 368.47 960.75 368.46 958.39 368.45 C 963.22 356.59 968.05 344.73 972.89 332.86 M 970.86 354.33 C 974.58 354.33 978.31 354.33 982.05 354.33 C 980.11 349.63 978.16 344.93 976.19 340.25 C 974.38 344.93 972.63 349.63 970.86 354.33 Z" />
<path fill="#ffffff" opacity="1.00" d=" M 1027.53 367.91 C 1027.36 356.22 1027.51 344.53 1027.47 332.85 C 1029.55 332.86 1031.64 332.87 1033.73 332.90 C 1040.60 341.22 1047.63 349.40 1054.54 357.68 C 1054.53 349.41 1054.53 341.14 1054.53 332.87 C 1056.72 332.86 1058.93 332.86 1061.14 332.87 C 1061.14 344.62 1061.14 356.38 1061.14 368.13 C 1059.18 368.13 1057.22 368.13 1055.28 368.13 C 1048.25 359.77 1041.25 351.38 1034.19 343.05 C 1034.16 351.42 1034.18 359.79 1034.18 368.16 C 1031.95 368.12 1029.71 368.29 1027.53 367.91 Z" />
<path fill="#ffffff" opacity="1.00" d=" M 1097.17 332.74 C 1106.15 333.28 1116.49 330.75 1124.16 336.76 C 1133.26 343.10 1133.32 358.78 1123.79 364.74 C 1116.01 370.26 1106.03 367.79 1097.17 368.33 C 1097.17 356.47 1097.17 344.60 1097.17 332.74 M 1103.78 337.86 C 1103.77 346.13 1103.78 354.39 1103.78 362.65 C 1108.69 362.45 1114.22 363.59 1118.55 360.63 C 1125.33 356.18 1125.44 344.82 1118.81 340.19 C 1114.46 337.05 1108.79 338.04 1103.78 337.86 Z" />
</g>
</svg>
